<svg width="150" height="84" fill="none" xmlns="http://www.w3.org/2000/svg"><path class="first" d="M5.947 0L1 4h49l-4.712-4H5.948z" fill="#66EDEE"/><path class="second" d="M5.95 42.457h.5-.5zM.737 4.237v33.141h1V4.238h-1zm0 33.141v25.159h1V37.378h-1zm0 25.159v.098h1v-.098h-1zm.076.282l.069.07.71-.705-.07-.07-.71.706zm.069.07l4.646 4.678.71-.704-4.646-4.679-.71.705zm-.08-25.245l.068.075.733-.68-.069-.075-.733.68zm.068.075l4.716 5.078.732-.68-4.715-5.079-.733.68zm4.582 4.5v.238h1v-.237h-1zm0 .238V84h1V42.457h-1zM1 4.5h149v-1H1v1zM149 4v80h1V4h-1zM6 84h144v-1H6v1z" fill="#059097"/></svg>