<svg width="1342" height="416" viewBox="0 0 1342 416" fill="none" xmlns="http://www.w3.org/2000/svg">
<g filter="url(#filter0_d_26_1090)">
<path d="M138 213L143 208L148 213" stroke="#5EEBF0"/>
</g>
<g filter="url(#filter1_d_26_1090)">
<path d="M1270 213L1265 208L1260 213" stroke="#5EEBF0"/>
</g>
<g filter="url(#filter2_d_26_1090)">
<path d="M138 271L143 276L148 271" stroke="#5EEBF0"/>
</g>
<g filter="url(#filter3_d_26_1090)">
<path d="M1270 271L1265 276L1260 271" stroke="#5EEBF0"/>
</g>
<g filter="url(#filter4_d_26_1090)">
<path d="M138 204L143 199L148 204" stroke="#5EEBF0"/>
</g>
<g filter="url(#filter5_d_26_1090)">
<path d="M1270 204L1265 199L1260 204" stroke="#5EEBF0"/>
</g>
<g filter="url(#filter6_d_26_1090)">
<path d="M138 280L143 285L148 280" stroke="#5EEBF0"/>
</g>
<g filter="url(#filter7_d_26_1090)">
<path d="M1270 280L1265 285L1260 280" stroke="#5EEBF0"/>
</g>
<g filter="url(#filter8_d_26_1090)">
<path d="M138 196L143 191L148 196" stroke="#5EEBF0"/>
</g>
<g filter="url(#filter9_d_26_1090)">
<path d="M1270 196L1265 191L1260 196" stroke="#5EEBF0"/>
</g>
<g filter="url(#filter10_d_26_1090)">
<path d="M138 287L143 293L148 287" stroke="#5EEBF0"/>
</g>
<g filter="url(#filter11_d_26_1090)">
<path d="M1270 287L1265 293L1260 287" stroke="#5EEBF0"/>
</g>
<g filter="url(#filter12_d_26_1090)">
<path d="M115 100H126V223.158L116.1 230" stroke="#5EEBF0"/>
</g>
<g filter="url(#filter13_d_26_1090)">
<path d="M1293 100H1283V223.158L1292 230" stroke="#5EEBF0"/>
</g>
<g filter="url(#filter14_d_26_1090)">
<path d="M115 384H126V259.895L116.1 253" stroke="#5EEBF0"/>
</g>
<g filter="url(#filter15_d_26_1090)">
<path d="M1293 384H1283V259.895L1292 253" stroke="#5EEBF0"/>
</g>
<g filter="url(#filter16_d_26_1090)">
<path d="M48 256H56V356H48" stroke="#5EEBF0"/>
</g>
<g filter="url(#filter17_d_26_1090)">
<rect x="54" y="129" width="3" height="101" rx="1.5" fill="#5EEBF0" fill-opacity="0.5" shape-rendering="crispEdges"/>
</g>
<g filter="url(#filter18_d_26_1090)">
<path d="M54 173H57V228.5C57 229.328 56.3284 230 55.5 230C54.6716 230 54 229.328 54 228.5V173Z" fill="#5EEBF0"/>
</g>
<g filter="url(#filter19_d_26_1090)">
<path d="M222.9 16V8.7H224.1L226.33 14.95C226.317 14.7833 226.3 14.58 226.28 14.34C226.267 14.0933 226.253 13.8367 226.24 13.57C226.233 13.2967 226.23 13.04 226.23 12.8V8.7H227.1V16H225.9L223.68 9.75C223.693 9.91 223.707 10.1133 223.72 10.36C223.733 10.6 223.743 10.8567 223.75 11.13C223.763 11.3967 223.77 11.6533 223.77 11.9V16H222.9ZM228.496 16L230.396 8.7H231.606L233.496 16H232.586L232.106 14.06H229.896L229.416 16H228.496ZM230.076 13.3H231.916L231.356 11.05C231.249 10.6233 231.166 10.2667 231.106 9.98C231.046 9.69333 231.009 9.50667 230.996 9.42C230.983 9.50667 230.946 9.69333 230.886 9.98C230.826 10.2667 230.743 10.62 230.636 11.04L230.076 13.3ZM236.372 16L234.492 8.7H235.422L236.662 13.66C236.749 14.0067 236.822 14.33 236.882 14.63C236.942 14.9233 236.986 15.1467 237.012 15.3C237.039 15.1467 237.079 14.9233 237.132 14.63C237.192 14.33 237.266 14.0067 237.352 13.66L238.582 8.7H239.492L237.602 16H236.372ZM246.884 16V15.18H248.864V9.45L246.884 10.93V9.93L248.534 8.7H249.764V15.18H251.384V16H246.884Z" fill="#5EEBF0"/>
</g>
<g filter="url(#filter20_d_26_1090)">
<path d="M131.92 240V232.7H132.82V235.83H133.9L135.52 232.7H136.5L134.69 236.21L136.6 240H135.57L133.87 236.62H132.82V240H131.92ZM137.756 240V232.7H138.936L139.696 235.06C139.769 235.273 139.836 235.487 139.896 235.7C139.956 235.907 139.999 236.067 140.026 236.18C140.059 236.067 140.103 235.907 140.156 235.7C140.209 235.487 140.269 235.27 140.336 235.05L141.056 232.7H142.236V240H141.356V237.35C141.356 237.057 141.366 236.723 141.386 236.35C141.406 235.977 141.433 235.597 141.466 235.21C141.499 234.817 141.533 234.443 141.566 234.09C141.606 233.73 141.639 233.417 141.666 233.15L140.486 236.8H139.536L138.346 233.15C138.379 233.41 138.413 233.713 138.446 234.06C138.479 234.4 138.509 234.763 138.536 235.15C138.563 235.53 138.586 235.91 138.606 236.29C138.626 236.67 138.636 237.023 138.636 237.35V240H137.756ZM143.742 241.1L147.292 231.7H148.242L144.692 241.1H143.742ZM152.028 240.1C151.548 240.1 151.135 240.02 150.788 239.86C150.448 239.7 150.185 239.47 149.998 239.17C149.812 238.87 149.715 238.513 149.708 238.1H150.608C150.608 238.467 150.732 238.757 150.978 238.97C151.232 239.183 151.582 239.29 152.028 239.29C152.448 239.29 152.775 239.187 153.008 238.98C153.248 238.773 153.368 238.487 153.368 238.12C153.368 237.827 153.288 237.57 153.128 237.35C152.975 237.13 152.752 236.977 152.458 236.89L151.468 236.58C150.968 236.427 150.582 236.17 150.308 235.81C150.042 235.45 149.908 235.027 149.908 234.54C149.908 234.147 149.995 233.807 150.168 233.52C150.348 233.227 150.598 233 150.918 232.84C151.238 232.673 151.615 232.59 152.048 232.59C152.688 232.59 153.202 232.77 153.588 233.13C153.975 233.483 154.172 233.957 154.178 234.55H153.278C153.278 234.19 153.168 233.91 152.948 233.71C152.735 233.503 152.432 233.4 152.038 233.4C151.652 233.4 151.348 233.493 151.128 233.68C150.915 233.867 150.808 234.127 150.808 234.46C150.808 234.76 150.888 235.02 151.048 235.24C151.208 235.46 151.438 235.617 151.738 235.71L152.738 236.03C153.225 236.183 153.602 236.443 153.868 236.81C154.135 237.177 154.268 237.607 154.268 238.1C154.268 238.5 154.175 238.85 153.988 239.15C153.802 239.45 153.538 239.683 153.198 239.85C152.865 240.017 152.475 240.1 152.028 240.1Z" fill="#5EEBF0"/>
</g>
<g filter="url(#filter21_d_26_1090)">
<path d="M1231.92 240V232.7H1232.82V235.83H1233.9L1235.52 232.7H1236.5L1234.69 236.21L1236.6 240H1235.57L1233.87 236.62H1232.82V240H1231.92ZM1237.76 240V232.7H1238.94L1239.7 235.06C1239.77 235.273 1239.84 235.487 1239.9 235.7C1239.96 235.907 1240 236.067 1240.03 236.18C1240.06 236.067 1240.1 235.907 1240.16 235.7C1240.21 235.487 1240.27 235.27 1240.34 235.05L1241.06 232.7H1242.24V240H1241.36V237.35C1241.36 237.057 1241.37 236.723 1241.39 236.35C1241.41 235.977 1241.43 235.597 1241.47 235.21C1241.5 234.817 1241.53 234.443 1241.57 234.09C1241.61 233.73 1241.64 233.417 1241.67 233.15L1240.49 236.8H1239.54L1238.35 233.15C1238.38 233.41 1238.41 233.713 1238.45 234.06C1238.48 234.4 1238.51 234.763 1238.54 235.15C1238.56 235.53 1238.59 235.91 1238.61 236.29C1238.63 236.67 1238.64 237.023 1238.64 237.35V240H1237.76ZM1243.74 241.1L1247.29 231.7H1248.24L1244.69 241.1H1243.74ZM1252.03 240.1C1251.55 240.1 1251.13 240.02 1250.79 239.86C1250.45 239.7 1250.18 239.47 1250 239.17C1249.81 238.87 1249.71 238.513 1249.71 238.1H1250.61C1250.61 238.467 1250.73 238.757 1250.98 238.97C1251.23 239.183 1251.58 239.29 1252.03 239.29C1252.45 239.29 1252.77 239.187 1253.01 238.98C1253.25 238.773 1253.37 238.487 1253.37 238.12C1253.37 237.827 1253.29 237.57 1253.13 237.35C1252.97 237.13 1252.75 236.977 1252.46 236.89L1251.47 236.58C1250.97 236.427 1250.58 236.17 1250.31 235.81C1250.04 235.45 1249.91 235.027 1249.91 234.54C1249.91 234.147 1249.99 233.807 1250.17 233.52C1250.35 233.227 1250.6 233 1250.92 232.84C1251.24 232.673 1251.61 232.59 1252.05 232.59C1252.69 232.59 1253.2 232.77 1253.59 233.13C1253.97 233.483 1254.17 233.957 1254.18 234.55H1253.28C1253.28 234.19 1253.17 233.91 1252.95 233.71C1252.73 233.503 1252.43 233.4 1252.04 233.4C1251.65 233.4 1251.35 233.493 1251.13 233.68C1250.91 233.867 1250.81 234.127 1250.81 234.46C1250.81 234.76 1250.89 235.02 1251.05 235.24C1251.21 235.46 1251.44 235.617 1251.74 235.71L1252.74 236.03C1253.22 236.183 1253.6 236.443 1253.87 236.81C1254.13 237.177 1254.27 237.607 1254.27 238.1C1254.27 238.5 1254.17 238.85 1253.99 239.15C1253.8 239.45 1253.54 239.683 1253.2 239.85C1252.86 240.017 1252.47 240.1 1252.03 240.1Z" fill="#5EEBF0"/>
</g>
<g filter="url(#filter22_d_26_1090)">
<path d="M66.9 240V239.18H68.88V233.45L66.9 234.93V233.93L68.55 232.7H69.78V239.18H71.4V240H66.9ZM74.9961 240.1C74.5494 240.1 74.1594 240.013 73.8261 239.84C73.4994 239.66 73.2461 239.41 73.0661 239.09C72.8861 238.763 72.7961 238.383 72.7961 237.95V234.75C72.7961 234.31 72.8861 233.93 73.0661 233.61C73.2461 233.29 73.4994 233.043 73.8261 232.87C74.1594 232.69 74.5494 232.6 74.9961 232.6C75.4494 232.6 75.8394 232.69 76.1661 232.87C76.4928 233.043 76.7461 233.29 76.9261 233.61C77.1061 233.93 77.1961 234.31 77.1961 234.75V237.95C77.1961 238.383 77.1061 238.763 76.9261 239.09C76.7461 239.41 76.4894 239.66 76.1561 239.84C75.8294 240.013 75.4428 240.1 74.9961 240.1ZM74.9961 239.33C75.3961 239.33 75.7161 239.203 75.9561 238.95C76.2028 238.69 76.3261 238.357 76.3261 237.95V234.75C76.3261 234.343 76.2028 234.013 75.9561 233.76C75.7161 233.5 75.3961 233.37 74.9961 233.37C74.5961 233.37 74.2728 233.5 74.0261 233.76C73.7861 234.013 73.6661 234.343 73.6661 234.75V237.95C73.6661 238.357 73.7861 238.69 74.0261 238.95C74.2728 239.203 74.5961 239.33 74.9961 239.33ZM74.9961 236.94C74.8161 236.94 74.6694 236.883 74.5561 236.77C74.4494 236.657 74.3961 236.507 74.3961 236.32C74.3961 236.14 74.4494 235.997 74.5561 235.89C74.6694 235.777 74.8161 235.72 74.9961 235.72C75.1761 235.72 75.3194 235.777 75.4261 235.89C75.5394 235.997 75.5961 236.14 75.5961 236.32C75.5961 236.507 75.5394 236.657 75.4261 236.77C75.3194 236.883 75.1761 236.94 74.9961 236.94ZM80.9922 240.1C80.7389 240.1 80.5355 240.027 80.3822 239.88C80.2355 239.733 80.1622 239.537 80.1622 239.29C80.1622 239.03 80.2355 238.823 80.3822 238.67C80.5355 238.517 80.7389 238.44 80.9922 238.44C81.2455 238.44 81.4455 238.517 81.5922 238.67C81.7455 238.823 81.8222 239.03 81.8222 239.29C81.8222 239.537 81.7455 239.733 81.5922 239.88C81.4455 240.027 81.2455 240.1 80.9922 240.1ZM88.0883 240V238.4H84.7883V236.99L87.6783 232.7H88.6583L85.6883 237.18V237.58H88.0883V235.8H88.9883V240H88.0883Z" fill="#5EEBF0"/>
</g>
<g filter="url(#filter23_d_26_1090)">
<path d="M1296.89 240.1C1296.45 240.1 1296.06 240.013 1295.73 239.84C1295.4 239.66 1295.15 239.413 1294.97 239.1C1294.79 238.787 1294.7 238.42 1294.7 238H1295.6C1295.6 238.407 1295.71 238.727 1295.94 238.96C1296.17 239.187 1296.49 239.3 1296.9 239.3C1297.31 239.3 1297.63 239.18 1297.86 238.94C1298.09 238.7 1298.2 238.387 1298.2 238V237.48C1298.2 237.067 1298.09 236.747 1297.86 236.52C1297.63 236.293 1297.31 236.18 1296.9 236.18H1296.15V235.28L1297.96 233.52H1295V232.7H1298.87V233.6L1296.92 235.49V235.38C1297.59 235.38 1298.12 235.57 1298.51 235.95C1298.9 236.33 1299.1 236.84 1299.1 237.48V238C1299.1 238.42 1299.01 238.787 1298.82 239.1C1298.64 239.413 1298.38 239.66 1298.05 239.84C1297.72 240.013 1297.33 240.1 1296.89 240.1ZM1303 240.1C1302.55 240.1 1302.16 240.013 1301.83 239.84C1301.5 239.66 1301.25 239.41 1301.07 239.09C1300.89 238.763 1300.8 238.383 1300.8 237.95V234.75C1300.8 234.31 1300.89 233.93 1301.07 233.61C1301.25 233.29 1301.5 233.043 1301.83 232.87C1302.16 232.69 1302.55 232.6 1303 232.6C1303.45 232.6 1303.84 232.69 1304.17 232.87C1304.49 233.043 1304.75 233.29 1304.93 233.61C1305.11 233.93 1305.2 234.31 1305.2 234.75V237.95C1305.2 238.383 1305.11 238.763 1304.93 239.09C1304.75 239.41 1304.49 239.66 1304.16 239.84C1303.83 240.013 1303.44 240.1 1303 240.1ZM1303 239.33C1303.4 239.33 1303.72 239.203 1303.96 238.95C1304.2 238.69 1304.33 238.357 1304.33 237.95V234.75C1304.33 234.343 1304.2 234.013 1303.96 233.76C1303.72 233.5 1303.4 233.37 1303 233.37C1302.6 233.37 1302.27 233.5 1302.03 233.76C1301.79 234.013 1301.67 234.343 1301.67 234.75V237.95C1301.67 238.357 1301.79 238.69 1302.03 238.95C1302.27 239.203 1302.6 239.33 1303 239.33ZM1303 236.94C1302.82 236.94 1302.67 236.883 1302.56 236.77C1302.45 236.657 1302.4 236.507 1302.4 236.32C1302.4 236.14 1302.45 235.997 1302.56 235.89C1302.67 235.777 1302.82 235.72 1303 235.72C1303.18 235.72 1303.32 235.777 1303.43 235.89C1303.54 235.997 1303.6 236.14 1303.6 236.32C1303.6 236.507 1303.54 236.657 1303.43 236.77C1303.32 236.883 1303.18 236.94 1303 236.94ZM1306.74 241.1L1310.29 231.7H1311.24L1307.69 241.1H1306.74ZM1312.89 240V239.18H1314.87V233.45L1312.89 234.93V233.93L1314.54 232.7H1315.77V239.18H1317.39V240H1312.89Z" fill="#5EEBF0"/>
</g>
<g filter="url(#filter24_d_26_1090)">
<path d="M71.55 400V393.51H69.55V392.69H74.45V393.51H72.45V400H71.55ZM75.9261 400V392.7H76.8261V395.82H79.1661V392.7H80.0661V400H79.1661V396.64H76.8261V400H75.9261ZM81.9122 400V392.7H84.1722C84.6055 392.7 84.9855 392.79 85.3122 392.97C85.6389 393.143 85.8922 393.387 86.0722 393.7C86.2522 394.013 86.3422 394.38 86.3422 394.8C86.3422 395.293 86.2122 395.717 85.9522 396.07C85.6989 396.423 85.3522 396.667 84.9122 396.8L86.4422 400H85.3822L83.9822 396.9H82.8122V400H81.9122ZM82.8122 396.09H84.1722C84.5455 396.09 84.8455 395.973 85.0722 395.74C85.2989 395.5 85.4122 395.187 85.4122 394.8C85.4122 394.407 85.2989 394.093 85.0722 393.86C84.8455 393.627 84.5455 393.51 84.1722 393.51H82.8122V396.09ZM95.8744 400.1C95.4344 400.1 95.0477 400.013 94.7144 399.84C94.3877 399.66 94.1344 399.413 93.9544 399.1C93.7744 398.787 93.6844 398.42 93.6844 398H94.5844C94.5844 398.407 94.6977 398.727 94.9244 398.96C95.1577 399.187 95.4777 399.3 95.8844 399.3C96.2977 399.3 96.6177 399.18 96.8444 398.94C97.071 398.7 97.1844 398.387 97.1844 398V397.48C97.1844 397.067 97.071 396.747 96.8444 396.52C96.6177 396.293 96.2977 396.18 95.8844 396.18H95.1344V395.28L96.9444 393.52H93.9844V392.7H97.8544V393.6L95.9044 395.49V395.38C96.571 395.38 97.101 395.57 97.4944 395.95C97.8877 396.33 98.0844 396.84 98.0844 397.48V398C98.0844 398.42 97.991 398.787 97.8044 399.1C97.6244 399.413 97.3677 399.66 97.0344 399.84C96.701 400.013 96.3144 400.1 95.8744 400.1ZM101.98 400.1C101.534 400.1 101.144 400.013 100.81 399.84C100.484 399.66 100.23 399.41 100.05 399.09C99.8705 398.763 99.7805 398.383 99.7805 397.95V394.75C99.7805 394.31 99.8705 393.93 100.05 393.61C100.23 393.29 100.484 393.043 100.81 392.87C101.144 392.69 101.534 392.6 101.98 392.6C102.434 392.6 102.824 392.69 103.15 392.87C103.477 393.043 103.73 393.29 103.91 393.61C104.09 393.93 104.18 394.31 104.18 394.75V397.95C104.18 398.383 104.09 398.763 103.91 399.09C103.73 399.41 103.474 399.66 103.14 399.84C102.814 400.013 102.427 400.1 101.98 400.1ZM101.98 399.33C102.38 399.33 102.7 399.203 102.94 398.95C103.187 398.69 103.31 398.357 103.31 397.95V394.75C103.31 394.343 103.187 394.013 102.94 393.76C102.7 393.5 102.38 393.37 101.98 393.37C101.58 393.37 101.257 393.5 101.01 393.76C100.77 394.013 100.65 394.343 100.65 394.75V397.95C100.65 398.357 100.77 398.69 101.01 398.95C101.257 399.203 101.58 399.33 101.98 399.33ZM101.98 396.94C101.8 396.94 101.654 396.883 101.54 396.77C101.434 396.657 101.38 396.507 101.38 396.32C101.38 396.14 101.434 395.997 101.54 395.89C101.654 395.777 101.8 395.72 101.98 395.72C102.16 395.72 102.304 395.777 102.41 395.89C102.524 395.997 102.58 396.14 102.58 396.32C102.58 396.507 102.524 396.657 102.41 396.77C102.304 396.883 102.16 396.94 101.98 396.94ZM107.977 400.1C107.723 400.1 107.52 400.027 107.367 399.88C107.22 399.733 107.147 399.537 107.147 399.29C107.147 399.03 107.22 398.823 107.367 398.67C107.52 398.517 107.723 398.44 107.977 398.44C108.23 398.44 108.43 398.517 108.577 398.67C108.73 398.823 108.807 399.03 108.807 399.29C108.807 399.537 108.73 399.733 108.577 399.88C108.43 400.027 108.23 400.1 107.977 400.1ZM115.073 400V398.4H111.773V396.99L114.663 392.7H115.643L112.673 397.18V397.58H115.073V395.8H115.973V400H115.073Z" fill="#5EEBF0"/>
</g>
<g filter="url(#filter25_d_26_1090)">
<path d="M1253.04 400.1C1252.6 400.1 1252.22 400.017 1251.89 399.85C1251.57 399.683 1251.32 399.443 1251.14 399.13C1250.97 398.81 1250.88 398.433 1250.88 398V394.7C1250.88 394.26 1250.97 393.883 1251.14 393.57C1251.32 393.257 1251.57 393.017 1251.89 392.85C1252.22 392.683 1252.6 392.6 1253.04 392.6C1253.48 392.6 1253.86 392.687 1254.18 392.86C1254.5 393.027 1254.75 393.267 1254.92 393.58C1255.09 393.893 1255.18 394.267 1255.18 394.7H1254.28C1254.28 394.287 1254.17 393.97 1253.95 393.75C1253.74 393.523 1253.43 393.41 1253.04 393.41C1252.65 393.41 1252.34 393.52 1252.11 393.74C1251.89 393.96 1251.78 394.277 1251.78 394.69V398C1251.78 398.413 1251.89 398.733 1252.11 398.96C1252.34 399.18 1252.65 399.29 1253.04 399.29C1253.43 399.29 1253.74 399.18 1253.95 398.96C1254.17 398.733 1254.28 398.413 1254.28 398H1255.18C1255.18 398.427 1255.09 398.8 1254.92 399.12C1254.75 399.433 1254.5 399.677 1254.18 399.85C1253.86 400.017 1253.48 400.1 1253.04 400.1ZM1256.93 400V392.7H1257.83V395.82H1260.17V392.7H1261.07V400H1260.17V396.64H1257.83V400H1256.93ZM1262.94 400V392.69H1267.24V393.51H1263.82V395.94H1266.98V396.76H1263.84V400H1262.94ZM1274.88 400V399.18H1276.86V393.45L1274.88 394.93V393.93L1276.53 392.7H1277.76V399.18H1279.38V400H1274.88ZM1280.9 400V399.08L1283.13 396.71C1283.51 396.303 1283.79 395.943 1283.96 395.63C1284.13 395.31 1284.22 395.003 1284.22 394.71C1284.22 394.303 1284.11 393.983 1283.88 393.75C1283.66 393.517 1283.36 393.4 1282.97 393.4C1282.54 393.4 1282.21 393.52 1281.96 393.76C1281.72 394 1281.6 394.33 1281.6 394.75H1280.7C1280.71 394.31 1280.81 393.93 1281 393.61C1281.19 393.283 1281.46 393.033 1281.79 392.86C1282.13 392.687 1282.52 392.6 1282.97 392.6C1283.41 392.6 1283.79 392.687 1284.11 392.86C1284.44 393.027 1284.69 393.267 1284.86 393.58C1285.03 393.893 1285.12 394.267 1285.12 394.7C1285.12 395.113 1285.01 395.523 1284.79 395.93C1284.57 396.337 1284.21 396.8 1283.71 397.32L1281.91 399.18H1285.24V400H1280.9Z" fill="#5EEBF0"/>
</g>
<g filter="url(#filter26_d_26_1090)">
<path d="M11.01 174.1C10.5433 174.1 10.1333 174.003 9.78 173.81C9.43333 173.61 9.16333 173.333 8.97 172.98C8.77667 172.627 8.68 172.217 8.68 171.75C8.68 171.383 8.73 171.023 8.83 170.67C8.93667 170.317 9.09333 169.977 9.3 169.65L11.13 166.7H12.13L10.06 170.02L10.1 170.05C10.2267 169.863 10.4 169.72 10.62 169.62C10.84 169.52 11.0867 169.47 11.36 169.47C11.76 169.47 12.1067 169.563 12.4 169.75C12.6933 169.937 12.92 170.2 13.08 170.54C13.24 170.88 13.32 171.283 13.32 171.75C13.32 172.217 13.2233 172.627 13.03 172.98C12.8367 173.333 12.5667 173.61 12.22 173.81C11.88 174.003 11.4767 174.1 11.01 174.1ZM11 173.3C11.4267 173.3 11.77 173.16 12.03 172.88C12.29 172.593 12.42 172.217 12.42 171.75C12.42 171.283 12.29 170.91 12.03 170.63C11.77 170.343 11.4267 170.2 11 170.2C10.5733 170.2 10.23 170.343 9.97 170.63C9.71 170.91 9.58 171.283 9.58 171.75C9.58 172.217 9.71 172.593 9.97 172.88C10.23 173.16 10.5733 173.3 11 173.3ZM15.8461 174L18.4561 167.52H15.6961V168.6H14.7961V166.7H19.3461V167.58L16.8161 174H15.8461ZM22.5522 173.05V171.1H20.6422V170.3H22.5522V168.35H23.4322V170.3H25.3422V171.1H23.4322V173.05H22.5522Z" fill="#5EEBF0"/>
</g>
<g filter="url(#filter27_d_26_1090)">
<path d="M9.85 303L12.46 296.52H9.7V297.6H8.8V295.7H13.35V296.58L10.82 303H9.85ZM16.9761 303.1C16.3828 303.1 15.8961 302.947 15.5161 302.64C15.1361 302.333 14.9128 301.92 14.8461 301.4H15.7461C15.7794 301.687 15.9028 301.91 16.1161 302.07C16.3294 302.223 16.6194 302.3 16.9861 302.3C17.4061 302.3 17.7194 302.187 17.9261 301.96C18.1394 301.733 18.2461 301.413 18.2461 301V300.29C18.2461 299.877 18.1394 299.557 17.9261 299.33C17.7194 299.103 17.4094 298.99 16.9961 298.99C16.7361 298.99 16.5094 299.06 16.3161 299.2C16.1228 299.333 15.9828 299.513 15.8961 299.74H14.9961L15.0461 295.7H18.8861V296.52H15.9161L15.8861 298.95H16.1661L15.8861 299.21C15.8861 298.897 16.0094 298.65 16.2561 298.47C16.5094 298.29 16.8461 298.2 17.2661 298.2C17.8594 298.193 18.3194 298.377 18.6461 298.75C18.9794 299.117 19.1461 299.63 19.1461 300.29V301C19.1461 301.647 18.9561 302.16 18.5761 302.54C18.1961 302.913 17.6628 303.1 16.9761 303.1ZM22.5522 302.05V300.1H20.6422V299.3H22.5522V297.35H23.4322V299.3H25.3422V300.1H23.4322V302.05H22.5522Z" fill="#5EEBF0"/>
</g>
<g filter="url(#filter28_d_26_1090)">
<path d="M1305.1 201V199.4H1301.8V197.99L1304.69 193.7H1305.67L1302.7 198.18V198.58H1305.1V196.8H1306V201H1305.1ZM1310 201.1C1309.55 201.1 1309.16 201.013 1308.83 200.84C1308.5 200.66 1308.25 200.41 1308.07 200.09C1307.89 199.763 1307.8 199.383 1307.8 198.95V195.75C1307.8 195.31 1307.89 194.93 1308.07 194.61C1308.25 194.29 1308.5 194.043 1308.83 193.87C1309.16 193.69 1309.55 193.6 1310 193.6C1310.45 193.6 1310.84 193.69 1311.17 193.87C1311.49 194.043 1311.75 194.29 1311.93 194.61C1312.11 194.93 1312.2 195.31 1312.2 195.75V198.95C1312.2 199.383 1312.11 199.763 1311.93 200.09C1311.75 200.41 1311.49 200.66 1311.16 200.84C1310.83 201.013 1310.44 201.1 1310 201.1ZM1310 200.33C1310.4 200.33 1310.72 200.203 1310.96 199.95C1311.2 199.69 1311.33 199.357 1311.33 198.95V195.75C1311.33 195.343 1311.2 195.013 1310.96 194.76C1310.72 194.5 1310.4 194.37 1310 194.37C1309.6 194.37 1309.27 194.5 1309.03 194.76C1308.79 195.013 1308.67 195.343 1308.67 195.75V198.95C1308.67 199.357 1308.79 199.69 1309.03 199.95C1309.27 200.203 1309.6 200.33 1310 200.33ZM1310 197.94C1309.82 197.94 1309.67 197.883 1309.56 197.77C1309.45 197.657 1309.4 197.507 1309.4 197.32C1309.4 197.14 1309.45 196.997 1309.56 196.89C1309.67 196.777 1309.82 196.72 1310 196.72C1310.18 196.72 1310.32 196.777 1310.43 196.89C1310.54 196.997 1310.6 197.14 1310.6 197.32C1310.6 197.507 1310.54 197.657 1310.43 197.77C1310.32 197.883 1310.18 197.94 1310 197.94Z" fill="#5EEBF0"/>
</g>
<g filter="url(#filter29_d_26_1090)">
<path d="M90.92 201V200.08L93.15 197.71C93.53 197.303 93.8067 196.943 93.98 196.63C94.1533 196.31 94.24 196.003 94.24 195.71C94.24 195.303 94.1267 194.983 93.9 194.75C93.68 194.517 93.3767 194.4 92.99 194.4C92.5633 194.4 92.2267 194.52 91.98 194.76C91.74 195 91.62 195.33 91.62 195.75H90.72C90.7333 195.31 90.8333 194.93 91.02 194.61C91.2133 194.283 91.4767 194.033 91.81 193.86C92.15 193.687 92.5433 193.6 92.99 193.6C93.43 193.6 93.81 193.687 94.13 193.86C94.4567 194.027 94.7067 194.267 94.88 194.58C95.0533 194.893 95.14 195.267 95.14 195.7C95.14 196.113 95.03 196.523 94.81 196.93C94.59 197.337 94.23 197.8 93.73 198.32L91.93 200.18H95.26V201H90.92ZM98.9961 201.1C98.5494 201.1 98.1594 201.013 97.8261 200.84C97.4994 200.66 97.2461 200.41 97.0661 200.09C96.8861 199.763 96.7961 199.383 96.7961 198.95V195.75C96.7961 195.31 96.8861 194.93 97.0661 194.61C97.2461 194.29 97.4994 194.043 97.8261 193.87C98.1594 193.69 98.5494 193.6 98.9961 193.6C99.4494 193.6 99.8394 193.69 100.166 193.87C100.493 194.043 100.746 194.29 100.926 194.61C101.106 194.93 101.196 195.31 101.196 195.75V198.95C101.196 199.383 101.106 199.763 100.926 200.09C100.746 200.41 100.489 200.66 100.156 200.84C99.8294 201.013 99.4428 201.1 98.9961 201.1ZM98.9961 200.33C99.3961 200.33 99.7161 200.203 99.9561 199.95C100.203 199.69 100.326 199.357 100.326 198.95V195.75C100.326 195.343 100.203 195.013 99.9561 194.76C99.7161 194.5 99.3961 194.37 98.9961 194.37C98.5961 194.37 98.2728 194.5 98.0261 194.76C97.7861 195.013 97.6661 195.343 97.6661 195.75V198.95C97.6661 199.357 97.7861 199.69 98.0261 199.95C98.2728 200.203 98.5961 200.33 98.9961 200.33ZM98.9961 197.94C98.8161 197.94 98.6694 197.883 98.5561 197.77C98.4494 197.657 98.3961 197.507 98.3961 197.32C98.3961 197.14 98.4494 196.997 98.5561 196.89C98.6694 196.777 98.8161 196.72 98.9961 196.72C99.1761 196.72 99.3194 196.777 99.4261 196.89C99.5394 196.997 99.5961 197.14 99.5961 197.32C99.5961 197.507 99.5394 197.657 99.4261 197.77C99.3194 197.883 99.1761 197.94 98.9961 197.94Z" fill="#5EEBF0"/>
</g>
<g filter="url(#filter30_d_26_1090)">
<path d="M1304.01 145.1C1303.54 145.1 1303.13 145.003 1302.78 144.81C1302.43 144.61 1302.16 144.333 1301.97 143.98C1301.78 143.627 1301.68 143.217 1301.68 142.75C1301.68 142.383 1301.73 142.023 1301.83 141.67C1301.94 141.317 1302.09 140.977 1302.3 140.65L1304.13 137.7H1305.13L1303.06 141.02L1303.1 141.05C1303.23 140.863 1303.4 140.72 1303.62 140.62C1303.84 140.52 1304.09 140.47 1304.36 140.47C1304.76 140.47 1305.11 140.563 1305.4 140.75C1305.69 140.937 1305.92 141.2 1306.08 141.54C1306.24 141.88 1306.32 142.283 1306.32 142.75C1306.32 143.217 1306.22 143.627 1306.03 143.98C1305.84 144.333 1305.57 144.61 1305.22 144.81C1304.88 145.003 1304.48 145.1 1304.01 145.1ZM1304 144.3C1304.43 144.3 1304.77 144.16 1305.03 143.88C1305.29 143.593 1305.42 143.217 1305.42 142.75C1305.42 142.283 1305.29 141.91 1305.03 141.63C1304.77 141.343 1304.43 141.2 1304 141.2C1303.57 141.2 1303.23 141.343 1302.97 141.63C1302.71 141.91 1302.58 142.283 1302.58 142.75C1302.58 143.217 1302.71 143.593 1302.97 143.88C1303.23 144.16 1303.57 144.3 1304 144.3ZM1310 145.1C1309.55 145.1 1309.16 145.013 1308.83 144.84C1308.5 144.66 1308.25 144.41 1308.07 144.09C1307.89 143.763 1307.8 143.383 1307.8 142.95V139.75C1307.8 139.31 1307.89 138.93 1308.07 138.61C1308.25 138.29 1308.5 138.043 1308.83 137.87C1309.16 137.69 1309.55 137.6 1310 137.6C1310.45 137.6 1310.84 137.69 1311.17 137.87C1311.49 138.043 1311.75 138.29 1311.93 138.61C1312.11 138.93 1312.2 139.31 1312.2 139.75V142.95C1312.2 143.383 1312.11 143.763 1311.93 144.09C1311.75 144.41 1311.49 144.66 1311.16 144.84C1310.83 145.013 1310.44 145.1 1310 145.1ZM1310 144.33C1310.4 144.33 1310.72 144.203 1310.96 143.95C1311.2 143.69 1311.33 143.357 1311.33 142.95V139.75C1311.33 139.343 1311.2 139.013 1310.96 138.76C1310.72 138.5 1310.4 138.37 1310 138.37C1309.6 138.37 1309.27 138.5 1309.03 138.76C1308.79 139.013 1308.67 139.343 1308.67 139.75V142.95C1308.67 143.357 1308.79 143.69 1309.03 143.95C1309.27 144.203 1309.6 144.33 1310 144.33ZM1310 141.94C1309.82 141.94 1309.67 141.883 1309.56 141.77C1309.45 141.657 1309.4 141.507 1309.4 141.32C1309.4 141.14 1309.45 140.997 1309.56 140.89C1309.67 140.777 1309.82 140.72 1310 140.72C1310.18 140.72 1310.32 140.777 1310.43 140.89C1310.54 140.997 1310.6 141.14 1310.6 141.32C1310.6 141.507 1310.54 141.657 1310.43 141.77C1310.32 141.883 1310.18 141.94 1310 141.94Z" fill="#5EEBF0"/>
</g>
<g filter="url(#filter31_d_26_1090)">
<path d="M94.1 145V143.4H90.8V141.99L93.69 137.7H94.67L91.7 142.18V142.58H94.1V140.8H95V145H94.1ZM98.9961 145.1C98.5494 145.1 98.1594 145.013 97.8261 144.84C97.4994 144.66 97.2461 144.41 97.0661 144.09C96.8861 143.763 96.7961 143.383 96.7961 142.95V139.75C96.7961 139.31 96.8861 138.93 97.0661 138.61C97.2461 138.29 97.4994 138.043 97.8261 137.87C98.1594 137.69 98.5494 137.6 98.9961 137.6C99.4494 137.6 99.8394 137.69 100.166 137.87C100.493 138.043 100.746 138.29 100.926 138.61C101.106 138.93 101.196 139.31 101.196 139.75V142.95C101.196 143.383 101.106 143.763 100.926 144.09C100.746 144.41 100.489 144.66 100.156 144.84C99.8294 145.013 99.4428 145.1 98.9961 145.1ZM98.9961 144.33C99.3961 144.33 99.7161 144.203 99.9561 143.95C100.203 143.69 100.326 143.357 100.326 142.95V139.75C100.326 139.343 100.203 139.013 99.9561 138.76C99.7161 138.5 99.3961 138.37 98.9961 138.37C98.5961 138.37 98.2728 138.5 98.0261 138.76C97.7861 139.013 97.6661 139.343 97.6661 139.75V142.95C97.6661 143.357 97.7861 143.69 98.0261 143.95C98.2728 144.203 98.5961 144.33 98.9961 144.33ZM98.9961 141.94C98.8161 141.94 98.6694 141.883 98.5561 141.77C98.4494 141.657 98.3961 141.507 98.3961 141.32C98.3961 141.14 98.4494 140.997 98.5561 140.89C98.6694 140.777 98.8161 140.72 98.9961 140.72C99.1761 140.72 99.3194 140.777 99.4261 140.89C99.5394 140.997 99.5961 141.14 99.5961 141.32C99.5961 141.507 99.5394 141.657 99.4261 141.77C99.3194 141.883 99.1761 141.94 98.9961 141.94Z" fill="#5EEBF0"/>
</g>
<g filter="url(#filter32_d_26_1090)">
<path d="M1304 353.1C1303.55 353.1 1303.16 353.013 1302.83 352.84C1302.5 352.66 1302.25 352.41 1302.07 352.09C1301.89 351.763 1301.8 351.383 1301.8 350.95V347.75C1301.8 347.31 1301.89 346.93 1302.07 346.61C1302.25 346.29 1302.5 346.043 1302.83 345.87C1303.16 345.69 1303.55 345.6 1304 345.6C1304.45 345.6 1304.84 345.69 1305.17 345.87C1305.5 346.043 1305.75 346.29 1305.93 346.61C1306.11 346.93 1306.2 347.31 1306.2 347.75V350.95C1306.2 351.383 1306.11 351.763 1305.93 352.09C1305.75 352.41 1305.49 352.66 1305.16 352.84C1304.83 353.013 1304.45 353.1 1304 353.1ZM1304 352.33C1304.4 352.33 1304.72 352.203 1304.96 351.95C1305.21 351.69 1305.33 351.357 1305.33 350.95V347.75C1305.33 347.343 1305.21 347.013 1304.96 346.76C1304.72 346.5 1304.4 346.37 1304 346.37C1303.6 346.37 1303.28 346.5 1303.03 346.76C1302.79 347.013 1302.67 347.343 1302.67 347.75V350.95C1302.67 351.357 1302.79 351.69 1303.03 351.95C1303.28 352.203 1303.6 352.33 1304 352.33ZM1304 349.94C1303.82 349.94 1303.67 349.883 1303.56 349.77C1303.45 349.657 1303.4 349.507 1303.4 349.32C1303.4 349.14 1303.45 348.997 1303.56 348.89C1303.67 348.777 1303.82 348.72 1304 348.72C1304.18 348.72 1304.32 348.777 1304.43 348.89C1304.54 348.997 1304.6 349.14 1304.6 349.32C1304.6 349.507 1304.54 349.657 1304.43 349.77C1304.32 349.883 1304.18 349.94 1304 349.94Z" fill="#5EEBF0"/>
</g>
<g filter="url(#filter33_d_26_1090)">
<path d="M79.4 350.1V349.3H82.6V350.1H79.4ZM84.9161 353V352.08L87.1461 349.71C87.5261 349.303 87.8028 348.943 87.9761 348.63C88.1494 348.31 88.2361 348.003 88.2361 347.71C88.2361 347.303 88.1228 346.983 87.8961 346.75C87.6761 346.517 87.3728 346.4 86.9861 346.4C86.5594 346.4 86.2228 346.52 85.9761 346.76C85.7361 347 85.6161 347.33 85.6161 347.75H84.7161C84.7294 347.31 84.8294 346.93 85.0161 346.61C85.2094 346.283 85.4728 346.033 85.8061 345.86C86.1461 345.687 86.5394 345.6 86.9861 345.6C87.4261 345.6 87.8061 345.687 88.1261 345.86C88.4528 346.027 88.7028 346.267 88.8761 346.58C89.0494 346.893 89.1361 347.267 89.1361 347.7C89.1361 348.113 89.0261 348.523 88.8061 348.93C88.5861 349.337 88.2261 349.8 87.7261 350.32L85.9261 352.18H89.2561V353H84.9161ZM92.9922 353.1C92.5455 353.1 92.1555 353.013 91.8222 352.84C91.4955 352.66 91.2422 352.41 91.0622 352.09C90.8822 351.763 90.7922 351.383 90.7922 350.95V347.75C90.7922 347.31 90.8822 346.93 91.0622 346.61C91.2422 346.29 91.4955 346.043 91.8222 345.87C92.1555 345.69 92.5455 345.6 92.9922 345.6C93.4455 345.6 93.8355 345.69 94.1622 345.87C94.4889 346.043 94.7422 346.29 94.9222 346.61C95.1022 346.93 95.1922 347.31 95.1922 347.75V350.95C95.1922 351.383 95.1022 351.763 94.9222 352.09C94.7422 352.41 94.4855 352.66 94.1522 352.84C93.8255 353.013 93.4389 353.1 92.9922 353.1ZM92.9922 352.33C93.3922 352.33 93.7122 352.203 93.9522 351.95C94.1989 351.69 94.3222 351.357 94.3222 350.95V347.75C94.3222 347.343 94.1989 347.013 93.9522 346.76C93.7122 346.5 93.3922 346.37 92.9922 346.37C92.5922 346.37 92.2689 346.5 92.0222 346.76C91.7822 347.013 91.6622 347.343 91.6622 347.75V350.95C91.6622 351.357 91.7822 351.69 92.0222 351.95C92.2689 352.203 92.5922 352.33 92.9922 352.33ZM92.9922 349.94C92.8122 349.94 92.6655 349.883 92.5522 349.77C92.4455 349.657 92.3922 349.507 92.3922 349.32C92.3922 349.14 92.4455 348.997 92.5522 348.89C92.6655 348.777 92.8122 348.72 92.9922 348.72C93.1722 348.72 93.3155 348.777 93.4222 348.89C93.5355 348.997 93.5922 349.14 93.5922 349.32C93.5922 349.507 93.5355 349.657 93.4222 349.77C93.3155 349.883 93.1722 349.94 92.9922 349.94Z" fill="#5EEBF0"/>
</g>
<g filter="url(#filter34_d_26_1090)">
<path d="M1301.92 277V276.08L1304.15 273.71C1304.53 273.303 1304.81 272.943 1304.98 272.63C1305.15 272.31 1305.24 272.003 1305.24 271.71C1305.24 271.303 1305.13 270.983 1304.9 270.75C1304.68 270.517 1304.38 270.4 1303.99 270.4C1303.56 270.4 1303.23 270.52 1302.98 270.76C1302.74 271 1302.62 271.33 1302.62 271.75H1301.72C1301.73 271.31 1301.83 270.93 1302.02 270.61C1302.21 270.283 1302.48 270.033 1302.81 269.86C1303.15 269.687 1303.54 269.6 1303.99 269.6C1304.43 269.6 1304.81 269.687 1305.13 269.86C1305.46 270.027 1305.71 270.267 1305.88 270.58C1306.05 270.893 1306.14 271.267 1306.14 271.7C1306.14 272.113 1306.03 272.523 1305.81 272.93C1305.59 273.337 1305.23 273.8 1304.73 274.32L1302.93 276.18H1306.26V277H1301.92ZM1310 277.1C1309.55 277.1 1309.16 277.013 1308.83 276.84C1308.5 276.66 1308.25 276.41 1308.07 276.09C1307.89 275.763 1307.8 275.383 1307.8 274.95V271.75C1307.8 271.31 1307.89 270.93 1308.07 270.61C1308.25 270.29 1308.5 270.043 1308.83 269.87C1309.16 269.69 1309.55 269.6 1310 269.6C1310.45 269.6 1310.84 269.69 1311.17 269.87C1311.49 270.043 1311.75 270.29 1311.93 270.61C1312.11 270.93 1312.2 271.31 1312.2 271.75V274.95C1312.2 275.383 1312.11 275.763 1311.93 276.09C1311.75 276.41 1311.49 276.66 1311.16 276.84C1310.83 277.013 1310.44 277.1 1310 277.1ZM1310 276.33C1310.4 276.33 1310.72 276.203 1310.96 275.95C1311.2 275.69 1311.33 275.357 1311.33 274.95V271.75C1311.33 271.343 1311.2 271.013 1310.96 270.76C1310.72 270.5 1310.4 270.37 1310 270.37C1309.6 270.37 1309.27 270.5 1309.03 270.76C1308.79 271.013 1308.67 271.343 1308.67 271.75V274.95C1308.67 275.357 1308.79 275.69 1309.03 275.95C1309.27 276.203 1309.6 276.33 1310 276.33ZM1310 273.94C1309.82 273.94 1309.67 273.883 1309.56 273.77C1309.45 273.657 1309.4 273.507 1309.4 273.32C1309.4 273.14 1309.45 272.997 1309.56 272.89C1309.67 272.777 1309.82 272.72 1310 272.72C1310.18 272.72 1310.32 272.777 1310.43 272.89C1310.54 272.997 1310.6 273.14 1310.6 273.32C1310.6 273.507 1310.54 273.657 1310.43 273.77C1310.32 273.883 1310.18 273.94 1310 273.94Z" fill="#5EEBF0"/>
</g>
<g filter="url(#filter35_d_26_1090)">
<path d="M99 277.1C98.5533 277.1 98.1633 277.013 97.83 276.84C97.5033 276.66 97.25 276.41 97.07 276.09C96.89 275.763 96.8 275.383 96.8 274.95V271.75C96.8 271.31 96.89 270.93 97.07 270.61C97.25 270.29 97.5033 270.043 97.83 269.87C98.1633 269.69 98.5533 269.6 99 269.6C99.4533 269.6 99.8433 269.69 100.17 269.87C100.497 270.043 100.75 270.29 100.93 270.61C101.11 270.93 101.2 271.31 101.2 271.75V274.95C101.2 275.383 101.11 275.763 100.93 276.09C100.75 276.41 100.493 276.66 100.16 276.84C99.8333 277.013 99.4467 277.1 99 277.1ZM99 276.33C99.4 276.33 99.72 276.203 99.96 275.95C100.207 275.69 100.33 275.357 100.33 274.95V271.75C100.33 271.343 100.207 271.013 99.96 270.76C99.72 270.5 99.4 270.37 99 270.37C98.6 270.37 98.2767 270.5 98.03 270.76C97.79 271.013 97.67 271.343 97.67 271.75V274.95C97.67 275.357 97.79 275.69 98.03 275.95C98.2767 276.203 98.6 276.33 99 276.33ZM99 273.94C98.82 273.94 98.6733 273.883 98.56 273.77C98.4533 273.657 98.4 273.507 98.4 273.32C98.4 273.14 98.4533 272.997 98.56 272.89C98.6733 272.777 98.82 272.72 99 272.72C99.18 272.72 99.3233 272.777 99.43 272.89C99.5433 272.997 99.6 273.14 99.6 273.32C99.6 273.507 99.5433 273.657 99.43 273.77C99.3233 273.883 99.18 273.94 99 273.94Z" fill="#5EEBF0"/>
</g>
<g filter="url(#filter36_d_26_1090)">
<path d="M1041.92 16V8.7H1043.81C1044.28 8.7 1044.69 8.79 1045.03 8.97C1045.38 9.15 1045.64 9.40333 1045.83 9.73C1046.02 10.0567 1046.12 10.4433 1046.12 10.89V13.8C1046.12 14.2467 1046.02 14.6367 1045.83 14.97C1045.64 15.2967 1045.38 15.55 1045.03 15.73C1044.69 15.91 1044.28 16 1043.81 16H1041.92ZM1042.82 15.2H1043.81C1044.25 15.2 1044.59 15.0767 1044.84 14.83C1045.09 14.5833 1045.22 14.24 1045.22 13.8V10.89C1045.22 10.4567 1045.09 10.1167 1044.84 9.87C1044.59 9.62333 1044.25 9.5 1043.81 9.5H1042.82V15.2ZM1048 16V8.7H1052.2V9.52H1048.89V11.78H1051.85V12.59H1048.89V15.18H1052.2V16H1048ZM1056.03 16.1C1055.59 16.1 1055.21 16.0167 1054.88 15.85C1054.56 15.6833 1054.31 15.4433 1054.13 15.13C1053.96 14.81 1053.87 14.4333 1053.87 14V10.7C1053.87 10.26 1053.96 9.88333 1054.13 9.57C1054.31 9.25667 1054.56 9.01667 1054.88 8.85C1055.21 8.68333 1055.59 8.6 1056.03 8.6C1056.47 8.6 1056.85 8.68667 1057.17 8.86C1057.49 9.02667 1057.74 9.26667 1057.91 9.58C1058.09 9.89333 1058.17 10.2667 1058.17 10.7H1057.27C1057.27 10.2867 1057.16 9.97 1056.94 9.75C1056.73 9.52333 1056.43 9.41 1056.03 9.41C1055.64 9.41 1055.33 9.52 1055.1 9.74C1054.88 9.96 1054.77 10.2767 1054.77 10.69V14C1054.77 14.4133 1054.88 14.7333 1055.1 14.96C1055.33 15.18 1055.64 15.29 1056.03 15.29C1056.43 15.29 1056.73 15.18 1056.94 14.96C1057.16 14.7333 1057.27 14.4133 1057.27 14H1058.17C1058.17 14.4267 1058.09 14.8 1057.91 15.12C1057.74 15.4333 1057.49 15.6767 1057.17 15.85C1056.85 16.0167 1056.47 16.1 1056.03 16.1ZM1059.91 16V8.7H1062.26C1062.71 8.7 1063.1 8.79 1063.44 8.97C1063.77 9.14333 1064.03 9.39 1064.21 9.71C1064.39 10.03 1064.49 10.41 1064.49 10.85C1064.49 11.2833 1064.39 11.6633 1064.21 11.99C1064.03 12.31 1063.77 12.56 1063.44 12.74C1063.1 12.9133 1062.71 13 1062.26 13H1060.81V16H1059.91ZM1060.81 12.19H1062.26C1062.65 12.19 1062.96 12.07 1063.2 11.83C1063.44 11.5833 1063.56 11.2567 1063.56 10.85C1063.56 10.4367 1063.44 10.11 1063.2 9.87C1062.96 9.63 1062.65 9.51 1062.26 9.51H1060.81V12.19ZM1066.13 16V8.7H1067.03V15.18H1070.33V16H1066.13Z" fill="#5EEBF0"/>
</g>
<g filter="url(#filter37_d_26_1090)">
<path d="M582 49.1C581.553 49.1 581.163 49.0133 580.83 48.84C580.503 48.66 580.25 48.41 580.07 48.09C579.89 47.7633 579.8 47.3833 579.8 46.95V43.75C579.8 43.31 579.89 42.93 580.07 42.61C580.25 42.29 580.503 42.0433 580.83 41.87C581.163 41.69 581.553 41.6 582 41.6C582.453 41.6 582.843 41.69 583.17 41.87C583.497 42.0433 583.75 42.29 583.93 42.61C584.11 42.93 584.2 43.31 584.2 43.75V46.95C584.2 47.3833 584.11 47.7633 583.93 48.09C583.75 48.41 583.493 48.66 583.16 48.84C582.833 49.0133 582.447 49.1 582 49.1ZM582 48.33C582.4 48.33 582.72 48.2033 582.96 47.95C583.207 47.69 583.33 47.3567 583.33 46.95V43.75C583.33 43.3433 583.207 43.0133 582.96 42.76C582.72 42.5 582.4 42.37 582 42.37C581.6 42.37 581.277 42.5 581.03 42.76C580.79 43.0133 580.67 43.3433 580.67 43.75V46.95C580.67 47.3567 580.79 47.69 581.03 47.95C581.277 48.2033 581.6 48.33 582 48.33ZM582 45.94C581.82 45.94 581.673 45.8833 581.56 45.77C581.453 45.6567 581.4 45.5067 581.4 45.32C581.4 45.14 581.453 44.9967 581.56 44.89C581.673 44.7767 581.82 44.72 582 44.72C582.18 44.72 582.323 44.7767 582.43 44.89C582.543 44.9967 582.6 45.14 582.6 45.32C582.6 45.5067 582.543 45.6567 582.43 45.77C582.323 45.8833 582.18 45.94 582 45.94Z" fill="#5EEBF0"/>
</g>
<g filter="url(#filter38_d_26_1090)">
<path d="M646.01 49.1C645.543 49.1 645.133 49.0033 644.78 48.81C644.433 48.61 644.163 48.3333 643.97 47.98C643.777 47.6267 643.68 47.2167 643.68 46.75C643.68 46.3833 643.73 46.0233 643.83 45.67C643.937 45.3167 644.093 44.9767 644.3 44.65L646.13 41.7H647.13L645.06 45.02L645.1 45.05C645.227 44.8633 645.4 44.72 645.62 44.62C645.84 44.52 646.087 44.47 646.36 44.47C646.76 44.47 647.107 44.5633 647.4 44.75C647.693 44.9367 647.92 45.2 648.08 45.54C648.24 45.88 648.32 46.2833 648.32 46.75C648.32 47.2167 648.223 47.6267 648.03 47.98C647.837 48.3333 647.567 48.61 647.22 48.81C646.88 49.0033 646.477 49.1 646.01 49.1ZM646 48.3C646.427 48.3 646.77 48.16 647.03 47.88C647.29 47.5933 647.42 47.2167 647.42 46.75C647.42 46.2833 647.29 45.91 647.03 45.63C646.77 45.3433 646.427 45.2 646 45.2C645.573 45.2 645.23 45.3433 644.97 45.63C644.71 45.91 644.58 46.2833 644.58 46.75C644.58 47.2167 644.71 47.5933 644.97 47.88C645.23 48.16 645.573 48.3 646 48.3ZM651.996 49.1C651.549 49.1 651.159 49.0133 650.826 48.84C650.499 48.66 650.246 48.41 650.066 48.09C649.886 47.7633 649.796 47.3833 649.796 46.95V43.75C649.796 43.31 649.886 42.93 650.066 42.61C650.246 42.29 650.499 42.0433 650.826 41.87C651.159 41.69 651.549 41.6 651.996 41.6C652.449 41.6 652.839 41.69 653.166 41.87C653.493 42.0433 653.746 42.29 653.926 42.61C654.106 42.93 654.196 43.31 654.196 43.75V46.95C654.196 47.3833 654.106 47.7633 653.926 48.09C653.746 48.41 653.489 48.66 653.156 48.84C652.829 49.0133 652.443 49.1 651.996 49.1ZM651.996 48.33C652.396 48.33 652.716 48.2033 652.956 47.95C653.203 47.69 653.326 47.3567 653.326 46.95V43.75C653.326 43.3433 653.203 43.0133 652.956 42.76C652.716 42.5 652.396 42.37 651.996 42.37C651.596 42.37 651.273 42.5 651.026 42.76C650.786 43.0133 650.666 43.3433 650.666 43.75V46.95C650.666 47.3567 650.786 47.69 651.026 47.95C651.273 48.2033 651.596 48.33 651.996 48.33ZM651.996 45.94C651.816 45.94 651.669 45.8833 651.556 45.77C651.449 45.6567 651.396 45.5067 651.396 45.32C651.396 45.14 651.449 44.9967 651.556 44.89C651.669 44.7767 651.816 44.72 651.996 44.72C652.176 44.72 652.319 44.7767 652.426 44.89C652.539 44.9967 652.596 45.14 652.596 45.32C652.596 45.5067 652.539 45.6567 652.426 45.77C652.319 45.8833 652.176 45.94 651.996 45.94Z" fill="#5EEBF0"/>
</g>
<g filter="url(#filter39_d_26_1090)">
<path d="M713.9 49V48.18H715.88V42.45L713.9 43.93V42.93L715.55 41.7H716.78V48.18H718.4V49H713.9ZM719.916 49V48.08L722.146 45.71C722.526 45.3033 722.803 44.9433 722.976 44.63C723.149 44.31 723.236 44.0033 723.236 43.71C723.236 43.3033 723.123 42.9833 722.896 42.75C722.676 42.5167 722.373 42.4 721.986 42.4C721.559 42.4 721.223 42.52 720.976 42.76C720.736 43 720.616 43.33 720.616 43.75H719.716C719.729 43.31 719.829 42.93 720.016 42.61C720.209 42.2833 720.473 42.0333 720.806 41.86C721.146 41.6867 721.539 41.6 721.986 41.6C722.426 41.6 722.806 41.6867 723.126 41.86C723.453 42.0267 723.703 42.2667 723.876 42.58C724.049 42.8933 724.136 43.2667 724.136 43.7C724.136 44.1133 724.026 44.5233 723.806 44.93C723.586 45.3367 723.226 45.8 722.726 46.32L720.926 48.18H724.256V49H719.916ZM727.992 49.1C727.546 49.1 727.156 49.0133 726.822 48.84C726.496 48.66 726.242 48.41 726.062 48.09C725.882 47.7633 725.792 47.3833 725.792 46.95V43.75C725.792 43.31 725.882 42.93 726.062 42.61C726.242 42.29 726.496 42.0433 726.822 41.87C727.156 41.69 727.546 41.6 727.992 41.6C728.446 41.6 728.836 41.69 729.162 41.87C729.489 42.0433 729.742 42.29 729.922 42.61C730.102 42.93 730.192 43.31 730.192 43.75V46.95C730.192 47.3833 730.102 47.7633 729.922 48.09C729.742 48.41 729.486 48.66 729.152 48.84C728.826 49.0133 728.439 49.1 727.992 49.1ZM727.992 48.33C728.392 48.33 728.712 48.2033 728.952 47.95C729.199 47.69 729.322 47.3567 729.322 46.95V43.75C729.322 43.3433 729.199 43.0133 728.952 42.76C728.712 42.5 728.392 42.37 727.992 42.37C727.592 42.37 727.269 42.5 727.022 42.76C726.782 43.0133 726.662 43.3433 726.662 43.75V46.95C726.662 47.3567 726.782 47.69 727.022 47.95C727.269 48.2033 727.592 48.33 727.992 48.33ZM727.992 45.94C727.812 45.94 727.666 45.8833 727.552 45.77C727.446 45.6567 727.392 45.5067 727.392 45.32C727.392 45.14 727.446 44.9967 727.552 44.89C727.666 44.7767 727.812 44.72 727.992 44.72C728.172 44.72 728.316 44.7767 728.422 44.89C728.536 44.9967 728.592 45.14 728.592 45.32C728.592 45.5067 728.536 45.6567 728.422 45.77C728.316 45.8833 728.172 45.94 727.992 45.94Z" fill="#5EEBF0"/>
</g>
<g filter="url(#filter40_d_26_1090)">
<path d="M778.9 49V48.18H780.88V42.45L778.9 43.93V42.93L780.55 41.7H781.78V48.18H783.4V49H778.9ZM786.996 49.1C786.549 49.1 786.159 49.0233 785.826 48.87C785.499 48.71 785.246 48.4833 785.066 48.19C784.886 47.8967 784.796 47.5533 784.796 47.16C784.796 46.7267 784.913 46.3533 785.146 46.04C785.386 45.7267 785.763 45.4467 786.276 45.2L787.246 44.73C787.539 44.59 787.766 44.4067 787.926 44.18C788.086 43.9533 788.166 43.7033 788.166 43.43C788.166 43.11 788.059 42.8567 787.846 42.67C787.639 42.4833 787.356 42.39 786.996 42.39C786.636 42.39 786.349 42.4867 786.136 42.68C785.929 42.8667 785.826 43.12 785.826 43.44C785.826 43.7067 785.903 43.9533 786.056 44.18C786.216 44.4067 786.433 44.5867 786.706 44.72L787.676 45.18C788.209 45.4267 788.596 45.71 788.836 46.03C789.076 46.3433 789.196 46.72 789.196 47.16C789.196 47.7533 788.996 48.2267 788.596 48.58C788.203 48.9267 787.669 49.1 786.996 49.1ZM786.996 48.3C787.403 48.3 787.723 48.1967 787.956 47.99C788.196 47.7767 788.316 47.4933 788.316 47.14C788.316 46.8533 788.239 46.5933 788.086 46.36C787.933 46.1267 787.713 45.94 787.426 45.8L786.466 45.33C785.933 45.07 785.546 44.79 785.306 44.49C785.066 44.19 784.946 43.83 784.946 43.41C784.946 43.0367 785.029 42.7133 785.196 42.44C785.363 42.1667 785.599 41.9567 785.906 41.81C786.213 41.6633 786.576 41.59 786.996 41.59C787.416 41.59 787.779 41.6633 788.086 41.81C788.393 41.9567 788.629 42.1667 788.796 42.44C788.963 42.7133 789.046 43.0367 789.046 43.41C789.046 43.83 788.926 44.19 788.686 44.49C788.446 44.7833 788.049 45.0667 787.496 45.34L786.536 45.81C786.263 45.9433 786.049 46.1267 785.896 46.36C785.749 46.5867 785.676 46.84 785.676 47.12C785.676 47.48 785.793 47.7667 786.026 47.98C786.266 48.1933 786.589 48.3 786.996 48.3ZM792.992 49.1C792.546 49.1 792.156 49.0133 791.822 48.84C791.496 48.66 791.242 48.41 791.062 48.09C790.882 47.7633 790.792 47.3833 790.792 46.95V43.75C790.792 43.31 790.882 42.93 791.062 42.61C791.242 42.29 791.496 42.0433 791.822 41.87C792.156 41.69 792.546 41.6 792.992 41.6C793.446 41.6 793.836 41.69 794.162 41.87C794.489 42.0433 794.742 42.29 794.922 42.61C795.102 42.93 795.192 43.31 795.192 43.75V46.95C795.192 47.3833 795.102 47.7633 794.922 48.09C794.742 48.41 794.486 48.66 794.152 48.84C793.826 49.0133 793.439 49.1 792.992 49.1ZM792.992 48.33C793.392 48.33 793.712 48.2033 793.952 47.95C794.199 47.69 794.322 47.3567 794.322 46.95V43.75C794.322 43.3433 794.199 43.0133 793.952 42.76C793.712 42.5 793.392 42.37 792.992 42.37C792.592 42.37 792.269 42.5 792.022 42.76C791.782 43.0133 791.662 43.3433 791.662 43.75V46.95C791.662 47.3567 791.782 47.69 792.022 47.95C792.269 48.2033 792.592 48.33 792.992 48.33ZM792.992 45.94C792.812 45.94 792.666 45.8833 792.552 45.77C792.446 45.6567 792.392 45.5067 792.392 45.32C792.392 45.14 792.446 44.9967 792.552 44.89C792.666 44.7767 792.812 44.72 792.992 44.72C793.172 44.72 793.316 44.7767 793.422 44.89C793.536 44.9967 793.592 45.14 793.592 45.32C793.592 45.5067 793.536 45.6567 793.422 45.77C793.316 45.8833 793.172 45.94 792.992 45.94Z" fill="#5EEBF0"/>
</g>
<g filter="url(#filter41_d_26_1090)">
<path d="M1121.04 16.1C1120.6 16.1 1120.22 16.0167 1119.89 15.85C1119.57 15.6833 1119.32 15.4433 1119.14 15.13C1118.97 14.81 1118.88 14.4333 1118.88 14V10.7C1118.88 10.26 1118.97 9.88333 1119.14 9.57C1119.32 9.25667 1119.57 9.01667 1119.89 8.85C1120.22 8.68333 1120.6 8.6 1121.04 8.6C1121.48 8.6 1121.86 8.68667 1122.18 8.86C1122.5 9.02667 1122.75 9.26667 1122.92 9.58C1123.09 9.89333 1123.18 10.2667 1123.18 10.7H1122.28C1122.28 10.2867 1122.17 9.97 1121.95 9.75C1121.74 9.52333 1121.43 9.41 1121.04 9.41C1120.65 9.41 1120.34 9.52 1120.11 9.74C1119.89 9.96 1119.78 10.2767 1119.78 10.69V14C1119.78 14.4133 1119.89 14.7333 1120.11 14.96C1120.34 15.1867 1120.65 15.3 1121.04 15.3C1121.43 15.3 1121.74 15.1867 1121.95 14.96C1122.17 14.7333 1122.28 14.4133 1122.28 14V13.1H1120.8V12.28H1123.18V14C1123.18 14.4267 1123.09 14.8 1122.92 15.12C1122.75 15.4333 1122.5 15.6767 1122.18 15.85C1121.86 16.0167 1121.48 16.1 1121.04 16.1ZM1127.04 16.1C1126.56 16.1 1126.14 16.02 1125.8 15.86C1125.46 15.7 1125.19 15.47 1125.01 15.17C1124.82 14.87 1124.72 14.5133 1124.72 14.1H1125.62C1125.62 14.4667 1125.74 14.7567 1125.99 14.97C1126.24 15.1833 1126.59 15.29 1127.04 15.29C1127.46 15.29 1127.78 15.1867 1128.02 14.98C1128.26 14.7733 1128.38 14.4867 1128.38 14.12C1128.38 13.8267 1128.3 13.57 1128.14 13.35C1127.98 13.13 1127.76 12.9767 1127.47 12.89L1126.48 12.58C1125.98 12.4267 1125.59 12.17 1125.32 11.81C1125.05 11.45 1124.92 11.0267 1124.92 10.54C1124.92 10.1467 1125 9.80667 1125.18 9.52C1125.36 9.22667 1125.61 9 1125.93 8.84C1126.25 8.67333 1126.62 8.59 1127.06 8.59C1127.7 8.59 1128.21 8.77 1128.6 9.13C1128.98 9.48333 1129.18 9.95667 1129.19 10.55H1128.29C1128.29 10.19 1128.18 9.91 1127.96 9.71C1127.74 9.50333 1127.44 9.4 1127.05 9.4C1126.66 9.4 1126.36 9.49333 1126.14 9.68C1125.92 9.86667 1125.82 10.1267 1125.82 10.46C1125.82 10.76 1125.9 11.02 1126.06 11.24C1126.22 11.46 1126.45 11.6167 1126.75 11.71L1127.75 12.03C1128.23 12.1833 1128.61 12.4433 1128.88 12.81C1129.14 13.1767 1129.28 13.6067 1129.28 14.1C1129.28 14.5 1129.18 14.85 1129 15.15C1128.81 15.45 1128.55 15.6833 1128.21 15.85C1127.87 16.0167 1127.48 16.1 1127.04 16.1ZM1130.94 16V8.69H1135.24V9.51H1131.82V11.94H1134.98V12.76H1131.84V16H1130.94ZM1139.03 16.1C1138.59 16.1 1138.2 16.0167 1137.88 15.85C1137.56 15.6833 1137.31 15.4433 1137.13 15.13C1136.95 14.81 1136.87 14.4333 1136.87 14V10.7C1136.87 10.26 1136.95 9.88333 1137.13 9.57C1137.31 9.25667 1137.56 9.01667 1137.88 8.85C1138.2 8.68333 1138.59 8.6 1139.03 8.6C1139.47 8.6 1139.85 8.68667 1140.17 8.86C1140.49 9.02667 1140.73 9.26667 1140.91 9.58C1141.08 9.89333 1141.17 10.2667 1141.17 10.7H1140.27C1140.27 10.2867 1140.16 9.97 1139.94 9.75C1139.72 9.52333 1139.42 9.41 1139.03 9.41C1138.63 9.41 1138.32 9.52 1138.1 9.74C1137.88 9.96 1137.77 10.2767 1137.77 10.69V14C1137.77 14.4133 1137.88 14.7333 1138.1 14.96C1138.32 15.18 1138.63 15.29 1139.03 15.29C1139.42 15.29 1139.72 15.18 1139.94 14.96C1140.16 14.7333 1140.27 14.4133 1140.27 14H1141.17C1141.17 14.4267 1141.08 14.8 1140.91 15.12C1140.73 15.4333 1140.49 15.6767 1140.17 15.85C1139.85 16.0167 1139.47 16.1 1139.03 16.1Z" fill="#5EEBF0"/>
</g>
<g filter="url(#filter42_d_26_1090)">
<path d="M1188.04 16.1C1187.6 16.1 1187.22 16.0167 1186.89 15.85C1186.57 15.6833 1186.32 15.4433 1186.14 15.13C1185.97 14.81 1185.88 14.4333 1185.88 14V10.7C1185.88 10.26 1185.97 9.88333 1186.14 9.57C1186.32 9.25667 1186.57 9.01667 1186.89 8.85C1187.22 8.68333 1187.6 8.6 1188.04 8.6C1188.48 8.6 1188.86 8.68667 1189.18 8.86C1189.5 9.02667 1189.75 9.26667 1189.92 9.58C1190.09 9.89333 1190.18 10.2667 1190.18 10.7H1189.28C1189.28 10.2867 1189.17 9.97 1188.95 9.75C1188.74 9.52333 1188.43 9.41 1188.04 9.41C1187.65 9.41 1187.34 9.52 1187.11 9.74C1186.89 9.96 1186.78 10.2767 1186.78 10.69V14C1186.78 14.4133 1186.89 14.7333 1187.11 14.96C1187.34 15.18 1187.65 15.29 1188.04 15.29C1188.43 15.29 1188.74 15.18 1188.95 14.96C1189.17 14.7333 1189.28 14.4133 1189.28 14H1190.18C1190.18 14.4267 1190.09 14.8 1189.92 15.12C1189.75 15.4333 1189.5 15.6767 1189.18 15.85C1188.86 16.0167 1188.48 16.1 1188.04 16.1ZM1194.04 16.1C1193.56 16.1 1193.14 16.02 1192.8 15.86C1192.46 15.7 1192.19 15.47 1192.01 15.17C1191.82 14.87 1191.72 14.5133 1191.72 14.1H1192.62C1192.62 14.4667 1192.74 14.7567 1192.99 14.97C1193.24 15.1833 1193.59 15.29 1194.04 15.29C1194.46 15.29 1194.78 15.1867 1195.02 14.98C1195.26 14.7733 1195.38 14.4867 1195.38 14.12C1195.38 13.8267 1195.3 13.57 1195.14 13.35C1194.98 13.13 1194.76 12.9767 1194.47 12.89L1193.48 12.58C1192.98 12.4267 1192.59 12.17 1192.32 11.81C1192.05 11.45 1191.92 11.0267 1191.92 10.54C1191.92 10.1467 1192 9.80667 1192.18 9.52C1192.36 9.22667 1192.61 9 1192.93 8.84C1193.25 8.67333 1193.62 8.59 1194.06 8.59C1194.7 8.59 1195.21 8.77 1195.6 9.13C1195.98 9.48333 1196.18 9.95667 1196.19 10.55H1195.29C1195.29 10.19 1195.18 9.91 1194.96 9.71C1194.74 9.50333 1194.44 9.4 1194.05 9.4C1193.66 9.4 1193.36 9.49333 1193.14 9.68C1192.92 9.86667 1192.82 10.1267 1192.82 10.46C1192.82 10.76 1192.9 11.02 1193.06 11.24C1193.22 11.46 1193.45 11.6167 1193.75 11.71L1194.75 12.03C1195.23 12.1833 1195.61 12.4433 1195.88 12.81C1196.14 13.1767 1196.28 13.6067 1196.28 14.1C1196.28 14.5 1196.18 14.85 1196 15.15C1195.81 15.45 1195.55 15.6833 1195.21 15.85C1194.87 16.0167 1194.48 16.1 1194.04 16.1ZM1199.54 16V9.51H1197.54V8.69H1202.44V9.51H1200.44V16H1199.54ZM1203.91 16V8.7H1205.8C1206.27 8.7 1206.68 8.79 1207.02 8.97C1207.36 9.15 1207.63 9.40333 1207.82 9.73C1208.01 10.0567 1208.11 10.4433 1208.11 10.89V13.8C1208.11 14.2467 1208.01 14.6367 1207.82 14.97C1207.63 15.2967 1207.36 15.55 1207.02 15.73C1206.68 15.91 1206.27 16 1205.8 16H1203.91ZM1204.81 15.2H1205.8C1206.24 15.2 1206.58 15.0767 1206.83 14.83C1207.08 14.5833 1207.21 14.24 1207.21 13.8V10.89C1207.21 10.4567 1207.08 10.1167 1206.83 9.87C1206.58 9.62333 1206.24 9.5 1205.8 9.5H1204.81V15.2Z" fill="#5EEBF0"/>
</g>
<g filter="url(#filter43_d_26_1090)">
<line x1="655.5" y1="64" x2="655.5" y2="80" stroke="#5EEBF0"/>
</g>
<g filter="url(#filter44_d_26_1090)">
<line x1="608.5" y1="73" x2="608.5" y2="80" stroke="#5EEBF0"/>
</g>
<g filter="url(#filter45_d_26_1090)">
<line x1="678.5" y1="73" x2="678.5" y2="80" stroke="#5EEBF0"/>
</g>
<g filter="url(#filter46_d_26_1090)">
<line x1="748.5" y1="73" x2="748.5" y2="80" stroke="#5EEBF0"/>
</g>
<g filter="url(#filter47_d_26_1090)">
<line x1="632.5" y1="73" x2="632.5" y2="80" stroke="#5EEBF0"/>
</g>
<g filter="url(#filter48_d_26_1090)">
<line x1="702.5" y1="73" x2="702.5" y2="80" stroke="#5EEBF0"/>
</g>
<g filter="url(#filter49_d_26_1090)">
<line x1="772.5" y1="73" x2="772.5" y2="80" stroke="#5EEBF0"/>
</g>
<g filter="url(#filter50_d_26_1090)">
<line x1="795.5" y1="64" x2="795.5" y2="80" stroke="#5EEBF0"/>
</g>
<g filter="url(#filter51_d_26_1090)">
<line x1="725.5" y1="64" x2="725.5" y2="80" stroke="#5EEBF0"/>
</g>
<g filter="url(#filter52_d_26_1090)">
<line x1="585.5" y1="64" x2="585.5" y2="80" stroke="#5EEBF0"/>
</g>
<defs>
<filter id="filter0_d_26_1090" x="129.646" y="199.293" width="26.7072" height="22.0607" filterUnits="userSpaceOnUse" color-interpolation-filters="sRGB">
<feFlood flood-opacity="0" result="BackgroundImageFix"/>
<feColorMatrix in="SourceAlpha" type="matrix" values="0 0 0 0 0 0 0 0 0 0 0 0 0 0 0 0 0 0 127 0" result="hardAlpha"/>
<feOffset/>
<feGaussianBlur stdDeviation="4"/>
<feComposite in2="hardAlpha" operator="out"/>
<feColorMatrix type="matrix" values="0 0 0 0 0.0313726 0 0 0 0 0.843137 0 0 0 0 0.976471 0 0 0 1 0"/>
<feBlend mode="normal" in2="BackgroundImageFix" result="effect1_dropShadow_26_1090"/>
<feBlend mode="normal" in="SourceGraphic" in2="effect1_dropShadow_26_1090" result="shape"/>
</filter>
<filter id="filter1_d_26_1090" x="1251.65" y="199.293" width="26.7072" height="22.0607" filterUnits="userSpaceOnUse" color-interpolation-filters="sRGB">
<feFlood flood-opacity="0" result="BackgroundImageFix"/>
<feColorMatrix in="SourceAlpha" type="matrix" values="0 0 0 0 0 0 0 0 0 0 0 0 0 0 0 0 0 0 127 0" result="hardAlpha"/>
<feOffset/>
<feGaussianBlur stdDeviation="4"/>
<feComposite in2="hardAlpha" operator="out"/>
<feColorMatrix type="matrix" values="0 0 0 0 0.0313726 0 0 0 0 0.843137 0 0 0 0 0.976471 0 0 0 1 0"/>
<feBlend mode="normal" in2="BackgroundImageFix" result="effect1_dropShadow_26_1090"/>
<feBlend mode="normal" in="SourceGraphic" in2="effect1_dropShadow_26_1090" result="shape"/>
</filter>
<filter id="filter2_d_26_1090" x="129.646" y="262.646" width="26.7072" height="22.0607" filterUnits="userSpaceOnUse" color-interpolation-filters="sRGB">
<feFlood flood-opacity="0" result="BackgroundImageFix"/>
<feColorMatrix in="SourceAlpha" type="matrix" values="0 0 0 0 0 0 0 0 0 0 0 0 0 0 0 0 0 0 127 0" result="hardAlpha"/>
<feOffset/>
<feGaussianBlur stdDeviation="4"/>
<feComposite in2="hardAlpha" operator="out"/>
<feColorMatrix type="matrix" values="0 0 0 0 0.0313726 0 0 0 0 0.843137 0 0 0 0 0.976471 0 0 0 1 0"/>
<feBlend mode="normal" in2="BackgroundImageFix" result="effect1_dropShadow_26_1090"/>
<feBlend mode="normal" in="SourceGraphic" in2="effect1_dropShadow_26_1090" result="shape"/>
</filter>
<filter id="filter3_d_26_1090" x="1251.65" y="262.646" width="26.7072" height="22.0607" filterUnits="userSpaceOnUse" color-interpolation-filters="sRGB">
<feFlood flood-opacity="0" result="BackgroundImageFix"/>
<feColorMatrix in="SourceAlpha" type="matrix" values="0 0 0 0 0 0 0 0 0 0 0 0 0 0 0 0 0 0 127 0" result="hardAlpha"/>
<feOffset/>
<feGaussianBlur stdDeviation="4"/>
<feComposite in2="hardAlpha" operator="out"/>
<feColorMatrix type="matrix" values="0 0 0 0 0.0313726 0 0 0 0 0.843137 0 0 0 0 0.976471 0 0 0 1 0"/>
<feBlend mode="normal" in2="BackgroundImageFix" result="effect1_dropShadow_26_1090"/>
<feBlend mode="normal" in="SourceGraphic" in2="effect1_dropShadow_26_1090" result="shape"/>
</filter>
<filter id="filter4_d_26_1090" x="129.646" y="190.293" width="26.7072" height="22.0607" filterUnits="userSpaceOnUse" color-interpolation-filters="sRGB">
<feFlood flood-opacity="0" result="BackgroundImageFix"/>
<feColorMatrix in="SourceAlpha" type="matrix" values="0 0 0 0 0 0 0 0 0 0 0 0 0 0 0 0 0 0 127 0" result="hardAlpha"/>
<feOffset/>
<feGaussianBlur stdDeviation="4"/>
<feComposite in2="hardAlpha" operator="out"/>
<feColorMatrix type="matrix" values="0 0 0 0 0.0313726 0 0 0 0 0.843137 0 0 0 0 0.976471 0 0 0 1 0"/>
<feBlend mode="normal" in2="BackgroundImageFix" result="effect1_dropShadow_26_1090"/>
<feBlend mode="normal" in="SourceGraphic" in2="effect1_dropShadow_26_1090" result="shape"/>
</filter>
<filter id="filter5_d_26_1090" x="1251.65" y="190.293" width="26.7072" height="22.0607" filterUnits="userSpaceOnUse" color-interpolation-filters="sRGB">
<feFlood flood-opacity="0" result="BackgroundImageFix"/>
<feColorMatrix in="SourceAlpha" type="matrix" values="0 0 0 0 0 0 0 0 0 0 0 0 0 0 0 0 0 0 127 0" result="hardAlpha"/>
<feOffset/>
<feGaussianBlur stdDeviation="4"/>
<feComposite in2="hardAlpha" operator="out"/>
<feColorMatrix type="matrix" values="0 0 0 0 0.0313726 0 0 0 0 0.843137 0 0 0 0 0.976471 0 0 0 1 0"/>
<feBlend mode="normal" in2="BackgroundImageFix" result="effect1_dropShadow_26_1090"/>
<feBlend mode="normal" in="SourceGraphic" in2="effect1_dropShadow_26_1090" result="shape"/>
</filter>
<filter id="filter6_d_26_1090" x="129.646" y="271.646" width="26.7072" height="22.0607" filterUnits="userSpaceOnUse" color-interpolation-filters="sRGB">
<feFlood flood-opacity="0" result="BackgroundImageFix"/>
<feColorMatrix in="SourceAlpha" type="matrix" values="0 0 0 0 0 0 0 0 0 0 0 0 0 0 0 0 0 0 127 0" result="hardAlpha"/>
<feOffset/>
<feGaussianBlur stdDeviation="4"/>
<feComposite in2="hardAlpha" operator="out"/>
<feColorMatrix type="matrix" values="0 0 0 0 0.0313726 0 0 0 0 0.843137 0 0 0 0 0.976471 0 0 0 1 0"/>
<feBlend mode="normal" in2="BackgroundImageFix" result="effect1_dropShadow_26_1090"/>
<feBlend mode="normal" in="SourceGraphic" in2="effect1_dropShadow_26_1090" result="shape"/>
</filter>
<filter id="filter7_d_26_1090" x="1251.65" y="271.646" width="26.7072" height="22.0607" filterUnits="userSpaceOnUse" color-interpolation-filters="sRGB">
<feFlood flood-opacity="0" result="BackgroundImageFix"/>
<feColorMatrix in="SourceAlpha" type="matrix" values="0 0 0 0 0 0 0 0 0 0 0 0 0 0 0 0 0 0 127 0" result="hardAlpha"/>
<feOffset/>
<feGaussianBlur stdDeviation="4"/>
<feComposite in2="hardAlpha" operator="out"/>
<feColorMatrix type="matrix" values="0 0 0 0 0.0313726 0 0 0 0 0.843137 0 0 0 0 0.976471 0 0 0 1 0"/>
<feBlend mode="normal" in2="BackgroundImageFix" result="effect1_dropShadow_26_1090"/>
<feBlend mode="normal" in="SourceGraphic" in2="effect1_dropShadow_26_1090" result="shape"/>
</filter>
<filter id="filter8_d_26_1090" x="129.646" y="182.293" width="26.7072" height="22.0607" filterUnits="userSpaceOnUse" color-interpolation-filters="sRGB">
<feFlood flood-opacity="0" result="BackgroundImageFix"/>
<feColorMatrix in="SourceAlpha" type="matrix" values="0 0 0 0 0 0 0 0 0 0 0 0 0 0 0 0 0 0 127 0" result="hardAlpha"/>
<feOffset/>
<feGaussianBlur stdDeviation="4"/>
<feComposite in2="hardAlpha" operator="out"/>
<feColorMatrix type="matrix" values="0 0 0 0 0.0313726 0 0 0 0 0.843137 0 0 0 0 0.976471 0 0 0 1 0"/>
<feBlend mode="normal" in2="BackgroundImageFix" result="effect1_dropShadow_26_1090"/>
<feBlend mode="normal" in="SourceGraphic" in2="effect1_dropShadow_26_1090" result="shape"/>
</filter>
<filter id="filter9_d_26_1090" x="1251.65" y="182.293" width="26.7072" height="22.0607" filterUnits="userSpaceOnUse" color-interpolation-filters="sRGB">
<feFlood flood-opacity="0" result="BackgroundImageFix"/>
<feColorMatrix in="SourceAlpha" type="matrix" values="0 0 0 0 0 0 0 0 0 0 0 0 0 0 0 0 0 0 127 0" result="hardAlpha"/>
<feOffset/>
<feGaussianBlur stdDeviation="4"/>
<feComposite in2="hardAlpha" operator="out"/>
<feColorMatrix type="matrix" values="0 0 0 0 0.0313726 0 0 0 0 0.843137 0 0 0 0 0.976471 0 0 0 1 0"/>
<feBlend mode="normal" in2="BackgroundImageFix" result="effect1_dropShadow_26_1090"/>
<feBlend mode="normal" in="SourceGraphic" in2="effect1_dropShadow_26_1090" result="shape"/>
</filter>
<filter id="filter10_d_26_1090" x="129.616" y="278.68" width="26.7682" height="23.1011" filterUnits="userSpaceOnUse" color-interpolation-filters="sRGB">
<feFlood flood-opacity="0" result="BackgroundImageFix"/>
<feColorMatrix in="SourceAlpha" type="matrix" values="0 0 0 0 0 0 0 0 0 0 0 0 0 0 0 0 0 0 127 0" result="hardAlpha"/>
<feOffset/>
<feGaussianBlur stdDeviation="4"/>
<feComposite in2="hardAlpha" operator="out"/>
<feColorMatrix type="matrix" values="0 0 0 0 0.0313726 0 0 0 0 0.843137 0 0 0 0 0.976471 0 0 0 1 0"/>
<feBlend mode="normal" in2="BackgroundImageFix" result="effect1_dropShadow_26_1090"/>
<feBlend mode="normal" in="SourceGraphic" in2="effect1_dropShadow_26_1090" result="shape"/>
</filter>
<filter id="filter11_d_26_1090" x="1251.62" y="278.68" width="26.7682" height="23.1011" filterUnits="userSpaceOnUse" color-interpolation-filters="sRGB">
<feFlood flood-opacity="0" result="BackgroundImageFix"/>
<feColorMatrix in="SourceAlpha" type="matrix" values="0 0 0 0 0 0 0 0 0 0 0 0 0 0 0 0 0 0 127 0" result="hardAlpha"/>
<feOffset/>
<feGaussianBlur stdDeviation="4"/>
<feComposite in2="hardAlpha" operator="out"/>
<feColorMatrix type="matrix" values="0 0 0 0 0.0313726 0 0 0 0 0.843137 0 0 0 0 0.976471 0 0 0 1 0"/>
<feBlend mode="normal" in2="BackgroundImageFix" result="effect1_dropShadow_26_1090"/>
<feBlend mode="normal" in="SourceGraphic" in2="effect1_dropShadow_26_1090" result="shape"/>
</filter>
<filter id="filter12_d_26_1090" x="107" y="91.5" width="27.5" height="146.911" filterUnits="userSpaceOnUse" color-interpolation-filters="sRGB">
<feFlood flood-opacity="0" result="BackgroundImageFix"/>
<feColorMatrix in="SourceAlpha" type="matrix" values="0 0 0 0 0 0 0 0 0 0 0 0 0 0 0 0 0 0 127 0" result="hardAlpha"/>
<feOffset/>
<feGaussianBlur stdDeviation="4"/>
<feComposite in2="hardAlpha" operator="out"/>
<feColorMatrix type="matrix" values="0 0 0 0 0.0313726 0 0 0 0 0.843137 0 0 0 0 0.976471 0 0 0 1 0"/>
<feBlend mode="normal" in2="BackgroundImageFix" result="effect1_dropShadow_26_1090"/>
<feBlend mode="normal" in="SourceGraphic" in2="effect1_dropShadow_26_1090" result="shape"/>
</filter>
<filter id="filter13_d_26_1090" x="1274.5" y="91.5" width="26.5" height="146.898" filterUnits="userSpaceOnUse" color-interpolation-filters="sRGB">
<feFlood flood-opacity="0" result="BackgroundImageFix"/>
<feColorMatrix in="SourceAlpha" type="matrix" values="0 0 0 0 0 0 0 0 0 0 0 0 0 0 0 0 0 0 127 0" result="hardAlpha"/>
<feOffset/>
<feGaussianBlur stdDeviation="4"/>
<feComposite in2="hardAlpha" operator="out"/>
<feColorMatrix type="matrix" values="0 0 0 0 0.0313726 0 0 0 0 0.843137 0 0 0 0 0.976471 0 0 0 1 0"/>
<feBlend mode="normal" in2="BackgroundImageFix" result="effect1_dropShadow_26_1090"/>
<feBlend mode="normal" in="SourceGraphic" in2="effect1_dropShadow_26_1090" result="shape"/>
</filter>
<filter id="filter14_d_26_1090" x="107" y="244.59" width="27.5" height="147.91" filterUnits="userSpaceOnUse" color-interpolation-filters="sRGB">
<feFlood flood-opacity="0" result="BackgroundImageFix"/>
<feColorMatrix in="SourceAlpha" type="matrix" values="0 0 0 0 0 0 0 0 0 0 0 0 0 0 0 0 0 0 127 0" result="hardAlpha"/>
<feOffset/>
<feGaussianBlur stdDeviation="4"/>
<feComposite in2="hardAlpha" operator="out"/>
<feColorMatrix type="matrix" values="0 0 0 0 0.0313726 0 0 0 0 0.843137 0 0 0 0 0.976471 0 0 0 1 0"/>
<feBlend mode="normal" in2="BackgroundImageFix" result="effect1_dropShadow_26_1090"/>
<feBlend mode="normal" in="SourceGraphic" in2="effect1_dropShadow_26_1090" result="shape"/>
</filter>
<filter id="filter15_d_26_1090" x="1274.5" y="244.603" width="26.5" height="147.897" filterUnits="userSpaceOnUse" color-interpolation-filters="sRGB">
<feFlood flood-opacity="0" result="BackgroundImageFix"/>
<feColorMatrix in="SourceAlpha" type="matrix" values="0 0 0 0 0 0 0 0 0 0 0 0 0 0 0 0 0 0 127 0" result="hardAlpha"/>
<feOffset/>
<feGaussianBlur stdDeviation="4"/>
<feComposite in2="hardAlpha" operator="out"/>
<feColorMatrix type="matrix" values="0 0 0 0 0.0313726 0 0 0 0 0.843137 0 0 0 0 0.976471 0 0 0 1 0"/>
<feBlend mode="normal" in2="BackgroundImageFix" result="effect1_dropShadow_26_1090"/>
<feBlend mode="normal" in="SourceGraphic" in2="effect1_dropShadow_26_1090" result="shape"/>
</filter>
<filter id="filter16_d_26_1090" x="40" y="247.5" width="24.5" height="117" filterUnits="userSpaceOnUse" color-interpolation-filters="sRGB">
<feFlood flood-opacity="0" result="BackgroundImageFix"/>
<feColorMatrix in="SourceAlpha" type="matrix" values="0 0 0 0 0 0 0 0 0 0 0 0 0 0 0 0 0 0 127 0" result="hardAlpha"/>
<feOffset/>
<feGaussianBlur stdDeviation="4"/>
<feComposite in2="hardAlpha" operator="out"/>
<feColorMatrix type="matrix" values="0 0 0 0 0.0313726 0 0 0 0 0.843137 0 0 0 0 0.976471 0 0 0 1 0"/>
<feBlend mode="normal" in2="BackgroundImageFix" result="effect1_dropShadow_26_1090"/>
<feBlend mode="normal" in="SourceGraphic" in2="effect1_dropShadow_26_1090" result="shape"/>
</filter>
<filter id="filter17_d_26_1090" x="46" y="121" width="19" height="117" filterUnits="userSpaceOnUse" color-interpolation-filters="sRGB">
<feFlood flood-opacity="0" result="BackgroundImageFix"/>
<feColorMatrix in="SourceAlpha" type="matrix" values="0 0 0 0 0 0 0 0 0 0 0 0 0 0 0 0 0 0 127 0" result="hardAlpha"/>
<feOffset/>
<feGaussianBlur stdDeviation="4"/>
<feComposite in2="hardAlpha" operator="out"/>
<feColorMatrix type="matrix" values="0 0 0 0 0.0313726 0 0 0 0 0.843137 0 0 0 0 0.976471 0 0 0 1 0"/>
<feBlend mode="normal" in2="BackgroundImageFix" result="effect1_dropShadow_26_1090"/>
<feBlend mode="normal" in="SourceGraphic" in2="effect1_dropShadow_26_1090" result="shape"/>
</filter>
<filter id="filter18_d_26_1090" x="46" y="165" width="19" height="73" filterUnits="userSpaceOnUse" color-interpolation-filters="sRGB">
<feFlood flood-opacity="0" result="BackgroundImageFix"/>
<feColorMatrix in="SourceAlpha" type="matrix" values="0 0 0 0 0 0 0 0 0 0 0 0 0 0 0 0 0 0 127 0" result="hardAlpha"/>
<feOffset/>
<feGaussianBlur stdDeviation="4"/>
<feComposite in2="hardAlpha" operator="out"/>
<feColorMatrix type="matrix" values="0 0 0 0 0.0313726 0 0 0 0 0.843137 0 0 0 0 0.976471 0 0 0 1 0"/>
<feBlend mode="normal" in2="BackgroundImageFix" result="effect1_dropShadow_26_1090"/>
<feBlend mode="normal" in="SourceGraphic" in2="effect1_dropShadow_26_1090" result="shape"/>
</filter>
<filter id="filter19_d_26_1090" x="214.9" y="0.700012" width="44.4844" height="23.3" filterUnits="userSpaceOnUse" color-interpolation-filters="sRGB">
<feFlood flood-opacity="0" result="BackgroundImageFix"/>
<feColorMatrix in="SourceAlpha" type="matrix" values="0 0 0 0 0 0 0 0 0 0 0 0 0 0 0 0 0 0 127 0" result="hardAlpha"/>
<feOffset/>
<feGaussianBlur stdDeviation="4"/>
<feComposite in2="hardAlpha" operator="out"/>
<feColorMatrix type="matrix" values="0 0 0 0 0.0313726 0 0 0 0 0.843137 0 0 0 0 0.976471 0 0 0 1 0"/>
<feBlend mode="normal" in2="BackgroundImageFix" result="effect1_dropShadow_26_1090"/>
<feBlend mode="normal" in="SourceGraphic" in2="effect1_dropShadow_26_1090" result="shape"/>
</filter>
<filter id="filter20_d_26_1090" x="123.92" y="223.7" width="38.3483" height="25.4" filterUnits="userSpaceOnUse" color-interpolation-filters="sRGB">
<feFlood flood-opacity="0" result="BackgroundImageFix"/>
<feColorMatrix in="SourceAlpha" type="matrix" values="0 0 0 0 0 0 0 0 0 0 0 0 0 0 0 0 0 0 127 0" result="hardAlpha"/>
<feOffset/>
<feGaussianBlur stdDeviation="4"/>
<feComposite in2="hardAlpha" operator="out"/>
<feColorMatrix type="matrix" values="0 0 0 0 0.0313726 0 0 0 0 0.843137 0 0 0 0 0.976471 0 0 0 1 0"/>
<feBlend mode="normal" in2="BackgroundImageFix" result="effect1_dropShadow_26_1090"/>
<feBlend mode="normal" in="SourceGraphic" in2="effect1_dropShadow_26_1090" result="shape"/>
</filter>
<filter id="filter21_d_26_1090" x="1223.92" y="223.7" width="38.3483" height="25.4" filterUnits="userSpaceOnUse" color-interpolation-filters="sRGB">
<feFlood flood-opacity="0" result="BackgroundImageFix"/>
<feColorMatrix in="SourceAlpha" type="matrix" values="0 0 0 0 0 0 0 0 0 0 0 0 0 0 0 0 0 0 127 0" result="hardAlpha"/>
<feOffset/>
<feGaussianBlur stdDeviation="4"/>
<feComposite in2="hardAlpha" operator="out"/>
<feColorMatrix type="matrix" values="0 0 0 0 0.0313726 0 0 0 0 0.843137 0 0 0 0 0.976471 0 0 0 1 0"/>
<feBlend mode="normal" in2="BackgroundImageFix" result="effect1_dropShadow_26_1090"/>
<feBlend mode="normal" in="SourceGraphic" in2="effect1_dropShadow_26_1090" result="shape"/>
</filter>
<filter id="filter22_d_26_1090" x="58.9" y="224.6" width="38.0883" height="23.5" filterUnits="userSpaceOnUse" color-interpolation-filters="sRGB">
<feFlood flood-opacity="0" result="BackgroundImageFix"/>
<feColorMatrix in="SourceAlpha" type="matrix" values="0 0 0 0 0 0 0 0 0 0 0 0 0 0 0 0 0 0 127 0" result="hardAlpha"/>
<feOffset/>
<feGaussianBlur stdDeviation="4"/>
<feComposite in2="hardAlpha" operator="out"/>
<feColorMatrix type="matrix" values="0 0 0 0 0.0313726 0 0 0 0 0.843137 0 0 0 0 0.976471 0 0 0 1 0"/>
<feBlend mode="normal" in2="BackgroundImageFix" result="effect1_dropShadow_26_1090"/>
<feBlend mode="normal" in="SourceGraphic" in2="effect1_dropShadow_26_1090" result="shape"/>
</filter>
<filter id="filter23_d_26_1090" x="1286.7" y="223.7" width="38.6883" height="25.4" filterUnits="userSpaceOnUse" color-interpolation-filters="sRGB">
<feFlood flood-opacity="0" result="BackgroundImageFix"/>
<feColorMatrix in="SourceAlpha" type="matrix" values="0 0 0 0 0 0 0 0 0 0 0 0 0 0 0 0 0 0 127 0" result="hardAlpha"/>
<feOffset/>
<feGaussianBlur stdDeviation="4"/>
<feComposite in2="hardAlpha" operator="out"/>
<feColorMatrix type="matrix" values="0 0 0 0 0.0313726 0 0 0 0 0.843137 0 0 0 0 0.976471 0 0 0 1 0"/>
<feBlend mode="normal" in2="BackgroundImageFix" result="effect1_dropShadow_26_1090"/>
<feBlend mode="normal" in="SourceGraphic" in2="effect1_dropShadow_26_1090" result="shape"/>
</filter>
<filter id="filter24_d_26_1090" x="61.55" y="384.6" width="62.4227" height="23.5" filterUnits="userSpaceOnUse" color-interpolation-filters="sRGB">
<feFlood flood-opacity="0" result="BackgroundImageFix"/>
<feColorMatrix in="SourceAlpha" type="matrix" values="0 0 0 0 0 0 0 0 0 0 0 0 0 0 0 0 0 0 127 0" result="hardAlpha"/>
<feOffset/>
<feGaussianBlur stdDeviation="4"/>
<feComposite in2="hardAlpha" operator="out"/>
<feColorMatrix type="matrix" values="0 0 0 0 0.0313726 0 0 0 0 0.843137 0 0 0 0 0.976471 0 0 0 1 0"/>
<feBlend mode="normal" in2="BackgroundImageFix" result="effect1_dropShadow_26_1090"/>
<feBlend mode="normal" in="SourceGraphic" in2="effect1_dropShadow_26_1090" result="shape"/>
</filter>
<filter id="filter25_d_26_1090" x="1242.88" y="384.6" width="50.3605" height="23.5" filterUnits="userSpaceOnUse" color-interpolation-filters="sRGB">
<feFlood flood-opacity="0" result="BackgroundImageFix"/>
<feColorMatrix in="SourceAlpha" type="matrix" values="0 0 0 0 0 0 0 0 0 0 0 0 0 0 0 0 0 0 127 0" result="hardAlpha"/>
<feOffset/>
<feGaussianBlur stdDeviation="4"/>
<feComposite in2="hardAlpha" operator="out"/>
<feColorMatrix type="matrix" values="0 0 0 0 0.0313726 0 0 0 0 0.843137 0 0 0 0 0.976471 0 0 0 1 0"/>
<feBlend mode="normal" in2="BackgroundImageFix" result="effect1_dropShadow_26_1090"/>
<feBlend mode="normal" in="SourceGraphic" in2="effect1_dropShadow_26_1090" result="shape"/>
</filter>
<filter id="filter26_d_26_1090" x="0.679993" y="158.7" width="32.6622" height="23.4" filterUnits="userSpaceOnUse" color-interpolation-filters="sRGB">
<feFlood flood-opacity="0" result="BackgroundImageFix"/>
<feColorMatrix in="SourceAlpha" type="matrix" values="0 0 0 0 0 0 0 0 0 0 0 0 0 0 0 0 0 0 127 0" result="hardAlpha"/>
<feOffset/>
<feGaussianBlur stdDeviation="4"/>
<feComposite in2="hardAlpha" operator="out"/>
<feColorMatrix type="matrix" values="0 0 0 0 0.0313726 0 0 0 0 0.843137 0 0 0 0 0.976471 0 0 0 1 0"/>
<feBlend mode="normal" in2="BackgroundImageFix" result="effect1_dropShadow_26_1090"/>
<feBlend mode="normal" in="SourceGraphic" in2="effect1_dropShadow_26_1090" result="shape"/>
</filter>
<filter id="filter27_d_26_1090" x="0.799988" y="287.7" width="32.5422" height="23.4" filterUnits="userSpaceOnUse" color-interpolation-filters="sRGB">
<feFlood flood-opacity="0" result="BackgroundImageFix"/>
<feColorMatrix in="SourceAlpha" type="matrix" values="0 0 0 0 0 0 0 0 0 0 0 0 0 0 0 0 0 0 127 0" result="hardAlpha"/>
<feOffset/>
<feGaussianBlur stdDeviation="4"/>
<feComposite in2="hardAlpha" operator="out"/>
<feColorMatrix type="matrix" values="0 0 0 0 0.0313726 0 0 0 0 0.843137 0 0 0 0 0.976471 0 0 0 1 0"/>
<feBlend mode="normal" in2="BackgroundImageFix" result="effect1_dropShadow_26_1090"/>
<feBlend mode="normal" in="SourceGraphic" in2="effect1_dropShadow_26_1090" result="shape"/>
</filter>
<filter id="filter28_d_26_1090" x="1293.8" y="185.6" width="26.3961" height="23.5" filterUnits="userSpaceOnUse" color-interpolation-filters="sRGB">
<feFlood flood-opacity="0" result="BackgroundImageFix"/>
<feColorMatrix in="SourceAlpha" type="matrix" values="0 0 0 0 0 0 0 0 0 0 0 0 0 0 0 0 0 0 127 0" result="hardAlpha"/>
<feOffset/>
<feGaussianBlur stdDeviation="4"/>
<feComposite in2="hardAlpha" operator="out"/>
<feColorMatrix type="matrix" values="0 0 0 0 0.0313726 0 0 0 0 0.843137 0 0 0 0 0.976471 0 0 0 1 0"/>
<feBlend mode="normal" in2="BackgroundImageFix" result="effect1_dropShadow_26_1090"/>
<feBlend mode="normal" in="SourceGraphic" in2="effect1_dropShadow_26_1090" result="shape"/>
</filter>
<filter id="filter29_d_26_1090" x="82.72" y="185.6" width="26.4761" height="23.5" filterUnits="userSpaceOnUse" color-interpolation-filters="sRGB">
<feFlood flood-opacity="0" result="BackgroundImageFix"/>
<feColorMatrix in="SourceAlpha" type="matrix" values="0 0 0 0 0 0 0 0 0 0 0 0 0 0 0 0 0 0 127 0" result="hardAlpha"/>
<feOffset/>
<feGaussianBlur stdDeviation="4"/>
<feComposite in2="hardAlpha" operator="out"/>
<feColorMatrix type="matrix" values="0 0 0 0 0.0313726 0 0 0 0 0.843137 0 0 0 0 0.976471 0 0 0 1 0"/>
<feBlend mode="normal" in2="BackgroundImageFix" result="effect1_dropShadow_26_1090"/>
<feBlend mode="normal" in="SourceGraphic" in2="effect1_dropShadow_26_1090" result="shape"/>
</filter>
<filter id="filter30_d_26_1090" x="1293.68" y="129.6" width="26.5161" height="23.5" filterUnits="userSpaceOnUse" color-interpolation-filters="sRGB">
<feFlood flood-opacity="0" result="BackgroundImageFix"/>
<feColorMatrix in="SourceAlpha" type="matrix" values="0 0 0 0 0 0 0 0 0 0 0 0 0 0 0 0 0 0 127 0" result="hardAlpha"/>
<feOffset/>
<feGaussianBlur stdDeviation="4"/>
<feComposite in2="hardAlpha" operator="out"/>
<feColorMatrix type="matrix" values="0 0 0 0 0.0313726 0 0 0 0 0.843137 0 0 0 0 0.976471 0 0 0 1 0"/>
<feBlend mode="normal" in2="BackgroundImageFix" result="effect1_dropShadow_26_1090"/>
<feBlend mode="normal" in="SourceGraphic" in2="effect1_dropShadow_26_1090" result="shape"/>
</filter>
<filter id="filter31_d_26_1090" x="82.8" y="129.6" width="26.3961" height="23.5" filterUnits="userSpaceOnUse" color-interpolation-filters="sRGB">
<feFlood flood-opacity="0" result="BackgroundImageFix"/>
<feColorMatrix in="SourceAlpha" type="matrix" values="0 0 0 0 0 0 0 0 0 0 0 0 0 0 0 0 0 0 127 0" result="hardAlpha"/>
<feOffset/>
<feGaussianBlur stdDeviation="4"/>
<feComposite in2="hardAlpha" operator="out"/>
<feColorMatrix type="matrix" values="0 0 0 0 0.0313726 0 0 0 0 0.843137 0 0 0 0 0.976471 0 0 0 1 0"/>
<feBlend mode="normal" in2="BackgroundImageFix" result="effect1_dropShadow_26_1090"/>
<feBlend mode="normal" in="SourceGraphic" in2="effect1_dropShadow_26_1090" result="shape"/>
</filter>
<filter id="filter32_d_26_1090" x="1293.8" y="337.6" width="20.4" height="23.5" filterUnits="userSpaceOnUse" color-interpolation-filters="sRGB">
<feFlood flood-opacity="0" result="BackgroundImageFix"/>
<feColorMatrix in="SourceAlpha" type="matrix" values="0 0 0 0 0 0 0 0 0 0 0 0 0 0 0 0 0 0 127 0" result="hardAlpha"/>
<feOffset/>
<feGaussianBlur stdDeviation="4"/>
<feComposite in2="hardAlpha" operator="out"/>
<feColorMatrix type="matrix" values="0 0 0 0 0.0313726 0 0 0 0 0.843137 0 0 0 0 0.976471 0 0 0 1 0"/>
<feBlend mode="normal" in2="BackgroundImageFix" result="effect1_dropShadow_26_1090"/>
<feBlend mode="normal" in="SourceGraphic" in2="effect1_dropShadow_26_1090" result="shape"/>
</filter>
<filter id="filter33_d_26_1090" x="71.4" y="337.6" width="31.7922" height="23.5" filterUnits="userSpaceOnUse" color-interpolation-filters="sRGB">
<feFlood flood-opacity="0" result="BackgroundImageFix"/>
<feColorMatrix in="SourceAlpha" type="matrix" values="0 0 0 0 0 0 0 0 0 0 0 0 0 0 0 0 0 0 127 0" result="hardAlpha"/>
<feOffset/>
<feGaussianBlur stdDeviation="4"/>
<feComposite in2="hardAlpha" operator="out"/>
<feColorMatrix type="matrix" values="0 0 0 0 0.0313726 0 0 0 0 0.843137 0 0 0 0 0.976471 0 0 0 1 0"/>
<feBlend mode="normal" in2="BackgroundImageFix" result="effect1_dropShadow_26_1090"/>
<feBlend mode="normal" in="SourceGraphic" in2="effect1_dropShadow_26_1090" result="shape"/>
</filter>
<filter id="filter34_d_26_1090" x="1293.72" y="261.6" width="26.4761" height="23.5" filterUnits="userSpaceOnUse" color-interpolation-filters="sRGB">
<feFlood flood-opacity="0" result="BackgroundImageFix"/>
<feColorMatrix in="SourceAlpha" type="matrix" values="0 0 0 0 0 0 0 0 0 0 0 0 0 0 0 0 0 0 127 0" result="hardAlpha"/>
<feOffset/>
<feGaussianBlur stdDeviation="4"/>
<feComposite in2="hardAlpha" operator="out"/>
<feColorMatrix type="matrix" values="0 0 0 0 0.0313726 0 0 0 0 0.843137 0 0 0 0 0.976471 0 0 0 1 0"/>
<feBlend mode="normal" in2="BackgroundImageFix" result="effect1_dropShadow_26_1090"/>
<feBlend mode="normal" in="SourceGraphic" in2="effect1_dropShadow_26_1090" result="shape"/>
</filter>
<filter id="filter35_d_26_1090" x="88.8" y="261.6" width="20.4" height="23.5" filterUnits="userSpaceOnUse" color-interpolation-filters="sRGB">
<feFlood flood-opacity="0" result="BackgroundImageFix"/>
<feColorMatrix in="SourceAlpha" type="matrix" values="0 0 0 0 0 0 0 0 0 0 0 0 0 0 0 0 0 0 127 0" result="hardAlpha"/>
<feOffset/>
<feGaussianBlur stdDeviation="4"/>
<feComposite in2="hardAlpha" operator="out"/>
<feColorMatrix type="matrix" values="0 0 0 0 0.0313726 0 0 0 0 0.843137 0 0 0 0 0.976471 0 0 0 1 0"/>
<feBlend mode="normal" in2="BackgroundImageFix" result="effect1_dropShadow_26_1090"/>
<feBlend mode="normal" in="SourceGraphic" in2="effect1_dropShadow_26_1090" result="shape"/>
</filter>
<filter id="filter36_d_26_1090" x="1033.92" y="0.600006" width="44.4144" height="23.5" filterUnits="userSpaceOnUse" color-interpolation-filters="sRGB">
<feFlood flood-opacity="0" result="BackgroundImageFix"/>
<feColorMatrix in="SourceAlpha" type="matrix" values="0 0 0 0 0 0 0 0 0 0 0 0 0 0 0 0 0 0 127 0" result="hardAlpha"/>
<feOffset/>
<feGaussianBlur stdDeviation="4"/>
<feComposite in2="hardAlpha" operator="out"/>
<feColorMatrix type="matrix" values="0 0 0 0 0.0313726 0 0 0 0 0.843137 0 0 0 0 0.976471 0 0 0 1 0"/>
<feBlend mode="normal" in2="BackgroundImageFix" result="effect1_dropShadow_26_1090"/>
<feBlend mode="normal" in="SourceGraphic" in2="effect1_dropShadow_26_1090" result="shape"/>
</filter>
<filter id="filter37_d_26_1090" x="571.8" y="33.6" width="20.4" height="23.5" filterUnits="userSpaceOnUse" color-interpolation-filters="sRGB">
<feFlood flood-opacity="0" result="BackgroundImageFix"/>
<feColorMatrix in="SourceAlpha" type="matrix" values="0 0 0 0 0 0 0 0 0 0 0 0 0 0 0 0 0 0 127 0" result="hardAlpha"/>
<feOffset/>
<feGaussianBlur stdDeviation="4"/>
<feComposite in2="hardAlpha" operator="out"/>
<feColorMatrix type="matrix" values="0 0 0 0 0.0313726 0 0 0 0 0.843137 0 0 0 0 0.976471 0 0 0 1 0"/>
<feBlend mode="normal" in2="BackgroundImageFix" result="effect1_dropShadow_26_1090"/>
<feBlend mode="normal" in="SourceGraphic" in2="effect1_dropShadow_26_1090" result="shape"/>
</filter>
<filter id="filter38_d_26_1090" x="635.68" y="33.6" width="26.5161" height="23.5" filterUnits="userSpaceOnUse" color-interpolation-filters="sRGB">
<feFlood flood-opacity="0" result="BackgroundImageFix"/>
<feColorMatrix in="SourceAlpha" type="matrix" values="0 0 0 0 0 0 0 0 0 0 0 0 0 0 0 0 0 0 127 0" result="hardAlpha"/>
<feOffset/>
<feGaussianBlur stdDeviation="4"/>
<feComposite in2="hardAlpha" operator="out"/>
<feColorMatrix type="matrix" values="0 0 0 0 0.0313726 0 0 0 0 0.843137 0 0 0 0 0.976471 0 0 0 1 0"/>
<feBlend mode="normal" in2="BackgroundImageFix" result="effect1_dropShadow_26_1090"/>
<feBlend mode="normal" in="SourceGraphic" in2="effect1_dropShadow_26_1090" result="shape"/>
</filter>
<filter id="filter39_d_26_1090" x="705.9" y="33.6" width="32.2922" height="23.5" filterUnits="userSpaceOnUse" color-interpolation-filters="sRGB">
<feFlood flood-opacity="0" result="BackgroundImageFix"/>
<feColorMatrix in="SourceAlpha" type="matrix" values="0 0 0 0 0 0 0 0 0 0 0 0 0 0 0 0 0 0 127 0" result="hardAlpha"/>
<feOffset/>
<feGaussianBlur stdDeviation="4"/>
<feComposite in2="hardAlpha" operator="out"/>
<feColorMatrix type="matrix" values="0 0 0 0 0.0313726 0 0 0 0 0.843137 0 0 0 0 0.976471 0 0 0 1 0"/>
<feBlend mode="normal" in2="BackgroundImageFix" result="effect1_dropShadow_26_1090"/>
<feBlend mode="normal" in="SourceGraphic" in2="effect1_dropShadow_26_1090" result="shape"/>
</filter>
<filter id="filter40_d_26_1090" x="770.9" y="33.59" width="32.2922" height="23.51" filterUnits="userSpaceOnUse" color-interpolation-filters="sRGB">
<feFlood flood-opacity="0" result="BackgroundImageFix"/>
<feColorMatrix in="SourceAlpha" type="matrix" values="0 0 0 0 0 0 0 0 0 0 0 0 0 0 0 0 0 0 127 0" result="hardAlpha"/>
<feOffset/>
<feGaussianBlur stdDeviation="4"/>
<feComposite in2="hardAlpha" operator="out"/>
<feColorMatrix type="matrix" values="0 0 0 0 0.0313726 0 0 0 0 0.843137 0 0 0 0 0.976471 0 0 0 1 0"/>
<feBlend mode="normal" in2="BackgroundImageFix" result="effect1_dropShadow_26_1090"/>
<feBlend mode="normal" in="SourceGraphic" in2="effect1_dropShadow_26_1090" result="shape"/>
</filter>
<filter id="filter41_d_26_1090" x="1110.88" y="0.589996" width="38.2883" height="23.51" filterUnits="userSpaceOnUse" color-interpolation-filters="sRGB">
<feFlood flood-opacity="0" result="BackgroundImageFix"/>
<feColorMatrix in="SourceAlpha" type="matrix" values="0 0 0 0 0 0 0 0 0 0 0 0 0 0 0 0 0 0 127 0" result="hardAlpha"/>
<feOffset/>
<feGaussianBlur stdDeviation="4"/>
<feComposite in2="hardAlpha" operator="out"/>
<feColorMatrix type="matrix" values="0 0 0 0 0.0313726 0 0 0 0 0.843137 0 0 0 0 0.976471 0 0 0 1 0"/>
<feBlend mode="normal" in2="BackgroundImageFix" result="effect1_dropShadow_26_1090"/>
<feBlend mode="normal" in="SourceGraphic" in2="effect1_dropShadow_26_1090" result="shape"/>
</filter>
<filter id="filter42_d_26_1090" x="1177.88" y="0.589996" width="38.2283" height="23.51" filterUnits="userSpaceOnUse" color-interpolation-filters="sRGB">
<feFlood flood-opacity="0" result="BackgroundImageFix"/>
<feColorMatrix in="SourceAlpha" type="matrix" values="0 0 0 0 0 0 0 0 0 0 0 0 0 0 0 0 0 0 127 0" result="hardAlpha"/>
<feOffset/>
<feGaussianBlur stdDeviation="4"/>
<feComposite in2="hardAlpha" operator="out"/>
<feColorMatrix type="matrix" values="0 0 0 0 0.0313726 0 0 0 0 0.843137 0 0 0 0 0.976471 0 0 0 1 0"/>
<feBlend mode="normal" in2="BackgroundImageFix" result="effect1_dropShadow_26_1090"/>
<feBlend mode="normal" in="SourceGraphic" in2="effect1_dropShadow_26_1090" result="shape"/>
</filter>
<filter id="filter43_d_26_1090" x="647" y="56" width="17" height="32" filterUnits="userSpaceOnUse" color-interpolation-filters="sRGB">
<feFlood flood-opacity="0" result="BackgroundImageFix"/>
<feColorMatrix in="SourceAlpha" type="matrix" values="0 0 0 0 0 0 0 0 0 0 0 0 0 0 0 0 0 0 127 0" result="hardAlpha"/>
<feOffset/>
<feGaussianBlur stdDeviation="4"/>
<feComposite in2="hardAlpha" operator="out"/>
<feColorMatrix type="matrix" values="0 0 0 0 0.0313726 0 0 0 0 0.843137 0 0 0 0 0.976471 0 0 0 1 0"/>
<feBlend mode="normal" in2="BackgroundImageFix" result="effect1_dropShadow_26_1090"/>
<feBlend mode="normal" in="SourceGraphic" in2="effect1_dropShadow_26_1090" result="shape"/>
</filter>
<filter id="filter44_d_26_1090" x="600" y="65" width="17" height="23" filterUnits="userSpaceOnUse" color-interpolation-filters="sRGB">
<feFlood flood-opacity="0" result="BackgroundImageFix"/>
<feColorMatrix in="SourceAlpha" type="matrix" values="0 0 0 0 0 0 0 0 0 0 0 0 0 0 0 0 0 0 127 0" result="hardAlpha"/>
<feOffset/>
<feGaussianBlur stdDeviation="4"/>
<feComposite in2="hardAlpha" operator="out"/>
<feColorMatrix type="matrix" values="0 0 0 0 0.0313726 0 0 0 0 0.843137 0 0 0 0 0.976471 0 0 0 1 0"/>
<feBlend mode="normal" in2="BackgroundImageFix" result="effect1_dropShadow_26_1090"/>
<feBlend mode="normal" in="SourceGraphic" in2="effect1_dropShadow_26_1090" result="shape"/>
</filter>
<filter id="filter45_d_26_1090" x="670" y="65" width="17" height="23" filterUnits="userSpaceOnUse" color-interpolation-filters="sRGB">
<feFlood flood-opacity="0" result="BackgroundImageFix"/>
<feColorMatrix in="SourceAlpha" type="matrix" values="0 0 0 0 0 0 0 0 0 0 0 0 0 0 0 0 0 0 127 0" result="hardAlpha"/>
<feOffset/>
<feGaussianBlur stdDeviation="4"/>
<feComposite in2="hardAlpha" operator="out"/>
<feColorMatrix type="matrix" values="0 0 0 0 0.0313726 0 0 0 0 0.843137 0 0 0 0 0.976471 0 0 0 1 0"/>
<feBlend mode="normal" in2="BackgroundImageFix" result="effect1_dropShadow_26_1090"/>
<feBlend mode="normal" in="SourceGraphic" in2="effect1_dropShadow_26_1090" result="shape"/>
</filter>
<filter id="filter46_d_26_1090" x="740" y="65" width="17" height="23" filterUnits="userSpaceOnUse" color-interpolation-filters="sRGB">
<feFlood flood-opacity="0" result="BackgroundImageFix"/>
<feColorMatrix in="SourceAlpha" type="matrix" values="0 0 0 0 0 0 0 0 0 0 0 0 0 0 0 0 0 0 127 0" result="hardAlpha"/>
<feOffset/>
<feGaussianBlur stdDeviation="4"/>
<feComposite in2="hardAlpha" operator="out"/>
<feColorMatrix type="matrix" values="0 0 0 0 0.0313726 0 0 0 0 0.843137 0 0 0 0 0.976471 0 0 0 1 0"/>
<feBlend mode="normal" in2="BackgroundImageFix" result="effect1_dropShadow_26_1090"/>
<feBlend mode="normal" in="SourceGraphic" in2="effect1_dropShadow_26_1090" result="shape"/>
</filter>
<filter id="filter47_d_26_1090" x="624" y="65" width="17" height="23" filterUnits="userSpaceOnUse" color-interpolation-filters="sRGB">
<feFlood flood-opacity="0" result="BackgroundImageFix"/>
<feColorMatrix in="SourceAlpha" type="matrix" values="0 0 0 0 0 0 0 0 0 0 0 0 0 0 0 0 0 0 127 0" result="hardAlpha"/>
<feOffset/>
<feGaussianBlur stdDeviation="4"/>
<feComposite in2="hardAlpha" operator="out"/>
<feColorMatrix type="matrix" values="0 0 0 0 0.0313726 0 0 0 0 0.843137 0 0 0 0 0.976471 0 0 0 1 0"/>
<feBlend mode="normal" in2="BackgroundImageFix" result="effect1_dropShadow_26_1090"/>
<feBlend mode="normal" in="SourceGraphic" in2="effect1_dropShadow_26_1090" result="shape"/>
</filter>
<filter id="filter48_d_26_1090" x="694" y="65" width="17" height="23" filterUnits="userSpaceOnUse" color-interpolation-filters="sRGB">
<feFlood flood-opacity="0" result="BackgroundImageFix"/>
<feColorMatrix in="SourceAlpha" type="matrix" values="0 0 0 0 0 0 0 0 0 0 0 0 0 0 0 0 0 0 127 0" result="hardAlpha"/>
<feOffset/>
<feGaussianBlur stdDeviation="4"/>
<feComposite in2="hardAlpha" operator="out"/>
<feColorMatrix type="matrix" values="0 0 0 0 0.0313726 0 0 0 0 0.843137 0 0 0 0 0.976471 0 0 0 1 0"/>
<feBlend mode="normal" in2="BackgroundImageFix" result="effect1_dropShadow_26_1090"/>
<feBlend mode="normal" in="SourceGraphic" in2="effect1_dropShadow_26_1090" result="shape"/>
</filter>
<filter id="filter49_d_26_1090" x="764" y="65" width="17" height="23" filterUnits="userSpaceOnUse" color-interpolation-filters="sRGB">
<feFlood flood-opacity="0" result="BackgroundImageFix"/>
<feColorMatrix in="SourceAlpha" type="matrix" values="0 0 0 0 0 0 0 0 0 0 0 0 0 0 0 0 0 0 127 0" result="hardAlpha"/>
<feOffset/>
<feGaussianBlur stdDeviation="4"/>
<feComposite in2="hardAlpha" operator="out"/>
<feColorMatrix type="matrix" values="0 0 0 0 0.0313726 0 0 0 0 0.843137 0 0 0 0 0.976471 0 0 0 1 0"/>
<feBlend mode="normal" in2="BackgroundImageFix" result="effect1_dropShadow_26_1090"/>
<feBlend mode="normal" in="SourceGraphic" in2="effect1_dropShadow_26_1090" result="shape"/>
</filter>
<filter id="filter50_d_26_1090" x="787" y="56" width="17" height="32" filterUnits="userSpaceOnUse" color-interpolation-filters="sRGB">
<feFlood flood-opacity="0" result="BackgroundImageFix"/>
<feColorMatrix in="SourceAlpha" type="matrix" values="0 0 0 0 0 0 0 0 0 0 0 0 0 0 0 0 0 0 127 0" result="hardAlpha"/>
<feOffset/>
<feGaussianBlur stdDeviation="4"/>
<feComposite in2="hardAlpha" operator="out"/>
<feColorMatrix type="matrix" values="0 0 0 0 0.0313726 0 0 0 0 0.843137 0 0 0 0 0.976471 0 0 0 1 0"/>
<feBlend mode="normal" in2="BackgroundImageFix" result="effect1_dropShadow_26_1090"/>
<feBlend mode="normal" in="SourceGraphic" in2="effect1_dropShadow_26_1090" result="shape"/>
</filter>
<filter id="filter51_d_26_1090" x="717" y="56" width="17" height="32" filterUnits="userSpaceOnUse" color-interpolation-filters="sRGB">
<feFlood flood-opacity="0" result="BackgroundImageFix"/>
<feColorMatrix in="SourceAlpha" type="matrix" values="0 0 0 0 0 0 0 0 0 0 0 0 0 0 0 0 0 0 127 0" result="hardAlpha"/>
<feOffset/>
<feGaussianBlur stdDeviation="4"/>
<feComposite in2="hardAlpha" operator="out"/>
<feColorMatrix type="matrix" values="0 0 0 0 0.0313726 0 0 0 0 0.843137 0 0 0 0 0.976471 0 0 0 1 0"/>
<feBlend mode="normal" in2="BackgroundImageFix" result="effect1_dropShadow_26_1090"/>
<feBlend mode="normal" in="SourceGraphic" in2="effect1_dropShadow_26_1090" result="shape"/>
</filter>
<filter id="filter52_d_26_1090" x="577" y="56" width="17" height="32" filterUnits="userSpaceOnUse" color-interpolation-filters="sRGB">
<feFlood flood-opacity="0" result="BackgroundImageFix"/>
<feColorMatrix in="SourceAlpha" type="matrix" values="0 0 0 0 0 0 0 0 0 0 0 0 0 0 0 0 0 0 127 0" result="hardAlpha"/>
<feOffset/>
<feGaussianBlur stdDeviation="4"/>
<feComposite in2="hardAlpha" operator="out"/>
<feColorMatrix type="matrix" values="0 0 0 0 0.0313726 0 0 0 0 0.843137 0 0 0 0 0.976471 0 0 0 1 0"/>
<feBlend mode="normal" in2="BackgroundImageFix" result="effect1_dropShadow_26_1090"/>
<feBlend mode="normal" in="SourceGraphic" in2="effect1_dropShadow_26_1090" result="shape"/>
</filter>
</defs>
</svg>
