<svg width="1342" height="416" fill="none" xmlns="http://www.w3.org/2000/svg"><g filter="url(#filter0_d_26_1090)"><path d="M138 213l5-5 5 5" stroke="#5EEBF0"/></g><g filter="url(#filter1_d_26_1090)"><path d="M1270 213l-5-5-5 5" stroke="#5EEBF0"/></g><g filter="url(#filter2_d_26_1090)"><path d="M138 271l5 5 5-5" stroke="#5EEBF0"/></g><g filter="url(#filter3_d_26_1090)"><path d="M1270 271l-5 5-5-5" stroke="#5EEBF0"/></g><g filter="url(#filter4_d_26_1090)"><path d="M138 204l5-5 5 5" stroke="#5EEBF0"/></g><g filter="url(#filter5_d_26_1090)"><path d="M1270 204l-5-5-5 5" stroke="#5EEBF0"/></g><g filter="url(#filter6_d_26_1090)"><path d="M138 280l5 5 5-5" stroke="#5EEBF0"/></g><g filter="url(#filter7_d_26_1090)"><path d="M1270 280l-5 5-5-5" stroke="#5EEBF0"/></g><g filter="url(#filter8_d_26_1090)"><path d="M138 196l5-5 5 5" stroke="#5EEBF0"/></g><g filter="url(#filter9_d_26_1090)"><path d="M1270 196l-5-5-5 5" stroke="#5EEBF0"/></g><g filter="url(#filter10_d_26_1090)"><path d="M138 287l5 6 5-6" stroke="#5EEBF0"/></g><g filter="url(#filter11_d_26_1090)"><path d="M1270 287l-5 6-5-6" stroke="#5EEBF0"/></g><g filter="url(#filter12_d_26_1090)"><path d="M115 100h11v123.158L116.1 230" stroke="#5EEBF0"/></g><g filter="url(#filter13_d_26_1090)"><path d="M1293 100h-10v123.158l9 6.842" stroke="#5EEBF0"/></g><g filter="url(#filter14_d_26_1090)"><path d="M115 384h11V259.895L116.1 253" stroke="#5EEBF0"/></g><g filter="url(#filter15_d_26_1090)"><path d="M1293 384h-10V259.895l9-6.895" stroke="#5EEBF0"/></g><g filter="url(#filter16_d_26_1090)"><path d="M48 256h8v100h-8" stroke="#5EEBF0"/></g><g filter="url(#filter17_d_26_1090)"><rect x="54" y="129" width="3" height="101" rx="1.5" fill="#5EEBF0" fill-opacity=".5" shape-rendering="crispEdges"/></g><g filter="url(#filter18_d_26_1090)"><path d="M54 173h3v55.5a1.5 1.5 0 01-3 0V173z" fill="#5EEBF0"/></g><g filter="url(#filter19_d_26_1090)"><path d="M222.9 16V8.7h1.2l2.23 6.25-.05-.61-.04-.77a30.07 30.07 0 01-.01-.77V8.7h.87V16h-1.2l-2.22-6.25a27.118 27.118 0 01.07 1.38c.013.267.02.523.02.77V16h-.87zm5.596 0l1.9-7.3h1.21l1.89 7.3h-.91l-.48-1.94h-2.21l-.48 1.94h-.92zm1.58-2.7h1.84l-.56-2.25c-.107-.427-.19-.783-.25-1.07a13.3 13.3 0 01-.11-.56 13.3 13.3 0 01-.11.56c-.06.287-.143.64-.25 1.06l-.56 2.26zm6.296 2.7l-1.88-7.3h.93l1.24 4.96c.087.347.16.67.22.97.06.293.104.517.13.67l.12-.67c.06-.3.134-.623.22-.97l1.23-4.96h.91l-1.89 7.3h-1.23zm10.512 0v-.82h1.98V9.45l-1.98 1.48v-1l1.65-1.23h1.23v6.48h1.62V16h-4.5z" fill="#5EEBF0"/></g><g filter="url(#filter20_d_26_1090)"><path d="M131.92 240v-7.3h.9v3.13h1.08l1.62-3.13h.98l-1.81 3.51 1.91 3.79h-1.03l-1.7-3.38h-1.05V240h-.9zm5.836 0v-7.3h1.18l.76 2.36c.073.213.14.427.2.64.06.207.103.367.13.48.033-.113.077-.273.13-.48.053-.213.113-.43.18-.65l.72-2.35h1.18v7.3h-.88v-2.65c0-.293.01-.627.03-1 .02-.373.047-.753.08-1.14.033-.393.067-.767.1-1.12.04-.36.073-.673.1-.94l-1.18 3.65h-.95l-1.19-3.65a40.453 40.453 0 01.19 2c.027.38.05.76.07 1.14.02.38.03.733.03 1.06V240h-.88zm5.986 1.1l3.55-9.4h.95l-3.55 9.4h-.95zm8.286-1c-.48 0-.893-.08-1.24-.24-.34-.16-.603-.39-.79-.69-.186-.3-.283-.657-.29-1.07h.9c0 .367.124.657.37.87.254.213.604.32 1.05.32.42 0 .747-.103.98-.31.24-.207.36-.493.36-.86 0-.293-.08-.55-.24-.77a1.196 1.196 0 00-.67-.46l-.99-.31c-.5-.153-.886-.41-1.16-.77-.266-.36-.4-.783-.4-1.27 0-.393.087-.733.26-1.02.18-.293.43-.52.75-.68.32-.167.697-.25 1.13-.25.64 0 1.154.18 1.54.54.387.353.584.827.59 1.42h-.9c0-.36-.11-.64-.33-.84-.213-.207-.516-.31-.91-.31-.386 0-.69.093-.91.28-.213.187-.32.447-.32.78 0 .3.08.56.24.78.16.22.39.377.69.47l1 .32c.487.153.864.413 1.13.78.267.367.4.797.4 1.29 0 .4-.093.75-.28 1.05-.186.3-.45.533-.79.7-.333.167-.723.25-1.17.25z" fill="#5EEBF0"/></g><g filter="url(#filter21_d_26_1090)"><path d="M1231.92 240v-7.3h.9v3.13h1.08l1.62-3.13h.98l-1.81 3.51 1.91 3.79h-1.03l-1.7-3.38h-1.05V240h-.9zm5.84 0v-7.3h1.18l.76 2.36c.07.213.14.427.2.64.06.207.1.367.13.48.03-.113.07-.273.13-.48.05-.213.11-.43.18-.65l.72-2.35h1.18v7.3h-.88v-2.65c0-.293.01-.627.03-1 .02-.373.04-.753.08-1.14.03-.393.06-.767.1-1.12.04-.36.07-.673.1-.94l-1.18 3.65h-.95l-1.19-3.65c.03.26.06.563.1.91.03.34.06.703.09 1.09.02.38.05.76.07 1.14.02.38.03.733.03 1.06V240h-.88zm5.98 1.1l3.55-9.4h.95l-3.55 9.4h-.95zm8.29-1c-.48 0-.9-.08-1.24-.24a1.78 1.78 0 01-.79-.69 1.96 1.96 0 01-.29-1.07h.9c0 .367.12.657.37.87.25.213.6.32 1.05.32.42 0 .74-.103.98-.31.24-.207.36-.493.36-.86a1.235 1.235 0 00-.91-1.23l-.99-.31c-.5-.153-.89-.41-1.16-.77-.27-.36-.4-.783-.4-1.27 0-.393.08-.733.26-1.02.18-.293.43-.52.75-.68.32-.167.69-.25 1.13-.25.64 0 1.15.18 1.54.54.38.353.58.827.59 1.42h-.9c0-.36-.11-.64-.33-.84-.22-.207-.52-.31-.91-.31s-.69.093-.91.28c-.22.187-.32.447-.32.78 0 .3.08.56.24.78.16.22.39.377.69.47l1 .32c.48.153.86.413 1.13.78.26.367.4.797.4 1.29 0 .4-.1.75-.28 1.05-.19.3-.45.533-.79.7-.34.167-.73.25-1.17.25z" fill="#5EEBF0"/></g><g filter="url(#filter22_d_26_1090)"><path d="M66.9 240v-.82h1.98v-5.73l-1.98 1.48v-1l1.65-1.23h1.23v6.48h1.62v.82h-4.5zm8.096.1c-.447 0-.837-.087-1.17-.26-.327-.18-.58-.43-.76-.75a2.326 2.326 0 01-.27-1.14v-3.2c0-.44.09-.82.27-1.14.18-.32.433-.567.76-.74.333-.18.723-.27 1.17-.27.453 0 .843.09 1.17.27.327.173.58.42.76.74.18.32.27.7.27 1.14v3.2c0 .433-.09.813-.27 1.14-.18.32-.437.57-.77.75-.327.173-.713.26-1.16.26zm0-.77c.4 0 .72-.127.96-.38.247-.26.37-.593.37-1v-3.2c0-.407-.123-.737-.37-.99-.24-.26-.56-.39-.96-.39-.4 0-.723.13-.97.39-.24.253-.36.583-.36.99v3.2c0 .407.12.74.36 1 .247.253.57.38.97.38zm0-2.39a.597.597 0 01-.44-.17.629.629 0 01-.16-.45.58.58 0 01.16-.43.597.597 0 01.44-.17c.18 0 .323.057.43.17.113.107.17.25.17.43a.607.607 0 01-.17.45.564.564 0 01-.43.17zm5.996 3.16c-.253 0-.457-.073-.61-.22-.147-.147-.22-.343-.22-.59 0-.26.073-.467.22-.62.153-.153.357-.23.61-.23.254 0 .453.077.6.23.154.153.23.36.23.62 0 .247-.076.443-.23.59-.147.147-.346.22-.6.22zm7.096-.1v-1.6h-3.3v-1.41l2.89-4.29h.98l-2.97 4.48v.4h2.4v-1.78h.9v4.2h-.9z" fill="#5EEBF0"/></g><g filter="url(#filter23_d_26_1090)"><path d="M1296.89 240.1c-.44 0-.83-.087-1.16-.26-.33-.18-.58-.427-.76-.74-.18-.313-.27-.68-.27-1.1h.9c0 .407.11.727.34.96.23.227.55.34.96.34.41 0 .73-.12.96-.36.23-.24.34-.553.34-.94v-.52c0-.413-.11-.733-.34-.96-.23-.227-.55-.34-.96-.34h-.75v-.9l1.81-1.76H1295v-.82h3.87v.9l-1.95 1.89v-.11c.67 0 1.2.19 1.59.57.39.38.59.89.59 1.53v.52c0 .42-.09.787-.28 1.1-.18.313-.44.56-.77.74-.33.173-.72.26-1.16.26zm6.11 0c-.45 0-.84-.087-1.17-.26-.33-.18-.58-.43-.76-.75a2.326 2.326 0 01-.27-1.14v-3.2c0-.44.09-.82.27-1.14.18-.32.43-.567.76-.74.33-.18.72-.27 1.17-.27.45 0 .84.09 1.17.27.32.173.58.42.76.74.18.32.27.7.27 1.14v3.2c0 .433-.09.813-.27 1.14-.18.32-.44.57-.77.75-.33.173-.72.26-1.16.26zm0-.77c.4 0 .72-.127.96-.38.24-.26.37-.593.37-1v-3.2c0-.407-.13-.737-.37-.99-.24-.26-.56-.39-.96-.39-.4 0-.73.13-.97.39-.24.253-.36.583-.36.99v3.2c0 .407.12.74.36 1 .24.253.57.38.97.38zm0-2.39a.591.591 0 01-.44-.17c-.11-.113-.16-.263-.16-.45 0-.18.05-.323.16-.43.11-.113.26-.17.44-.17s.32.057.43.17c.11.107.17.25.17.43a.62.62 0 01-.17.45.569.569 0 01-.43.17zm3.74 4.16l3.55-9.4h.95l-3.55 9.4h-.95zm6.15-1.1v-.82h1.98v-5.73l-1.98 1.48v-1l1.65-1.23h1.23v6.48h1.62v.82h-4.5z" fill="#5EEBF0"/></g><g filter="url(#filter24_d_26_1090)"><path d="M71.55 400v-6.49h-2v-.82h4.9v.82h-2V400h-.9zm4.376 0v-7.3h.9v3.12h2.34v-3.12h.9v7.3h-.9v-3.36h-2.34V400h-.9zm5.986 0v-7.3h2.26c.434 0 .814.09 1.14.27.327.173.58.417.76.73.18.313.27.68.27 1.1 0 .493-.13.917-.39 1.27-.253.353-.6.597-1.04.73l1.53 3.2h-1.06l-1.4-3.1h-1.17v3.1h-.9zm.9-3.91h1.36c.374 0 .674-.117.9-.35.227-.24.34-.553.34-.94 0-.393-.113-.707-.34-.94-.227-.233-.526-.35-.9-.35h-1.36v2.58zm13.062 4.01c-.44 0-.826-.087-1.16-.26a1.935 1.935 0 01-.76-.74c-.18-.313-.27-.68-.27-1.1h.9c0 .407.114.727.34.96.234.227.554.34.96.34.414 0 .734-.12.96-.36.227-.24.34-.553.34-.94v-.52c0-.413-.113-.733-.34-.96-.226-.227-.546-.34-.96-.34h-.75v-.9l1.81-1.76h-2.96v-.82h3.87v.9l-1.95 1.89v-.11c.667 0 1.197.19 1.59.57.394.38.59.89.59 1.53v.52c0 .42-.093.787-.28 1.1-.18.313-.436.56-.77.74-.333.173-.72.26-1.16.26zm6.106 0c-.446 0-.836-.087-1.17-.26-.326-.18-.58-.43-.76-.75a2.332 2.332 0 01-.27-1.14v-3.2c0-.44.09-.82.27-1.14.18-.32.434-.567.76-.74.334-.18.724-.27 1.17-.27.454 0 .844.09 1.17.27.327.173.58.42.76.74.18.32.27.7.27 1.14v3.2c0 .433-.09.813-.27 1.14-.18.32-.436.57-.77.75-.326.173-.713.26-1.16.26zm0-.77c.4 0 .72-.127.96-.38.247-.26.37-.593.37-1v-3.2c0-.407-.123-.737-.37-.99-.24-.26-.56-.39-.96-.39-.4 0-.723.13-.97.39-.24.253-.36.583-.36.99v3.2c0 .407.12.74.36 1 .247.253.57.38.97.38zm0-2.39a.598.598 0 01-.44-.17.632.632 0 01-.16-.45c0-.18.054-.323.16-.43a.598.598 0 01.44-.17c.18 0 .324.057.43.17a.56.56 0 01.17.43.605.605 0 01-.17.45.563.563 0 01-.43.17zm5.997 3.16c-.254 0-.457-.073-.61-.22-.147-.147-.22-.343-.22-.59 0-.26.073-.467.22-.62.153-.153.356-.23.61-.23.253 0 .453.077.6.23.153.153.23.36.23.62 0 .247-.077.443-.23.59-.147.147-.347.22-.6.22zm7.096-.1v-1.6h-3.3v-1.41l2.89-4.29h.98l-2.97 4.48v.4h2.4v-1.78h.9v4.2h-.9z" fill="#5EEBF0"/></g><g filter="url(#filter25_d_26_1090)"><path d="M1253.04 400.1c-.44 0-.82-.083-1.15-.25a1.82 1.82 0 01-.75-.72c-.17-.32-.26-.697-.26-1.13v-3.3c0-.44.09-.817.26-1.13.18-.313.43-.553.75-.72.33-.167.71-.25 1.15-.25.44 0 .82.087 1.14.26.32.167.57.407.74.72.17.313.26.687.26 1.12h-.9c0-.413-.11-.73-.33-.95-.21-.227-.52-.34-.91-.34s-.7.11-.93.33c-.22.22-.33.537-.33.95V398c0 .413.11.733.33.96.23.22.54.33.93.33s.7-.11.91-.33c.22-.227.33-.547.33-.96h.9c0 .427-.09.8-.26 1.12-.17.313-.42.557-.74.73-.32.167-.7.25-1.14.25zm3.89-.1v-7.3h.9v3.12h2.34v-3.12h.9v7.3h-.9v-3.36h-2.34V400h-.9zm6.01 0v-7.31h4.3v.82h-3.42v2.43h3.16v.82h-3.14V400h-.9zm11.94 0v-.82h1.98v-5.73l-1.98 1.48v-1l1.65-1.23h1.23v6.48h1.62v.82h-4.5zm6.02 0v-.92l2.23-2.37c.38-.407.66-.767.83-1.08.17-.32.26-.627.26-.92 0-.407-.11-.727-.34-.96-.22-.233-.52-.35-.91-.35-.43 0-.76.12-1.01.36-.24.24-.36.57-.36.99h-.9c.01-.44.11-.82.3-1.14.19-.327.46-.577.79-.75.34-.173.73-.26 1.18-.26.44 0 .82.087 1.14.26.33.167.58.407.75.72.17.313.26.687.26 1.12 0 .413-.11.823-.33 1.23-.22.407-.58.87-1.08 1.39l-1.8 1.86h3.33v.82h-4.34z" fill="#5EEBF0"/></g><g filter="url(#filter26_d_26_1090)"><path d="M11.01 174.1c-.467 0-.877-.097-1.23-.29a2.11 2.11 0 01-.81-.83c-.193-.353-.29-.763-.29-1.23 0-.367.05-.727.15-1.08.107-.353.263-.693.47-1.02l1.83-2.95h1l-2.07 3.32.04.03c.127-.187.3-.33.52-.43.22-.1.467-.15.74-.15.4 0 .747.093 1.04.28.293.187.52.45.68.79.16.34.24.743.24 1.21 0 .467-.097.877-.29 1.23a2.11 2.11 0 01-.81.83c-.34.193-.743.29-1.21.29zm-.01-.8c.427 0 .77-.14 1.03-.42.26-.287.39-.663.39-1.13 0-.467-.13-.84-.39-1.12-.26-.287-.603-.43-1.03-.43-.427 0-.77.143-1.03.43-.26.28-.39.653-.39 1.12 0 .467.13.843.39 1.13.26.28.603.42 1.03.42zm4.846.7l2.61-6.48h-2.76v1.08h-.9v-1.9h4.55v.88l-2.53 6.42h-.97zm6.706-.95v-1.95h-1.91v-.8h1.91v-1.95h.88v1.95h1.91v.8h-1.91v1.95h-.88z" fill="#5EEBF0"/></g><g filter="url(#filter27_d_26_1090)"><path d="M9.85 303l2.61-6.48H9.7v1.08h-.9v-1.9h4.55v.88L10.82 303h-.97zm7.126.1c-.593 0-1.08-.153-1.46-.46-.38-.307-.603-.72-.67-1.24h.9c.033.287.157.51.37.67.213.153.503.23.87.23.42 0 .733-.113.94-.34.213-.227.32-.547.32-.96v-.71c0-.413-.107-.733-.32-.96-.207-.227-.517-.34-.93-.34-.26 0-.487.07-.68.21a1.126 1.126 0 00-.42.54h-.9l.05-4.04h3.84v.82h-2.97l-.03 2.43h.28l-.28.26c0-.313.123-.56.37-.74.253-.18.59-.27 1.01-.27.593-.007 1.053.177 1.38.55.333.367.5.88.5 1.54v.71c0 .647-.19 1.16-.57 1.54-.38.373-.913.56-1.6.56zm5.576-1.05v-1.95h-1.91v-.8h1.91v-1.95h.88v1.95h1.91v.8h-1.91v1.95h-.88z" fill="#5EEBF0"/></g><g filter="url(#filter28_d_26_1090)"><path d="M1305.1 201v-1.6h-3.3v-1.41l2.89-4.29h.98l-2.97 4.48v.4h2.4v-1.78h.9v4.2h-.9zm4.9.1c-.45 0-.84-.087-1.17-.26-.33-.18-.58-.43-.76-.75a2.326 2.326 0 01-.27-1.14v-3.2c0-.44.09-.82.27-1.14.18-.32.43-.567.76-.74.33-.18.72-.27 1.17-.27.45 0 .84.09 1.17.27.32.173.58.42.76.74.18.32.27.7.27 1.14v3.2c0 .433-.09.813-.27 1.14-.18.32-.44.57-.77.75-.33.173-.72.26-1.16.26zm0-.77c.4 0 .72-.127.96-.38.24-.26.37-.593.37-1v-3.2c0-.407-.13-.737-.37-.99-.24-.26-.56-.39-.96-.39-.4 0-.73.13-.97.39-.24.253-.36.583-.36.99v3.2c0 .407.12.74.36 1 .24.253.57.38.97.38zm0-2.39a.591.591 0 01-.44-.17c-.11-.113-.16-.263-.16-.45 0-.18.05-.323.16-.43.11-.113.26-.17.44-.17s.32.057.43.17c.11.107.17.25.17.43a.62.62 0 01-.17.45.569.569 0 01-.43.17z" fill="#5EEBF0"/></g><g filter="url(#filter29_d_26_1090)"><path d="M90.92 201v-.92l2.23-2.37c.38-.407.657-.767.83-1.08.173-.32.26-.627.26-.92 0-.407-.113-.727-.34-.96-.22-.233-.523-.35-.91-.35-.427 0-.763.12-1.01.36-.24.24-.36.57-.36.99h-.9c.013-.44.113-.82.3-1.14a1.94 1.94 0 01.79-.75c.34-.173.733-.26 1.18-.26.44 0 .82.087 1.14.26.327.167.577.407.75.72.173.313.26.687.26 1.12 0 .413-.11.823-.33 1.23-.22.407-.58.87-1.08 1.39l-1.8 1.86h3.33v.82h-4.34zm8.076.1c-.447 0-.837-.087-1.17-.26-.327-.18-.58-.43-.76-.75a2.326 2.326 0 01-.27-1.14v-3.2c0-.44.09-.82.27-1.14.18-.32.433-.567.76-.74.333-.18.723-.27 1.17-.27.453 0 .843.09 1.17.27.327.173.58.42.76.74.18.32.27.7.27 1.14v3.2c0 .433-.09.813-.27 1.14-.18.32-.437.57-.77.75-.327.173-.713.26-1.16.26zm0-.77c.4 0 .72-.127.96-.38.247-.26.37-.593.37-1v-3.2c0-.407-.123-.737-.37-.99-.24-.26-.56-.39-.96-.39-.4 0-.723.13-.97.39-.24.253-.36.583-.36.99v3.2c0 .407.12.74.36 1 .247.253.57.38.97.38zm0-2.39a.597.597 0 01-.44-.17.629.629 0 01-.16-.45.58.58 0 01.16-.43.597.597 0 01.44-.17c.18 0 .323.057.43.17.113.107.17.25.17.43a.607.607 0 01-.17.45.564.564 0 01-.43.17z" fill="#5EEBF0"/></g><g filter="url(#filter30_d_26_1090)"><path d="M1304.01 145.1c-.47 0-.88-.097-1.23-.29-.35-.2-.62-.477-.81-.83a2.558 2.558 0 01-.29-1.23c0-.367.05-.727.15-1.08.11-.353.26-.693.47-1.02l1.83-2.95h1l-2.07 3.32.04.03c.13-.187.3-.33.52-.43.22-.1.47-.15.74-.15.4 0 .75.093 1.04.28.29.187.52.45.68.79.16.34.24.743.24 1.21 0 .467-.1.877-.29 1.23-.19.353-.46.63-.81.83-.34.193-.74.29-1.21.29zm-.01-.8c.43 0 .77-.14 1.03-.42.26-.287.39-.663.39-1.13 0-.467-.13-.84-.39-1.12-.26-.287-.6-.43-1.03-.43-.43 0-.77.143-1.03.43-.26.28-.39.653-.39 1.12 0 .467.13.843.39 1.13.26.28.6.42 1.03.42zm6 .8c-.45 0-.84-.087-1.17-.26-.33-.18-.58-.43-.76-.75a2.326 2.326 0 01-.27-1.14v-3.2c0-.44.09-.82.27-1.14.18-.32.43-.567.76-.74.33-.18.72-.27 1.17-.27.45 0 .84.09 1.17.27.32.173.58.42.76.74.18.32.27.7.27 1.14v3.2c0 .433-.09.813-.27 1.14-.18.32-.44.57-.77.75-.33.173-.72.26-1.16.26zm0-.77c.4 0 .72-.127.96-.38.24-.26.37-.593.37-1v-3.2c0-.407-.13-.737-.37-.99-.24-.26-.56-.39-.96-.39-.4 0-.73.13-.97.39-.24.253-.36.583-.36.99v3.2c0 .407.12.74.36 1 .24.253.57.38.97.38zm0-2.39a.591.591 0 01-.44-.17c-.11-.113-.16-.263-.16-.45 0-.18.05-.323.16-.43.11-.113.26-.17.44-.17s.32.057.43.17c.11.107.17.25.17.43a.62.62 0 01-.17.45.569.569 0 01-.43.17z" fill="#5EEBF0"/></g><g filter="url(#filter31_d_26_1090)"><path d="M94.1 145v-1.6h-3.3v-1.41l2.89-4.29h.98l-2.97 4.48v.4h2.4v-1.78h.9v4.2h-.9zm4.896.1c-.447 0-.837-.087-1.17-.26-.327-.18-.58-.43-.76-.75a2.326 2.326 0 01-.27-1.14v-3.2c0-.44.09-.82.27-1.14.18-.32.433-.567.76-.74.333-.18.723-.27 1.17-.27.453 0 .843.09 1.17.27.327.173.58.42.76.74.18.32.27.7.27 1.14v3.2c0 .433-.09.813-.27 1.14-.18.32-.437.57-.77.75-.327.173-.713.26-1.16.26zm0-.77c.4 0 .72-.127.96-.38.247-.26.37-.593.37-1v-3.2c0-.407-.123-.737-.37-.99-.24-.26-.56-.39-.96-.39-.4 0-.723.13-.97.39-.24.253-.36.583-.36.99v3.2c0 .407.12.74.36 1 .247.253.57.38.97.38zm0-2.39a.597.597 0 01-.44-.17.629.629 0 01-.16-.45.58.58 0 01.16-.43.597.597 0 01.44-.17c.18 0 .323.057.43.17.113.107.17.25.17.43a.607.607 0 01-.17.45.564.564 0 01-.43.17z" fill="#5EEBF0"/></g><g filter="url(#filter32_d_26_1090)"><path d="M1304 353.1c-.45 0-.84-.087-1.17-.26-.33-.18-.58-.43-.76-.75a2.326 2.326 0 01-.27-1.14v-3.2c0-.44.09-.82.27-1.14.18-.32.43-.567.76-.74.33-.18.72-.27 1.17-.27.45 0 .84.09 1.17.27.33.173.58.42.76.74.18.32.27.7.27 1.14v3.2c0 .433-.09.813-.27 1.14-.18.32-.44.57-.77.75-.33.173-.71.26-1.16.26zm0-.77c.4 0 .72-.127.96-.38.25-.26.37-.593.37-1v-3.2c0-.407-.12-.737-.37-.99-.24-.26-.56-.39-.96-.39-.4 0-.72.13-.97.39-.24.253-.36.583-.36.99v3.2c0 .407.12.74.36 1 .25.253.57.38.97.38zm0-2.39a.591.591 0 01-.44-.17c-.11-.113-.16-.263-.16-.45 0-.18.05-.323.16-.43.11-.113.26-.17.44-.17s.32.057.43.17c.11.107.17.25.17.43a.62.62 0 01-.17.45.569.569 0 01-.43.17z" fill="#5EEBF0"/></g><g filter="url(#filter33_d_26_1090)"><path d="M79.4 350.1v-.8h3.2v.8h-3.2zm5.516 2.9v-.92l2.23-2.37c.38-.407.657-.767.83-1.08.173-.32.26-.627.26-.92 0-.407-.113-.727-.34-.96-.22-.233-.523-.35-.91-.35-.427 0-.763.12-1.01.36-.24.24-.36.57-.36.99h-.9c.013-.44.113-.82.3-1.14a1.94 1.94 0 01.79-.75c.34-.173.733-.26 1.18-.26.44 0 .82.087 1.14.26.327.167.577.407.75.72.173.313.26.687.26 1.12 0 .413-.11.823-.33 1.23-.22.407-.58.87-1.08 1.39l-1.8 1.86h3.33v.82h-4.34zm8.076.1c-.447 0-.837-.087-1.17-.26-.326-.18-.58-.43-.76-.75a2.326 2.326 0 01-.27-1.14v-3.2c0-.44.09-.82.27-1.14.18-.32.434-.567.76-.74.334-.18.724-.27 1.17-.27.453 0 .843.09 1.17.27.327.173.58.42.76.74.18.32.27.7.27 1.14v3.2c0 .433-.09.813-.27 1.14-.18.32-.436.57-.77.75-.326.173-.713.26-1.16.26zm0-.77c.4 0 .72-.127.96-.38.247-.26.37-.593.37-1v-3.2c0-.407-.123-.737-.37-.99-.24-.26-.56-.39-.96-.39-.4 0-.723.13-.97.39-.24.253-.36.583-.36.99v3.2c0 .407.12.74.36 1 .247.253.57.38.97.38zm0-2.39a.597.597 0 01-.44-.17.629.629 0 01-.16-.45.58.58 0 01.16-.43.597.597 0 01.44-.17c.18 0 .323.057.43.17a.56.56 0 01.17.43.607.607 0 01-.17.45.564.564 0 01-.43.17z" fill="#5EEBF0"/></g><g filter="url(#filter34_d_26_1090)"><path d="M1301.92 277v-.92l2.23-2.37c.38-.407.66-.767.83-1.08.17-.32.26-.627.26-.92 0-.407-.11-.727-.34-.96-.22-.233-.52-.35-.91-.35-.43 0-.76.12-1.01.36-.24.24-.36.57-.36.99h-.9c.01-.44.11-.82.3-1.14.19-.327.46-.577.79-.75.34-.173.73-.26 1.18-.26.44 0 .82.087 1.14.26.33.167.58.407.75.72.17.313.26.687.26 1.12 0 .413-.11.823-.33 1.23-.22.407-.58.87-1.08 1.39l-1.8 1.86h3.33v.82h-4.34zm8.08.1c-.45 0-.84-.087-1.17-.26-.33-.18-.58-.43-.76-.75a2.326 2.326 0 01-.27-1.14v-3.2c0-.44.09-.82.27-1.14.18-.32.43-.567.76-.74.33-.18.72-.27 1.17-.27.45 0 .84.09 1.17.27.32.173.58.42.76.74.18.32.27.7.27 1.14v3.2c0 .433-.09.813-.27 1.14-.18.32-.44.57-.77.75-.33.173-.72.26-1.16.26zm0-.77c.4 0 .72-.127.96-.38.24-.26.37-.593.37-1v-3.2c0-.407-.13-.737-.37-.99-.24-.26-.56-.39-.96-.39-.4 0-.73.13-.97.39-.24.253-.36.583-.36.99v3.2c0 .407.12.74.36 1 .24.253.57.38.97.38zm0-2.39a.591.591 0 01-.44-.17c-.11-.113-.16-.263-.16-.45 0-.18.05-.323.16-.43.11-.113.26-.17.44-.17s.32.057.43.17c.11.107.17.25.17.43a.62.62 0 01-.17.45.569.569 0 01-.43.17z" fill="#5EEBF0"/></g><g filter="url(#filter35_d_26_1090)"><path d="M99 277.1c-.447 0-.837-.087-1.17-.26-.327-.18-.58-.43-.76-.75a2.326 2.326 0 01-.27-1.14v-3.2c0-.44.09-.82.27-1.14.18-.32.433-.567.76-.74.333-.18.723-.27 1.17-.27.453 0 .843.09 1.17.27.327.173.58.42.76.74.18.32.27.7.27 1.14v3.2c0 .433-.09.813-.27 1.14-.18.32-.437.57-.77.75-.327.173-.713.26-1.16.26zm0-.77c.4 0 .72-.127.96-.38.247-.26.37-.593.37-1v-3.2c0-.407-.123-.737-.37-.99-.24-.26-.56-.39-.96-.39-.4 0-.723.13-.97.39-.24.253-.36.583-.36.99v3.2c0 .407.12.74.36 1 .247.253.57.38.97.38zm0-2.39a.597.597 0 01-.44-.17.629.629 0 01-.16-.45.58.58 0 01.16-.43.597.597 0 01.44-.17c.18 0 .323.057.43.17.113.107.17.25.17.43a.607.607 0 01-.17.45.564.564 0 01-.43.17z" fill="#5EEBF0"/></g><g filter="url(#filter36_d_26_1090)"><path d="M1041.92 16V8.7h1.89c.47 0 .88.09 1.22.27.35.18.61.433.8.76.19.327.29.713.29 1.16v2.91c0 .447-.1.837-.29 1.17-.19.327-.45.58-.8.76-.34.18-.75.27-1.22.27h-1.89zm.9-.8h.99c.44 0 .78-.123 1.03-.37s.38-.59.38-1.03v-2.91c0-.433-.13-.773-.38-1.02s-.59-.37-1.03-.37h-.99v5.7zm5.18.8V8.7h4.2v.82h-3.31v2.26h2.96v.81h-2.96v2.59h3.31V16h-4.2zm8.03.1c-.44 0-.82-.083-1.15-.25a1.815 1.815 0 01-.75-.72c-.17-.32-.26-.697-.26-1.13v-3.3c0-.44.09-.817.26-1.13.18-.313.43-.553.75-.72.33-.167.71-.25 1.15-.25.44 0 .82.087 1.14.26.32.167.57.407.74.72.18.313.26.687.26 1.12h-.9c0-.413-.11-.73-.33-.95-.21-.227-.51-.34-.91-.34-.39 0-.7.11-.93.33-.22.22-.33.537-.33.95V14c0 .413.11.733.33.96.23.22.54.33.93.33.4 0 .7-.11.91-.33.22-.227.33-.547.33-.96h.9c0 .427-.08.8-.26 1.12-.17.313-.42.557-.74.73-.32.167-.7.25-1.14.25zm3.88-.1V8.7h2.35c.45 0 .84.09 1.18.27.33.173.59.42.77.74.18.32.28.7.28 1.14 0 .433-.1.813-.28 1.14-.18.32-.44.57-.77.75-.34.173-.73.26-1.18.26h-1.45v3h-.9zm.9-3.81h1.45c.39 0 .7-.12.94-.36.24-.247.36-.573.36-.98 0-.413-.12-.74-.36-.98s-.55-.36-.94-.36h-1.45v2.68zm5.32 3.81V8.7h.9v6.48h3.3V16h-4.2z" fill="#5EEBF0"/></g><g filter="url(#filter37_d_26_1090)"><path d="M582 49.1c-.447 0-.837-.087-1.17-.26-.327-.18-.58-.43-.76-.75a2.325 2.325 0 01-.27-1.14v-3.2c0-.44.09-.82.27-1.14.18-.32.433-.567.76-.74.333-.18.723-.27 1.17-.27.453 0 .843.09 1.17.27.327.173.58.42.76.74.18.32.27.7.27 1.14v3.2c0 .433-.09.813-.27 1.14-.18.32-.437.57-.77.75-.327.173-.713.26-1.16.26zm0-.77c.4 0 .72-.127.96-.38.247-.26.37-.593.37-1v-3.2c0-.407-.123-.737-.37-.99-.24-.26-.56-.39-.96-.39-.4 0-.723.13-.97.39-.24.253-.36.583-.36.99v3.2c0 .407.12.74.36 1 .247.253.57.38.97.38zm0-2.39a.595.595 0 01-.44-.17.628.628 0 01-.16-.45.58.58 0 01.16-.43.595.595 0 01.44-.17c.18 0 .323.057.43.17.113.107.17.25.17.43a.61.61 0 01-.17.45.563.563 0 01-.43.17z" fill="#5EEBF0"/></g><g filter="url(#filter38_d_26_1090)"><path d="M646.01 49.1c-.467 0-.877-.097-1.23-.29a2.104 2.104 0 01-.81-.83c-.193-.353-.29-.763-.29-1.23 0-.367.05-.727.15-1.08.107-.353.263-.693.47-1.02l1.83-2.95h1l-2.07 3.32.04.03c.127-.187.3-.33.52-.43.22-.1.467-.15.74-.15.4 0 .747.093 1.04.28.293.187.52.45.68.79.16.34.24.743.24 1.21 0 .467-.097.877-.29 1.23-.193.353-.463.63-.81.83-.34.193-.743.29-1.21.29zm-.01-.8c.427 0 .77-.14 1.03-.42.26-.287.39-.663.39-1.13 0-.467-.13-.84-.39-1.12-.26-.287-.603-.43-1.03-.43-.427 0-.77.143-1.03.43-.26.28-.39.653-.39 1.12 0 .467.13.843.39 1.13.26.28.603.42 1.03.42zm5.996.8c-.447 0-.837-.087-1.17-.26-.327-.18-.58-.43-.76-.75a2.325 2.325 0 01-.27-1.14v-3.2c0-.44.09-.82.27-1.14.18-.32.433-.567.76-.74.333-.18.723-.27 1.17-.27.453 0 .843.09 1.17.27.327.173.58.42.76.74.18.32.27.7.27 1.14v3.2c0 .433-.09.813-.27 1.14-.18.32-.437.57-.77.75-.327.173-.713.26-1.16.26zm0-.77c.4 0 .72-.127.96-.38.247-.26.37-.593.37-1v-3.2c0-.407-.123-.737-.37-.99-.24-.26-.56-.39-.96-.39-.4 0-.723.13-.97.39-.24.253-.36.583-.36.99v3.2c0 .407.12.74.36 1 .247.253.57.38.97.38zm0-2.39a.595.595 0 01-.44-.17.628.628 0 01-.16-.45.58.58 0 01.16-.43.595.595 0 01.44-.17c.18 0 .323.057.43.17.113.107.17.25.17.43a.61.61 0 01-.17.45.563.563 0 01-.43.17z" fill="#5EEBF0"/></g><g filter="url(#filter39_d_26_1090)"><path d="M713.9 49v-.82h1.98v-5.73l-1.98 1.48v-1l1.65-1.23h1.23v6.48h1.62V49h-4.5zm6.016 0v-.92l2.23-2.37c.38-.407.657-.767.83-1.08.173-.32.26-.627.26-.92 0-.407-.113-.727-.34-.96-.22-.233-.523-.35-.91-.35-.427 0-.763.12-1.01.36-.24.24-.36.57-.36.99h-.9c.013-.44.113-.82.3-1.14a1.94 1.94 0 01.79-.75c.34-.173.733-.26 1.18-.26.44 0 .82.087 1.14.26.327.167.577.407.75.72.173.313.26.687.26 1.12 0 .413-.11.823-.33 1.23-.22.407-.58.87-1.08 1.39l-1.8 1.86h3.33V49h-4.34zm8.076.1c-.446 0-.836-.087-1.17-.26-.326-.18-.58-.43-.76-.75a2.325 2.325 0 01-.27-1.14v-3.2c0-.44.09-.82.27-1.14.18-.32.434-.567.76-.74.334-.18.724-.27 1.17-.27.454 0 .844.09 1.17.27.327.173.58.42.76.74.18.32.27.7.27 1.14v3.2c0 .433-.09.813-.27 1.14-.18.32-.436.57-.77.75-.326.173-.713.26-1.16.26zm0-.77c.4 0 .72-.127.96-.38.247-.26.37-.593.37-1v-3.2c0-.407-.123-.737-.37-.99-.24-.26-.56-.39-.96-.39-.4 0-.723.13-.97.39-.24.253-.36.583-.36.99v3.2c0 .407.12.74.36 1 .247.253.57.38.97.38zm0-2.39a.597.597 0 01-.44-.17.633.633 0 01-.16-.45c0-.18.054-.323.16-.43a.597.597 0 01.44-.17c.18 0 .324.057.43.17a.56.56 0 01.17.43.606.606 0 01-.17.45.561.561 0 01-.43.17z" fill="#5EEBF0"/></g><g filter="url(#filter40_d_26_1090)"><path d="M778.9 49v-.82h1.98v-5.73l-1.98 1.48v-1l1.65-1.23h1.23v6.48h1.62V49h-4.5zm8.096.1c-.447 0-.837-.077-1.17-.23a1.793 1.793 0 01-.76-.68 1.93 1.93 0 01-.27-1.03c0-.433.117-.807.35-1.12.24-.313.617-.593 1.13-.84l.97-.47c.293-.14.52-.323.68-.55.16-.227.24-.477.24-.75 0-.32-.107-.573-.32-.76-.207-.187-.49-.28-.85-.28s-.647.097-.86.29c-.207.187-.31.44-.31.76 0 .267.077.513.23.74.16.227.377.407.65.54l.97.46c.533.247.92.53 1.16.85.24.313.36.69.36 1.13 0 .593-.2 1.067-.6 1.42-.393.347-.927.52-1.6.52zm0-.8c.407 0 .727-.103.96-.31.24-.213.36-.497.36-.85a1.39 1.39 0 00-.23-.78 1.61 1.61 0 00-.66-.56l-.96-.47c-.533-.26-.92-.54-1.16-.84-.24-.3-.36-.66-.36-1.08 0-.373.083-.697.25-.97a1.64 1.64 0 01.71-.63c.307-.147.67-.22 1.09-.22.42 0 .783.073 1.09.22.307.147.543.357.71.63.167.273.25.597.25.97 0 .42-.12.78-.36 1.08-.24.293-.637.577-1.19.85l-.96.47a1.569 1.569 0 00-.64.55c-.147.227-.22.48-.22.76 0 .36.117.647.35.86.24.213.563.32.97.32zm5.996.8c-.446 0-.836-.087-1.17-.26-.326-.18-.58-.43-.76-.75a2.325 2.325 0 01-.27-1.14v-3.2c0-.44.09-.82.27-1.14.18-.32.434-.567.76-.74.334-.18.724-.27 1.17-.27.454 0 .844.09 1.17.27.327.173.58.42.76.74.18.32.27.7.27 1.14v3.2c0 .433-.09.813-.27 1.14-.18.32-.436.57-.77.75-.326.173-.713.26-1.16.26zm0-.77c.4 0 .72-.127.96-.38.247-.26.37-.593.37-1v-3.2c0-.407-.123-.737-.37-.99-.24-.26-.56-.39-.96-.39-.4 0-.723.13-.97.39-.24.253-.36.583-.36.99v3.2c0 .407.12.74.36 1 .247.253.57.38.97.38zm0-2.39a.597.597 0 01-.44-.17.633.633 0 01-.16-.45c0-.18.054-.323.16-.43a.597.597 0 01.44-.17c.18 0 .324.057.43.17a.56.56 0 01.17.43.606.606 0 01-.17.45.561.561 0 01-.43.17z" fill="#5EEBF0"/></g><g filter="url(#filter41_d_26_1090)"><path d="M1121.04 16.1c-.44 0-.82-.083-1.15-.25a1.815 1.815 0 01-.75-.72c-.17-.32-.26-.697-.26-1.13v-3.3c0-.44.09-.817.26-1.13.18-.313.43-.553.75-.72.33-.167.71-.25 1.15-.25.44 0 .82.087 1.14.26.32.167.57.407.74.72.17.313.26.687.26 1.12h-.9c0-.413-.11-.73-.33-.95-.21-.227-.52-.34-.91-.34s-.7.11-.93.33c-.22.22-.33.537-.33.95V14c0 .413.11.733.33.96.23.227.54.34.93.34s.7-.113.91-.34c.22-.227.33-.547.33-.96v-.9h-1.48v-.82h2.38V14c0 .427-.09.8-.26 1.12-.17.313-.42.557-.74.73-.32.167-.7.25-1.14.25zm6 0c-.48 0-.9-.08-1.24-.24a1.78 1.78 0 01-.79-.69 1.96 1.96 0 01-.29-1.07h.9c0 .367.12.657.37.87.25.213.6.32 1.05.32.42 0 .74-.103.98-.31.24-.207.36-.493.36-.86a1.233 1.233 0 00-.91-1.23l-.99-.31c-.5-.153-.89-.41-1.16-.77-.27-.36-.4-.783-.4-1.27 0-.393.08-.733.26-1.02.18-.293.43-.52.75-.68.32-.167.69-.25 1.13-.25.64 0 1.15.18 1.54.54.38.353.58.827.59 1.42h-.9c0-.36-.11-.64-.33-.84-.22-.207-.52-.31-.91-.31s-.69.093-.91.28c-.22.187-.32.447-.32.78 0 .3.08.56.24.78.16.22.39.377.69.47l1 .32c.48.153.86.413 1.13.78.26.367.4.797.4 1.29 0 .4-.1.75-.28 1.05a1.9 1.9 0 01-.79.7c-.34.167-.73.25-1.17.25zm3.9-.1V8.69h4.3v.82h-3.42v2.43h3.16v.82h-3.14V16h-.9zm8.09.1c-.44 0-.83-.083-1.15-.25a1.815 1.815 0 01-.75-.72c-.18-.32-.26-.697-.26-1.13v-3.3c0-.44.08-.817.26-1.13.18-.313.43-.553.75-.72.32-.167.71-.25 1.15-.25.44 0 .82.087 1.14.26.32.167.56.407.74.72.17.313.26.687.26 1.12h-.9c0-.413-.11-.73-.33-.95-.22-.227-.52-.34-.91-.34-.4 0-.71.11-.93.33-.22.22-.33.537-.33.95V14c0 .413.11.733.33.96.22.22.53.33.93.33.39 0 .69-.11.91-.33.22-.227.33-.547.33-.96h.9c0 .427-.09.8-.26 1.12-.18.313-.42.557-.74.73-.32.167-.7.25-1.14.25z" fill="#5EEBF0"/></g><g filter="url(#filter42_d_26_1090)"><path d="M1188.04 16.1c-.44 0-.82-.083-1.15-.25a1.815 1.815 0 01-.75-.72c-.17-.32-.26-.697-.26-1.13v-3.3c0-.44.09-.817.26-1.13.18-.313.43-.553.75-.72.33-.167.71-.25 1.15-.25.44 0 .82.087 1.14.26.32.167.57.407.74.72.17.313.26.687.26 1.12h-.9c0-.413-.11-.73-.33-.95-.21-.227-.52-.34-.91-.34s-.7.11-.93.33c-.22.22-.33.537-.33.95V14c0 .413.11.733.33.96.23.22.54.33.93.33s.7-.11.91-.33c.22-.227.33-.547.33-.96h.9c0 .427-.09.8-.26 1.12-.17.313-.42.557-.74.73-.32.167-.7.25-1.14.25zm6 0c-.48 0-.9-.08-1.24-.24a1.78 1.78 0 01-.79-.69 1.96 1.96 0 01-.29-1.07h.9c0 .367.12.657.37.87.25.213.6.32 1.05.32.42 0 .74-.103.98-.31.24-.207.36-.493.36-.86a1.233 1.233 0 00-.91-1.23l-.99-.31c-.5-.153-.89-.41-1.16-.77-.27-.36-.4-.783-.4-1.27 0-.393.08-.733.26-1.02.18-.293.43-.52.75-.68.32-.167.69-.25 1.13-.25.64 0 1.15.18 1.54.54.38.353.58.827.59 1.42h-.9c0-.36-.11-.64-.33-.84-.22-.207-.52-.31-.91-.31s-.69.093-.91.28c-.22.187-.32.447-.32.78 0 .3.08.56.24.78.16.22.39.377.69.47l1 .32c.48.153.86.413 1.13.78.26.367.4.797.4 1.29 0 .4-.1.75-.28 1.05a1.9 1.9 0 01-.79.7c-.34.167-.73.25-1.17.25zm5.5-.1V9.51h-2v-.82h4.9v.82h-2V16h-.9zm4.37 0V8.7h1.89c.47 0 .88.09 1.22.27.34.18.61.433.8.76.19.327.29.713.29 1.16v2.91c0 .447-.1.837-.29 1.17-.19.327-.46.58-.8.76-.34.18-.75.27-1.22.27h-1.89zm.9-.8h.99c.44 0 .78-.123 1.03-.37s.38-.59.38-1.03v-2.91c0-.433-.13-.773-.38-1.02s-.59-.37-1.03-.37h-.99v5.7z" fill="#5EEBF0"/></g><g filter="url(#filter43_d_26_1090)"><path stroke="#5EEBF0" d="M655.5 64v16"/></g><g filter="url(#filter44_d_26_1090)"><path stroke="#5EEBF0" d="M608.5 73v7"/></g><g filter="url(#filter45_d_26_1090)"><path stroke="#5EEBF0" d="M678.5 73v7"/></g><g filter="url(#filter46_d_26_1090)"><path stroke="#5EEBF0" d="M748.5 73v7"/></g><g filter="url(#filter47_d_26_1090)"><path stroke="#5EEBF0" d="M632.5 73v7"/></g><g filter="url(#filter48_d_26_1090)"><path stroke="#5EEBF0" d="M702.5 73v7"/></g><g filter="url(#filter49_d_26_1090)"><path stroke="#5EEBF0" d="M772.5 73v7"/></g><g filter="url(#filter50_d_26_1090)"><path stroke="#5EEBF0" d="M795.5 64v16"/></g><g filter="url(#filter51_d_26_1090)"><path stroke="#5EEBF0" d="M725.5 64v16"/></g><g filter="url(#filter52_d_26_1090)"><path stroke="#5EEBF0" d="M585.5 64v16"/></g><defs><filter id="filter0_d_26_1090" x="129.646" y="199.293" width="26.707" height="22.061" filterUnits="userSpaceOnUse" color-interpolation-filters="sRGB"><feFlood flood-opacity="0" result="BackgroundImageFix"/><feColorMatrix in="SourceAlpha" values="0 0 0 0 0 0 0 0 0 0 0 0 0 0 0 0 0 0 127 0" result="hardAlpha"/><feOffset/><feGaussianBlur stdDeviation="4"/><feComposite in2="hardAlpha" operator="out"/><feColorMatrix values="0 0 0 0 0.0313726 0 0 0 0 0.843137 0 0 0 0 0.976471 0 0 0 1 0"/><feBlend in2="BackgroundImageFix" result="effect1_dropShadow_26_1090"/><feBlend in="SourceGraphic" in2="effect1_dropShadow_26_1090" result="shape"/></filter><filter id="filter1_d_26_1090" x="1251.65" y="199.293" width="26.707" height="22.061" filterUnits="userSpaceOnUse" color-interpolation-filters="sRGB"><feFlood flood-opacity="0" result="BackgroundImageFix"/><feColorMatrix in="SourceAlpha" values="0 0 0 0 0 0 0 0 0 0 0 0 0 0 0 0 0 0 127 0" result="hardAlpha"/><feOffset/><feGaussianBlur stdDeviation="4"/><feComposite in2="hardAlpha" operator="out"/><feColorMatrix values="0 0 0 0 0.0313726 0 0 0 0 0.843137 0 0 0 0 0.976471 0 0 0 1 0"/><feBlend in2="BackgroundImageFix" result="effect1_dropShadow_26_1090"/><feBlend in="SourceGraphic" in2="effect1_dropShadow_26_1090" result="shape"/></filter><filter id="filter2_d_26_1090" x="129.646" y="262.646" width="26.707" height="22.061" filterUnits="userSpaceOnUse" color-interpolation-filters="sRGB"><feFlood flood-opacity="0" result="BackgroundImageFix"/><feColorMatrix in="SourceAlpha" values="0 0 0 0 0 0 0 0 0 0 0 0 0 0 0 0 0 0 127 0" result="hardAlpha"/><feOffset/><feGaussianBlur stdDeviation="4"/><feComposite in2="hardAlpha" operator="out"/><feColorMatrix values="0 0 0 0 0.0313726 0 0 0 0 0.843137 0 0 0 0 0.976471 0 0 0 1 0"/><feBlend in2="BackgroundImageFix" result="effect1_dropShadow_26_1090"/><feBlend in="SourceGraphic" in2="effect1_dropShadow_26_1090" result="shape"/></filter><filter id="filter3_d_26_1090" x="1251.65" y="262.646" width="26.707" height="22.061" filterUnits="userSpaceOnUse" color-interpolation-filters="sRGB"><feFlood flood-opacity="0" result="BackgroundImageFix"/><feColorMatrix in="SourceAlpha" values="0 0 0 0 0 0 0 0 0 0 0 0 0 0 0 0 0 0 127 0" result="hardAlpha"/><feOffset/><feGaussianBlur stdDeviation="4"/><feComposite in2="hardAlpha" operator="out"/><feColorMatrix values="0 0 0 0 0.0313726 0 0 0 0 0.843137 0 0 0 0 0.976471 0 0 0 1 0"/><feBlend in2="BackgroundImageFix" result="effect1_dropShadow_26_1090"/><feBlend in="SourceGraphic" in2="effect1_dropShadow_26_1090" result="shape"/></filter><filter id="filter4_d_26_1090" x="129.646" y="190.293" width="26.707" height="22.061" filterUnits="userSpaceOnUse" color-interpolation-filters="sRGB"><feFlood flood-opacity="0" result="BackgroundImageFix"/><feColorMatrix in="SourceAlpha" values="0 0 0 0 0 0 0 0 0 0 0 0 0 0 0 0 0 0 127 0" result="hardAlpha"/><feOffset/><feGaussianBlur stdDeviation="4"/><feComposite in2="hardAlpha" operator="out"/><feColorMatrix values="0 0 0 0 0.0313726 0 0 0 0 0.843137 0 0 0 0 0.976471 0 0 0 1 0"/><feBlend in2="BackgroundImageFix" result="effect1_dropShadow_26_1090"/><feBlend in="SourceGraphic" in2="effect1_dropShadow_26_1090" result="shape"/></filter><filter id="filter5_d_26_1090" x="1251.65" y="190.293" width="26.707" height="22.061" filterUnits="userSpaceOnUse" color-interpolation-filters="sRGB"><feFlood flood-opacity="0" result="BackgroundImageFix"/><feColorMatrix in="SourceAlpha" values="0 0 0 0 0 0 0 0 0 0 0 0 0 0 0 0 0 0 127 0" result="hardAlpha"/><feOffset/><feGaussianBlur stdDeviation="4"/><feComposite in2="hardAlpha" operator="out"/><feColorMatrix values="0 0 0 0 0.0313726 0 0 0 0 0.843137 0 0 0 0 0.976471 0 0 0 1 0"/><feBlend in2="BackgroundImageFix" result="effect1_dropShadow_26_1090"/><feBlend in="SourceGraphic" in2="effect1_dropShadow_26_1090" result="shape"/></filter><filter id="filter6_d_26_1090" x="129.646" y="271.646" width="26.707" height="22.061" filterUnits="userSpaceOnUse" color-interpolation-filters="sRGB"><feFlood flood-opacity="0" result="BackgroundImageFix"/><feColorMatrix in="SourceAlpha" values="0 0 0 0 0 0 0 0 0 0 0 0 0 0 0 0 0 0 127 0" result="hardAlpha"/><feOffset/><feGaussianBlur stdDeviation="4"/><feComposite in2="hardAlpha" operator="out"/><feColorMatrix values="0 0 0 0 0.0313726 0 0 0 0 0.843137 0 0 0 0 0.976471 0 0 0 1 0"/><feBlend in2="BackgroundImageFix" result="effect1_dropShadow_26_1090"/><feBlend in="SourceGraphic" in2="effect1_dropShadow_26_1090" result="shape"/></filter><filter id="filter7_d_26_1090" x="1251.65" y="271.646" width="26.707" height="22.061" filterUnits="userSpaceOnUse" color-interpolation-filters="sRGB"><feFlood flood-opacity="0" result="BackgroundImageFix"/><feColorMatrix in="SourceAlpha" values="0 0 0 0 0 0 0 0 0 0 0 0 0 0 0 0 0 0 127 0" result="hardAlpha"/><feOffset/><feGaussianBlur stdDeviation="4"/><feComposite in2="hardAlpha" operator="out"/><feColorMatrix values="0 0 0 0 0.0313726 0 0 0 0 0.843137 0 0 0 0 0.976471 0 0 0 1 0"/><feBlend in2="BackgroundImageFix" result="effect1_dropShadow_26_1090"/><feBlend in="SourceGraphic" in2="effect1_dropShadow_26_1090" result="shape"/></filter><filter id="filter8_d_26_1090" x="129.646" y="182.293" width="26.707" height="22.061" filterUnits="userSpaceOnUse" color-interpolation-filters="sRGB"><feFlood flood-opacity="0" result="BackgroundImageFix"/><feColorMatrix in="SourceAlpha" values="0 0 0 0 0 0 0 0 0 0 0 0 0 0 0 0 0 0 127 0" result="hardAlpha"/><feOffset/><feGaussianBlur stdDeviation="4"/><feComposite in2="hardAlpha" operator="out"/><feColorMatrix values="0 0 0 0 0.0313726 0 0 0 0 0.843137 0 0 0 0 0.976471 0 0 0 1 0"/><feBlend in2="BackgroundImageFix" result="effect1_dropShadow_26_1090"/><feBlend in="SourceGraphic" in2="effect1_dropShadow_26_1090" result="shape"/></filter><filter id="filter9_d_26_1090" x="1251.65" y="182.293" width="26.707" height="22.061" filterUnits="userSpaceOnUse" color-interpolation-filters="sRGB"><feFlood flood-opacity="0" result="BackgroundImageFix"/><feColorMatrix in="SourceAlpha" values="0 0 0 0 0 0 0 0 0 0 0 0 0 0 0 0 0 0 127 0" result="hardAlpha"/><feOffset/><feGaussianBlur stdDeviation="4"/><feComposite in2="hardAlpha" operator="out"/><feColorMatrix values="0 0 0 0 0.0313726 0 0 0 0 0.843137 0 0 0 0 0.976471 0 0 0 1 0"/><feBlend in2="BackgroundImageFix" result="effect1_dropShadow_26_1090"/><feBlend in="SourceGraphic" in2="effect1_dropShadow_26_1090" result="shape"/></filter><filter id="filter10_d_26_1090" x="129.616" y="278.68" width="26.768" height="23.101" filterUnits="userSpaceOnUse" color-interpolation-filters="sRGB"><feFlood flood-opacity="0" result="BackgroundImageFix"/><feColorMatrix in="SourceAlpha" values="0 0 0 0 0 0 0 0 0 0 0 0 0 0 0 0 0 0 127 0" result="hardAlpha"/><feOffset/><feGaussianBlur stdDeviation="4"/><feComposite in2="hardAlpha" operator="out"/><feColorMatrix values="0 0 0 0 0.0313726 0 0 0 0 0.843137 0 0 0 0 0.976471 0 0 0 1 0"/><feBlend in2="BackgroundImageFix" result="effect1_dropShadow_26_1090"/><feBlend in="SourceGraphic" in2="effect1_dropShadow_26_1090" result="shape"/></filter><filter id="filter11_d_26_1090" x="1251.62" y="278.68" width="26.768" height="23.101" filterUnits="userSpaceOnUse" color-interpolation-filters="sRGB"><feFlood flood-opacity="0" result="BackgroundImageFix"/><feColorMatrix in="SourceAlpha" values="0 0 0 0 0 0 0 0 0 0 0 0 0 0 0 0 0 0 127 0" result="hardAlpha"/><feOffset/><feGaussianBlur stdDeviation="4"/><feComposite in2="hardAlpha" operator="out"/><feColorMatrix values="0 0 0 0 0.0313726 0 0 0 0 0.843137 0 0 0 0 0.976471 0 0 0 1 0"/><feBlend in2="BackgroundImageFix" result="effect1_dropShadow_26_1090"/><feBlend in="SourceGraphic" in2="effect1_dropShadow_26_1090" result="shape"/></filter><filter id="filter12_d_26_1090" x="107" y="91.5" width="27.5" height="146.911" filterUnits="userSpaceOnUse" color-interpolation-filters="sRGB"><feFlood flood-opacity="0" result="BackgroundImageFix"/><feColorMatrix in="SourceAlpha" values="0 0 0 0 0 0 0 0 0 0 0 0 0 0 0 0 0 0 127 0" result="hardAlpha"/><feOffset/><feGaussianBlur stdDeviation="4"/><feComposite in2="hardAlpha" operator="out"/><feColorMatrix values="0 0 0 0 0.0313726 0 0 0 0 0.843137 0 0 0 0 0.976471 0 0 0 1 0"/><feBlend in2="BackgroundImageFix" result="effect1_dropShadow_26_1090"/><feBlend in="SourceGraphic" in2="effect1_dropShadow_26_1090" result="shape"/></filter><filter id="filter13_d_26_1090" x="1274.5" y="91.5" width="26.5" height="146.898" filterUnits="userSpaceOnUse" color-interpolation-filters="sRGB"><feFlood flood-opacity="0" result="BackgroundImageFix"/><feColorMatrix in="SourceAlpha" values="0 0 0 0 0 0 0 0 0 0 0 0 0 0 0 0 0 0 127 0" result="hardAlpha"/><feOffset/><feGaussianBlur stdDeviation="4"/><feComposite in2="hardAlpha" operator="out"/><feColorMatrix values="0 0 0 0 0.0313726 0 0 0 0 0.843137 0 0 0 0 0.976471 0 0 0 1 0"/><feBlend in2="BackgroundImageFix" result="effect1_dropShadow_26_1090"/><feBlend in="SourceGraphic" in2="effect1_dropShadow_26_1090" result="shape"/></filter><filter id="filter14_d_26_1090" x="107" y="244.59" width="27.5" height="147.91" filterUnits="userSpaceOnUse" color-interpolation-filters="sRGB"><feFlood flood-opacity="0" result="BackgroundImageFix"/><feColorMatrix in="SourceAlpha" values="0 0 0 0 0 0 0 0 0 0 0 0 0 0 0 0 0 0 127 0" result="hardAlpha"/><feOffset/><feGaussianBlur stdDeviation="4"/><feComposite in2="hardAlpha" operator="out"/><feColorMatrix values="0 0 0 0 0.0313726 0 0 0 0 0.843137 0 0 0 0 0.976471 0 0 0 1 0"/><feBlend in2="BackgroundImageFix" result="effect1_dropShadow_26_1090"/><feBlend in="SourceGraphic" in2="effect1_dropShadow_26_1090" result="shape"/></filter><filter id="filter15_d_26_1090" x="1274.5" y="244.603" width="26.5" height="147.897" filterUnits="userSpaceOnUse" color-interpolation-filters="sRGB"><feFlood flood-opacity="0" result="BackgroundImageFix"/><feColorMatrix in="SourceAlpha" values="0 0 0 0 0 0 0 0 0 0 0 0 0 0 0 0 0 0 127 0" result="hardAlpha"/><feOffset/><feGaussianBlur stdDeviation="4"/><feComposite in2="hardAlpha" operator="out"/><feColorMatrix values="0 0 0 0 0.0313726 0 0 0 0 0.843137 0 0 0 0 0.976471 0 0 0 1 0"/><feBlend in2="BackgroundImageFix" result="effect1_dropShadow_26_1090"/><feBlend in="SourceGraphic" in2="effect1_dropShadow_26_1090" result="shape"/></filter><filter id="filter16_d_26_1090" x="40" y="247.5" width="24.5" height="117" filterUnits="userSpaceOnUse" color-interpolation-filters="sRGB"><feFlood flood-opacity="0" result="BackgroundImageFix"/><feColorMatrix in="SourceAlpha" values="0 0 0 0 0 0 0 0 0 0 0 0 0 0 0 0 0 0 127 0" result="hardAlpha"/><feOffset/><feGaussianBlur stdDeviation="4"/><feComposite in2="hardAlpha" operator="out"/><feColorMatrix values="0 0 0 0 0.0313726 0 0 0 0 0.843137 0 0 0 0 0.976471 0 0 0 1 0"/><feBlend in2="BackgroundImageFix" result="effect1_dropShadow_26_1090"/><feBlend in="SourceGraphic" in2="effect1_dropShadow_26_1090" result="shape"/></filter><filter id="filter17_d_26_1090" x="46" y="121" width="19" height="117" filterUnits="userSpaceOnUse" color-interpolation-filters="sRGB"><feFlood flood-opacity="0" result="BackgroundImageFix"/><feColorMatrix in="SourceAlpha" values="0 0 0 0 0 0 0 0 0 0 0 0 0 0 0 0 0 0 127 0" result="hardAlpha"/><feOffset/><feGaussianBlur stdDeviation="4"/><feComposite in2="hardAlpha" operator="out"/><feColorMatrix values="0 0 0 0 0.0313726 0 0 0 0 0.843137 0 0 0 0 0.976471 0 0 0 1 0"/><feBlend in2="BackgroundImageFix" result="effect1_dropShadow_26_1090"/><feBlend in="SourceGraphic" in2="effect1_dropShadow_26_1090" result="shape"/></filter><filter id="filter18_d_26_1090" x="46" y="165" width="19" height="73" filterUnits="userSpaceOnUse" color-interpolation-filters="sRGB"><feFlood flood-opacity="0" result="BackgroundImageFix"/><feColorMatrix in="SourceAlpha" values="0 0 0 0 0 0 0 0 0 0 0 0 0 0 0 0 0 0 127 0" result="hardAlpha"/><feOffset/><feGaussianBlur stdDeviation="4"/><feComposite in2="hardAlpha" operator="out"/><feColorMatrix values="0 0 0 0 0.0313726 0 0 0 0 0.843137 0 0 0 0 0.976471 0 0 0 1 0"/><feBlend in2="BackgroundImageFix" result="effect1_dropShadow_26_1090"/><feBlend in="SourceGraphic" in2="effect1_dropShadow_26_1090" result="shape"/></filter><filter id="filter19_d_26_1090" x="214.9" y=".7" width="44.484" height="23.3" filterUnits="userSpaceOnUse" color-interpolation-filters="sRGB"><feFlood flood-opacity="0" result="BackgroundImageFix"/><feColorMatrix in="SourceAlpha" values="0 0 0 0 0 0 0 0 0 0 0 0 0 0 0 0 0 0 127 0" result="hardAlpha"/><feOffset/><feGaussianBlur stdDeviation="4"/><feComposite in2="hardAlpha" operator="out"/><feColorMatrix values="0 0 0 0 0.0313726 0 0 0 0 0.843137 0 0 0 0 0.976471 0 0 0 1 0"/><feBlend in2="BackgroundImageFix" result="effect1_dropShadow_26_1090"/><feBlend in="SourceGraphic" in2="effect1_dropShadow_26_1090" result="shape"/></filter><filter id="filter20_d_26_1090" x="123.92" y="223.7" width="38.348" height="25.4" filterUnits="userSpaceOnUse" color-interpolation-filters="sRGB"><feFlood flood-opacity="0" result="BackgroundImageFix"/><feColorMatrix in="SourceAlpha" values="0 0 0 0 0 0 0 0 0 0 0 0 0 0 0 0 0 0 127 0" result="hardAlpha"/><feOffset/><feGaussianBlur stdDeviation="4"/><feComposite in2="hardAlpha" operator="out"/><feColorMatrix values="0 0 0 0 0.0313726 0 0 0 0 0.843137 0 0 0 0 0.976471 0 0 0 1 0"/><feBlend in2="BackgroundImageFix" result="effect1_dropShadow_26_1090"/><feBlend in="SourceGraphic" in2="effect1_dropShadow_26_1090" result="shape"/></filter><filter id="filter21_d_26_1090" x="1223.92" y="223.7" width="38.348" height="25.4" filterUnits="userSpaceOnUse" color-interpolation-filters="sRGB"><feFlood flood-opacity="0" result="BackgroundImageFix"/><feColorMatrix in="SourceAlpha" values="0 0 0 0 0 0 0 0 0 0 0 0 0 0 0 0 0 0 127 0" result="hardAlpha"/><feOffset/><feGaussianBlur stdDeviation="4"/><feComposite in2="hardAlpha" operator="out"/><feColorMatrix values="0 0 0 0 0.0313726 0 0 0 0 0.843137 0 0 0 0 0.976471 0 0 0 1 0"/><feBlend in2="BackgroundImageFix" result="effect1_dropShadow_26_1090"/><feBlend in="SourceGraphic" in2="effect1_dropShadow_26_1090" result="shape"/></filter><filter id="filter22_d_26_1090" x="58.9" y="224.6" width="38.088" height="23.5" filterUnits="userSpaceOnUse" color-interpolation-filters="sRGB"><feFlood flood-opacity="0" result="BackgroundImageFix"/><feColorMatrix in="SourceAlpha" values="0 0 0 0 0 0 0 0 0 0 0 0 0 0 0 0 0 0 127 0" result="hardAlpha"/><feOffset/><feGaussianBlur stdDeviation="4"/><feComposite in2="hardAlpha" operator="out"/><feColorMatrix values="0 0 0 0 0.0313726 0 0 0 0 0.843137 0 0 0 0 0.976471 0 0 0 1 0"/><feBlend in2="BackgroundImageFix" result="effect1_dropShadow_26_1090"/><feBlend in="SourceGraphic" in2="effect1_dropShadow_26_1090" result="shape"/></filter><filter id="filter23_d_26_1090" x="1286.7" y="223.7" width="38.688" height="25.4" filterUnits="userSpaceOnUse" color-interpolation-filters="sRGB"><feFlood flood-opacity="0" result="BackgroundImageFix"/><feColorMatrix in="SourceAlpha" values="0 0 0 0 0 0 0 0 0 0 0 0 0 0 0 0 0 0 127 0" result="hardAlpha"/><feOffset/><feGaussianBlur stdDeviation="4"/><feComposite in2="hardAlpha" operator="out"/><feColorMatrix values="0 0 0 0 0.0313726 0 0 0 0 0.843137 0 0 0 0 0.976471 0 0 0 1 0"/><feBlend in2="BackgroundImageFix" result="effect1_dropShadow_26_1090"/><feBlend in="SourceGraphic" in2="effect1_dropShadow_26_1090" result="shape"/></filter><filter id="filter24_d_26_1090" x="61.55" y="384.6" width="62.423" height="23.5" filterUnits="userSpaceOnUse" color-interpolation-filters="sRGB"><feFlood flood-opacity="0" result="BackgroundImageFix"/><feColorMatrix in="SourceAlpha" values="0 0 0 0 0 0 0 0 0 0 0 0 0 0 0 0 0 0 127 0" result="hardAlpha"/><feOffset/><feGaussianBlur stdDeviation="4"/><feComposite in2="hardAlpha" operator="out"/><feColorMatrix values="0 0 0 0 0.0313726 0 0 0 0 0.843137 0 0 0 0 0.976471 0 0 0 1 0"/><feBlend in2="BackgroundImageFix" result="effect1_dropShadow_26_1090"/><feBlend in="SourceGraphic" in2="effect1_dropShadow_26_1090" result="shape"/></filter><filter id="filter25_d_26_1090" x="1242.88" y="384.6" width="50.361" height="23.5" filterUnits="userSpaceOnUse" color-interpolation-filters="sRGB"><feFlood flood-opacity="0" result="BackgroundImageFix"/><feColorMatrix in="SourceAlpha" values="0 0 0 0 0 0 0 0 0 0 0 0 0 0 0 0 0 0 127 0" result="hardAlpha"/><feOffset/><feGaussianBlur stdDeviation="4"/><feComposite in2="hardAlpha" operator="out"/><feColorMatrix values="0 0 0 0 0.0313726 0 0 0 0 0.843137 0 0 0 0 0.976471 0 0 0 1 0"/><feBlend in2="BackgroundImageFix" result="effect1_dropShadow_26_1090"/><feBlend in="SourceGraphic" in2="effect1_dropShadow_26_1090" result="shape"/></filter><filter id="filter26_d_26_1090" x=".68" y="158.7" width="32.662" height="23.4" filterUnits="userSpaceOnUse" color-interpolation-filters="sRGB"><feFlood flood-opacity="0" result="BackgroundImageFix"/><feColorMatrix in="SourceAlpha" values="0 0 0 0 0 0 0 0 0 0 0 0 0 0 0 0 0 0 127 0" result="hardAlpha"/><feOffset/><feGaussianBlur stdDeviation="4"/><feComposite in2="hardAlpha" operator="out"/><feColorMatrix values="0 0 0 0 0.0313726 0 0 0 0 0.843137 0 0 0 0 0.976471 0 0 0 1 0"/><feBlend in2="BackgroundImageFix" result="effect1_dropShadow_26_1090"/><feBlend in="SourceGraphic" in2="effect1_dropShadow_26_1090" result="shape"/></filter><filter id="filter27_d_26_1090" x=".8" y="287.7" width="32.542" height="23.4" filterUnits="userSpaceOnUse" color-interpolation-filters="sRGB"><feFlood flood-opacity="0" result="BackgroundImageFix"/><feColorMatrix in="SourceAlpha" values="0 0 0 0 0 0 0 0 0 0 0 0 0 0 0 0 0 0 127 0" result="hardAlpha"/><feOffset/><feGaussianBlur stdDeviation="4"/><feComposite in2="hardAlpha" operator="out"/><feColorMatrix values="0 0 0 0 0.0313726 0 0 0 0 0.843137 0 0 0 0 0.976471 0 0 0 1 0"/><feBlend in2="BackgroundImageFix" result="effect1_dropShadow_26_1090"/><feBlend in="SourceGraphic" in2="effect1_dropShadow_26_1090" result="shape"/></filter><filter id="filter28_d_26_1090" x="1293.8" y="185.6" width="26.396" height="23.5" filterUnits="userSpaceOnUse" color-interpolation-filters="sRGB"><feFlood flood-opacity="0" result="BackgroundImageFix"/><feColorMatrix in="SourceAlpha" values="0 0 0 0 0 0 0 0 0 0 0 0 0 0 0 0 0 0 127 0" result="hardAlpha"/><feOffset/><feGaussianBlur stdDeviation="4"/><feComposite in2="hardAlpha" operator="out"/><feColorMatrix values="0 0 0 0 0.0313726 0 0 0 0 0.843137 0 0 0 0 0.976471 0 0 0 1 0"/><feBlend in2="BackgroundImageFix" result="effect1_dropShadow_26_1090"/><feBlend in="SourceGraphic" in2="effect1_dropShadow_26_1090" result="shape"/></filter><filter id="filter29_d_26_1090" x="82.72" y="185.6" width="26.476" height="23.5" filterUnits="userSpaceOnUse" color-interpolation-filters="sRGB"><feFlood flood-opacity="0" result="BackgroundImageFix"/><feColorMatrix in="SourceAlpha" values="0 0 0 0 0 0 0 0 0 0 0 0 0 0 0 0 0 0 127 0" result="hardAlpha"/><feOffset/><feGaussianBlur stdDeviation="4"/><feComposite in2="hardAlpha" operator="out"/><feColorMatrix values="0 0 0 0 0.0313726 0 0 0 0 0.843137 0 0 0 0 0.976471 0 0 0 1 0"/><feBlend in2="BackgroundImageFix" result="effect1_dropShadow_26_1090"/><feBlend in="SourceGraphic" in2="effect1_dropShadow_26_1090" result="shape"/></filter><filter id="filter30_d_26_1090" x="1293.68" y="129.6" width="26.516" height="23.5" filterUnits="userSpaceOnUse" color-interpolation-filters="sRGB"><feFlood flood-opacity="0" result="BackgroundImageFix"/><feColorMatrix in="SourceAlpha" values="0 0 0 0 0 0 0 0 0 0 0 0 0 0 0 0 0 0 127 0" result="hardAlpha"/><feOffset/><feGaussianBlur stdDeviation="4"/><feComposite in2="hardAlpha" operator="out"/><feColorMatrix values="0 0 0 0 0.0313726 0 0 0 0 0.843137 0 0 0 0 0.976471 0 0 0 1 0"/><feBlend in2="BackgroundImageFix" result="effect1_dropShadow_26_1090"/><feBlend in="SourceGraphic" in2="effect1_dropShadow_26_1090" result="shape"/></filter><filter id="filter31_d_26_1090" x="82.8" y="129.6" width="26.396" height="23.5" filterUnits="userSpaceOnUse" color-interpolation-filters="sRGB"><feFlood flood-opacity="0" result="BackgroundImageFix"/><feColorMatrix in="SourceAlpha" values="0 0 0 0 0 0 0 0 0 0 0 0 0 0 0 0 0 0 127 0" result="hardAlpha"/><feOffset/><feGaussianBlur stdDeviation="4"/><feComposite in2="hardAlpha" operator="out"/><feColorMatrix values="0 0 0 0 0.0313726 0 0 0 0 0.843137 0 0 0 0 0.976471 0 0 0 1 0"/><feBlend in2="BackgroundImageFix" result="effect1_dropShadow_26_1090"/><feBlend in="SourceGraphic" in2="effect1_dropShadow_26_1090" result="shape"/></filter><filter id="filter32_d_26_1090" x="1293.8" y="337.6" width="20.4" height="23.5" filterUnits="userSpaceOnUse" color-interpolation-filters="sRGB"><feFlood flood-opacity="0" result="BackgroundImageFix"/><feColorMatrix in="SourceAlpha" values="0 0 0 0 0 0 0 0 0 0 0 0 0 0 0 0 0 0 127 0" result="hardAlpha"/><feOffset/><feGaussianBlur stdDeviation="4"/><feComposite in2="hardAlpha" operator="out"/><feColorMatrix values="0 0 0 0 0.0313726 0 0 0 0 0.843137 0 0 0 0 0.976471 0 0 0 1 0"/><feBlend in2="BackgroundImageFix" result="effect1_dropShadow_26_1090"/><feBlend in="SourceGraphic" in2="effect1_dropShadow_26_1090" result="shape"/></filter><filter id="filter33_d_26_1090" x="71.4" y="337.6" width="31.792" height="23.5" filterUnits="userSpaceOnUse" color-interpolation-filters="sRGB"><feFlood flood-opacity="0" result="BackgroundImageFix"/><feColorMatrix in="SourceAlpha" values="0 0 0 0 0 0 0 0 0 0 0 0 0 0 0 0 0 0 127 0" result="hardAlpha"/><feOffset/><feGaussianBlur stdDeviation="4"/><feComposite in2="hardAlpha" operator="out"/><feColorMatrix values="0 0 0 0 0.0313726 0 0 0 0 0.843137 0 0 0 0 0.976471 0 0 0 1 0"/><feBlend in2="BackgroundImageFix" result="effect1_dropShadow_26_1090"/><feBlend in="SourceGraphic" in2="effect1_dropShadow_26_1090" result="shape"/></filter><filter id="filter34_d_26_1090" x="1293.72" y="261.6" width="26.476" height="23.5" filterUnits="userSpaceOnUse" color-interpolation-filters="sRGB"><feFlood flood-opacity="0" result="BackgroundImageFix"/><feColorMatrix in="SourceAlpha" values="0 0 0 0 0 0 0 0 0 0 0 0 0 0 0 0 0 0 127 0" result="hardAlpha"/><feOffset/><feGaussianBlur stdDeviation="4"/><feComposite in2="hardAlpha" operator="out"/><feColorMatrix values="0 0 0 0 0.0313726 0 0 0 0 0.843137 0 0 0 0 0.976471 0 0 0 1 0"/><feBlend in2="BackgroundImageFix" result="effect1_dropShadow_26_1090"/><feBlend in="SourceGraphic" in2="effect1_dropShadow_26_1090" result="shape"/></filter><filter id="filter35_d_26_1090" x="88.8" y="261.6" width="20.4" height="23.5" filterUnits="userSpaceOnUse" color-interpolation-filters="sRGB"><feFlood flood-opacity="0" result="BackgroundImageFix"/><feColorMatrix in="SourceAlpha" values="0 0 0 0 0 0 0 0 0 0 0 0 0 0 0 0 0 0 127 0" result="hardAlpha"/><feOffset/><feGaussianBlur stdDeviation="4"/><feComposite in2="hardAlpha" operator="out"/><feColorMatrix values="0 0 0 0 0.0313726 0 0 0 0 0.843137 0 0 0 0 0.976471 0 0 0 1 0"/><feBlend in2="BackgroundImageFix" result="effect1_dropShadow_26_1090"/><feBlend in="SourceGraphic" in2="effect1_dropShadow_26_1090" result="shape"/></filter><filter id="filter36_d_26_1090" x="1033.92" y=".6" width="44.414" height="23.5" filterUnits="userSpaceOnUse" color-interpolation-filters="sRGB"><feFlood flood-opacity="0" result="BackgroundImageFix"/><feColorMatrix in="SourceAlpha" values="0 0 0 0 0 0 0 0 0 0 0 0 0 0 0 0 0 0 127 0" result="hardAlpha"/><feOffset/><feGaussianBlur stdDeviation="4"/><feComposite in2="hardAlpha" operator="out"/><feColorMatrix values="0 0 0 0 0.0313726 0 0 0 0 0.843137 0 0 0 0 0.976471 0 0 0 1 0"/><feBlend in2="BackgroundImageFix" result="effect1_dropShadow_26_1090"/><feBlend in="SourceGraphic" in2="effect1_dropShadow_26_1090" result="shape"/></filter><filter id="filter37_d_26_1090" x="571.8" y="33.6" width="20.4" height="23.5" filterUnits="userSpaceOnUse" color-interpolation-filters="sRGB"><feFlood flood-opacity="0" result="BackgroundImageFix"/><feColorMatrix in="SourceAlpha" values="0 0 0 0 0 0 0 0 0 0 0 0 0 0 0 0 0 0 127 0" result="hardAlpha"/><feOffset/><feGaussianBlur stdDeviation="4"/><feComposite in2="hardAlpha" operator="out"/><feColorMatrix values="0 0 0 0 0.0313726 0 0 0 0 0.843137 0 0 0 0 0.976471 0 0 0 1 0"/><feBlend in2="BackgroundImageFix" result="effect1_dropShadow_26_1090"/><feBlend in="SourceGraphic" in2="effect1_dropShadow_26_1090" result="shape"/></filter><filter id="filter38_d_26_1090" x="635.68" y="33.6" width="26.516" height="23.5" filterUnits="userSpaceOnUse" color-interpolation-filters="sRGB"><feFlood flood-opacity="0" result="BackgroundImageFix"/><feColorMatrix in="SourceAlpha" values="0 0 0 0 0 0 0 0 0 0 0 0 0 0 0 0 0 0 127 0" result="hardAlpha"/><feOffset/><feGaussianBlur stdDeviation="4"/><feComposite in2="hardAlpha" operator="out"/><feColorMatrix values="0 0 0 0 0.0313726 0 0 0 0 0.843137 0 0 0 0 0.976471 0 0 0 1 0"/><feBlend in2="BackgroundImageFix" result="effect1_dropShadow_26_1090"/><feBlend in="SourceGraphic" in2="effect1_dropShadow_26_1090" result="shape"/></filter><filter id="filter39_d_26_1090" x="705.9" y="33.6" width="32.292" height="23.5" filterUnits="userSpaceOnUse" color-interpolation-filters="sRGB"><feFlood flood-opacity="0" result="BackgroundImageFix"/><feColorMatrix in="SourceAlpha" values="0 0 0 0 0 0 0 0 0 0 0 0 0 0 0 0 0 0 127 0" result="hardAlpha"/><feOffset/><feGaussianBlur stdDeviation="4"/><feComposite in2="hardAlpha" operator="out"/><feColorMatrix values="0 0 0 0 0.0313726 0 0 0 0 0.843137 0 0 0 0 0.976471 0 0 0 1 0"/><feBlend in2="BackgroundImageFix" result="effect1_dropShadow_26_1090"/><feBlend in="SourceGraphic" in2="effect1_dropShadow_26_1090" result="shape"/></filter><filter id="filter40_d_26_1090" x="770.9" y="33.59" width="32.292" height="23.51" filterUnits="userSpaceOnUse" color-interpolation-filters="sRGB"><feFlood flood-opacity="0" result="BackgroundImageFix"/><feColorMatrix in="SourceAlpha" values="0 0 0 0 0 0 0 0 0 0 0 0 0 0 0 0 0 0 127 0" result="hardAlpha"/><feOffset/><feGaussianBlur stdDeviation="4"/><feComposite in2="hardAlpha" operator="out"/><feColorMatrix values="0 0 0 0 0.0313726 0 0 0 0 0.843137 0 0 0 0 0.976471 0 0 0 1 0"/><feBlend in2="BackgroundImageFix" result="effect1_dropShadow_26_1090"/><feBlend in="SourceGraphic" in2="effect1_dropShadow_26_1090" result="shape"/></filter><filter id="filter41_d_26_1090" x="1110.88" y=".59" width="38.288" height="23.51" filterUnits="userSpaceOnUse" color-interpolation-filters="sRGB"><feFlood flood-opacity="0" result="BackgroundImageFix"/><feColorMatrix in="SourceAlpha" values="0 0 0 0 0 0 0 0 0 0 0 0 0 0 0 0 0 0 127 0" result="hardAlpha"/><feOffset/><feGaussianBlur stdDeviation="4"/><feComposite in2="hardAlpha" operator="out"/><feColorMatrix values="0 0 0 0 0.0313726 0 0 0 0 0.843137 0 0 0 0 0.976471 0 0 0 1 0"/><feBlend in2="BackgroundImageFix" result="effect1_dropShadow_26_1090"/><feBlend in="SourceGraphic" in2="effect1_dropShadow_26_1090" result="shape"/></filter><filter id="filter42_d_26_1090" x="1177.88" y=".59" width="38.228" height="23.51" filterUnits="userSpaceOnUse" color-interpolation-filters="sRGB"><feFlood flood-opacity="0" result="BackgroundImageFix"/><feColorMatrix in="SourceAlpha" values="0 0 0 0 0 0 0 0 0 0 0 0 0 0 0 0 0 0 127 0" result="hardAlpha"/><feOffset/><feGaussianBlur stdDeviation="4"/><feComposite in2="hardAlpha" operator="out"/><feColorMatrix values="0 0 0 0 0.0313726 0 0 0 0 0.843137 0 0 0 0 0.976471 0 0 0 1 0"/><feBlend in2="BackgroundImageFix" result="effect1_dropShadow_26_1090"/><feBlend in="SourceGraphic" in2="effect1_dropShadow_26_1090" result="shape"/></filter><filter id="filter43_d_26_1090" x="647" y="56" width="17" height="32" filterUnits="userSpaceOnUse" color-interpolation-filters="sRGB"><feFlood flood-opacity="0" result="BackgroundImageFix"/><feColorMatrix in="SourceAlpha" values="0 0 0 0 0 0 0 0 0 0 0 0 0 0 0 0 0 0 127 0" result="hardAlpha"/><feOffset/><feGaussianBlur stdDeviation="4"/><feComposite in2="hardAlpha" operator="out"/><feColorMatrix values="0 0 0 0 0.0313726 0 0 0 0 0.843137 0 0 0 0 0.976471 0 0 0 1 0"/><feBlend in2="BackgroundImageFix" result="effect1_dropShadow_26_1090"/><feBlend in="SourceGraphic" in2="effect1_dropShadow_26_1090" result="shape"/></filter><filter id="filter44_d_26_1090" x="600" y="65" width="17" height="23" filterUnits="userSpaceOnUse" color-interpolation-filters="sRGB"><feFlood flood-opacity="0" result="BackgroundImageFix"/><feColorMatrix in="SourceAlpha" values="0 0 0 0 0 0 0 0 0 0 0 0 0 0 0 0 0 0 127 0" result="hardAlpha"/><feOffset/><feGaussianBlur stdDeviation="4"/><feComposite in2="hardAlpha" operator="out"/><feColorMatrix values="0 0 0 0 0.0313726 0 0 0 0 0.843137 0 0 0 0 0.976471 0 0 0 1 0"/><feBlend in2="BackgroundImageFix" result="effect1_dropShadow_26_1090"/><feBlend in="SourceGraphic" in2="effect1_dropShadow_26_1090" result="shape"/></filter><filter id="filter45_d_26_1090" x="670" y="65" width="17" height="23" filterUnits="userSpaceOnUse" color-interpolation-filters="sRGB"><feFlood flood-opacity="0" result="BackgroundImageFix"/><feColorMatrix in="SourceAlpha" values="0 0 0 0 0 0 0 0 0 0 0 0 0 0 0 0 0 0 127 0" result="hardAlpha"/><feOffset/><feGaussianBlur stdDeviation="4"/><feComposite in2="hardAlpha" operator="out"/><feColorMatrix values="0 0 0 0 0.0313726 0 0 0 0 0.843137 0 0 0 0 0.976471 0 0 0 1 0"/><feBlend in2="BackgroundImageFix" result="effect1_dropShadow_26_1090"/><feBlend in="SourceGraphic" in2="effect1_dropShadow_26_1090" result="shape"/></filter><filter id="filter46_d_26_1090" x="740" y="65" width="17" height="23" filterUnits="userSpaceOnUse" color-interpolation-filters="sRGB"><feFlood flood-opacity="0" result="BackgroundImageFix"/><feColorMatrix in="SourceAlpha" values="0 0 0 0 0 0 0 0 0 0 0 0 0 0 0 0 0 0 127 0" result="hardAlpha"/><feOffset/><feGaussianBlur stdDeviation="4"/><feComposite in2="hardAlpha" operator="out"/><feColorMatrix values="0 0 0 0 0.0313726 0 0 0 0 0.843137 0 0 0 0 0.976471 0 0 0 1 0"/><feBlend in2="BackgroundImageFix" result="effect1_dropShadow_26_1090"/><feBlend in="SourceGraphic" in2="effect1_dropShadow_26_1090" result="shape"/></filter><filter id="filter47_d_26_1090" x="624" y="65" width="17" height="23" filterUnits="userSpaceOnUse" color-interpolation-filters="sRGB"><feFlood flood-opacity="0" result="BackgroundImageFix"/><feColorMatrix in="SourceAlpha" values="0 0 0 0 0 0 0 0 0 0 0 0 0 0 0 0 0 0 127 0" result="hardAlpha"/><feOffset/><feGaussianBlur stdDeviation="4"/><feComposite in2="hardAlpha" operator="out"/><feColorMatrix values="0 0 0 0 0.0313726 0 0 0 0 0.843137 0 0 0 0 0.976471 0 0 0 1 0"/><feBlend in2="BackgroundImageFix" result="effect1_dropShadow_26_1090"/><feBlend in="SourceGraphic" in2="effect1_dropShadow_26_1090" result="shape"/></filter><filter id="filter48_d_26_1090" x="694" y="65" width="17" height="23" filterUnits="userSpaceOnUse" color-interpolation-filters="sRGB"><feFlood flood-opacity="0" result="BackgroundImageFix"/><feColorMatrix in="SourceAlpha" values="0 0 0 0 0 0 0 0 0 0 0 0 0 0 0 0 0 0 127 0" result="hardAlpha"/><feOffset/><feGaussianBlur stdDeviation="4"/><feComposite in2="hardAlpha" operator="out"/><feColorMatrix values="0 0 0 0 0.0313726 0 0 0 0 0.843137 0 0 0 0 0.976471 0 0 0 1 0"/><feBlend in2="BackgroundImageFix" result="effect1_dropShadow_26_1090"/><feBlend in="SourceGraphic" in2="effect1_dropShadow_26_1090" result="shape"/></filter><filter id="filter49_d_26_1090" x="764" y="65" width="17" height="23" filterUnits="userSpaceOnUse" color-interpolation-filters="sRGB"><feFlood flood-opacity="0" result="BackgroundImageFix"/><feColorMatrix in="SourceAlpha" values="0 0 0 0 0 0 0 0 0 0 0 0 0 0 0 0 0 0 127 0" result="hardAlpha"/><feOffset/><feGaussianBlur stdDeviation="4"/><feComposite in2="hardAlpha" operator="out"/><feColorMatrix values="0 0 0 0 0.0313726 0 0 0 0 0.843137 0 0 0 0 0.976471 0 0 0 1 0"/><feBlend in2="BackgroundImageFix" result="effect1_dropShadow_26_1090"/><feBlend in="SourceGraphic" in2="effect1_dropShadow_26_1090" result="shape"/></filter><filter id="filter50_d_26_1090" x="787" y="56" width="17" height="32" filterUnits="userSpaceOnUse" color-interpolation-filters="sRGB"><feFlood flood-opacity="0" result="BackgroundImageFix"/><feColorMatrix in="SourceAlpha" values="0 0 0 0 0 0 0 0 0 0 0 0 0 0 0 0 0 0 127 0" result="hardAlpha"/><feOffset/><feGaussianBlur stdDeviation="4"/><feComposite in2="hardAlpha" operator="out"/><feColorMatrix values="0 0 0 0 0.0313726 0 0 0 0 0.843137 0 0 0 0 0.976471 0 0 0 1 0"/><feBlend in2="BackgroundImageFix" result="effect1_dropShadow_26_1090"/><feBlend in="SourceGraphic" in2="effect1_dropShadow_26_1090" result="shape"/></filter><filter id="filter51_d_26_1090" x="717" y="56" width="17" height="32" filterUnits="userSpaceOnUse" color-interpolation-filters="sRGB"><feFlood flood-opacity="0" result="BackgroundImageFix"/><feColorMatrix in="SourceAlpha" values="0 0 0 0 0 0 0 0 0 0 0 0 0 0 0 0 0 0 127 0" result="hardAlpha"/><feOffset/><feGaussianBlur stdDeviation="4"/><feComposite in2="hardAlpha" operator="out"/><feColorMatrix values="0 0 0 0 0.0313726 0 0 0 0 0.843137 0 0 0 0 0.976471 0 0 0 1 0"/><feBlend in2="BackgroundImageFix" result="effect1_dropShadow_26_1090"/><feBlend in="SourceGraphic" in2="effect1_dropShadow_26_1090" result="shape"/></filter><filter id="filter52_d_26_1090" x="577" y="56" width="17" height="32" filterUnits="userSpaceOnUse" color-interpolation-filters="sRGB"><feFlood flood-opacity="0" result="BackgroundImageFix"/><feColorMatrix in="SourceAlpha" values="0 0 0 0 0 0 0 0 0 0 0 0 0 0 0 0 0 0 127 0" result="hardAlpha"/><feOffset/><feGaussianBlur stdDeviation="4"/><feComposite in2="hardAlpha" operator="out"/><feColorMatrix values="0 0 0 0 0.0313726 0 0 0 0 0.843137 0 0 0 0 0.976471 0 0 0 1 0"/><feBlend in2="BackgroundImageFix" result="effect1_dropShadow_26_1090"/><feBlend in="SourceGraphic" in2="effect1_dropShadow_26_1090" result="shape"/></filter></defs></svg>