<svg width="101" height="100" fill="none" xmlns="http://www.w3.org/2000/svg"><path d="M100.279 38.43c-.233 1.528-.422 3.062-.703 4.585-2.57 14.042-13.853 25.606-27.766 28.538-20.404 4.294-39.793-8.954-43.32-29.591C25.14 22.346 38.968 3.292 58.643.412A36.143 36.143 0 0199.301 27.99c.41 1.744.54 3.548.81 5.325.038.26.108.54.162.773l.006 4.342zm-12.963-8.555c-.88-.46-1.739-.95-2.635-1.345a1.917 1.917 0 00-1.21-.097c-3.18.932-6.352 1.892-9.516 2.878-2.965.924-5.941 1.4-8.993.395a4.034 4.034 0 00-4.537 1.415c-2.133 2.819-1.118 6.303 2.215 7.637 1.825.729 3.564.35 4.752-1.21a7.745 7.745 0 014.375-2.776c3.867-1.053 7.697-2.242 11.585-3.208 1.998-.497 3.3-1.54 3.943-3.457a2.366 2.366 0 000-.232h.021zm-38.497-6.67c.62-.567 1.188-1.08 1.712-1.577a1.222 1.222 0 00.13-1.772c-.578-.756-1.178-1.501-1.82-2.322l-1.972 2.22a1.079 1.079 0 00.038 1.663c.589.594 1.22 1.14 1.912 1.788zm20.853 37.19l1.928-2.203a1.08 1.08 0 000-1.62c-.605-.643-1.27-1.232-1.928-1.864-.66.594-1.232 1.08-1.766 1.62a1.172 1.172 0 00-.146 1.696 215.96 215.96 0 011.912 2.371zM58.708 17.67a14.91 14.91 0 001.62-1.847 1.56 1.56 0 00.097-1.367c-.6-.88-1.253-1.725-1.955-2.527-.664.788-1.258 1.458-1.81 2.16-.631.8-.631 1.231.087 1.944.562.54 1.194 1 1.96 1.637zm24.06 33.955c-.777-.664-1.49-1.29-2.224-1.896a1.26 1.26 0 00-1.783.033c-.54.486-1.08 1.005-1.7 1.566.582.708 1.106 1.394 1.69 2.02a1.123 1.123 0 001.674.146c.761-.6 1.523-1.2 2.338-1.869h.006zM40.773 30.636c.583.621 1.08 1.2 1.62 1.74a1.134 1.134 0 001.62.15c.81-.62 1.62-1.269 2.447-1.938-.794-.665-1.507-1.248-2.21-1.847a1.193 1.193 0 00-1.82.097c-.523.545-1.036 1.129-1.657 1.798zm44.32 13.557c.566-.54 1.177-1.08 1.738-1.62a1.209 1.209 0 00.044-1.891c-.643-.664-1.259-1.35-1.89-2.03-2.728 2.964-2.728 3.391 0 5.503a.808.808 0 00.107.038zm-2.329-23.521l-.842-.643c-2.582-1.928-2.7-1.912-4.667.6-.032.043-.026.107-.043.167l-.254.254c.665.54 1.324 1.08 1.993 1.62a1.106 1.106 0 001.62 0l2.193-1.998zM69.936 17.62c.567-.578 1.08-1.08 1.62-1.62a1.236 1.236 0 00.065-1.777c-.594-.745-1.21-1.475-1.858-2.268l-1.895 2.317a1.136 1.136 0 00.146 1.739c.578.518 1.253 1.031 1.922 1.593v.016zM0 92.082l4.548-4.164.772-.707 7.766 8.21L8.101 100h-.178C6.184 98.277 4.45 96.549 2.7 94.837c-.885-.87-1.798-1.718-2.7-2.577v-.178z"/><path d="M25.146 49.129c4.737 12.692 13.351 21.355 26.07 26.054l-7.183 4.693c-.956.621-1.895 1.27-2.862 1.869-3.138 1.944-6.524 1.663-9.15-.902a921.845 921.845 0 01-12.75-12.698 6.816 6.816 0 01-.903-8.641c2.085-3.29 4.235-6.54 6.363-9.803.113-.172.21-.307.415-.572zm-10.213 21.62l14.28 14.582c-2.284 1.874-4.628 4.116-7.56 5.58-2.161 1.08-4.322 1.042-6.131-.584a62.195 62.195 0 01-5.714-5.94 4.79 4.79 0 01-.34-6.034c1.696-2.56 3.586-4.995 5.465-7.604z"/></svg>