<svg width="101" height="100" fill="none" xmlns="http://www.w3.org/2000/svg"><path d="M73.9 69.698c0 4.635.161 9.269 0 13.903-.395 9.442-6.06 15.42-15.525 16.08-5.399.425-10.822.425-16.22 0-8.863-.787-14.505-6.65-14.818-15.524-.336-9.43-.278-18.884 0-28.326.209-7.832 4.229-11.586 12.026-11.656 7.515-.092 15.03-.092 22.545 0 7.75.035 11.69 3.893 11.957 11.62.162 4.635.034 9.27.034 13.903zM46.36 32.914c1.402-6.754-2.317-10.09-7.148-12.674-5.526-2.943-11.11-5.793-16.567-8.817-.962-.533-1.402-1.992-2.085-3.023 1.216-.765 2.41-2.144 3.66-2.179 6.546-.231 13.115-.115 19.696-.127h2.56L50.624 0l4.333 6.106c5.573 0 12.663-.163 19.695.104 2.028.08 3.997 1.402 6.002 2.155-1.622 1.158-3.21 2.317-4.855 3.475-6.522 4.38-13.277 8.458-19.463 13.266-1.634 1.274-1.553 4.773-2.422 7.843l-7.553-.035zM67.157 11.98h-32.51c9.211 9.466 20.044 11.435 32.51 0zm-56.283 42.9H25.31v29.092H10.874V54.88zm79.407 29.23H75.927V55.148H90.28v28.964zM8.348 69.548c0 5.793.278 11.585-.174 17.274-.127 1.668-2.317 3.186-3.545 4.762-1.286-1.588-3.626-3.14-3.672-4.762a628.74 628.74 0 01.07-34.56c0-1.61 2.316-3.163 3.602-4.738 1.228 1.587 3.395 3.093 3.476 4.761.44 5.724.174 11.505.174 17.275l.07-.012zm91.989-.313c0 5.584.302 11.203-.173 16.741-.163 1.935-2.248 3.708-3.476 5.55-1.274-1.761-3.591-3.476-3.65-5.272a550.59 550.59 0 010-33.505c0-1.773 2.318-3.476 3.65-5.202 1.159 1.83 3.279 3.592 3.476 5.526.498 5.341.185 10.763.173 16.162zm-40.399-26.6h-18.63c-1.158-8.11-1.158-8.11 6.373-8.11h5.793c7.542.023 7.542.023 6.464 8.11z"/><path d="M54.69 15.687c-1.923 1.436-3.36 3.035-3.857 2.78a5.247 5.247 0 01-2.654-3.22c-.127-.672 1.634-2.318 2.642-2.422 1.008-.104 1.958 1.379 3.87 2.862z"/></svg>