<svg width="125" height="100" fill="none" xmlns="http://www.w3.org/2000/svg"><path d="M62.561 99.973h-43.53C8.225 99.973.463 92.183.445 81.387V18.55C.445 7.744 8.26.01 19.058 0h86.898c10.68 0 18.469 7.834 18.469 18.496v63.035c0 10.58-7.798 18.451-18.343 18.469-14.504-.006-29.011-.015-43.521-.027zm-.225-4.007h43.836a13.872 13.872 0 0013.26-8.673 13.879 13.879 0 001.004-5.492V18.343c0-8.275-6.024-14.318-14.264-14.327H18.968c-8.546 0-14.516 6.034-14.516 14.57v62.666c0 8.77 5.916 14.723 14.678 14.732 14.402.006 28.804-.012 43.206-.054v.036z"/><path d="M62.354 74.318H18.995c-5.403 0-8.906-3.44-8.915-8.897V18.28c0-5.232 3.54-8.717 8.79-8.717h87.194c5.205 0 8.771 3.602 8.78 8.744v46.826c0 5.754-3.404 9.167-9.14 9.176-14.42.042-28.87.045-43.35.009zM90.9 45.574c-3.017-2.368-5.854-4.502-8.636-6.79a2.701 2.701 0 00-3.314-.342c-6.672 3.494-13.39 6.898-20.054 10.392a1.665 1.665 0 01-2.233-.18c-3.971-3.548-7.978-7.06-11.977-10.572-1.611-1.423-2.701-1.26-3.845.558-1.143 1.82-2.116 3.476-3.242 5.331-3.043-2.827-5.934-5.52-8.842-8.194-1.477-1.36-2.08-1.387-3.729-.19l-8.815 6.44c-2.297 1.674-2.8 3.322-1.801 6.303l12.336-9.005c3.215 2.98 6.304 5.889 9.474 8.77 1.657 1.522 2.773 1.36 3.926-.54l3.215-5.295c.549.468.9.802 1.332 1.144 3.512 3.116 7.078 6.168 10.491 9.383 1.387 1.306 2.566 1.207 4.097.396 6.619-3.494 13.292-6.889 19.91-10.373a1.63 1.63 0 012.09.252c2.836 2.287 5.7 4.502 8.572 6.753 1.864 1.45 2.963 1.18 3.935-.9 1.486-3.206 2.945-6.42 4.422-9.635 1.026-2.225 2.062-4.449 3.134-6.763l9.536 6.213c.067-1.268.067-2.54 0-3.809a2.324 2.324 0 00-.856-1.495c-2.701-1.855-5.403-3.602-8.185-5.403-1.414-.9-2.495-.576-3.242.9-.477.901-.9 1.919-1.324 2.874L90.9 45.574zM50.503 13.606c0 1.585-.558 3.161 1.018 4.008a2.432 2.432 0 002.143-.198c1.306-.973.775-2.432.676-3.81h-3.837zm-20.035 0c.117 1.522-.568 3.098.99 3.99a2.431 2.431 0 002.143-.1c1.414-.99.793-2.494.829-3.89h-3.962zm40.08 0c-.09 1.468-.594 3.008.901 3.936a2.405 2.405 0 002.152-.054c1.441-.973.81-2.486.829-3.882h-3.882zm-16.136 56.66c0-1.486.585-3.026-.946-3.927a2.35 2.35 0 00-2.035 0c-1.477.901-.972 2.45-.9 3.89l3.88.037zm-23.935.117h1.863c2.198 0 2.585-.496 2.072-2.702a1.855 1.855 0 00-1.99-1.63 1.8 1.8 0 00-1.927 1.702 20.292 20.292 0 00-.018 2.63zm43.97.18c-.098-1.855.604-3.53-1.179-4.305-.576-.252-1.918 0-2.09.334a14.407 14.407 0 00-.692 3.404l3.962.567zm16.038-56.894c.199 1.432-.62 3.008.901 3.927a2.44 2.44 0 002.143 0c1.459-.964.82-2.477.766-3.882l-3.81-.045zm3.927 56.642c-.072-1.54.639-3.152-1.009-3.99a2.44 2.44 0 00-2.161.19c-1.27 1-.675 2.449-.684 3.8h3.854zm-6.844 22.071H73.484c-2.503 0-3.035-.54-3.044-3.098v-8.546c0-2.107.657-2.764 2.702-2.773h28.96c2.071 0 2.701.666 2.701 2.791v8.861c0 2.126-.603 2.747-2.701 2.756-4.827.009-9.68.009-14.534.009zm13.174-10.41H75.69c-.423 0-1.189.46-1.207.739-.108 1.8-.054 3.602-.054 5.529h26.286l.027-6.268zm-66.286 3.242a7.204 7.204 0 11-14.407-.002 7.204 7.204 0 0114.407.002zm16.84 7.114a7.203 7.203 0 110-14.407 7.203 7.203 0 010 14.407z"/></svg>