<svg width="101" height="100" fill="none" xmlns="http://www.w3.org/2000/svg"><path d="M66.048 71.803l-3.816-3.86a37.571 37.571 0 01-29.757 7.728 36.777 36.777 0 01-24.02-14.184 38.105 38.105 0 013.487-50.695c14.047-13.665 32.741-12.3 42.79-7.096-.694.458-1.373.9-2.037 1.359-.664.457-1.13.854-1.725 1.228a1.412 1.412 0 00-.717 1.64c.036.233.059.467.069.702-10.59-3.654-20.602-2.838-29.918 3.579a30.3 30.3 0 00-12.46 17.847c-4.036 15.726 3.9 30.84 18.114 37.067a30.336 30.336 0 0023.73.473C57.73 64.54 63.43 58.984 67.276 51.34c.404.763.763 1.434 1.122 2.106.358.671.892 1.526 1.32 2.289a.527.527 0 00.618.297c.564-.076 1.137-.099 1.854-.16a39.202 39.202 0 01-3.785 5.784l3.861 3.853c.132-.07.26-.15.382-.236a5.753 5.753 0 015.211-.893 5.395 5.395 0 012.182 1.343 363.835 363.835 0 017.768 7.584 839.27 839.27 0 019.637 9.858c.78.804 1.502 1.664 2.159 2.572a5.269 5.269 0 010 5.821 44.749 44.749 0 01-7.63 7.63 4.579 4.579 0 01-2.388.764c-2.03.267-3.571-.573-4.945-1.938-2.709-2.694-5.448-5.342-8.133-8.066-2.953-2.983-5.868-6.004-8.79-9.018a21.538 21.538 0 01-1.603-1.725 5.708 5.708 0 01-.42-6.92l.352-.481z"/><path d="M85.298 9.816c.924 1.037 1.733 1.96 2.564 2.869.344.373.061.64-.122.9a351.126 351.126 0 01-3.395 4.776.664.664 0 00-.107.764 145.659 145.659 0 011.61 3.815c.206.534.618.633 1.09.763 1.794.42 3.58.87 5.342 1.282a.839.839 0 01.763.884c.046.977.1 1.954.19 2.923 0 .397-.068.587-.465.679-1.854.458-3.7.961-5.562 1.396a1.145 1.145 0 00-.961.878 110.983 110.983 0 01-1.168 3.769 1.152 1.152 0 00.267 1.183c1.107 1.404 2.182 2.838 3.289 4.242a1.137 1.137 0 010 1.602c-.626.763-1.229 1.526-1.87 2.29a.581.581 0 01-.534.106 293.91 293.91 0 01-5.386-2.663.695.695 0 00-.817 0c-1.251.824-2.548 1.587-3.815 2.427a1.176 1.176 0 00-.351.831c-.069 1.465-.076 2.93-.13 4.395-.03.596-.094 1.19-.19 1.778a.512.512 0 01-.29.366 94.35 94.35 0 01-3.564.664.581.581 0 01-.465-.274 296.106 296.106 0 01-2.457-5.54.68.68 0 00-.649-.511c-1.526-.137-2.975-.343-4.463-.496a.763.763 0 00-.572.221 411.997 411.997 0 00-4.266 4.7.505.505 0 01-.763.115c-.831-.473-1.686-.908-2.525-1.374a1 1 0 01-.58-1.29c.519-1.724.984-3.47 1.526-5.195a.977.977 0 00-.252-1.137c-.992-1.03-1.915-2.121-2.884-3.167a.81.81 0 00-.61-.198c-2.06.264-4.118.544-6.173.84a.564.564 0 01-.763-.413c-.267-.71-.626-1.38-.916-2.083-.443-1.053-.39-1.419.534-2.106 1.19-.877 2.434-1.694 3.685-2.495.687-.435 1.19-.809 1.008-1.823a29.294 29.294 0 01-.237-3.9.762.762 0 00-.435-.656c-1.58-.953-3.151-1.907-4.692-2.922-.763-.496-.763-.687-.512-1.526.306-1 .626-1.991.962-3.052 1.526.145 2.953.275 4.41.427.68.077 1.366.184 2.037.306a.763.763 0 00.878-.367c.877-1.19 1.762-2.38 2.685-3.54.222-.282.115-.48 0-.763a716.718 716.718 0 01-1.747-5.624.908.908 0 01.466-1.182c.763-.458 1.571-.962 2.35-1.458a.626.626 0 01.908.092 569.952 569.952 0 004.25 4.342.688.688 0 00.519.213c1.396-.297 2.777-.656 4.166-.954a1.068 1.068 0 00.87-.702c.434-1.129.854-2.289 1.32-3.38.274-.663.617-1.304.938-1.953a1.014 1.014 0 011.106-.618c.931.122 1.855.267 2.778.443.519.099.663.549.702.984a207.5 207.5 0 01.35 4.38c0 .541-.152 1.197.092 1.594.245.397.924.511 1.397.763.862.458 1.732.893 2.563 1.396a1.075 1.075 0 001.229.039 1102.92 1102.92 0 005.844-3.075zm-16.733 30.01c5.815.32 11.636-4.67 11.865-11.118a11.832 11.832 0 00-23.653-.656c.03 6.257 5.272 12.025 11.788 11.773z"/></svg>