<svg width="75" height="100" fill="none" xmlns="http://www.w3.org/2000/svg"><path d="M48.794 100h-.889c.169-.237.358-.458.564-.662 7.831-6.564 11.622-15.11 12.324-25.155.814-11.555-3.284-21.483-10.324-30.336-2.542-3.196-5.497-6.062-8.261-9.08.964 12.338-1.734 23.377-7.925 34.194-.915-6.222-3.11-11.16-7.288-14.866-2.507 5.778-5.076 11.4-7.418 17.137-1.96 4.805-2.813 9.804-1.48 14.978 1.383 5.368 4.338 9.817 8.111 13.777-4.728-1-9.288-2.467-13.248-5.333C1.725 86.525-.817 75.099 1.032 62.21c1.075-7.44 4.684-13.96 8.577-20.27C17.799 28.673 26.293 15.563 29.684 0h.444c.225.263.482.498.764.698A91.439 91.439 0 0151.95 16.124c16 15.67 24.604 34.376 22.666 57.126-.889 10.106-5.729 17.995-14.875 22.71-3.444 1.773-7.302 2.707-10.946 4.04z"/></svg>