<svg width="67" height="100" fill="none" xmlns="http://www.w3.org/2000/svg"><path d="M12.496 100c-.392-.17-.792-.317-1.2-.445C5.11 97.951.918 92.703.91 86.288c-.033-24.19-.033-48.383 0-72.576C.91 7.298 5.11 2.045 11.297.444a12.15 12.15 0 001.2-.444h4c3.88 1.018 7.556 2.591 9.463 6.303 1.204 2.35 2.187 5.133 2.222 7.724.165 24.001.125 47.967.08 71.95 0 7.147-4.12 12.054-11.178 13.716-.2.077-.39.18-.564.307h-4.023zM24.91 50.113c0-12 .027-24 0-36.001 0-5.463-4.16-10.178-9.147-10.587-5.778-.472-10.356 3.11-11.285 8.942a28.294 28.294 0 00-.253 4.418v68.003c0 6.125 3.738 10.956 8.889 11.556 6.414.747 11.787-4 11.814-10.547.018-11.938-.018-23.863-.018-35.784zm17.854-7.311l11.432-11.2 11.862 11.631-2.257 2.351-7.214-7.702-.511.297v28.85h-3.427V38.118l-7.778 8.103-2.107-3.418z"/><path d="M9.474 20.441v-2.982h10.089v2.982H9.473zM19.59 79.555v3.004H9.558v-3.004H19.59z"/></svg>