<svg width="93" height="100" fill="none" xmlns="http://www.w3.org/2000/svg"><path d="M10.576 100c-3.562-.196-7.596-1.61-9.653-5.986-2.056-4.376-.11-7.988 2.339-11.715 4.241-6.452 8.85-12.738 8.887-21.148 0-3.195 1.573-6.439 2.705-9.56 2.926-8.092 5.92-16.16 9.047-24.171a694.513 694.513 0 018.795-21.466C35.298-.13 45.036-2.003 50.202 2.46c4.81 4.156 5.386 8.471 1.885 14.078a7.956 7.956 0 00-.612 1.39c-2.864 7.59-5.631 15.216-8.612 22.757-2.846 7.21-5.778 14.39-8.967 21.459-1.15 2.552-3.244 4.664-4.731 7.082A41.623 41.623 0 0023.24 86.21a67.079 67.079 0 01-.753 4.897c-1.108 5.527-5.209 8.85-11.911 8.893zm.82-1.285c3.979.483 9.383-3.391 9.793-7.957a53.37 53.37 0 011.427-8.57c.875-3.305 1.805-6.683 3.341-9.713 1.935-3.801 5.001-7.063 6.733-10.938 3.973-9.034 7.462-18.289 11.079-27.476 2.656-6.733 4.793-13.741 7.957-20.242 1.904-3.917.85-6.537-1.39-9.334C46.163-.73 36.26.727 33.725 6.897c-1.322 3.195-2.712 6.36-3.948 9.585-2.938 7.65-5.65 15.388-8.747 22.977-3.39 8.312-7.002 16.526-8.098 25.56a24.953 24.953 0 01-5.429 13.166c-2.05 2.504-3.63 5.424-5.215 8.27-3.176 5.668 1.77 12.235 9.108 12.266v-.006zm68.18-47.553v3.024L76.9 53.103l.875-.386c-.19-1.157 0-2.834-.667-3.33-.839-.612-2.393-.257-3.642-.318l-.392.887-1.175-2.882h3.673v-3.752h-3.624l1.047-3c2.815 2.48 2.968 2.449 5.41-.893l-2.044-1.922 3.373-1.39c-.961 2.73 0 3.3 2.173 3.226 2.05-.067 2.552-.814 1.75-3.115l4.438 1.273-3.3 1.836 3.343 2.779c2.95-2.449 3.103-2.449 3.807.967-3.79-.037-3.79-.037-2.975 4.046l3.421-.319-1.542 2.944-2.675-1.5-3.311 2.51 3.06 1.965-3.813 1.475c.692-4.23-2.001-3.238-4.535-3.042zm2.044-1.45c2.962.116 5.613-1.88 5.747-4.322.117-2.215-2.754-4.853-5.306-4.896-2.822 0-4.897 1.738-5.068 4.284-.209 2.89 1.616 4.817 4.627 4.94v-.006zM55.135 31.08c.808-4.78 4.089-6.568 7.345-8.073 4.346-2.014 8.796-.723 11.568 2.913 2.032 2.663 1.225 5.172-2.142 5.723-2.926.477-5.472 1.224-7.755 3.336a4.358 4.358 0 01-5.968.214c-1.267-1.09-2.05-2.724-3.048-4.113zM66.9 23.54c-4.223-.295-7.24 2.172-9.383 5.57-.575.911.123 3.06.876 4.284 1.04 1.658 2.54 1.775 4.504.612a42.361 42.361 0 018.355-3.47c2.124-.699 2.644-1.837 1.708-3.673-1.194-2.4-3.262-3.36-6.06-3.324zm-7.841 37.967l-2.412-2.308c.894-.9 1.647-2.093 2.724-2.62a6.17 6.17 0 013.862-.563 4.102 4.102 0 012.57 2.326c.178.557-1.144 1.977-2.074 2.412-1.139.544-2.57.434-4.67.753zm3.354-4.787l-3.764 2.29c.532.342 1.157 1.058 1.585.96a38.873 38.873 0 004.327-1.524l-2.148-1.726zm-6.69-9.524c.067 3.746-1.561 6.482-3.452 6.17-1.102-.184-2.65-1.359-2.877-2.35-.557-2.4 1.836-5.779 3.617-5.51 1.114.209 2.087 1.286 2.712 1.69zm-.49 1.15l-2.16-1.487a27.66 27.66 0 00-2.29 3.6c-.147.318.74 1.107 1.157 1.683l3.293-3.795zm9.371 5.748c-2.448-.55-4.284-3.06-4.284-5.668 0-2.013 1.224-2.668 3.005-2.57 1.781.097 3.868 3.06 3.47 5.38-.171 1.046-1.432 1.91-2.19 2.858zm-.887-7.192l-1.12.074c-.288.612-.98 1.395-.802 1.732.758 1.26 1.6 2.466 2.522 3.611.373-.465 1.15-1.053 1.058-1.377a37.242 37.242 0 00-1.677-4.04h.019z"/><path d="M27.928 56.58c-5.429 0-8.024-3.214-6.58-7.046 3.134-8.3 6.586-16.477 9.794-24.734 1.352-3.452 2.399-7.014 3.752-10.466a21.139 21.139 0 012.595-4.775c1.775-2.411 5.203-2.693 7.749-.857 2.98 2.155 3.342 4.09 1.377 7.23a7.683 7.683 0 00-.612 1.358c-2.895 7.645-5.754 15.302-8.685 22.94-1.635 4.285-3.104 8.637-5.21 12.67-.948 1.819-3.268 2.92-4.18 3.68zM46.48 12.074c-1.285-1.071-2.374-2.54-3.8-3.06-2.027-.698-3.887.22-4.757 2.362a3574.762 3574.762 0 00-9.7 24.092c-1.929 4.835-3.894 9.664-5.632 14.573-.992 2.797.612 4.952 3.507 5.123 3.159.19 4.548-2.013 5.509-4.456 3.164-8.22 6.2-16.489 9.31-24.734.244-.612.746-1.181.991-1.836 1.457-3.77 2.89-7.633 4.572-12.058v-.006zM16.336 89.093c0 2.258-2.032 4.04-4.603 4.058-2.338 0-4.786-2.21-4.7-4.285.085-2.075 2.3-3.899 4.755-3.838 2.626.074 4.56 1.788 4.548 4.065zm-4.793-2.534l-.948-.453c-.545 1.132-1.482 2.264-1.488 3.403 0 .747 1.377 2.16 2.063 2.112a5.808 5.808 0 003.556-1.714c.435-.465-.239-1.959-.41-2.993l-.85.036-1.69 2.51-.465-.153.232-2.748zm54.616-55.454l-3.728-3.618c1.225-.85 2.571-2.528 3.624-2.356 1.481.244 2.736 1.836 4.089 2.889l-3.985 3.085z"/><path d="M42.986 11.72l-16.3 41.26c-.508-4.003 13.729-40.146 16.3-41.26z"/></svg>