<svg width="101" height="100" fill="none" xmlns="http://www.w3.org/2000/svg"><path d="M64.788 80.37c6.414 1.232 11.069-2.085 11.183-7.903.14-7.235.063-14.474.076-21.713v-6.347a1.637 1.637 0 00-.846-1.57c-1.625-.99-2.357-2.5-2.361-4.374V25.914l-1.566-.165c0-.94-.025-1.828.022-2.712 0-.157.287-.39.473-.424 1.012-.198 1.075-.236 1.075-1.269V11.33h3.14V.151h3.33V11.28h3.206V22.5l1.485.153v3.11l-1.421.122c0 .262-.038.49-.038.72 0 3.807 0 7.615.025 11.423 0 2.115-.69 3.846-2.593 4.98a1.801 1.801 0 00-.584.897 2.408 2.408 0 00-.047.846v27.146c0 3.304-.948 6.253-3.304 8.644-2.357 2.39-5.213 3.334-8.488 3.266h-2.598c0 .115-.038.322-.038.525v8.462c0 .368-.042.69.52.677 3.051-.085 6.11-.076 9.157-.22 8.644-.402 16.242-7.472 17.287-16.078.188-1.544.286-3.098.292-4.654.043-9.262.034-18.519.072-27.78a2.161 2.161 0 00-1.142-2.116c-1.616-.956-2.154-2.539-2.158-4.324V26.383c0-.14 0-.279-.03-.423a1.102 1.102 0 00-.253-.093c-1.27-.135-1.27-.135-1.27-1.396v-1.62a.746.746 0 01.076-.187l1.418-.135V11.363h3.245V.1h3.258v11.15h3.287v.82c0 3.199.022 6.393 0 9.587 0 .698.161 1.012.885.935.217-.001.434.019.647.06v3.1l-1.515.132v.825c.014 3.738.03 7.473.047 11.208 0 2.192-.698 4.002-2.712 5.136a1.041 1.041 0 00-.423.584 4.687 4.687 0 00-.127 1.185v28.064c0 3.317-.28 6.588-1.608 9.66-3.537 8.186-9.689 12.993-18.616 13.928-2.818.296-5.678.165-8.517.233a5.956 5.956 0 00-1.4.076 1.824 1.824 0 00-1.075.647c-1.075 1.963-2.801 2.572-4.891 2.568-9.517-.022-19.036-.038-28.555-.046-8.06 0-16.12.059-24.185.046a12.44 12.44 0 01-3.046-.423c-1.7-.444-3.313-2.534-3.309-4.56.046-30.038.057-60.078.034-90.12A4.815 4.815 0 015.106.028c1.832-.03 3.664-.026 5.5-.026h48.301a9.997 9.997 0 011.752.11c2.593.466 4.01 2.116 4.125 4.76v74.601l.004.897zm-3.22-30.348V5.96c0-2.318-.372-2.69-2.703-2.69H6.337c-2.441 0-2.758.317-2.758 2.754v88.622c.046 1.502.423 1.908 1.912 2.03.28.022.563.026.846.026h52.38c2.538 0 2.847-.321 2.847-2.826V50.022h.005zm17.673-24.163c-.846 0-1.595.046-2.34 0-.68-.055-.82.211-.816.846.025 3.829 0 7.662 0 11.491-.002.304.035.607.11.901a1.426 1.426 0 001.54 1.164 1.38 1.38 0 001.43-1.197c.087-.39.13-.787.131-1.185V26.95c.017-.342-.03-.668-.059-1.091h.004zm13.078 0c0 .25-.05.423-.05.609V38.45a3.81 3.81 0 00.02.49 1.4 1.4 0 001.27 1.27 1.422 1.422 0 001.675-.977 4.23 4.23 0 00.148-1.18V27.474a6.02 6.02 0 00-.03-1.126c-.037-.19-.266-.478-.422-.486-.85-.026-1.714-.004-2.615-.004h.004zM76.208 14.62v7.832h2.991V14.62h-2.991zm19.04 0h-2.912v7.84h2.911v-7.84z"/><path d="M32.663 80.629c-9.808 0-17.986-8.086-17.868-17.665.123-9.921 7.975-17.829 17.698-17.833a17.87 17.87 0 0117.825 18.053c-.156 9.474-8.102 17.44-17.655 17.445zm5.5-30.958c-4.324-2.23-11.424-1.828-16.357 3.524-4.604 5.005-4.417 12.223-2.429 15.261l18.786-18.785zM26.989 76.144c4.806 2.75 12.553.927 16.628-3.914 4.074-4.84 4.193-11.775 2.115-14.944L26.989 76.144zm-3.639-2.183l20.39-20.39-2.006-1.975L21.31 72.019l2.04 1.942zm31.703-62.577v22.349H10.114V11.385h44.938zM13.334 30.569h38.434V14.625H13.335v15.943zm-.223 61.276H6.879v-3.11h6.232v3.11zm38.87-3.11h6.25v3.072h-6.25v-3.072z"/><path d="M18.65 45.804l1.87 2.115-3.05 3.042-1.816-1.997 2.996-3.16zm28.834 5.056l-2.865-3.021 2.082-2.014 2.932 3.127-2.15 1.908zM20.562 77.879l-1.913 2.081-3.016-3.14 1.908-1.797 3.02 2.856zm28.965-1.029l-2.877 2.962-1.963-1.878 2.962-3.093 1.878 2.01zm-18.468 5.425h3.012v3.075H31.06v-3.075zm3.063-41.879v3.068H31.05v-3.047l3.072-.02zm17.851 20.986h3.101v3.03h-3.101v-3.03zm-38.824.013v3h-3.046v-3h3.046zm12.854-34.009H23.04v-9.55h2.962v9.55zm-9.418-9.558h3.008v9.52h-3.008v-9.52zm28.935-.008h3.106v3.03h-3.105v-3.03zm3.127 9.537h-3.11v-3.05h3.11v3.05zm-16.205-6.461H29.48V17.84h2.962v3.055z"/></svg>