<svg width="101" height="100" fill="none" xmlns="http://www.w3.org/2000/svg"><path d="M58.21 100H5.88a1.495 1.495 0 00-.27-.087c-2.177-.26-3.773-1.36-4.696-3.348a17.369 17.369 0 01-.704-2.236v-.597c.035-.072.062-.148.08-.227.395-3.217 2.687-5.336 5.931-5.458.672-.024 1.346 0 2.09 0v-25.37h.596c3.382-.02 6.764-.039 10.148-.068a3.03 3.03 0 002.835-1.77 3.145 3.145 0 00-.223-3.35c-.75-1.106-1.878-1.456-3.152-1.461-3.433 0-6.865-.018-10.294-.057-1.173 0-2.388.018-3.51-.224-2.85-.612-4.74-3.492-4.379-6.462a5.924 5.924 0 015.698-5.193h2.277v-25.39h9.847c.4 0 .798-.03 1.194-.087a3.325 3.325 0 002.802-2.483 3.375 3.375 0 00-1.253-3.444c-.764-.543-1.639-.663-2.552-.669-4.128-.02-8.256 0-12.38-.095A5.853 5.853 0 01.311 6.587C.085 3.447 2.102.752 5.114.167c.352-.069.71-.11 1.065-.167h70.04l1.01.194a5.916 5.916 0 01-.15 11.66c-.976.147-1.97.153-3.05.23v1.344c0 6.632 0 13.26.027 19.892a3.108 3.108 0 01-.866 2.239c-6.038 6.596-11.688 13.502-16.603 20.988-2.424 3.686-4.615 7.494-6.298 11.586-1.683 4.092-2.504 8.357-1.901 12.813.99 7.316 4.193 13.464 9.763 18.347.19.17.379.343.597.53l-.538.177z"/><path d="M78.324 99.85c-10.584 0-19.908-7.786-21.824-18.205-.809-4.4-.065-8.545 1.82-12.56A75.146 75.146 0 0167.962 53.9c2.943-3.65 5.97-7.241 8.954-10.856.084-.101.173-.2.263-.298.985-1.039 1.716-1.066 2.656.02 2.364 2.732 4.743 5.45 7.023 8.25 3.831 4.64 7.245 9.61 10.201 14.852 1.764 3.172 3.215 6.48 3.746 10.094a14.36 14.36 0 01-.185 4.835 25.228 25.228 0 01-3.781 9.476c-3.283 4.877-7.88 7.814-13.592 9.01-1.615.338-3.283.47-4.907.696l-.015-.128zm2.946-8.102c-.394-.299-.767-.753-1.227-.869a17.781 17.781 0 01-4.274-1.573c-6.94-3.817-10.566-9.646-10.616-17.61a1.736 1.736 0 00-.135-.82c-.149-.26-.444-.615-.668-.597a1.195 1.195 0 00-.776.564c-.295.537-.56 1.09-.791 1.657-1.827 3.927-1.564 7.843.26 11.655 2.36 4.936 8.315 10.052 16.588 8.631.663-.137 1.215-.325 1.639-1.038z"/></svg>