<svg width="67" height="100" fill="none" xmlns="http://www.w3.org/2000/svg"><path d="M42.53 73.919l7.689 2.701-1.989.438c1.026 1.84 3.132 3.876 2.709 5.183a25.281 25.281 0 01-4.783 9.191c-7.83 9.089-21.655 11.133-32.513 5.237C3.285 91.041-1.616 79.447 2.236 67.14c2.153-6.873 5.535-13.457 9.042-19.799 6.263-11.242 12.792-22.273 15.658-35.23a30.84 30.84 0 001.088 4.29c3.077 7.571 5.99 15.22 9.489 22.595 1.847 3.914 1.8 7.649 1.424 11.649-.203 2.2-.626 4.572 0 6.576.392 1.269 2.53 1.989 4.345 3.296-3.828 3.852-3.374 8.659-.602 13.536a15.611 15.611 0 00-2.537-2.349 6.874 6.874 0 00-8.338.494c-2.747 2.168-3.703 6.842-2.137 10.334 1.37 3.06 3.82 4.697 7.124 4.298a6.764 6.764 0 006.342-6.35c.188-2.192-.384-4.391-.603-6.56zm-18.123-6.318c0-4.854-2.834-8.048-7.148-7.977-4.313.07-7.429 3.656-7.35 8.447.078 4.439 3.084 7.782 7.045 7.829 4.29.117 7.43-3.406 7.453-8.299zm11.211-7.46l-.658-.854c-1.064.564-2.614.846-3.131 1.73-4.823 8.408-9.473 16.918-14.17 25.405l.61.822c1.065-.572 2.6-.87 3.132-1.762 4.838-8.392 9.504-16.886 14.217-25.35v.008zM51.48 78.366c7.562-3.241 9.394-6.263 8.76-14.663l5.292-.47.243-1.323-7-.893 1.621-1.33-3.719-1.065 4.47-1.511-4.775-1.245 4.22-1.331-3.202-.783-.094-.673 3.296-1.08-4-1.402 4.697-1.339-3.398-.83v-.485l8.659-.407c-3.014-3.131-6.1-1.096-8.847-2.349l3.022-1.002-3.985-1.425 4.455-1.268-4.768-1.229 4.055-1.378-4.196-1.323 5.034-1.292-4.588-1.205 4.322-1.488-3.132-.782v-.416l7.829-.594v-1.449l-8.862-.642 3.914-1.096-3.734-1.566 3.914-1.213-4.337-1.221 3.492-1.488-3.688-1.268 4.384-1.12-3.851-1.526 4.063-1.362-3.132-.72-.054-.455 7.899-.602-.07-1.527-8.4-.454c0-2.717.625-5.621-.181-8.04-.736-2.224-3.014-3.915-4.697-5.95 3.554 0 7.664-.29 11.68.195 1.057.126 2.607 2.639 2.615 4.064.165 23.611.133 47.23.07 70.85a5.48 5.48 0 01-1.08 3.194c-1.973 2.326-11.72 2.24-14.217-.023z"/><path d="M39.235 17.059l5.7-3.038-5.48-2.505 5.252-1.636c.321-2.56.157-5.778 5.01-5.324 3.28.305 4.228 1.307 4.212 4.431-.101 15.658-.133 31.315.047 46.91a19.126 19.126 0 002.044 7.516c1.566 3.327 1.111 7.304-1.629 9.614a7.93 7.93 0 01-10.06-.212 7.742 7.742 0 01-1.182-9.653c.854-1.432 1.503-2.99 2.349-4.626l-5.418-1.363.11-1.15 4.275-.65c.164-2.169.164-2.169-4.393-3.915a26.44 26.44 0 002.96-.955 12.277 12.277 0 001.902-1.315 8.533 8.533 0 00-1.879-1.292 15.855 15.855 0 00-2.818-.485l-.172-1.057a24.132 24.132 0 002.638-.869c.775-.422 1.52-.895 2.231-1.417a11.747 11.747 0 00-2.027-1.221c-.885-.321-1.856-.415-2.85-1.48.72-.258 1.464-.47 2.16-.783.924-.407 1.825-.892 2.733-1.346-.97-.502-1.926-1.057-2.928-1.488a3.335 3.335 0 01-1.973-1.41 32.27 32.27 0 003.32-.97 7.045 7.045 0 001.565-1.237 7.576 7.576 0 00-1.612-1.174 34.528 34.528 0 00-3.328-.97l.235-1.097 4.494-.603c.869-4.447-3.805-1.268-4.588-3.765l5.081-2.349-.532-1.002-4.58-.853v-1.23a23.145 23.145 0 002.865-.673c.692-.336 1.35-.737 1.965-1.198a8.612 8.612 0 00-1.87-1.354 28.336 28.336 0 00-3.83-.806zm12.917 22.633V6.458h-5.378v33.234h5.378zM21.001 67.938l-3.914 4.337c-.838-1.566-2.349-3.132-2.349-4.635 0-1.503 1.621-2.943 2.53-4.415L21 67.938zm18.821 10.428l-3.5 4.807c-.884-1.449-2.442-2.89-2.474-4.361-.03-1.472 1.386-3.132 2.17-4.697l3.804 4.25z"/></svg>