<svg width="121" height="100" fill="none" xmlns="http://www.w3.org/2000/svg"><path d="M111.903 85.384h7.426c1.567 0 1.785.192 1.625 1.663-.314 2.917-1.28 5.501-4.024 7.203a8.9 8.9 0 01-4.886 1.17H72.495c0 1.05-.038 2.028 0 3 .058 1.1-.352 1.58-1.58 1.58H2.475c-1.1 0-1.587-.365-1.58-1.458 0-5.258-.186-10.522.057-15.767.365-8.053 4.619-13.74 12.237-17.149 2.558-1.145 5.117-2.315 7.675-3.441a4.164 4.164 0 011.542-.326c1.919-.039 3.837 0 5.89 0 0-2.559.045-5.04-.05-7.497 0-.326-.678-.716-1.113-.927-4.785-2.31-8.386-5.725-10.305-10.535-.774-1.919-1.042-4.068-1.471-6.121a6.467 6.467 0 010-1.555c-1.151-.594-2.181-.901-2.878-1.54-1.094-.999-1.037-6.621.05-7.638.64-.576 1.523-.857 2.56-1.407v-2.194c0-2.508-.052-5.021 0-7.529a2.288 2.288 0 01.799-1.605c4.2-3.13 8.437-6.217 12.71-9.262a3.665 3.665 0 011.592-.486 13.525 13.525 0 011.823 0C32.589.48 33.19-.007 36.33 0h2.872c2.847 0 3.595.64 3.94 3.397.168.084.35.134.538.147 1.81-.282 3.147.53 4.477 1.548a438.303 438.303 0 0010.919 7.963 2.443 2.443 0 011.145 2.309c-.07 2.789 0 5.578 0 8.36 0 .39.032.774.064 1.33h6.524c2.948 0 3.838.877 3.838 3.736v2.75c0 2.098-1.113 3.198-3.294 3.198-2.744.032-5.495 0-8.245 0-.403 0-.813.045-1.28.07l-.294 4.056h48.945c3.972 0 5.398 1.369 5.398 5.175v40.143c.026.339.026.69.026 1.202zm7.036 1.83H72.501v1.516c-.044.748.27 1.842-.965 1.829-1.235-.013-.877-1.055-.89-1.772v-5.014c0-7.676-4.278-13.752-11.705-16.778-2.328-.947-4.592-2.06-6.895-3.057a3.71 3.71 0 00-1.426-.314H22.898a4.06 4.06 0 00-1.548.333c-2.558 1.093-5.078 2.187-7.58 3.351-6.933 3.199-10.764 8.475-10.969 15.914-.122 4.535 0 9.077 0 13.618 0 .422.038.838.064 1.28h11.251V81.316a2.457 2.457 0 01.058-1.061 1.373 1.373 0 01.863-.678c.237-.039.64.3.793.569.13.373.178.77.141 1.164v16.81h41.525V81.323a2.558 2.558 0 01.051-1.062c.147-.294.537-.64.825-.64.288 0 .64.365.844.64.205.275.052.64.052.94v16.957h11.34v-2.559c0-1.592.358-1.919 2.073-1.919h40.456a6.322 6.322 0 005.808-6.466h-.006zm-14.916-40.937c-.333 0-.531-.057-.736-.057-9.818-.045-19.637-.109-29.423-.122-5.987 0-11.98.096-17.967.096a2.258 2.258 0 00-2.15 1.03c-.64.921-1.554 1.657-2.238 2.559a3.102 3.102 0 00-.69 1.643c-.084 2.226-.04 4.478-.046 6.685v3.415l4.548 1.92V60.56c0-.902.397-1.228 1.28-1.221h5.494c1.394 0 1.612.281 1.592 1.67 0 1.79-.044 3.581-.038 5.372 0 .384 0 .915.237 1.126 1.017.902 2.13 1.708 3.345 2.667.038-.53.083-.908.083-1.28V54.683c0-1.311 0-2.622.045-3.934.032-.87.428-1.375 1.484-1.324 1.618.077 3.243.045 4.867.032 1.81 0 1.92.11 1.92 1.785v28.304c0 .537.063 1.08.095 1.586h3.595V62.685c0-1.036.39-1.458 1.446-1.44 1.829 0 3.665.052 5.494 0 1.132 0 1.414.519 1.407 1.485-.03 5.543-.04 11.087-.032 16.63 0 .64.077 1.228.115 1.778h3.576V72.58c0-.972.37-1.362 1.4-1.337 1.83.045 3.666.039 5.495 0 1.081 0 1.471.41 1.446 1.433-.052 2.347 0 4.695 0 7.036 0 .499.07.991.108 1.452h4.324l-.076-34.886zm-48.107-11.43a5.132 5.132 0 00-.64-.096H18.178c-1.184 0-1.145.602-1.107 1.363.518 9.639 8.194 17.033 18.37 17.609a19.139 19.139 0 0016.592-7.318 16.86 16.86 0 003.89-11.57l-.007.012zM16.866 16.19c0 2.757.052 5.117 0 7.522-.032 1.036.25 1.35 1.376 1.35 12.94-.039 25.873 0 38.813 0 .434 0 .876-.039 1.247-.058v-8.692c-1.248.972-2.341 1.823-3.435 2.68-.525.41-1.151.767-1.567.07-.18-.307.166-.947.377-1.394.103-.224.435-.352.64-.531l3.46-2.763-.595-.455c-3.658-2.686-7.33-5.36-10.976-8.065-.972-.723-1.983-.544-3.14-.378V19.97c0 1.868-1.03 2.879-2.975 2.936-1.413.045-2.827 0-4.24 0-2.668 0-3.672-.966-3.678-3.556V5.373a4.478 4.478 0 00-3.678.863c-3.077 2.367-6.262 4.6-9.403 6.89-.505.37-1.004.754-1.58 1.195a588.675 588.675 0 004.094 3.199c.512.396 1.01.838.48 1.483-.531.646-1.158.314-1.708-.127a153.44 153.44 0 01-3.512-2.687zm93.176 69.08V43.86c0-2.642-.717-3.327-3.474-3.327H58.379c-.448 0-1.177.09-1.28.346-.537 1.08-.895 2.245-1.388 3.569H71.76l32.57-.045c1.477 0 1.663.173 1.663 1.574V81.45c0 1.157-.442 1.51-1.625 1.51-10.157-.033-20.308 0-30.466 0-.441 0-.876.044-1.317.07v2.251l37.457-.013zM41.313 26.82H15.466c-1.638 0-1.855.218-1.868 1.805v2.27c0 1.823.23 2.06 2.143 2.06h51.317c1.497 0 1.772-.269 1.778-1.657v-2.629c0-1.695-.166-1.848-1.918-1.848H41.313zm-7.279-15.35v8.11c0 1.318.294 1.58 1.702 1.593h3.741c1.497 0 1.791-.237 1.791-1.638V3.198c0-1.08-.505-1.503-1.592-1.477H35.69c-1.324 0-1.663.281-1.67 1.624l.013 8.15v-.026zm39.728 39.714c-1.28 0-2.38.064-3.486 0-.96-.076-1.235.295-1.235 1.139 0 6.48 0 12.959.045 19.438.008.51.151 1.01.416 1.446a18.23 18.23 0 012.673 7.004c.148.998.64 1.177 1.561.819l.026-29.846zM30.228 61.801h12.32c.243 0 .684-.3.684-.467.045-2.245 0-4.477 0-6.889a23.813 23.813 0 01-13.036.128l.032 7.228zM85.8 81.118V63.58c0-.217-.415-.6-.64-.64-1.278-.063-2.558 0-3.837 0v18.18H85.8zm11.885 0v-8.053h-4.478v8.079l4.478-.026zM48.88 51.83c-1.215.64-2.245 1.139-3.237 1.695-.243.141-.537.448-.543.685-.039 2.488 0 4.976 0 7.522h3.806l-.026-9.902zm12.933 14.418v-4.58a.928.928 0 00-.671-.601c-1.28-.064-2.559 0-4.03 0v2.82a.749.749 0 00.352.563c1.362.595 2.757 1.158 4.35 1.823v-.025z"/><path d="M79.537 32.071c-.44.294-1.017.64-1.516 1.023a1.234 1.234 0 01-1.918-.127 5.772 5.772 0 00-.64-.595c-1.695-1.6-1.72-1.625-.3-3.46a1.1 1.1 0 00.089-1.491 2.192 2.192 0 01-.384-.742c-.345-1.708-1.28-2.757-3.198-2.686a.397.397 0 01-.237-.058c-1.209-.947-.441-2.226-.543-3.345-.032-.358.524-.864.933-1.139a2.94 2.94 0 011.21-.198c.728-.083 1.247-.371 1.336-1.145a1.49 1.49 0 01.237-.678c1.023-1.433 1.151-2.795-.3-4.062a.346.346 0 01-.122-.204c-.109-1.51 1.381-1.92 2.174-2.821a1.567 1.567 0 011.484-.032c1.28 1.158 2.373.889 3.838.294 1.465-.595 2.31-1.17 2.316-2.693 0-.818.53-1.1 1.317-1.061h.749c2.418.057 2.61-.487 3.032 2.296.057.377.569.78.972.998.64.345 1.433.454 2.053.825a1.625 1.625 0 002.092-.173c.537-.397 1.586-.902 1.918-.684a9.147 9.147 0 012.508 2.558c.192.294-.442 1.203-.864 1.708-.511.64-.64 1.139-.134 1.79.178.222.305.48.371.756.345 1.535 1.068 2.629 2.961 2.462.085.003.167.03.237.077 1.574.87.531 2.296.774 3.454.147.71-.358 1.113-1.106 1.126-1.504 0-2.527.588-2.706 2.142a1.069 1.069 0 01-.237.55c-.92 1.056-.64 1.983.275 2.892.761.748.64 1.484-.185 2.136-.096.077-.18.166-.269.25-2.117 1.97-1.689 1.963-3.914.428-.288-.21-.646-.3-.998-.25a19.98 19.98 0 00-3.198 1.28c-.352.192-.544.819-.64 1.28-.345 1.86-.326 1.867-2.27 1.88h-.75c-1.841 0-1.918-.032-2.135-1.836a1.599 1.599 0 00-1.414-1.631 18.24 18.24 0 01-2.629-1.062 1.854 1.854 0 00-.269-.032zm16.042-.499l.934-.934a.978.978 0 00-.032-.23 1.808 1.808 0 00-.268-.403c-1.19-1.113-1.35-2.251-.218-3.518.306-.366.51-.808.589-1.28.275-1.669 1.01-2.788 3-2.743.21 0 .639-.46.601-.64-.051-.3-.416-.8-.64-.793-1.964.083-2.667-1.036-2.936-2.635a1.62 1.62 0 00-.262-.64c-1.19-1.637-1.791-3.243.358-4.701l-.947-1.03c-.443.252-.87.532-1.279.838a1.83 1.83 0 01-2.558.109 5.756 5.756 0 00-2.367-1.01c-1.618-.212-2.296-.986-2.341-2.495a1.12 1.12 0 00-.806-.749c-.269 0-.588.442-.831.736a1.03 1.03 0 00-.11.582 1.612 1.612 0 01-1.605 1.752 4.478 4.478 0 00-2.098.704c-1.637 1.28-3.044 1.017-4.439-.294-.038-.039-.153 0-.332 0l-.774.806c.212.327.445.641.697.94.85.89.94 1.701.134 2.738a5.756 5.756 0 00-1.068 2.513c-.205 1.235-.915 1.676-2.079 1.76a1.751 1.751 0 00-.838.166 1.028 1.028 0 00-.428.735 1.018 1.018 0 00.499.64c.26.132.552.191.844.173 1.228 0 1.772.588 1.977 1.695.066.689.308 1.35.703 1.918 1.33 1.536 1.03 2.847-.313 4.139-.052.051-.045.147-.07.23l.716.953c.465-.242.91-.522 1.33-.838.838-.767 1.6-.71 2.559-.115a7.339 7.339 0 002.61 1.075c1.336.224 1.982.793 2.027 2.098 0 .499 0 1.151.902 1.132.902-.02.812-.678.857-1.177.096-1.126.512-1.855 1.83-1.99a3.997 3.997 0 001.854-.639c1.683-1.28 3.186-1.311 4.618.429v-.007z"/><path d="M92.983 21.696a6.574 6.574 0 11-6.601-6.255 6.398 6.398 0 016.6 6.255zm-11.277.064a4.707 4.707 0 104.63-4.515 4.586 4.586 0 00-4.63 4.515z"/></svg>