<svg width="150" height="100" fill="none" xmlns="http://www.w3.org/2000/svg"><path d="M36.402 0c1.406 5.69-.62 10.63-2.68 15.535-.908 2.156-1.284 4.094-.165 6.42.826 1.74.805 3.978.833 5.998.095 6.447.034 12.894.034 19.683 3.166 0 5.99.089 8.794-.062a3.261 3.261 0 002.047-1.364 7.846 7.846 0 017.02-3.343c2.73.082 5.52-.328 8.188.13 2.088.361 4.496 1.269 5.854 2.729 1.357 1.46 2.476 1.773 4.23 1.958 6.058.682 11.223-.928 16.067-4.722 2.907-2.278 5.71-5.342 10.09-5.021.362 0 .99-1.105 1.181-1.788.683-2.394 1.222-4.83 1.863-7.443h27.686l2.497 9.381h7.178c7.28.075 12.24 4.912 12.281 12.13a999.59 999.59 0 010 19.438c-.041 4.64-2.238 8.304-6.393 10.037-3.173 1.323-3.766 3.043-2.886 5.915 9.06 1.89 10.077 3.473 9.074 14.389H1.484c-1.29-9.245-.566-13.707 9.08-14.219V71.208l-9.373-2.633V50.61l9.456-2.518c0-7.096-.041-14.13 0-21.15 0-1.672 0-3.555.73-4.974 1.18-2.313.743-4.244-.123-6.42C7.665 6.509 7.59 5.888 8.334.014L36.402 0zM5.83 95.401h138.985c.307-3.056-.423-4.898-3.732-4.775-1.249.054-2.497 0-3.753 0H10.497c-4.36.061-4.899.6-4.667 4.775zm57.447-9.551c0-12.042.061-23.927-.13-35.799 0-.825-1.828-2.129-2.96-2.32-2.204-.368-4.517-.116-6.823-.109-4.224 0-4.53.287-4.537 4.374V82.97c0 .968.143 1.937.218 2.886l14.232-.007zm71.986-42.799v33.063c6.209.716 9.552-2.047 9.675-8.003.109-5.547.075-11.1 0-16.654-.075-6.27-3.139-8.945-9.675-8.379v-.027zM96.701 81.988c-2.34-1.126-4.278-1.897-6.051-2.94-2.334-1.365-4.776-2.73-6.762-4.53-4.776-4.38-10.275-2.73-15.576-2.941V85.85h28.39v-3.862zM29.628 43.003H15.381v18.79h14.246v-18.79zm62.16 31.125V45.541C84.967 48.1 80.764 52.132 82.36 60c.396 1.965-.055 4.093.116 6.14a3.82 3.82 0 001.14 2.545c2.517 1.856 5.205 3.52 8.173 5.472v-.028zM29.02 14.771l3.514-10.166H12.237l3.759 10.166H29.02zM130.242 47.46v-4.367H96.94v4.367h33.302zM96.81 56.95h33.432v-4.26H96.81v4.258zm33.534 5.226H97.029v4.407h33.322l-.007-4.407zm-.075 14.041v-4.544H96.94v4.544h33.329zm-28.58 9.504h33.356v-4.448h-33.35l-.006 4.448zM30.48 76.626H14.604l1.767 8.958 12.097.054 2.012-9.013zm3.985-4.96V85.78h9.47V71.672l-9.47-.007zM43.9 66.61V52.67h-9.299v13.94h9.3zm33.554 0V52.644h-9.121v14l9.121-.034zm-61.99-38.398h14.19c.253-5.956-2.68-9.552-7.443-9.381-4.605.157-7.355 3.936-6.747 9.408v-.027zm109.422 9.702l-1.092-4.442a7.596 7.596 0 00-1.051-.211 3258 3258 0 01-14.928-.035c-4.639 0-4.639 0-5.205 4.688h22.276zm-95.21-4.374H15.347v4.34h14.327v-4.34zm.054 33.431H15.402v4.312H29.73v-4.312zm-19.35-.982v-12.69c-5.833 1.14-4.53-.341-4.925 8.5-.164 3.863 2.21 3.76 4.932 4.21l-.006-.02z"/><path d="M53.964 52.569h4.346v28.396h-4.346V52.569z"/></svg>