<svg width="101" height="100" fill="none" xmlns="http://www.w3.org/2000/svg"><path d="M100.542 57.354c-1.125 2.272-3.148 2.29-5.3 2.245-3.805-.08-3.72 0-5.046 3.557a56.757 56.757 0 01-3.263 7.269c-.716 1.334-.605 2.076.476 2.992 1.08.916 2.134 1.734 2.77 2.85.595 1.04 1.2 2.721.75 3.557-.737 1.396-2.289 2.383-3.587 3.432-.169.138-1.103-.258-1.25-.596a1.898 1.898 0 01.13-1.6c.76-.94 1.58-1.832 2.454-2.668a330.132 330.132 0 01-4.17-3.863c-1.343-1.267-1.517-2.668-.72-4.406a189.622 189.622 0 004.516-10.8c.64-1.676 1.579-2.6 3.397-2.578h5.847V43.273c-1.979 0-3.815-.035-5.643 0-1.827.036-2.93-.809-3.605-2.605-1.379-3.65-2.908-7.247-4.517-10.8-.738-1.631-.707-2.996.587-4.237 1.382-1.334 2.814-2.605 4.188-3.868l-9.742-9.648c-1.151 1.2-2.427 2.512-3.685 3.837-1.334 1.414-2.744 1.588-4.584.72-3.464-1.627-7.02-3.076-10.608-4.414-1.779-.663-2.721-1.636-2.668-3.557.04-1.84 0-3.677 0-5.7H43.784c0 1.872-.049 3.695 0 5.513.067 1.996-.844 3.063-2.72 3.757a157.209 157.209 0 00-10.605 4.41c-1.725.792-3.112.747-4.414-.617-1.303-1.365-2.544-2.69-3.695-3.913l-9.621 9.71c1.045.987 2.356 2.223 3.681 3.486 1.498 1.405 1.645 2.836.72 4.761-1.627 3.38-3.023 6.883-4.312 10.409-.685 1.862-1.699 2.85-3.717 2.77a24.68 24.68 0 00-4.215.053c-.56.075-1.454.813-1.467 1.271-.116 3.913-.067 7.834-.067 12.151 1.974 0 3.788.063 5.598 0 2.103-.093 3.179.89 3.894 2.841a120.643 120.643 0 004.322 10.404c.862 1.823.8 3.237-.65 4.584-1.333 1.254-2.716 2.48-4 3.663l9.75 9.724 3.672-3.948c1.334-1.432 2.756-1.552 4.584-.698 3.463 1.623 7.02 3.077 10.604 4.415 1.778.662 2.698 1.658 2.667 3.557-.04 1.836 0 3.676 0 5.682h13.485c0-1.899.049-3.726 0-5.549-.067-2.005.89-3.046 2.743-3.74a152.843 152.843 0 0010.604-4.419c1.738-.8 3.112-.706 4.41.645a595.352 595.352 0 004.002 4.13c.889-.826 1.53-1.649 2.374-2.182.502-.316 1.298-.17 1.96-.232 0 .73.299 1.65-.035 2.157-2.392 3.641-4.633 3.837-7.665.809-2.948-2.943-2.912-2.868-6.669-1.152a55.33 55.33 0 01-7.238 2.74c-1.334.395-1.805.96-1.676 2.284.102 1.027-.067 2.081.04 3.112.2 1.984-.476 3.46-2.223 4.411H43.233c-1.778-.956-2.436-2.427-2.223-4.41.107-1.103-.053-2.224.04-3.33.093-1.108-.325-1.686-1.467-2.006-1.983-.56-4.148-.978-5.807-2.094-3.788-2.556-6.7-2.427-9.465 1.503-1.2 1.703-3.113 1.53-4.655.053a473.664 473.664 0 01-8.8-8.798c-1.48-1.525-1.43-3.113 0-4.713a34.185 34.185 0 012.989-2.979c.964-.823 1.009-1.503.418-2.64a69.354 69.354 0 01-3.41-7.452c-1.334-3.557-1.24-3.628-5.047-3.557-2.152.044-4.175.026-5.3-2.245v-14.65c.956-1.756 2.428-2.441 4.411-2.223 1.103.111 2.223-.053 3.33.04 1.107.093 1.685-.316 2.01-1.463.556-1.983.969-4.153 2.09-5.806 2.56-3.788 2.44-6.696-1.495-9.466-1.707-1.2-1.533-3.134-.057-4.655a493.019 493.019 0 018.803-8.803c1.52-1.476 3.112-1.432 4.717 0a34.208 34.208 0 012.957 2.988c.822.964 1.502 1.013 2.64.422a70.072 70.072 0 017.465-3.37c3.557-1.334 3.628-1.245 3.557-5.05C40.89 3.142 40.9 1.115 43.18 0h14.672c1.779.951 2.441 2.432 2.223 4.41-.102 1.027.063 2.081-.04 3.113-.128 1.333.32 1.938 1.681 2.28 1.925.485 4.001.947 5.593 2.032 3.775 2.575 6.696 2.446 9.461-1.485 1.205-1.707 3.112-1.538 4.655-.062a502.589 502.589 0 018.803 8.799c1.476 1.52 1.432 3.112 0 4.717-.883 1-1.829 1.94-2.832 2.819-1.08.916-1.187 1.68-.471 2.992a56.803 56.803 0 013.272 7.287c1.334 3.557 1.24 3.632 5.047 3.557 2.151-.045 4.174-.027 5.299 2.245v14.65z"/><path d="M78.966 49.693c-.2-13.235-9.457-24.67-22.288-27.463a28.49 28.49 0 00-31.923 15.664c-.538 1.116-.711 3.352-2.668 2.387-1.814-.89-.382-2.499.156-3.659 5.918-12.733 19.563-19.785 33.723-17.49 13.16 2.138 23.87 13.324 25.547 26.662 2.116 16.86-9.177 32.403-25.502 35.093-17.073 2.814-32.968-8.07-36.213-25.023-.6-3.143-.33-6.469-.245-9.705 0-.65 1.027-1.267 1.579-1.903.386.751 1.173 1.547 1.102 2.254-.751 7.714 1.058 14.672 5.78 20.852a28.415 28.415 0 0050.947-17.673l.005.004z"/><path d="M46.136 49.862c3.855-4.175 7.683-8.283 11.466-12.449 1.477-1.622 3.202-2.636 5.429-2.52a5.948 5.948 0 015.41 3.645c1.041 2.277.868 4.61-.8 6.465-5.597 6.224-11.244 12.395-17.028 18.442-2.298 2.405-5.935 2.33-8.447.049a195.798 195.798 0 01-8.448-8.194 6.082 6.082 0 01-.044-8.448 6.157 6.157 0 018.599-.587c1.316 1.094 2.503 2.321 3.863 3.597zm20.145-8.447c-.12-.556-.102-.832-.227-.978-.738-.858-1.427-2.268-2.285-2.383-1.187-.165-2.885.28-3.708 1.111-4.153 4.21-8.136 8.599-12.084 13-1.303 1.454-2.312 1.53-3.61.067a45.455 45.455 0 00-3.34-3.25c-1.831-1.68-3.614-1.779-5.103-.303-1.49 1.477-1.423 3.415.444 5.242a528.341 528.341 0 007.172 6.95c2.098 1.991 3.783 1.987 5.735-.103a1959.558 1959.558 0 0015.788-17.14c.591-.67.889-1.622 1.218-2.218v.005z"/></svg>