<svg width="167" height="100" fill="none" xmlns="http://www.w3.org/2000/svg"><path d="M166.933 72.934c-1.015 2.948-3.081 4.083-6.173 3.96-3.969-.157-7.948-.03-11.925-.038-3.297 0-5.25-1.9-5.319-5.217-.055-2.587-.028-5.174-.044-7.764 0-.084-.072-.164-.17-.372-3.721 0-7.487-.028-11.278.05-.313 0-.763.66-.899 1.093-2.041 6.453-5.11 12.354-9.487 17.526-8.233 9.737-18.608 15.754-31.303 17.402-24.19 3.136-46.553-11.293-53.8-34.623-.344-1.11-.79-1.512-1.983-1.481-3.452.091-6.907.033-10.499.033 0 2.623-.097 5.11.025 7.587.153 3.09-1.941 5.99-5.823 5.807-3.827-.18-7.677-.16-11.504 0-3.106.122-5.152-1.062-6.209-3.963V27.178c1.054-2.898 3.098-4.074 6.187-3.96 4.105.152 8.22.017 12.33.05 2.496.02 4.478 1.614 4.828 4.085.244 1.722.139 3.497.166 5.247.02 1.314 0 2.629 0 3.882.16.047.323.084.488.108 3.234 0 6.47-.077 9.706.056 1.41.058 1.92-.397 2.371-1.714C42.667 17.274 54.644 5.937 72.814 1.328 75.465.66 78.24.433 80.964 0h5.547c.4.1.804.179 1.212.236 13.763 1.198 25.014 7.224 33.91 17.7 4.384 5.165 7.451 11.071 9.49 17.527.136.433.582 1.09.895 1.11 3.778.075 7.557.05 11.506.05 0-2.793-.036-5.466 0-8.134.059-3.328 1.997-5.208 5.3-5.216 4.021 0 8.042.108 12.06-.04 3.051-.11 5.039 1.09 6.038 3.958l.011 45.743zm-83.104 24.11c25.469 0 46.417-21.15 46.448-46.866.028-25.907-20.896-47.128-46.492-47.103-24.906.03-46.523 19.942-46.56 47.006A46.68 46.68 0 0083.83 97.044zM21.017 50.117c0-3.927-.05-7.854.03-11.78.022-1.11-.44-1.523-1.387-1.631a17.114 17.114 0 00-1.94-.07c-4.02 0-8.043-.016-12.058 0-1.825 0-2.086.305-2.086 2.052v22.74c0 1.748.191 1.992 1.941 2.033 2.077.05 4.16 0 6.237.014h6.933c2.072-.014 2.316-.277 2.316-2.268.009-3.698.014-7.395.014-11.09zm142.865-.061c0-3.835-.075-7.674.039-11.506.042-1.462-.602-1.905-1.833-1.908-4.574-.017-9.149-.017-13.724 0-1.218 0-1.883.435-1.867 1.908.078 7.576.036 15.155.036 22.74 0 1.958.194 2.169 2.219 2.182 2.634.02 5.269 0 7.901 0 1.802 0 3.605.02 5.404 0 1.215-.019 1.892-.427 1.847-1.905-.094-3.838-.022-7.676-.022-11.511zm-31.375-10.333c.277 3.5.748 6.933.745 10.386-.002 3.452-.485 6.846-.762 10.305h10.934V39.723h-10.917zm-108.348-.028v20.688h10.815c-.277-3.51-.746-6.952-.746-10.394 0-3.441.483-6.838.754-10.294H24.16zm-3.156-5.998c0-1.83.072-3.675-.028-5.508-.061-1.128-.738-1.88-1.977-1.883H5.568c-1.024 0-1.828.555-1.895 1.481-.15 1.991-.047 4-.047 5.91h17.377zM3.593 66.409c0 1.844-.056 3.686.02 5.524.046 1.173.77 1.864 1.976 1.87 4.476.016 8.955 0 13.43 0 1.166 0 1.881-.694 1.942-1.759.114-1.877.03-3.766.03-5.632l-17.398-.003zm142.954 0c0 1.844-.05 3.641.017 5.436.041 1.14.626 1.94 1.891 1.94 4.526.012 9.055.012 13.589 0 1.042 0 1.736-.64 1.791-1.577.117-1.958.036-3.927.036-5.802l-17.324.003zm17.332-32.723c0-1.864.05-3.708-.019-5.547-.042-1.109-.677-1.824-1.844-1.83-4.526-.02-9.052 0-13.589 0-1.031 0-1.744.577-1.794 1.556-.1 1.941-.03 3.918-.03 5.823l17.276-.002z"/><path d="M41.078 50.75c-.555-23.753 18.447-43.293 41.64-43.817 23.849-.533 42.581 18.264 43.707 40.46 1.362 26.84-19.814 45.39-41.742 45.802-23.763.452-43.472-18.963-43.605-42.446zm42.596 11.33c12.202 0 24.398.008 36.589.023 1.032 0 1.509-.228 1.8-1.318a41.465 41.465 0 00.499-19.465c-4.576-21.908-27.224-35.86-48.835-30.055-21.537 5.79-34.24 28.136-28.26 49.62.278 1.029.788 1.215 1.748 1.215 12.158-.032 24.31-.038 36.459-.02zM51.638 73.647c8.71 11.093 19.754 16.941 33.708 16.426 12.657-.469 22.646-6.251 30.505-16.426H51.638zm-4.69-8.458c.72 1.495 1.37 2.757 1.942 4.057.452 1.04 1.16 1.323 2.274 1.317 12.662-.038 25.325-.025 37.992-.025 9.152 0 18.303 0 27.455-.022.524 0 1.303-.183 1.525-.554.899-1.481 1.623-3.068 2.496-4.781l-73.683.008z"/><path d="M83.637 56.85H58.401c-2.756 0-4.137-1.328-4.206-4.124-.064-2.631-.072-5.269-.08-7.898-.014-4.02-.014-8.04 0-12.06 0-3.114 1.366-4.462 4.467-4.462h50.472c2.947 0 4.309 1.336 4.304 4.315 0 6.655-.056 13.311-.07 19.967 0 2.862-1.339 4.35-4.276 4.312-8.458-.11-16.916-.05-25.375-.05zm.086-2.992h12.743c4.06 0 8.12-.025 12.18.014 1.636.016 1.728 0 1.725-1.645 0-6.422-.061-12.845-.025-19.265 0-1.26-.352-1.642-1.65-1.636-16.037.044-32.073.054-48.11.03-3.421 0-3.424 0-3.424 3.425v17.607c0 .76-.072 1.467 1.11 1.453 3-.041 6 .025 9 .03 5.483.002 10.97 0 16.465-.005l-.014-.008z"/><path d="M71.294 42.363c0-1.475-.086-2.959.02-4.437.147-2.025 1.364-3.18 3.244-3.286 2.352-.13 3.86.72 3.985 2.834a72.39 72.39 0 01-.088 10.197c-.186 2.26-1.215 2.8-3.656 2.806-2.032 0-2.922-.615-3.277-2.773-.292-1.758-.247-3.572-.353-5.36l.125.019zm2.463.225c0 1.386.039 2.773-.014 4.16-.036.915.194 1.597 1.198 1.65 1.004.052 1.32-.677 1.323-1.554v-8.438c0-.832-.228-1.487-1.201-1.509-1.046-.022-1.314.66-1.312 1.55.002 1.376.003 2.756.003 4.14h.003zm-5.893.149c0 1.429.013 2.857 0 4.285-.025 2.008-1.243 3.344-3.176 3.525-2.243.208-3.813-.746-3.963-2.87a87.947 87.947 0 01-.135-9.956c.091-2.108 1.444-3.076 3.53-3.087 2.19 0 3.347.938 3.669 3.12.082.83.109 1.663.08 2.496v2.496l-.005-.009zm-4.937-.185h-.066v3.73c0 .954 0 1.966 1.3 2.01 1.301.044 1.304-.984 1.31-1.852.022-2.718 0-5.439-.04-8.156 0-.849-.393-1.575-1.3-1.348a1.916 1.916 0 00-1.151 1.334c-.155 1.411-.042 2.853-.042 4.282h-.01zm42.608-.369c1.733 1.608 2.068 5.438.635 7.166-1.068 1.284-2.538 1.408-4.049 1.084-1.417-.305-1.994-1.414-2.2-2.715-.105-.671-.019-1.373-.019-2.219l2.125-.138c0 .682-.142 1.278.038 1.747.181.469.702 1.129 1.046 1.11.477-.023 1.228-.53 1.328-.955.205-.873.308-1.941-.025-2.718-.277-.674-1.228-1.067-1.88-1.583l-.305.26v-1.857c2.357-.555 2.596-.81 2.26-3.126a1.964 1.964 0 00-1.198-1.3c-.832-.211-1.206.468-1.251 1.264-.019.358 0 .716 0 1.129H100c-.525-1.908.094-3.636 1.569-4.354 1.628-.793 3.882-.336 4.781.973 1.195 1.714.84 4.637-.815 6.232zm-12.909 5.981h4.373l.172 2.175h-6.836c-.716-2.807.424-4.959 2.218-6.88 1.387-1.487 2.53-3.051 2.319-5.25-.075-.78-.364-1.476-1.226-1.281-.485.11-1.02.676-1.223 1.167-.202.49-.047 1.173-.047 1.883h-2.219c0-.832-.11-1.7.023-2.535.327-2.057 1.68-2.947 4.048-2.795 1.797.116 2.92 1.317 3.07 3.283.217 2.826-1.173 4.937-3.05 6.836-.874.924-1.778 1.842-1.623 3.397zm-6.484 2.177h-2.374V38.647l-1.905-.214v-1.109c.979-.879 1.71-1.617 2.532-2.238.38-.224.822-.321 1.261-.277.172 0 .466.424.466.657.025 4.934.02 9.859.02 14.875z"/></svg>