<svg width="116" height="100" fill="none" xmlns="http://www.w3.org/2000/svg"><path d="M.933 83.585A51.062 51.062 0 013 77.589a12.54 12.54 0 015.922-5.757 1.611 1.611 0 001.012-1.724V6.493h33.842a1.59 1.59 0 001.74-1.093 9.504 9.504 0 1112.352 12.824 1.14 1.14 0 00-.81 1.237v7.27l2.812.128c0 2.519.097 5.015 0 7.496a2.999 2.999 0 001.686 2.998c2.818 1.761 5.54 3.673 8.297 5.532.078.073.148.153.21.24l-6.536 9.241-4.864-3.448 2.998-4.325c-2.421-1.619-4.775-3.208-7.143-4.76a.878.878 0 00-.75-.037c-2.398 1.567-4.782 3.17-7.218 4.805l2.998 4.31-4.864 3.455-6.596-9.317 3.642-2.443c1.927-1.29 3.83-2.601 5.78-3.853a1.5 1.5 0 00.75-1.446v-8.515h2.832v-7.833c0-.225-.344-.54-.6-.652a9.818 9.818 0 01-5.246-5.247 1.184 1.184 0 00-.877-.585H29.483v57.543h15.59V58.775h17.99v11.19h14.743V58.798h17.87v11.289h2.3c2.729 0 5.442-.06 8.066.936a14.915 14.915 0 01-2.999 28.73c-.96.137-1.93.205-2.9.203-27.846 0-55.692-.052-83.537.045-8.62 0-14.691-6.176-15.508-12.862a1.626 1.626 0 00-.165-.443v-3.11zm57.295 10.381h41.345a19.88 19.88 0 002.016-.067 8.922 8.922 0 007.347-5.263 8.914 8.914 0 00-1.02-8.979c-1.994-2.683-4.798-3.612-8.043-3.605H17.7c-.93 0-1.866.045-2.796.127a8.897 8.897 0 00-7.023 12.855c1.851 3.493 4.85 4.962 8.732 4.955 13.867-.03 27.73-.035 41.593-.015l.022-.008zm-42.252-81.43v57.49h7.293v-57.49h-7.293zm41.675-2.999a3.583 3.583 0 10-7.164.164 3.583 3.583 0 007.164-.164zm31.998 60.504v-5.247h-5.831v5.247h5.831zm-38.504 0h5.831v-5.247h-5.824l-.007 5.247z"/><path d="M27.519 87.962H17.085v-5.876H27.52v5.876zm13.567-.022v-5.847h10.441v5.847h-10.44zm24.015-.008v-5.824h10.426v5.824H65.101zm34.479-5.839v5.87H89.14v-5.87h10.44z"/></svg>