<svg width="1312" height="410" fill="none" xmlns="http://www.w3.org/2000/svg"><path d="M130 207l5-5 5 5m1122 0l-5-5-5 5M130 265l5 5 5-5m1122 0l-5 5-5-5M130 198l5-5 5 5m1122 0l-5-5-5 5M130 274l5 5 5-5m1122 0l-5 5-5-5M130 190l5-5 5 5m1122 0l-5-5-5 5M130 281l5 6 5-6m1122 0l-5 6-5-6M107 94h11v123.158L108.1 224M1285 94h-10v123.158l9 6.842M107 378h11V253.895L108.1 247M1285 378h-10V253.895l9-6.895M40 250h8v100h-8" stroke="#5EEBF0"/><rect x="46" y="123" width="3" height="101" rx="1.5" fill="#5EEBF0" fill-opacity=".5"/><path d="M46 167h3v55.5a1.5 1.5 0 01-3 0V167zM214.9 10V2.7h1.2l2.23 6.25-.05-.61-.04-.77c-.007-.273-.01-.53-.01-.77V2.7h.87V10h-1.2l-2.22-6.25a27.113 27.113 0 01.07 1.38c.013.267.02.523.02.77V10h-.87zm5.596 0l1.9-7.3h1.21l1.89 7.3h-.91l-.48-1.94h-2.21l-.48 1.94h-.92zm1.58-2.7h1.84l-.56-2.25c-.107-.427-.19-.783-.25-1.07a13.3 13.3 0 01-.11-.56 13.3 13.3 0 01-.11.56c-.06.287-.143.64-.25 1.06l-.56 2.26zm6.296 2.7l-1.88-7.3h.93l1.24 4.96c.087.347.16.67.22.97.06.293.104.517.13.67l.12-.67c.06-.3.134-.623.22-.97l1.23-4.96h.91l-1.89 7.3h-1.23zm10.512 0v-.82h1.98V3.45l-1.98 1.48v-1l1.65-1.23h1.23v6.48h1.62V10h-4.5zM123.92 234v-7.3h.9v3.13h1.08l1.62-3.13h.98l-1.81 3.51 1.91 3.79h-1.03l-1.7-3.38h-1.05V234h-.9zm5.836 0v-7.3h1.18l.76 2.36c.073.213.14.427.2.64.06.207.103.367.13.48.033-.113.077-.273.13-.48.053-.213.113-.43.18-.65l.72-2.35h1.18v7.3h-.88v-2.65c0-.293.01-.627.03-1 .02-.373.047-.753.08-1.14.033-.393.067-.767.1-1.12.04-.36.073-.673.1-.94l-1.18 3.65h-.95l-1.19-3.65a40.453 40.453 0 01.19 2c.027.38.05.76.07 1.14.02.38.03.733.03 1.06V234h-.88zm5.986 1.1l3.55-9.4h.95l-3.55 9.4h-.95zm8.286-1c-.48 0-.893-.08-1.24-.24-.34-.16-.603-.39-.79-.69-.186-.3-.283-.657-.29-1.07h.9c0 .367.124.657.37.87.254.213.604.32 1.05.32.42 0 .747-.103.98-.31.24-.207.36-.493.36-.86 0-.293-.08-.55-.24-.77a1.196 1.196 0 00-.67-.46l-.99-.31c-.5-.153-.886-.41-1.16-.77-.266-.36-.4-.783-.4-1.27 0-.393.087-.733.26-1.02.18-.293.43-.52.75-.68.32-.167.697-.25 1.13-.25.64 0 1.154.18 1.54.54.387.353.584.827.59 1.42h-.9c0-.36-.11-.64-.33-.84-.213-.207-.516-.31-.91-.31-.386 0-.69.093-.91.28-.213.187-.32.447-.32.78 0 .3.08.56.24.78.16.22.39.377.69.47l1 .32c.487.153.864.413 1.13.78.267.367.4.797.4 1.29 0 .4-.093.75-.28 1.05-.186.3-.45.533-.79.7-.333.167-.723.25-1.17.25zm1079.892-.1v-7.3h.9v3.13h1.08l1.62-3.13h.98l-1.81 3.51 1.91 3.79h-1.03l-1.7-3.38h-1.05V234h-.9zm5.84 0v-7.3h1.18l.76 2.36c.07.213.14.427.2.64.06.207.1.367.13.48.03-.113.07-.273.13-.48.05-.213.11-.43.18-.65l.72-2.35h1.18v7.3h-.88v-2.65c0-.293.01-.627.03-1 .02-.373.04-.753.08-1.14.03-.393.06-.767.1-1.12.04-.36.07-.673.1-.94l-1.18 3.65h-.95l-1.19-3.65c.03.26.06.563.1.91.03.34.06.703.09 1.09.02.38.05.76.07 1.14.02.38.03.733.03 1.06V234h-.88zm5.98 1.1l3.55-9.4h.95l-3.55 9.4h-.95zm8.29-1c-.48 0-.9-.08-1.24-.24a1.78 1.78 0 01-.79-.69 1.96 1.96 0 01-.29-1.07h.9c0 .367.12.657.37.87.25.213.6.32 1.05.32.42 0 .74-.103.98-.31.24-.207.36-.493.36-.86a1.235 1.235 0 00-.91-1.23l-.99-.31c-.5-.153-.89-.41-1.16-.77-.27-.36-.4-.783-.4-1.27 0-.393.08-.733.26-1.02.18-.293.43-.52.75-.68.32-.167.69-.25 1.13-.25.64 0 1.15.18 1.54.54.38.353.58.827.59 1.42h-.9c0-.36-.11-.64-.33-.84-.22-.207-.52-.31-.91-.31s-.69.093-.91.28c-.22.187-.32.447-.32.78 0 .3.08.56.24.78.16.22.39.377.69.47l1 .32c.48.153.86.413 1.13.78.26.367.4.797.4 1.29 0 .4-.1.75-.28 1.05-.19.3-.45.533-.79.7-.34.167-.73.25-1.17.25zM63.55 394v-6.49h-2v-.82h4.9v.82h-2V394h-.9zm4.376 0v-7.3h.9v3.12h2.34v-3.12h.9v7.3h-.9v-3.36h-2.34V394h-.9zm5.986 0v-7.3h2.26c.434 0 .814.09 1.14.27.327.173.58.417.76.73.18.313.27.68.27 1.1 0 .493-.13.917-.39 1.27-.253.353-.6.597-1.04.73l1.53 3.2h-1.06l-1.4-3.1h-1.17v3.1h-.9zm.9-3.91h1.36c.374 0 .674-.117.9-.35.227-.24.34-.553.34-.94 0-.393-.113-.707-.34-.94-.227-.233-.526-.35-.9-.35h-1.36v2.58zm13.062 4.01c-.44 0-.826-.087-1.16-.26a1.935 1.935 0 01-.76-.74c-.18-.313-.27-.68-.27-1.1h.9c0 .407.114.727.34.96.234.227.554.34.96.34.414 0 .734-.12.96-.36.227-.24.34-.553.34-.94v-.52c0-.413-.113-.733-.34-.96-.226-.227-.546-.34-.96-.34h-.75v-.9l1.81-1.76h-2.96v-.82h3.87v.9l-1.95 1.89v-.11c.667 0 1.197.19 1.59.57.394.38.59.89.59 1.53v.52c0 .42-.093.787-.28 1.1-.18.313-.436.56-.77.74-.333.173-.72.26-1.16.26zm6.107 0c-.447 0-.837-.087-1.17-.26-.327-.18-.58-.43-.76-.75a2.326 2.326 0 01-.27-1.14v-3.2c0-.44.09-.82.27-1.14.18-.32.433-.567.76-.74.333-.18.723-.27 1.17-.27.453 0 .843.09 1.17.27.326.173.58.42.76.74.18.32.27.7.27 1.14v3.2c0 .433-.09.813-.27 1.14-.18.32-.437.57-.77.75-.327.173-.714.26-1.16.26zm0-.77c.4 0 .72-.127.96-.38.246-.26.37-.593.37-1v-3.2c0-.407-.124-.737-.37-.99-.24-.26-.56-.39-.96-.39-.4 0-.724.13-.97.39-.24.253-.36.583-.36.99v3.2c0 .407.12.74.36 1 .246.253.57.38.97.38zm0-2.39a.597.597 0 01-.44-.17.629.629 0 01-.16-.45.58.58 0 01.16-.43.597.597 0 01.44-.17c.18 0 .323.057.43.17.113.107.17.25.17.43a.607.607 0 01-.17.45.564.564 0 01-.43.17zm5.996 3.16c-.254 0-.457-.073-.61-.22-.147-.147-.22-.343-.22-.59 0-.26.073-.467.22-.62.153-.153.356-.23.61-.23.253 0 .453.077.6.23.153.153.23.36.23.62 0 .247-.077.443-.23.59-.147.147-.347.22-.6.22zm7.096-.1v-1.6h-3.3v-1.41l2.89-4.29h.98l-2.97 4.48v.4h2.4v-1.78h.9v4.2h-.9zm1137.967.1c-.44 0-.82-.083-1.15-.25a1.82 1.82 0 01-.75-.72c-.17-.32-.26-.697-.26-1.13v-3.3c0-.44.09-.817.26-1.13.18-.313.43-.553.75-.72.33-.167.71-.25 1.15-.25.44 0 .82.087 1.14.26.32.167.57.407.74.72.17.313.26.687.26 1.12h-.9c0-.413-.11-.73-.33-.95-.21-.227-.52-.34-.91-.34s-.7.11-.93.33c-.22.22-.33.537-.33.95V392c0 .413.11.733.33.96.23.22.54.33.93.33s.7-.11.91-.33c.22-.227.33-.547.33-.96h.9c0 .427-.09.8-.26 1.12-.17.313-.42.557-.74.73-.32.167-.7.25-1.14.25zm3.89-.1v-7.3h.9v3.12h2.34v-3.12h.9v7.3h-.9v-3.36h-2.34V394h-.9zm6.01 0v-7.31h4.3v.82h-3.42v2.43h3.16v.82h-3.14V394h-.9zm11.94 0v-.82h1.98v-5.73l-1.98 1.48v-1l1.65-1.23h1.23v6.48h1.62v.82h-4.5zm6.02 0v-.92l2.23-2.37c.38-.407.66-.767.83-1.08.17-.32.26-.627.26-.92 0-.407-.11-.727-.34-.96-.22-.233-.52-.35-.91-.35-.43 0-.76.12-1.01.36-.24.24-.36.57-.36.99h-.9c.01-.44.11-.82.3-1.14.19-.327.46-.577.79-.75.34-.173.73-.26 1.18-.26.44 0 .82.087 1.14.26.33.167.58.407.75.72.17.313.26.687.26 1.12 0 .413-.11.823-.33 1.23-.22.407-.58.87-1.08 1.39l-1.8 1.86h3.33v.82h-4.34zM3.01 168.1c-.467 0-.877-.097-1.23-.29a2.11 2.11 0 01-.81-.83c-.193-.353-.29-.763-.29-1.23 0-.367.05-.727.15-1.08.107-.353.263-.693.47-1.02l1.83-2.95h1l-2.07 3.32.04.03c.127-.187.3-.33.52-.43.22-.1.467-.15.74-.15.4 0 .747.093 1.04.28.293.187.52.45.68.79.16.34.24.743.24 1.21 0 .467-.097.877-.29 1.23a2.11 2.11 0 01-.81.83c-.34.193-.743.29-1.21.29zm-.01-.8c.427 0 .77-.14 1.03-.42.26-.287.39-.663.39-1.13 0-.467-.13-.84-.39-1.12-.26-.287-.603-.43-1.03-.43-.427 0-.77.143-1.03.43-.26.28-.39.653-.39 1.12 0 .467.13.843.39 1.13.26.28.603.42 1.03.42zm4.846.7l2.61-6.48h-2.76v1.08h-.9v-1.9h4.55v.88L8.816 168h-.97zm6.706-.95v-1.95h-1.91v-.8h1.91v-1.95h.88v1.95h1.91v.8h-1.91v1.95h-.88zM1.85 297l2.61-6.48H1.7v1.08H.8v-1.9h4.55v.88L2.82 297h-.97zm7.126.1c-.593 0-1.08-.153-1.46-.46-.38-.307-.603-.72-.67-1.24h.9c.033.287.157.51.37.67.213.153.503.23.87.23.42 0 .733-.113.94-.34.213-.227.32-.547.32-.96v-.71c0-.413-.107-.733-.32-.96-.207-.227-.517-.34-.93-.34-.26 0-.487.07-.68.21a1.126 1.126 0 00-.42.54h-.9l.05-4.04h3.84v.82h-2.97l-.03 2.43h.28l-.28.26c0-.313.123-.56.37-.74.253-.18.59-.27 1.01-.27.593-.007 1.053.177 1.38.55.333.367.5.88.5 1.54v.71c0 .647-.19 1.16-.57 1.54-.38.373-.913.56-1.6.56zm5.576-1.05v-1.95h-1.91v-.8h1.91v-1.95h.88v1.95h1.91v.8h-1.91v1.95h-.88zM1033.92 10V2.7h1.89c.47 0 .88.09 1.22.27.35.18.61.433.8.76.19.327.29.713.29 1.16V7.8c0 .447-.1.837-.29 1.17-.19.327-.45.58-.8.76-.34.18-.75.27-1.22.27h-1.89zm.9-.8h.99c.44 0 .78-.123 1.03-.37s.38-.59.38-1.03V4.89c0-.433-.13-.773-.38-1.02s-.59-.37-1.03-.37h-.99v5.7zm5.18.8V2.7h4.2v.82h-3.31v2.26h2.96v.81h-2.96v2.59h3.31V10h-4.2zm8.03.1c-.44 0-.82-.083-1.15-.25a1.815 1.815 0 01-.75-.72c-.17-.32-.26-.697-.26-1.13V4.7c0-.44.09-.817.26-1.13.18-.313.43-.553.75-.72.33-.167.71-.25 1.15-.25.44 0 .82.087 1.14.26.32.167.57.407.74.72.18.313.26.687.26 1.12h-.9c0-.413-.11-.73-.33-.95-.21-.227-.51-.34-.91-.34-.39 0-.7.11-.93.33-.22.22-.33.537-.33.95V8c0 .413.11.733.33.96.23.22.54.33.93.33.4 0 .7-.11.91-.33.22-.227.33-.547.33-.96h.9c0 .427-.08.8-.26 1.12-.17.313-.42.557-.74.73-.32.167-.7.25-1.14.25zm3.88-.1V2.7h2.35c.45 0 .84.09 1.18.27.33.173.59.42.77.74.18.32.28.7.28 1.14 0 .433-.1.813-.28 1.14-.18.32-.44.57-.77.75-.34.173-.73.26-1.18.26h-1.45v3h-.9zm.9-3.81h1.45c.39 0 .7-.12.94-.36.24-.247.36-.573.36-.98 0-.413-.12-.74-.36-.98s-.55-.36-.94-.36h-1.45v2.68zm5.32 3.81V2.7h.9v6.48h3.3V10h-4.2zm54.91.1c-.44 0-.82-.083-1.15-.25a1.815 1.815 0 01-.75-.72c-.17-.32-.26-.697-.26-1.13V4.7c0-.44.09-.817.26-1.13.18-.313.43-.553.75-.72.33-.167.71-.25 1.15-.25.44 0 .82.087 1.14.26.32.167.57.407.74.72.17.313.26.687.26 1.12h-.9c0-.413-.11-.73-.33-.95-.21-.227-.52-.34-.91-.34s-.7.11-.93.33c-.22.22-.33.537-.33.95V8c0 .413.11.733.33.96.23.227.54.34.93.34s.7-.113.91-.34c.22-.227.33-.547.33-.96v-.9h-1.48v-.82h2.38V8c0 .427-.09.8-.26 1.12-.17.313-.42.557-.74.73-.32.167-.7.25-1.14.25zm6 0c-.48 0-.9-.08-1.24-.24a1.78 1.78 0 01-.79-.69 1.96 1.96 0 01-.29-1.07h.9c0 .367.12.657.37.87.25.213.6.32 1.05.32.42 0 .74-.103.98-.31.24-.207.36-.493.36-.86a1.233 1.233 0 00-.91-1.23l-.99-.31c-.5-.153-.89-.41-1.16-.77-.27-.36-.4-.783-.4-1.27 0-.393.08-.733.26-1.02.18-.293.43-.52.75-.68.32-.167.69-.25 1.13-.25.64 0 1.15.18 1.54.54.38.353.58.827.59 1.42h-.9c0-.36-.11-.64-.33-.84-.22-.207-.52-.31-.91-.31s-.69.093-.91.28c-.22.187-.32.447-.32.78 0 .3.08.56.24.78.16.22.39.377.69.47l1 .32c.48.153.86.413 1.13.78.26.367.4.797.4 1.29 0 .4-.1.75-.28 1.05a1.9 1.9 0 01-.79.7c-.34.167-.73.25-1.17.25zm3.9-.1V2.69h4.3v.82h-3.42v2.43h3.16v.82h-3.14V10h-.9zm8.09.1c-.44 0-.83-.083-1.15-.25a1.815 1.815 0 01-.75-.72c-.18-.32-.26-.697-.26-1.13V4.7c0-.44.08-.817.26-1.13.18-.313.43-.553.75-.72.32-.167.71-.25 1.15-.25.44 0 .82.087 1.14.26.32.167.56.407.74.72.17.313.26.687.26 1.12h-.9c0-.413-.11-.73-.33-.95-.22-.227-.52-.34-.91-.34-.4 0-.71.11-.93.33-.22.22-.33.537-.33.95V8c0 .413.11.733.33.96.22.22.53.33.93.33.39 0 .69-.11.91-.33.22-.227.33-.547.33-.96h.9c0 .427-.09.8-.26 1.12-.18.313-.42.557-.74.73-.32.167-.7.25-1.14.25zm49.01 0c-.44 0-.82-.083-1.15-.25a1.815 1.815 0 01-.75-.72c-.17-.32-.26-.697-.26-1.13V4.7c0-.44.09-.817.26-1.13.18-.313.43-.553.75-.72.33-.167.71-.25 1.15-.25.44 0 .82.087 1.14.26.32.167.57.407.74.72.17.313.26.687.26 1.12h-.9c0-.413-.11-.73-.33-.95-.21-.227-.52-.34-.91-.34s-.7.11-.93.33c-.22.22-.33.537-.33.95V8c0 .413.11.733.33.96.23.22.54.33.93.33s.7-.11.91-.33c.22-.227.33-.547.33-.96h.9c0 .427-.09.8-.26 1.12-.17.313-.42.557-.74.73-.32.167-.7.25-1.14.25zm6 0c-.48 0-.9-.08-1.24-.24a1.78 1.78 0 01-.79-.69 1.96 1.96 0 01-.29-1.07h.9c0 .367.12.657.37.87.25.213.6.32 1.05.32.42 0 .74-.103.98-.31.24-.207.36-.493.36-.86a1.233 1.233 0 00-.91-1.23l-.99-.31c-.5-.153-.89-.41-1.16-.77-.27-.36-.4-.783-.4-1.27 0-.393.08-.733.26-1.02.18-.293.43-.52.75-.68.32-.167.69-.25 1.13-.25.64 0 1.15.18 1.54.54.38.353.58.827.59 1.42h-.9c0-.36-.11-.64-.33-.84-.22-.207-.52-.31-.91-.31s-.69.093-.91.28c-.22.187-.32.447-.32.78 0 .3.08.56.24.78.16.22.39.377.69.47l1 .32c.48.153.86.413 1.13.78.26.367.4.797.4 1.29 0 .4-.1.75-.28 1.05a1.9 1.9 0 01-.79.7c-.34.167-.73.25-1.17.25zm5.5-.1V3.51h-2v-.82h4.9v.82h-2V10h-.9zm4.37 0V2.7h1.89c.47 0 .88.09 1.22.27.34.18.61.433.8.76.19.327.29.713.29 1.16V7.8c0 .447-.1.837-.29 1.17-.19.327-.46.58-.8.76-.34.18-.75.27-1.22.27h-1.89zm.9-.8h.99c.44 0 .78-.123 1.03-.37s.38-.59.38-1.03V4.89c0-.433-.13-.773-.38-1.02s-.59-.37-1.03-.37h-.99v5.7z" fill="#5EEBF0"/></svg>