<svg width="26" height="26" fill="none" xmlns="http://www.w3.org/2000/svg"><g clip-path="url(#clip0_108_66)"><path d="M20.274 0H5.726A5.726 5.726 0 000 5.726v14.548A5.726 5.726 0 005.726 26h14.548A5.726 5.726 0 0026 20.274V5.726A5.726 5.726 0 0020.274 0z" fill="url(#paint0_linear_108_66)"/><path d="M13 4.5c-2.531 0-4.958.838-6.748 2.329-1.79 1.49-2.795 3.512-2.795 5.62.002 1.372.43 2.72 1.243 3.912.812 1.192 1.981 2.19 3.393 2.895-.376.842-.94 1.631-1.669 2.336 1.413-.248 2.74-.77 3.876-1.523a11.36 11.36 0 002.7.33c2.53 0 4.958-.838 6.748-2.329 1.79-1.49 2.795-3.512 2.795-5.62 0-2.109-1.005-4.13-2.795-5.621-1.79-1.49-4.217-2.328-6.748-2.328z" fill="#fff"/></g><defs><linearGradient id="paint0_linear_108_66" x1="13.206" y1="24.274" x2="13.206" y2="3.227" gradientUnits="userSpaceOnUse"><stop stop-color="#0CBD2A"/><stop offset="1" stop-color="#5BF675"/></linearGradient><clipPath id="clip0_108_66"><path fill="#fff" d="M0 0h26v26H0z"/></clipPath></defs></svg>