<svg width="29" height="26" fill="none" xmlns="http://www.w3.org/2000/svg"><path d="M28.511 20.868L17.447 1.71a3.422 3.422 0 00-5.925 0L.458 20.868A3.421 3.421 0 003.424 26h22.122a3.42 3.42 0 002.962-5.132h.003z" fill="url(#paint0_linear_108_150)"/><path d="M14.485 17.79a1.437 1.437 0 001.437-1.3l.807-8.074a2.053 2.053 0 00-2.046-2.258h-.397a2.052 2.052 0 00-2.042 2.258l.807 8.073a1.437 1.437 0 001.434 1.3z" fill="url(#paint1_linear_108_150)"/><path d="M14.485 23.263a2.395 2.395 0 100-4.79 2.395 2.395 0 000 4.79z" fill="url(#paint2_linear_108_150)"/><defs><linearGradient id="paint0_linear_108_150" x1="6.366" y1="11.177" x2="26.819" y2="25.582" gradientUnits="userSpaceOnUse"><stop stop-color="#FED200"/><stop offset="1" stop-color="#F59815"/></linearGradient><linearGradient id="paint1_linear_108_150" x1="11.966" y1="7.929" x2="16.914" y2="15.131" gradientUnits="userSpaceOnUse"><stop stop-color="#3E4154"/><stop offset="1" stop-color="#1B2129"/></linearGradient><linearGradient id="paint2_linear_108_150" x1="12.965" y1="19.349" x2="15.905" y2="22.289" gradientUnits="userSpaceOnUse"><stop stop-color="#3E4154"/><stop offset="1" stop-color="#1B2129"/></linearGradient></defs></svg>