<svg width="150" height="84" viewBox="0 0 150 84" fill="none" xmlns="http://www.w3.org/2000/svg">
    <path class="first" d="M5.94712 0L1 4H50L45.2885 0H5.94712Z" fill="#66EDEE"/>
    <path class="second" d="M5.95095 42.457H6.45095H5.95095ZM0.735759 4.23739L0.735758 37.3783H1.73576L1.73576 4.23739L0.735759 4.23739ZM0.735758 37.3783L0.735757 62.5367H1.73576L1.73576 37.3783H0.735758ZM0.735757 62.5367V62.635H1.73576V62.5367H0.735757ZM0.811939 62.8195L0.880989 62.889L1.59052 62.1843L1.52148 62.1148L0.811939 62.8195ZM0.880988 62.889L5.52713 67.5673L6.23667 66.8626L1.59053 62.1843L0.880988 62.889ZM0.800264 37.6441L0.869333 37.7185L1.60218 37.0382L1.53311 36.9638L0.800264 37.6441ZM0.869337 37.7185L5.58453 42.7972L6.31737 42.1168L1.60218 37.0382L0.869337 37.7185ZM5.45095 42.2196V42.457H6.45095V42.2196H5.45095ZM5.45095 42.457L5.45095 84H6.45095L6.45095 42.457H5.45095ZM1 4.5H150V3.5H1V4.5ZM149 4V84H150V4H149ZM6 84L150 84V83L6 83V84Z"
          fill="#059097"/>
</svg>
