<svg width="101" height="100" viewBox="0 0 101 100" fill="none" xmlns="http://www.w3.org/2000/svg">
    <path d="M100.279 38.4298C100.046 39.9583 99.8573 41.4921 99.5764 43.0152C97.0056 57.0575 85.7231 68.6208 71.8104 71.5535C51.4058 75.8472 32.0166 62.5988 28.4898 41.962C25.1413 22.3459 38.9676 3.29156 58.643 0.412883C67.648 -0.959848 76.8392 1.11825 84.3778 6.2314C91.9163 11.3446 97.2462 19.1156 99.301 27.9899C99.7114 29.7344 99.8411 31.5383 100.111 33.3151C100.149 33.5744 100.219 33.8552 100.273 34.0875L100.279 38.4298ZM87.3164 29.8748C86.4361 29.4157 85.5773 28.9242 84.6808 28.53C84.2987 28.3674 83.8741 28.3333 83.471 28.4327C80.2916 29.3653 77.1195 30.3249 73.9546 31.3114C70.9895 32.235 68.0136 32.7102 64.9621 31.7057C64.1535 31.431 63.2785 31.42 62.4633 31.6743C61.648 31.9286 60.9344 32.435 60.4253 33.1207C58.292 35.94 59.3073 39.4236 62.6397 40.7576C64.4652 41.4867 66.2043 41.1086 67.3925 39.5478C68.4888 38.1476 70.0335 37.1674 71.7672 36.7717C75.6343 35.7185 79.4635 34.5303 83.3521 33.5636C85.3504 33.0667 86.6521 32.0243 87.2948 30.107C87.2986 30.0296 87.2986 29.9521 87.2948 29.8748H87.3164ZM48.8188 23.2047C49.4399 22.6376 50.007 22.1245 50.5309 21.6276C50.6599 21.5226 50.7661 21.3924 50.843 21.2449C50.9199 21.0974 50.9658 20.9357 50.9779 20.7698C50.9901 20.6039 50.9682 20.4373 50.9136 20.2802C50.859 20.1231 50.7729 19.9788 50.6605 19.8561C50.0826 19.1 49.4831 18.3547 48.8404 17.5337L46.8691 19.7535C46.749 19.8576 46.6534 19.9869 46.5891 20.1322C46.5247 20.2775 46.4932 20.4352 46.4969 20.5941C46.5005 20.753 46.5391 20.9091 46.61 21.0513C46.6808 21.1936 46.7822 21.3184 46.9069 21.417C47.4956 22.0111 48.1275 22.5566 48.8188 23.2047ZM69.6717 60.3952L71.5998 58.1917C71.7147 58.0903 71.8068 57.9657 71.8698 57.826C71.9329 57.6863 71.9655 57.5348 71.9655 57.3815C71.9655 57.2283 71.9329 57.0768 71.8698 56.9371C71.8068 56.7974 71.7147 56.6728 71.5998 56.5714C70.9949 55.9287 70.3306 55.34 69.6717 54.7081C69.0127 55.3022 68.4402 55.7883 67.9056 56.3284C67.7809 56.4276 67.6778 56.5512 67.6025 56.6916C67.5273 56.832 67.4814 56.9862 67.4678 57.1449C67.4541 57.3037 67.473 57.4635 67.5232 57.6147C67.5734 57.7659 67.6539 57.9052 67.7598 58.0243C68.3755 58.775 69.0019 59.5527 69.6717 60.3952ZM58.7078 17.6687C59.2978 17.0986 59.8397 16.4809 60.3281 15.8216C60.4472 15.6163 60.5178 15.3864 60.5346 15.1497C60.5515 14.9129 60.5141 14.6754 60.4253 14.4552C59.8248 13.5743 59.172 12.7302 58.4702 11.9276C57.8059 12.7161 57.2118 13.3858 56.6609 14.088C56.029 14.8873 56.029 15.3194 56.7473 16.0323C57.309 16.5724 57.9409 17.0314 58.7078 17.6687ZM82.7688 51.6242C81.9911 50.9599 81.2782 50.3334 80.5437 49.7285C80.4246 49.6133 80.284 49.5228 80.13 49.4621C79.9759 49.4014 79.8114 49.3717 79.6458 49.3747C79.4802 49.3777 79.3169 49.4134 79.1651 49.4796C79.0133 49.5459 78.8761 49.6415 78.7613 49.7609C78.2213 50.247 77.6812 50.7655 77.0601 51.3271C77.6434 52.0347 78.1673 52.7206 78.7506 53.3471C78.8453 53.4746 78.9659 53.5805 79.1046 53.658C79.2432 53.7354 79.3967 53.7826 79.5549 53.7964C79.7131 53.8102 79.8725 53.7902 80.0224 53.7379C80.1724 53.6856 80.3096 53.6021 80.4249 53.4929C81.1864 52.8934 81.9479 52.2939 82.7634 51.6242H82.7688ZM40.7715 30.6363C41.3547 31.2574 41.8516 31.8353 42.3917 32.3754C42.4869 32.4936 42.6047 32.5915 42.7384 32.6633C42.8721 32.7352 43.0188 32.7794 43.1699 32.7935C43.321 32.8076 43.4734 32.7913 43.618 32.7454C43.7626 32.6996 43.8966 32.6252 44.012 32.5266C44.8221 31.9055 45.6323 31.2574 46.4586 30.5877C45.6647 29.9234 44.9517 29.3401 44.2496 28.7406C44.1307 28.6143 43.9856 28.5154 43.8246 28.4509C43.6635 28.3864 43.4903 28.3577 43.317 28.367C43.1438 28.3762 42.9746 28.4232 42.8213 28.5045C42.6681 28.5858 42.5344 28.6995 42.4295 28.8378C41.9056 29.3833 41.3926 29.9666 40.7715 30.6363ZM85.0912 44.1926C85.6583 43.6525 86.2686 43.1124 86.8303 42.5723C86.9748 42.4622 87.0927 42.3211 87.1751 42.1592C87.2576 41.9974 87.3026 41.8191 87.3067 41.6375C87.3109 41.4559 87.2741 41.2758 87.1991 41.1103C87.1241 40.9449 87.0128 40.7985 86.8735 40.682C86.2308 40.0177 85.6151 39.3317 84.9832 38.6512C82.2557 41.6163 82.2557 42.043 84.9832 44.1548C85.0182 44.1699 85.0544 44.1826 85.0912 44.1926ZM82.7634 20.6716L81.9209 20.0289C79.3393 18.1008 79.2205 18.117 77.2545 20.6284C77.2221 20.6716 77.2275 20.7365 77.2113 20.7959L76.9575 21.0497C77.6218 21.5898 78.2807 22.1299 78.9504 22.67C79.054 22.7812 79.1794 22.8699 79.3188 22.9305C79.4582 22.9912 79.6086 23.0225 79.7606 23.0225C79.9126 23.0225 80.0629 22.9912 80.2023 22.9305C80.3417 22.8699 80.4671 22.7812 80.5707 22.67L82.7634 20.6716ZM69.9363 17.6201C70.5034 17.0422 71.0165 16.54 71.5566 15.9999C71.6799 15.889 71.7798 15.7544 71.85 15.6041C71.9203 15.4538 71.9597 15.291 71.9657 15.1252C71.9718 14.9594 71.9444 14.7941 71.8852 14.6391C71.8261 14.4841 71.7363 14.3426 71.6214 14.223C71.0273 13.4777 70.4116 12.7485 69.7635 11.9546L67.8677 14.2716C67.7489 14.3884 67.6573 14.5299 67.5993 14.6861C67.5414 14.8423 67.5185 15.0093 67.5325 15.1754C67.5464 15.3414 67.5967 15.5023 67.6798 15.6467C67.763 15.791 67.877 15.9153 68.0136 16.0107C68.5915 16.5292 69.2666 17.0422 69.9363 17.6039V17.6201Z"
          />
    <path d="M0 92.0823L4.54755 87.9182L5.31987 87.2107L13.0864 95.4201L8.10135 100H7.92311C6.18402 98.2771 4.45034 96.5489 2.70045 94.8368C1.8147 93.9672 0.90195 93.1193 0 92.2605V92.0823Z"
          />
    <path d="M25.1464 49.1289C29.883 61.821 38.4974 70.4841 51.2165 75.1828L44.0333 79.8762C43.0774 80.4973 42.1376 81.1454 41.1708 81.7449C38.0329 83.6892 34.6465 83.4084 32.0217 80.843C27.7298 76.6519 23.4793 72.4194 19.2702 68.1455C18.138 67.035 17.4285 65.5644 17.2639 63.9871C17.0993 62.4098 17.4898 60.8244 18.3683 59.504C20.453 56.2149 22.6025 52.9635 24.7305 49.7014C24.8439 49.5286 24.9411 49.3936 25.1464 49.1289Z"
          />
    <path d="M14.9333 70.7489L29.2133 85.3313C26.9287 87.2054 24.5847 89.4468 21.6521 90.9104C19.4917 91.9906 17.3313 91.9528 15.522 90.3272C13.488 88.4754 11.5791 86.4907 9.80787 84.3862C9.06692 83.5726 8.62865 82.5288 8.56669 81.4302C8.50472 80.3315 8.82287 79.2451 9.46764 78.3534C11.1635 75.7933 13.0538 73.3575 14.9333 70.7489Z"
          />
</svg>
