<svg width="101" height="100" viewBox="0 0 101 100" fill="none" xmlns="http://www.w3.org/2000/svg">
    <path d="M73.8992 69.6984C73.8992 74.3326 74.0614 78.9668 73.8992 83.601C73.5053 93.0432 67.84 99.0214 58.3746 99.6817C52.9764 100.106 47.5531 100.106 42.1549 99.6817C33.2919 98.8939 27.6498 93.0317 27.337 84.1571C27.001 74.7265 27.0589 65.2727 27.337 55.8305C27.5455 47.9987 31.5657 44.245 39.3628 44.1755C46.8779 44.0828 54.3931 44.0828 61.9082 44.1755C69.6589 44.2102 73.598 48.0682 73.8645 55.7958C74.0267 60.43 73.8992 65.0642 73.8992 69.6984Z"
          />
    <path d="M46.3605 32.9145C47.7624 26.1601 44.0434 22.8235 39.2123 20.2399C33.686 17.2972 28.1017 14.4472 22.645 11.4233C21.6834 10.8904 21.2431 9.43062 20.5596 8.39951C21.7761 7.63486 22.9694 6.25619 24.2206 6.22143C30.7664 5.98972 37.3354 6.10557 43.916 6.09399H46.4764L50.624 0L54.957 6.10558C60.5296 6.10558 67.62 5.94338 74.6524 6.20984C76.6799 6.29094 78.6494 7.61169 80.6537 8.36475C79.0317 9.5233 77.4445 10.6819 75.7994 11.8404C69.2767 16.2197 62.5224 20.2978 56.3357 25.1058C54.7021 26.3802 54.7832 29.8791 53.9143 32.9492L46.3605 32.9145ZM67.1566 11.9794H34.6476C43.8581 21.4448 54.6905 23.4144 67.1566 11.9794Z"
          />
    <path d="M10.874 54.8806H25.3096V83.9719H10.874V54.8806Z" />
    <path d="M90.2812 84.1109H75.9268V55.1471H90.2812V84.1109Z" />
    <path d="M8.34827 69.5479C8.34827 75.3407 8.62633 81.1334 8.17449 86.8219C8.04705 88.4902 5.85738 90.0079 4.62932 91.5836C3.34332 89.9964 1.00305 88.4439 0.956704 86.8219C0.663204 75.3059 0.686375 63.786 1.02622 52.2623C1.02622 50.6519 3.34332 49.0994 4.62932 47.5238C5.85738 49.111 8.02388 50.6171 8.10498 52.2855C8.54523 58.0087 8.27876 63.7899 8.27876 69.5595L8.34827 69.5479Z"
          />
    <path d="M100.337 69.2351C100.337 74.8193 100.639 80.4383 100.164 85.9762C100.001 87.911 97.9161 89.6836 96.688 91.5257C95.4136 89.7647 93.0965 88.05 93.0386 86.2543C92.6987 75.0935 92.6987 63.9251 93.0386 52.7489C93.0386 50.9763 95.3557 49.2732 96.688 47.547C97.8466 49.3775 99.9667 51.1385 100.164 53.0733C100.662 58.4142 100.349 63.8363 100.337 69.2351Z"
          />
    <path d="M59.9384 42.6348H41.3089C40.1503 34.5249 40.1503 34.5249 47.6809 34.5249H53.4737C61.0159 34.5481 61.0159 34.5481 59.9384 42.6348Z"
          />
    <path d="M54.6905 15.6868C52.7673 17.1234 51.3307 18.7222 50.8325 18.4673C50.1935 18.1404 49.6284 17.6859 49.1721 17.1319C48.7158 16.5779 48.3779 15.9363 48.1794 15.2465C48.052 14.5746 49.813 12.9294 50.8209 12.8251C51.8288 12.7209 52.7789 14.2038 54.6905 15.6868Z"
          />
</svg>
