<svg width="125" height="100" viewBox="0 0 125 100" fill="none" xmlns="http://www.w3.org/2000/svg">
    <path d="M62.561 99.973C48.051 99.973 33.541 99.973 19.0311 99.973C8.22512 99.973 0.462834 92.1837 0.444824 81.3868C0.444824 60.4413 0.444824 39.4957 0.444824 18.5502C0.444824 7.74427 8.26111 0.00900495 19.058 0C48.024 0 76.99 0 105.956 0C116.636 0 124.425 7.83432 124.425 18.4962C124.425 39.5077 124.425 60.5193 124.425 81.5309C124.425 92.1117 116.627 99.982 106.082 100C91.5779 99.994 77.071 99.985 62.561 99.973ZM62.3359 95.9658C76.9479 95.9658 91.56 95.9658 106.172 95.9658C108.051 96.02 109.922 95.6913 111.671 95C113.419 94.3086 115.009 93.2688 116.343 91.9439C117.677 90.619 118.728 89.0366 119.432 87.293C120.135 85.5493 120.477 83.6808 120.436 81.801C120.436 60.6454 120.436 39.4927 120.436 18.3431C120.436 10.0675 114.412 4.02521 106.172 4.0162C77.104 4.0162 48.036 4.0162 18.968 4.0162C10.4223 4.0162 4.45204 10.0495 4.45204 18.5862C4.45204 39.4717 4.45204 60.3602 4.45204 81.2517C4.45204 90.0225 10.3683 95.9748 19.1301 95.9838C33.532 95.9898 47.9339 95.9718 62.3359 95.9298V95.9658Z"
          />
    <path d="M62.3541 74.3179C47.8981 74.3179 33.4451 74.3179 18.9952 74.3179C13.5922 74.3179 10.0893 70.878 10.0803 65.421C10.0803 49.7043 10.0803 33.9907 10.0803 18.28C10.0803 13.0481 13.6193 9.56323 18.8692 9.56323C47.9372 9.56323 77.0022 9.56323 106.064 9.56323C111.269 9.56323 114.835 13.1652 114.844 18.307C114.844 33.9156 114.844 49.5242 114.844 65.1328C114.844 70.887 111.44 74.2998 105.704 74.3088C91.284 74.3509 76.834 74.3539 62.3541 74.3179ZM90.8997 45.574C87.8831 43.2057 85.0465 41.0716 82.264 38.7843C81.8294 38.3651 81.2668 38.1036 80.6661 38.0416C80.0655 37.9796 79.4613 38.1206 78.9502 38.4421C72.2775 41.936 65.5598 45.3399 58.8961 48.8338C58.5681 49.0869 58.1576 49.2086 57.7447 49.1753C57.3318 49.142 56.9461 48.956 56.6629 48.6537C52.6917 45.1058 48.6845 41.5939 44.6863 38.0819C43.0745 36.6591 41.9848 36.8212 40.8412 38.6402C39.6976 40.4592 38.7251 42.1161 37.5995 43.9712C34.5558 41.1436 31.6652 38.4511 28.7566 35.7767C27.2798 34.4169 26.6764 34.3899 25.0285 35.5875L16.2127 42.0261C13.9164 43.701 13.4122 45.3489 14.4117 48.3296L26.7485 39.3246C29.9633 42.3053 33.0519 45.2139 36.2217 48.0954C37.8786 49.6173 38.9952 49.4552 40.1478 47.5551L43.3626 42.2602C43.9119 42.7285 44.2631 43.0617 44.6954 43.4039C48.2073 46.5196 51.7732 49.5722 55.1861 52.787C56.5729 54.0927 57.7525 53.9937 59.2833 53.1832C65.902 49.6893 72.5747 46.2944 79.1933 42.8095C79.5152 42.5979 79.9016 42.5071 80.2841 42.5533C80.6665 42.5994 81.0202 42.7795 81.2825 43.0617C84.119 45.3489 86.9826 47.5641 89.8552 49.8154C91.7192 51.2652 92.8178 50.995 93.7904 48.9149C95.2762 45.7091 96.7349 42.4943 98.2117 39.2796C99.2383 37.0554 100.274 34.8311 101.346 32.5168L110.882 38.7303C110.949 37.4615 110.949 36.19 110.882 34.9212C110.799 34.3317 110.492 33.7966 110.026 33.4264C107.325 31.5713 104.623 29.8244 101.841 28.0234C100.427 27.1229 99.3464 27.4471 98.599 28.9239C98.1217 29.8244 97.6985 30.8419 97.2753 31.7965L90.8997 45.574ZM50.5035 13.6064C50.5035 15.1913 49.9452 16.7672 51.5211 17.6137C51.8696 17.7474 52.2442 17.799 52.6158 17.7647C52.9875 17.7303 53.3462 17.6109 53.6643 17.4156C54.97 16.443 54.4387 14.9842 54.3396 13.6064H50.5035ZM30.4675 13.6064C30.5846 15.1283 29.9002 16.7042 31.4581 17.5957C31.7991 17.7442 32.1696 17.8125 32.5412 17.7953C32.9127 17.7781 33.2754 17.6759 33.6013 17.4966C35.015 16.506 34.3937 15.0022 34.4297 13.6064H30.4675ZM70.5485 13.6064C70.4585 15.0743 69.9542 16.6141 71.449 17.5416C71.7873 17.7005 72.1579 17.7783 72.5315 17.769C72.9051 17.7596 73.2714 17.6633 73.6012 17.4876C75.042 16.5151 74.4117 15.0022 74.4297 13.6064H70.5485ZM54.4117 70.2656C54.4117 68.7798 54.997 67.24 53.4662 66.3395C53.1486 66.187 52.8009 66.1078 52.4486 66.1078C52.0964 66.1078 51.7486 66.187 51.431 66.3395C49.9542 67.24 50.4585 68.7888 50.5306 70.2296L54.4117 70.2656ZM30.4765 70.3827H32.3405C34.5377 70.3827 34.9249 69.8874 34.4117 67.6812C34.355 67.205 34.1161 66.7692 33.745 66.4653C33.374 66.1614 32.8997 66.013 32.4216 66.0513C32.1828 66.0342 31.9431 66.0649 31.7163 66.1416C31.4895 66.2182 31.2802 66.3393 31.1008 66.4978C30.9214 66.6563 30.7754 66.8489 30.6713 67.0645C30.5672 67.28 30.5071 67.5142 30.4945 67.7532C30.4317 68.6284 30.4256 69.5067 30.4765 70.3827ZM74.4477 70.5628C74.3487 68.7078 75.051 67.0328 73.2681 66.2584C72.6917 66.0063 71.35 66.2584 71.1789 66.5916C70.8113 67.6941 70.5785 68.8371 70.4855 69.9955L74.4477 70.5628ZM90.4855 13.6695C90.6836 15.1013 89.8642 16.6772 91.386 17.5957C91.7197 17.7588 92.0863 17.8435 92.4577 17.8435C92.8291 17.8435 93.1955 17.7588 93.5292 17.5957C94.988 16.6321 94.3486 15.1193 94.2946 13.7145L90.4855 13.6695ZM94.4117 70.3106C94.3396 68.7708 95.051 67.1589 93.4031 66.3215C93.0527 66.1842 92.6753 66.1298 92.3004 66.1626C91.9255 66.1954 91.5632 66.3145 91.2419 66.5106C89.9722 67.5101 90.5665 68.9599 90.5575 70.3106H94.4117Z"
          />
    <path d="M87.5676 92.3819H73.4839C70.9805 92.3819 70.4492 91.8416 70.4402 89.2842C70.4402 86.4386 70.4402 83.5841 70.4402 80.7385C70.4402 78.6313 71.0975 77.974 73.1417 77.965C82.795 77.965 92.4483 77.965 102.102 77.965C104.173 77.965 104.803 78.6313 104.803 80.7565C104.803 83.7101 104.803 86.6638 104.803 89.6174C104.803 91.7425 104.2 92.3639 102.102 92.3729C97.275 92.3819 92.4213 92.3819 87.5676 92.3819ZM100.742 81.9722H84.533C81.5883 81.9722 78.6347 81.9722 75.6901 81.9722C75.2669 81.9722 74.5014 82.4314 74.4834 82.7106C74.3753 84.5116 74.4294 86.3126 74.4294 88.2396H100.715L100.742 81.9722Z"
          />
    <path d="M34.4565 85.2138C34.4563 86.6436 34.0307 88.0409 33.2338 89.228C32.4369 90.4151 31.3048 91.3382 29.9816 91.8799C28.6585 92.4215 27.204 92.5572 25.8035 92.2696C24.403 91.982 23.1197 91.2842 22.117 90.2649C21.1144 89.2457 20.4376 87.9512 20.173 86.5461C19.9084 85.141 20.0679 83.689 20.6311 82.3749C21.1944 81.0608 22.1359 79.9439 23.3359 79.1666C24.5359 78.3893 25.9401 77.9866 27.3696 78.0099C29.2599 78.0406 31.0623 78.8131 32.3881 80.1608C33.7139 81.5085 34.4568 83.3233 34.4565 85.2138Z"
          />
    <path d="M51.2958 92.3278C49.8687 92.3278 48.4738 91.9039 47.288 91.1099C46.1022 90.3159 45.1788 89.1876 44.6352 87.8681C44.0916 86.5486 43.9521 85.0974 44.2345 83.6985C44.5168 82.2996 45.2084 81.0161 46.2213 80.0108C47.2342 79.0055 48.5228 78.3237 49.9238 78.0518C51.3248 77.78 52.7749 77.9304 54.0903 78.4839C55.4057 79.0375 56.527 79.9692 57.312 81.161C58.0971 82.3528 58.5105 83.7508 58.4998 85.1779C58.4855 87.0791 57.7202 88.8976 56.3708 90.237C55.0213 91.5763 53.1971 92.3279 51.2958 92.3278Z"
          />
</svg>
