<svg width="101" height="100" viewBox="0 0 101 100" fill="none" xmlns="http://www.w3.org/2000/svg">
    <path d="M66.0476 71.803L62.2325 67.9422C58.0979 71.2561 53.3091 73.6579 48.1806 74.99C43.052 76.3222 37.6997 76.5544 32.475 75.6715C22.9164 74.2811 14.2885 69.186 8.45532 61.4871C2.69867 54.0879 -0.128389 44.8263 0.514924 35.4736C1.15824 26.121 5.22673 17.3337 11.9422 10.7924C25.9893 -2.87316 44.6831 -1.50737 54.732 3.69639C54.0377 4.1542 53.3587 4.59674 52.6948 5.05455C52.031 5.51236 51.5656 5.90913 50.9704 6.28301C50.6796 6.43133 50.4492 6.67587 50.3184 6.97498C50.1877 7.27409 50.1646 7.60929 50.2531 7.92349C50.2889 8.15604 50.3119 8.39038 50.3219 8.62546C39.7313 4.97062 29.7204 5.78705 20.404 12.204C14.1835 16.4043 9.74349 22.764 7.94406 30.0509C3.90772 45.7766 11.8431 60.8919 26.058 67.1181C29.7785 68.7878 33.7975 69.6903 37.8747 69.7715C41.9519 69.8528 46.0036 69.1113 49.7877 67.5912C57.7307 64.5391 63.4304 58.9844 67.276 51.339C67.6804 52.102 68.039 52.7734 68.3976 53.4449C68.7562 54.1163 69.2903 54.9709 69.7176 55.7339C69.7681 55.8492 69.8582 55.9426 69.9715 55.9972C70.0849 56.0518 70.2141 56.0639 70.3357 56.0315C70.9004 55.9552 71.4726 55.9323 72.1898 55.8713C71.1011 57.9068 69.8346 59.8422 68.4053 61.6549L72.2662 65.5081C72.398 65.4371 72.5254 65.3581 72.6477 65.2716C73.3817 64.717 74.2379 64.3464 75.1447 64.1911C76.0515 64.0358 76.9823 64.1002 77.859 64.3789C78.6837 64.6448 79.4322 65.1054 80.0412 65.7218C82.666 68.2092 85.2552 70.7373 87.8088 73.3061C91.049 76.5668 94.2613 79.8528 97.4456 83.1643C98.2262 83.9684 98.9478 84.8278 99.6049 85.7356C100.177 86.5985 100.483 87.611 100.483 88.6465C100.483 89.6821 100.177 90.6946 99.6049 91.5574C97.3786 94.3993 94.8166 96.9613 91.9748 99.1876C91.2652 99.6592 90.4381 99.9234 89.5865 99.9506C87.5569 100.218 86.0157 99.3783 84.6422 98.0125C81.9335 95.3191 79.1943 92.6714 76.5085 89.9475C73.5556 86.9641 70.6409 83.9426 67.7185 80.9286C67.159 80.3895 66.6249 79.8147 66.1162 79.2042C65.2963 78.2567 64.811 77.0657 64.7351 75.815C64.6593 74.5643 64.9971 73.3233 65.6965 72.2837L66.0476 71.803Z"
          />
    <path d="M85.2984 9.81574C86.2217 10.8534 87.0305 11.7767 87.8622 12.6847C88.2055 13.0585 87.9232 13.3256 87.74 13.585C86.621 15.1874 85.4892 16.7795 84.3447 18.3615C84.2497 18.4618 84.1883 18.5892 84.1692 18.7259C84.15 18.8627 84.1741 19.002 84.2378 19.1245C84.7948 20.3987 85.3366 21.673 85.8478 22.9396C86.0538 23.4737 86.4659 23.5729 86.9389 23.7026C88.732 24.1223 90.5175 24.5724 92.28 24.9845C92.4973 25.0039 92.6984 25.1072 92.8408 25.2724C92.9833 25.4376 93.0558 25.6518 93.043 25.8695C93.0888 26.8462 93.1422 27.8229 93.2338 28.7919C93.2338 29.1887 93.1651 29.3794 92.7684 29.471C90.9142 29.9288 89.0677 30.4324 87.206 30.8673C86.9756 30.8986 86.7601 30.9993 86.5884 31.156C86.4166 31.3128 86.2967 31.5182 86.2446 31.7448C85.8783 33.0063 85.4892 34.2627 85.0771 35.514C85.0073 35.7165 84.9953 35.9344 85.0425 36.1434C85.0897 36.3523 85.1941 36.5439 85.3442 36.6967C86.4505 38.1007 87.5264 39.5351 88.6328 40.9391C88.8443 41.1521 88.9631 41.4401 88.9631 41.7402C88.9631 42.0404 88.8443 42.3284 88.6328 42.5414C88.0071 43.3044 87.4044 44.0674 86.7635 44.8304C86.69 44.8906 86.6028 44.9318 86.5096 44.9505C86.4165 44.9691 86.3203 44.9646 86.2293 44.9373C84.4235 44.0674 82.6279 43.1798 80.8425 42.2743C80.7238 42.1881 80.5809 42.1417 80.4342 42.1417C80.2876 42.1417 80.1446 42.1881 80.026 42.2743C78.7746 43.0984 77.4775 43.8614 76.2109 44.7007C76.1005 44.8094 76.0126 44.9388 75.9524 45.0815C75.8921 45.2243 75.8607 45.3775 75.86 45.5324C75.7913 46.9974 75.7836 48.4624 75.7302 49.9274C75.7002 50.5231 75.6365 51.1167 75.5395 51.7052C75.5237 51.7849 75.4892 51.8597 75.4388 51.9234C75.3884 51.9871 75.3235 52.0378 75.2495 52.0714C74.0668 52.3156 72.8766 52.5369 71.6863 52.7353C71.5922 52.7307 71.5006 52.7033 71.4195 52.6555C71.3384 52.6076 71.2702 52.5407 71.2208 52.4606C70.3815 50.6192 69.5625 48.7727 68.7639 46.9211C68.727 46.7765 68.6435 46.648 68.5263 46.5556C68.4091 46.4632 68.2646 46.412 68.1154 46.4099C66.5893 46.2725 65.1396 46.0665 63.6517 45.9139C63.5462 45.9092 63.4409 45.9264 63.3424 45.9645C63.2439 46.0026 63.1544 46.0607 63.0795 46.1352C61.645 47.6917 60.2233 49.2585 58.8143 50.8354C58.7759 50.8981 58.7242 50.9516 58.6629 50.9923C58.6016 51.0329 58.5321 51.0596 58.4594 51.0705C58.3867 51.0814 58.3124 51.0763 58.2419 51.0554C58.1714 51.0346 58.1063 50.9985 58.0512 50.9498C57.2196 50.4767 56.3649 50.0418 55.5256 49.5764C55.4029 49.5298 55.2905 49.4595 55.1949 49.3695C55.0993 49.2795 55.0224 49.1715 54.9685 49.0518C54.9147 48.932 54.885 48.8028 54.8811 48.6716C54.8772 48.5404 54.8991 48.4096 54.9457 48.2869C55.4646 46.5625 55.93 44.8152 56.4718 43.0908C56.5574 42.8993 56.5791 42.6854 56.5338 42.4807C56.4884 42.276 56.3785 42.0912 56.22 41.9539C55.2281 40.9238 54.3048 39.8327 53.3358 38.7874C53.253 38.7144 53.1561 38.6592 53.0511 38.625C52.9462 38.5909 52.8352 38.5787 52.7253 38.589C50.6652 38.8535 48.6076 39.1333 46.5526 39.4283C46.4758 39.459 46.3932 39.4725 46.3106 39.4677C46.228 39.463 46.1475 39.4402 46.0747 39.4009C46.0019 39.3616 45.9386 39.3067 45.8893 39.2403C45.84 39.1738 45.806 39.0974 45.7896 39.0163C45.5225 38.3067 45.1639 37.6352 44.874 36.9333C44.4314 35.8803 44.4848 35.514 45.408 34.8273C46.5984 33.9499 47.842 33.1334 49.0934 32.3323C49.7801 31.8974 50.2837 31.5235 50.1006 30.5087C49.9351 29.2157 49.856 27.9132 49.864 26.6097C49.858 26.4711 49.8144 26.3368 49.7377 26.2212C49.6611 26.1055 49.5544 26.013 49.4291 25.9535C47.8497 24.9997 46.2779 24.0459 44.7366 23.0311C43.9736 22.5352 43.9736 22.3444 44.2254 21.5051C44.5306 20.5056 44.851 19.5136 45.1867 18.4531C46.7128 18.598 48.1396 18.7277 49.597 18.8803C50.2761 18.9566 50.9628 19.0635 51.6343 19.1855C51.8004 19.2328 51.9777 19.2223 52.137 19.1558C52.2964 19.0893 52.4285 18.9707 52.5118 18.8193C53.3892 17.629 54.2742 16.4387 55.1975 15.2789C55.4188 14.9966 55.3119 14.7982 55.1975 14.5159C54.6074 12.644 54.025 10.7695 53.4502 8.89249C53.3576 8.67366 53.3545 8.42725 53.4415 8.20614C53.5285 7.98504 53.6988 7.80685 53.9157 7.70982C54.6787 7.25201 55.4874 6.74842 56.2657 6.25246C56.3302 6.19628 56.4055 6.15391 56.487 6.12797C56.5685 6.10203 56.6544 6.09308 56.7395 6.10166C56.8246 6.11024 56.9071 6.13617 56.9818 6.17786C57.0565 6.21955 57.1218 6.2761 57.1738 6.34403C58.5828 7.79884 59.9994 9.24602 61.4237 10.6856C61.4903 10.7557 61.571 10.811 61.6604 10.8478C61.7498 10.8846 61.8459 10.9021 61.9426 10.8992C63.3389 10.6016 64.7199 10.243 66.1086 9.94545C66.3043 9.92018 66.4892 9.84122 66.6427 9.71731C66.7962 9.59341 66.9124 9.4294 66.9785 9.24348C67.4134 8.11422 67.833 6.95444 68.2985 5.86333C68.5732 5.19951 68.9165 4.55857 69.237 3.91001C69.3239 3.69674 69.4807 3.51938 69.6818 3.40706C69.8829 3.29475 70.1162 3.25416 70.3434 3.29197C71.2743 3.41405 72.1975 3.55903 73.1208 3.73452C73.6396 3.83371 73.7845 4.28389 73.8227 4.71881C73.96 6.17616 74.0669 7.63352 74.1737 9.09851C74.1737 9.64025 74.0211 10.2964 74.2653 10.6932C74.5095 11.09 75.1885 11.2044 75.6616 11.4562C76.5238 11.914 77.3936 12.3489 78.2253 12.8525C78.4016 12.9836 78.6139 13.0575 78.8335 13.0643C79.0531 13.0711 79.2696 13.0105 79.4537 12.8907C81.4223 11.8606 83.3451 10.8534 85.2984 9.81574ZM68.5655 39.8251C74.3797 40.1455 80.2015 35.1554 80.4304 28.708C80.4735 27.1549 80.2102 25.6085 79.6557 24.1571C79.1011 22.7057 78.2661 21.3778 77.1984 20.2491C76.1307 19.1204 74.8511 18.2131 73.4327 17.579C72.0143 16.9448 70.4848 16.5962 68.9317 16.5532C65.7951 16.4661 62.7524 17.6287 60.4729 19.7851C59.3442 20.8529 58.4369 22.1325 57.8027 23.5509C57.1686 24.9693 56.8201 26.4987 56.777 28.0518C56.8075 34.3085 62.0494 40.0769 68.5655 39.8251Z"
          />
</svg>
