<svg width="75" height="100" viewBox="0 0 75 100" fill="none" xmlns="http://www.w3.org/2000/svg">
    <path d="M48.7939 100H47.905C48.0737 99.7634 48.2625 99.5418 48.4694 99.3378C56.3002 92.7737 60.0912 84.2274 60.7934 74.1834C61.6067 62.6283 57.509 52.6999 50.4693 43.8469C47.9272 40.6515 44.9718 37.785 42.2075 34.7673C43.1719 47.1046 40.4742 58.1441 34.2834 68.9614C33.3679 62.7394 31.1724 57.8019 26.9948 54.0954C24.4883 59.8729 21.9195 65.4949 19.5774 71.2324C17.6175 76.0366 16.7642 81.0364 18.0974 86.2095C19.4796 91.5781 22.435 96.0268 26.2082 99.9866C21.4795 98.9867 16.9197 97.5201 12.9599 94.6536C1.72487 86.525 -0.817279 75.0989 1.03153 62.2106C2.10704 54.7709 5.71579 48.2512 9.60895 41.9404C17.7997 28.6743 26.2927 15.5638 29.6836 0H30.1281C30.3528 0.263497 30.6096 0.497896 30.8924 0.69775C38.613 4.80631 45.7042 10.0012 51.9493 16.1237C67.9486 31.7941 76.5526 50.5 74.615 73.2501C73.7261 83.3563 68.8863 91.2448 59.7401 95.9602C56.2958 97.7334 52.4382 98.6667 48.7939 100Z"
          />
</svg>
