<svg width="67" height="100" viewBox="0 0 67 100" fill="none" xmlns="http://www.w3.org/2000/svg">
    <path d="M12.4962 100C12.1042 99.8309 11.7036 99.6825 11.2961 99.5555C5.10915 97.951 0.917856 92.7019 0.908967 86.2883C0.876373 62.0976 0.876373 37.9054 0.908967 13.7117C0.908967 7.29809 5.10915 2.04454 11.2961 0.444464C11.7036 0.317467 12.1042 0.169107 12.4962 0H16.4964C20.3765 1.01782 24.0522 2.59122 25.959 6.3025C27.1635 8.65372 28.1457 11.4361 28.1813 14.0273C28.3457 38.0284 28.3058 61.9939 28.2613 85.9772C28.2613 93.1241 24.1411 98.031 17.083 99.6933C16.8822 99.7702 16.6923 99.8733 16.5185 100H12.4962ZM24.91 50.1133C24.91 38.1128 24.9367 26.1123 24.91 14.1117C24.91 8.64927 20.7499 3.93351 15.763 3.5246C9.98495 3.05347 5.40696 6.63585 4.47803 12.4672C4.27837 13.931 4.19363 15.4082 4.22465 16.8852C4.22465 39.5469 4.22465 62.2146 4.22465 84.8882C4.22465 91.0129 7.9626 95.8443 13.1139 96.4443C19.5276 97.191 24.9012 92.4441 24.9278 85.8971C24.9456 73.9588 24.91 62.0339 24.91 50.1133Z"
          />
    <path d="M42.7642 42.8019L54.1958 31.6014L66.0585 43.2331L63.8006 45.5843L56.587 37.8817L56.0758 38.1795V67.0297H52.649V38.1173L44.8709 46.2199L42.7642 42.8019Z"
          />
    <path d="M9.47363 20.441V17.4586H19.5629V20.441H9.47363Z" />
    <path d="M19.5897 79.5546V82.5591H9.55811V79.5546H19.5897Z" />
</svg>
