<svg width="93" height="100" viewBox="0 0 93 100" fill="none" xmlns="http://www.w3.org/2000/svg">
    <path d="M10.576 100C7.01366 99.8041 2.98005 98.3902 0.923469 94.0139C-1.13311 89.6375 0.813299 86.0263 3.26161 82.2987C7.50331 75.8474 12.1123 69.5614 12.149 61.1514C12.149 57.9564 13.722 54.7124 14.8544 51.5908C17.7801 43.4991 20.7732 35.4319 23.9009 27.4198C26.7124 20.2177 29.6442 13.0625 32.6964 5.95421C35.2978 -0.129842 45.0359 -2.00281 50.2019 2.45923C55.0128 6.61524 55.5882 10.9304 52.0871 16.537C51.8392 16.9796 51.6343 17.4449 51.475 17.9265C48.6105 25.5162 45.8439 33.1427 42.8631 40.6835C40.0169 47.8938 37.0851 55.0735 33.8961 62.143C32.7454 64.6953 30.6521 66.807 29.1647 69.2247C25.9752 74.3869 23.9531 80.184 23.2398 86.2099C23.044 87.8441 22.8053 89.4784 22.487 91.1065C21.3791 96.6336 17.2782 99.9572 10.576 100ZM11.3961 98.7146C15.3746 99.1982 20.7793 95.3237 21.1894 90.7576C21.4311 87.8672 21.9081 85.0014 22.6155 82.1885C23.4908 78.8833 24.4211 75.5046 25.9575 72.4749C27.8916 68.6739 30.9581 65.4115 32.6903 61.537C36.6627 52.5028 40.1516 43.2481 43.769 34.0608C46.4254 27.328 48.5615 20.3197 51.726 13.8194C53.6295 9.9021 52.5768 7.28241 50.3365 4.48521C46.1622 -0.729694 36.2587 0.727054 33.7247 6.8968C32.4026 10.0918 31.0132 13.2563 29.7768 16.4819C26.8388 24.1329 24.1274 31.8696 21.0302 39.4594C17.6393 47.7714 14.0281 55.9855 12.9324 65.0197C12.44 69.8425 10.5535 74.4175 7.50331 78.1855C5.45285 80.6889 3.87369 83.6086 2.28841 86.4547C-0.888276 92.1226 4.05732 98.6902 11.3961 98.7208V98.7146Z"
    />
    <path d="M79.5756 51.1623V54.186L76.9009 53.1026L77.7761 52.717C77.5864 51.5602 77.7761 49.8831 77.1089 49.3873C76.2704 48.7752 74.7157 49.1302 73.4671 49.069L73.0754 49.9565L71.9001 47.0736H75.5726V43.3216H71.9491L72.9958 40.3224C75.8113 42.8013 75.9643 42.7707 78.4065 39.4288L76.3622 37.5068L79.7347 36.1174C78.7738 38.8473 79.7348 39.4165 81.9076 39.3431C83.9581 39.2757 84.46 38.529 83.6582 36.2276L88.0957 37.5007L84.7966 39.3369L88.1386 42.1158C91.0888 39.6675 91.2418 39.6675 91.9457 43.0829C88.1569 43.0462 88.1569 43.0461 88.971 47.1287L92.3925 46.8104L90.8501 49.7545L88.1753 48.2549L84.864 50.7645L87.9243 52.7292L84.1111 54.2043C84.8028 49.9749 82.1096 50.9664 79.5756 51.1623ZM81.6199 49.7117C84.5824 49.828 87.2327 47.8326 87.3674 45.3904C87.4837 43.1747 84.613 40.5366 82.0607 40.4938C79.239 40.4938 77.164 42.2321 76.9926 44.7783C76.7845 47.6673 78.6085 49.5954 81.6199 49.7178V49.7117Z"
    />
    <path d="M55.1353 31.08C55.9432 26.2997 59.2239 24.5124 62.4802 23.0067C66.8259 20.9929 71.2757 22.2844 74.0484 25.9202C76.0805 28.5827 75.2726 31.0922 71.9062 31.6431C68.9804 32.1205 66.4342 32.8673 64.1512 34.9789C63.3707 35.7677 62.3186 36.229 61.2097 36.2688C60.1008 36.3086 59.0184 35.9239 58.1834 35.1932C56.9164 34.1037 56.1329 32.4694 55.1353 31.08ZM66.8994 23.5392C62.676 23.2454 59.6585 25.7121 57.5162 29.1091C56.9409 30.0211 57.6386 32.1695 58.3915 33.3937C59.432 35.0524 60.9316 35.1687 62.8964 34.0057C65.5495 32.554 68.3504 31.3905 71.2512 30.5353C73.3752 29.8375 73.8954 28.699 72.959 26.8628C71.7654 24.4634 69.6966 23.5025 66.8994 23.5392Z"
    />
    <path d="M59.0588 61.5065L56.6472 59.1989C57.5409 58.2992 58.2937 57.1056 59.371 56.5793C60.5635 55.9786 61.9188 55.781 63.2332 56.0161C63.8055 56.1926 64.3323 56.4923 64.7764 56.8941C65.2205 57.2959 65.5713 57.7901 65.8039 58.342C65.9814 58.899 64.6593 60.3191 63.729 60.7536C62.5905 61.2984 61.1582 61.1882 59.0588 61.5065ZM62.413 56.72L58.6487 59.0092C59.1812 59.352 59.8055 60.0681 60.234 59.9702C61.7052 59.5478 63.1502 59.0389 64.5614 58.4461L62.413 56.72Z"
    />
    <path d="M55.7228 47.1961C55.7901 50.942 54.162 53.678 52.2707 53.3658C51.1689 53.1822 49.6204 52.007 49.3939 51.0154C48.8369 48.6161 51.2301 45.2374 53.0113 45.5067C54.1253 45.7148 55.0985 46.7921 55.7228 47.1961ZM55.2331 48.3468L53.0725 46.8594C52.2179 47.9984 51.4526 49.2016 50.7833 50.4584C50.6364 50.7767 51.5239 51.5663 51.9402 52.1417L55.2331 48.3468Z"
    />
    <path d="M64.6041 54.0942C62.1558 53.5433 60.3196 51.0338 60.3196 48.4263C60.3196 46.4126 61.5437 45.7577 63.3249 45.8556C65.106 45.9535 67.1932 48.916 66.7954 51.2357C66.624 52.2824 65.3631 53.1454 64.6041 54.0942ZM63.7166 46.9022L62.5965 46.9757C62.3088 47.5878 61.6172 48.3712 61.7947 48.7079C62.5528 49.9671 63.3953 51.1737 64.3165 52.3191C64.6898 51.8539 65.4672 51.2664 65.3754 50.942C64.896 49.5637 64.336 48.2148 63.6983 46.9022H63.7166Z"
    />
    <path d="M27.9283 56.5792C22.4991 56.5792 19.9039 53.3658 21.3484 49.5342C24.4823 41.2344 27.9344 33.0571 31.1417 24.8001C32.4944 21.348 33.541 17.7857 34.8937 14.3336C35.5498 12.6372 36.422 11.0325 37.4889 9.55939C39.264 7.14781 42.6916 6.86625 45.2378 8.70249C48.2186 10.857 48.5798 12.7912 46.615 15.9311C46.3674 16.3632 46.1624 16.8182 46.0029 17.2899C43.1078 24.9348 40.2494 32.5919 37.3175 40.2306C35.6833 44.5152 34.2143 48.867 32.1087 52.9006C31.16 54.7185 28.8403 55.8203 27.9283 56.5792ZM46.4804 12.075C45.195 11.0039 44.1055 9.53492 42.6793 9.01465C40.6534 8.31689 38.7926 9.23499 37.9235 11.3773C34.6591 19.3996 31.4253 27.43 28.2221 35.4687C26.294 40.3041 24.3292 45.1334 22.5909 50.0422C21.5994 52.8394 23.203 54.994 26.0982 55.1653C29.2565 55.3551 30.6459 53.1516 31.6069 50.7094C34.7713 42.4892 37.8072 34.22 40.9165 25.9753C41.1614 25.3633 41.6633 24.794 41.9081 24.1391C43.3649 20.3687 44.7971 16.5065 46.4804 12.0812V12.075Z"
    />
    <path d="M16.3358 89.0927C16.3358 91.3512 14.3037 93.1324 11.733 93.1507C9.39483 93.1507 6.94652 90.9411 7.03222 88.8662C7.11791 86.7913 9.33362 84.9673 11.7881 85.0285C14.4139 85.1019 16.3481 86.8157 16.3358 89.0927ZM11.5432 86.5587L10.5945 86.1057C10.0498 87.2381 9.11327 88.3704 9.10715 89.5089C9.10715 90.2556 10.4843 91.6695 11.1699 91.6205C12.519 91.4819 13.7771 90.8756 14.726 89.9067C15.1606 89.4416 14.4873 87.9481 14.3159 86.9137L13.4652 86.9504L11.7758 89.4599L11.3106 89.3069L11.5432 86.5587Z"
    />
    <path d="M66.1589 31.1045L62.4314 27.4871C63.6556 26.6363 65.0021 24.9592 66.0549 25.1306C67.5361 25.3754 68.7909 26.9668 70.1436 28.0196L66.1589 31.1045Z"
    />
    <path d="M42.9855 11.72L26.6859 52.9802C26.1778 48.9772 40.4148 12.834 42.9855 11.72Z"/>
</svg>
