<svg width="101" height="100" viewBox="0 0 101 100" fill="none" xmlns="http://www.w3.org/2000/svg">
    <path d="M64.7882 80.3707C71.2024 81.6019 75.8565 78.2848 75.9707 72.4672C76.1104 65.2322 76.0342 57.993 76.0469 50.7538C76.0469 48.6383 76.0469 46.5228 76.0469 44.4073C76.0726 44.0919 76.0064 43.7758 75.8562 43.4972C75.706 43.2186 75.4784 42.9895 75.2007 42.8376C73.576 41.8476 72.844 40.3371 72.8398 38.4628C72.8398 34.5618 72.8398 30.6609 72.8398 26.7599V25.9137L71.2743 25.7487C71.2743 24.8094 71.249 23.9209 71.2955 23.0366C71.2955 22.8801 71.5832 22.6474 71.7694 22.6135C72.7806 22.4147 72.844 22.3766 72.844 21.3442C72.844 18.2895 72.844 15.2333 72.844 12.1757V11.3295H75.9834V0.15125H79.3132V11.2787H82.5203V22.4993L84.0054 22.6516V25.7614L82.5838 25.8841C82.5838 26.1464 82.5457 26.3749 82.5457 26.6034C82.5457 30.4112 82.5457 34.2191 82.5711 38.027C82.5711 40.1425 81.8814 41.873 79.9775 43.0069C79.6967 43.24 79.4932 43.5527 79.3936 43.9038C79.3284 44.181 79.3127 44.4674 79.3471 44.75C79.3471 53.7987 79.3471 62.8474 79.3471 71.896C79.3471 75.2004 78.3993 78.1494 76.0427 80.5399C73.686 82.9304 70.8301 83.8739 67.5553 83.8062C66.7091 83.8062 65.8629 83.8062 64.9575 83.8062C64.9575 83.9205 64.9194 84.1278 64.9194 84.3309C64.9194 87.1515 64.9194 89.9722 64.9194 92.7928C64.9194 93.1609 64.8771 93.4825 65.4398 93.4698C68.4904 93.3852 71.5494 93.3936 74.5957 93.2498C83.2396 92.8479 90.8384 85.7779 91.8835 77.1721C92.0714 75.6277 92.1689 74.0737 92.1754 72.518C92.2177 63.2564 92.2093 53.999 92.2473 44.7374C92.2877 44.3113 92.2007 43.8828 91.9973 43.5062C91.794 43.1296 91.4834 42.8218 91.105 42.6219C89.4887 41.6657 88.9514 40.0833 88.9472 38.2978C88.9472 34.3249 88.9472 30.352 88.9472 26.3833C88.9472 26.2437 88.9472 26.1041 88.9175 25.9602C88.8371 25.9189 88.7518 25.8877 88.6637 25.8672C87.3944 25.7318 87.3944 25.7318 87.3944 24.4709C87.3944 23.9294 87.3944 23.392 87.3944 22.8505C87.4112 22.7853 87.4369 22.7226 87.4705 22.6643L88.8879 22.5289V11.3634H92.1331V0.100479H95.3909V11.2491H98.6784V12.0699C98.6784 15.2686 98.6996 18.4629 98.6784 21.6573C98.6784 22.3554 98.8392 22.6685 99.5627 22.5924C99.7799 22.591 99.9967 22.6108 100.21 22.6516V25.7529L98.6953 25.8841C98.6953 26.1676 98.6953 26.4383 98.6953 26.7091C98.7094 30.4465 98.725 34.1825 98.7419 37.917C98.7419 40.1087 98.0438 41.9195 96.0298 43.0534C95.8237 43.1914 95.6737 43.3985 95.6067 43.6373C95.5142 44.0252 95.4715 44.4233 95.4798 44.822C95.4798 54.1753 95.4798 63.53 95.4798 72.8861C95.4798 76.2032 95.2006 79.4737 93.872 82.5454C90.3349 90.7324 84.1831 95.5388 75.2557 96.4738C72.4379 96.77 69.5777 96.6388 66.7387 96.7065C66.2705 96.6767 65.8005 96.7022 65.3383 96.7827C64.9148 96.8646 64.534 97.0939 64.2636 97.43C63.1889 99.3932 61.4627 100.002 59.3726 99.9982C49.8557 99.9756 40.3374 99.9601 30.8177 99.9517C22.7577 99.9517 14.6976 100.011 6.63339 99.9982C5.60436 99.9837 4.58111 99.8416 3.58708 99.5751C1.88622 99.1309 0.27422 97.0408 0.278451 95.0141C0.323581 64.977 0.334864 34.937 0.312299 4.89418C0.305599 4.2594 0.424492 3.62956 0.662136 3.04091C0.899781 2.45225 1.25149 1.9164 1.69701 1.46419C2.14254 1.01198 2.67309 0.652334 3.25814 0.40595C3.8432 0.159565 4.47119 0.0313056 5.106 0.0285518C6.93802 -0.00106504 8.77003 0.00316594 10.6063 0.00316594C26.7066 0.00316594 42.8069 0.00316594 58.9072 0.00316594C59.4932 -0.0115841 60.0793 0.0252262 60.6588 0.113171C63.2524 0.57858 64.6698 2.22866 64.784 4.87303C64.784 5.13112 64.784 5.38921 64.784 5.6473C64.784 30.2547 64.784 54.8635 64.784 79.4737L64.7882 80.3707ZM61.5685 50.0218C61.5685 35.3347 61.5685 20.6475 61.5685 5.96039C61.5685 3.64181 61.1961 3.26948 58.8649 3.26948H6.33722C3.89594 3.26948 3.57862 3.58681 3.57862 6.02385C3.57862 35.3305 3.57862 64.6357 3.57862 93.9394C3.57862 94.1764 3.57862 94.4091 3.57862 94.646C3.62516 96.148 4.00172 96.5542 5.49102 96.6769C5.77027 96.6981 6.05374 96.7023 6.33722 96.7023H58.7168C61.2554 96.7023 61.5642 96.3807 61.5642 93.876C61.5642 79.2565 61.5642 64.6385 61.5642 50.0218H61.5685ZM79.2413 25.8587C78.3951 25.8587 77.6462 25.9052 76.9016 25.8587C76.2204 25.8037 76.0807 26.0703 76.085 26.7049C76.1104 30.5339 76.085 34.3672 76.085 38.1963C76.0833 38.5001 76.1203 38.8029 76.195 39.0975C76.2591 39.4491 76.453 39.7639 76.7382 39.9794C77.0234 40.1949 77.3792 40.2954 77.7351 40.261C78.08 40.2767 78.4184 40.1623 78.6832 39.9406C78.9479 39.7189 79.1199 39.406 79.1651 39.0636C79.2516 38.6746 79.2956 38.2774 79.2963 37.8789C79.2963 34.2375 79.2963 30.5946 79.2963 26.9503C79.3132 26.6076 79.2667 26.2818 79.2371 25.8587H79.2413ZM92.3193 25.8587C92.3193 26.1083 92.2685 26.2818 92.2685 26.468C92.2685 30.462 92.2685 34.4561 92.2685 38.4501C92.265 38.614 92.272 38.7779 92.2896 38.9409C92.319 39.2676 92.4622 39.5737 92.6942 39.8056C92.9262 40.0376 93.2322 40.1808 93.5589 40.2102C93.9101 40.2897 94.2783 40.2331 94.5892 40.0517C94.9002 39.8703 95.1308 39.5776 95.2344 39.2328C95.3391 38.8483 95.389 38.4509 95.3825 38.0524C95.3825 34.528 95.3825 31.0036 95.3825 27.4749C95.4078 27.0997 95.3979 26.7229 95.3529 26.3495C95.3148 26.1591 95.0863 25.8714 94.9298 25.8629C94.0793 25.8375 93.2162 25.8587 92.315 25.8587H92.3193ZM76.2077 14.6212V22.4528H79.199V14.6212H76.2077ZM95.2471 14.6212H92.3362V22.4612H95.2471V14.6212Z"
          />
    <path d="M32.6625 80.6288C22.8551 80.6288 14.6766 72.5434 14.7951 62.9645C14.9178 53.0428 22.7705 45.1351 32.4933 45.1309C34.8517 45.1369 37.1856 45.6096 39.3605 46.5219C41.5353 47.4341 43.5081 48.7678 45.1651 50.446C46.8221 52.1243 48.1305 54.1139 49.015 56.3002C49.8995 58.4864 50.3424 60.8262 50.3184 63.1845C50.1619 72.6576 42.2161 80.6246 32.6625 80.6288ZM38.1628 49.6707C33.8387 47.441 26.7392 47.8429 21.8058 53.1951C17.2025 58.2004 17.3887 65.4184 19.3772 68.4563L38.1628 49.6707ZM26.9888 76.144C31.7952 78.8941 39.5421 77.0706 43.6165 72.2303C47.691 67.3901 47.8095 60.4555 45.732 57.2865L26.9888 76.144ZM23.3501 73.9608L43.7392 53.5717L41.7338 51.5958L21.3108 72.0188L23.3501 73.9608Z"
          />
    <path d="M55.0525 11.3845V33.7326H10.1152V11.3845H55.0525ZM13.335 30.5678H51.7693V14.6255H13.335V30.5678Z"
          />
    <path d="M13.111 91.8451H6.87878V88.7354H13.111V91.8451Z" />
    <path d="M51.9812 88.7354H58.2304V91.807H51.9812V88.7354Z" />
    <path d="M18.6496 45.8036L20.5197 47.9191L17.4691 50.9612L15.6541 48.9641L18.6496 45.8036Z" />
    <path d="M47.4838 50.8597L44.6194 47.8388L46.701 45.8248L49.6331 48.9515L47.4838 50.8597Z" />
    <path d="M20.5617 77.8786L18.6493 79.9603L15.6326 76.8209L17.5407 75.0227L20.5617 77.8786Z" />
    <path d="M49.5274 76.8505L46.6503 79.8122L44.6871 77.9337L47.6488 74.8408L49.5274 76.8505Z" />
    <path d="M31.0586 82.2745H34.0711V85.3505H31.0586V82.2745Z" />
    <path d="M34.1217 40.3962V43.4637H31.05V40.4174L34.1217 40.3962Z" />
    <path d="M51.9727 61.3821H55.074V64.4115H51.9727V61.3821Z" />
    <path d="M13.1488 61.3948V64.3945H10.1025V61.3948H13.1488Z" />
    <path d="M26.0027 27.3861H23.041V17.8368H26.0027V27.3861Z" />
    <path d="M16.5846 17.8282H19.5928V27.348H16.5846V17.8282Z" />
    <path d="M45.5205 17.8198H48.6261V20.8492H45.5205V17.8198Z" />
    <path d="M48.6469 27.3567H45.5371V24.3062H48.6469V27.3567Z" />
    <path d="M32.4422 20.8958H29.4805V17.8411H32.4422V20.8958Z" />
</svg>
