<svg width="101" height="100" viewBox="0 0 101 100" fill="none" xmlns="http://www.w3.org/2000/svg">
    <path d="M58.2104 100H5.88088C5.79331 99.9625 5.70237 99.9336 5.60929 99.9134C3.43349 99.6538 1.8367 98.5525 0.914451 96.5647C0.629589 95.8362 0.394267 95.0894 0.210083 94.3292C0.210083 94.1302 0.210083 93.9313 0.210083 93.7323C0.245287 93.6599 0.272321 93.5838 0.290674 93.5054C0.684645 90.288 2.97684 88.1689 6.22113 88.0466C6.89267 88.0227 7.5672 88.0466 8.31037 88.0466V62.6772H8.9073C12.2889 62.6563 15.6705 62.6384 19.055 62.6086C19.6492 62.6242 20.2348 62.4648 20.7389 62.1501C21.2431 61.8354 21.6435 61.3793 21.8904 60.8387C22.1731 60.3163 22.302 59.7246 22.2624 59.132C22.2228 58.5393 22.0162 57.9701 21.6666 57.4899C20.9174 56.3826 19.7893 56.0334 18.5148 56.0275C15.0825 56.0275 11.6502 56.0096 8.22084 55.9708C7.04788 55.9708 5.83313 55.9887 4.71091 55.7469C1.86059 55.1351 -0.0286954 52.2549 0.332445 49.2852C0.506279 47.8821 1.17615 46.5874 2.22105 45.6351C3.26594 44.6827 4.61697 44.1353 6.03011 44.0919C6.7703 44.0919 7.52243 44.0919 8.30738 44.0919V18.7017H8.95206C12.0203 18.7017 15.0875 18.7017 18.1537 18.7017C18.5532 18.7012 18.9521 18.6722 19.3475 18.6151C20.01 18.5306 20.6317 18.2485 21.1316 17.8056C21.6315 17.3626 21.9864 16.7794 22.1501 16.1319C22.2951 15.4981 22.2539 14.8358 22.0315 14.2248C21.8091 13.6138 21.415 13.08 20.8965 12.6877C20.1325 12.1445 19.258 12.0251 18.3447 12.0191C14.217 11.9982 10.0892 12.0191 5.96446 11.9236C4.53235 11.8802 3.1659 11.3129 2.12404 10.3294C1.08219 9.34586 0.437309 8.01432 0.311568 6.58708C0.0847366 3.44725 2.10234 0.752126 5.11383 0.167139C5.46601 0.0984926 5.82417 0.056708 6.17934 0H76.2196L77.2284 0.194001C78.6014 0.446831 79.8407 1.1771 80.7272 2.25564C81.6136 3.33417 82.09 4.69146 82.0722 6.08742C82.0543 7.48337 81.5433 8.82802 80.6296 9.88352C79.7158 10.939 78.4582 11.6373 77.0792 11.8549C76.1032 12.0012 75.1094 12.0072 74.0289 12.0848C74.0289 12.5354 74.0289 12.9802 74.0289 13.4278C74.0289 20.0597 74.0289 26.6886 74.0558 33.3204C74.0671 33.7323 73.9965 34.1423 73.8479 34.5266C73.6993 34.9109 73.4757 35.2618 73.1902 35.5589C67.1523 42.1549 61.5024 49.0613 56.5868 56.5468C54.1632 60.2328 51.9725 64.0412 50.2892 68.1331C48.6058 72.225 47.7851 76.4901 48.388 80.9461C49.3789 88.2615 52.5814 94.4098 58.1507 99.2926C58.3417 99.4628 58.5297 99.6359 58.7476 99.8239L58.2104 100Z"
          />
    <path d="M78.3239 99.8508C67.7404 99.8508 58.4164 92.0639 56.5003 81.6446C55.6915 77.2453 56.4346 73.0996 58.3209 69.0853C60.9148 63.6556 64.1514 58.5572 67.9613 53.8995C70.9041 50.2493 73.9305 46.6588 76.9152 43.0444C76.9987 42.9429 77.0883 42.8444 77.1778 42.7459C78.1627 41.7073 78.894 41.6804 79.8341 42.7668C82.198 45.4978 84.5767 48.2168 86.857 51.0163C90.688 55.6569 94.1017 60.6267 97.0584 65.8678C98.8223 69.0405 100.273 72.3475 100.804 75.9619C101.016 77.5724 100.954 79.2073 100.619 80.797C100.017 84.1803 98.7304 87.405 96.8376 90.2732C93.5545 95.15 88.9581 98.0869 83.2456 99.2838C81.6309 99.621 79.9625 99.7523 78.3388 99.9792L78.3239 99.8508ZM81.2697 91.7476C80.8758 91.4491 80.5027 90.9954 80.043 90.879C78.5569 90.5401 77.1204 90.0114 75.7691 89.3061C68.8298 85.4888 65.2035 79.6598 65.1527 71.6968C65.1751 71.4164 65.129 71.1347 65.0184 70.8761C64.8692 70.6164 64.5737 70.2612 64.3499 70.2791C64.1886 70.3144 64.0363 70.3827 63.9027 70.4798C63.7691 70.5769 63.6572 70.7006 63.5739 70.8432C63.2787 71.3798 63.0146 71.9328 62.783 72.4997C60.9564 76.4275 61.219 80.3433 63.0426 84.1547C65.4035 89.0913 71.3578 94.2069 79.6312 92.7862C80.2938 92.6489 80.8459 92.4609 81.2697 91.7476Z"
          />
</svg>
