<svg width="67" height="100" viewBox="0 0 67 100" fill="none" xmlns="http://www.w3.org/2000/svg">
    <path d="M42.5308 73.919L50.2187 76.62L48.2302 77.0584C49.2558 78.8982 51.3617 80.9336 50.939 82.241C49.9962 85.6021 48.3675 88.7315 46.1556 91.4321C38.3268 100.521 24.5011 102.565 13.6426 96.6695C3.28509 91.0406 -1.61574 79.4462 2.23603 67.1393C4.38895 60.2656 7.77099 53.6816 11.2783 47.3403C17.5413 36.0981 24.0705 25.0674 26.9359 12.1107C27.1959 13.5649 27.5595 14.9986 28.0241 16.4009C31.1008 23.9713 34.0131 31.6201 37.5126 38.9948C39.3602 42.9092 39.3132 46.6435 38.9374 50.644C38.7339 52.8439 38.3111 55.216 38.9374 57.2202C39.3288 58.4885 41.4661 59.2087 43.2824 60.5161C39.4541 64.3679 39.9082 69.1748 42.6796 74.0521C41.9236 73.1778 41.0729 72.39 40.143 71.7035C38.892 70.8588 37.3976 70.4494 35.8907 70.5385C34.3838 70.6277 32.9481 71.2104 31.8054 72.1967C29.0575 74.3653 28.1024 79.0391 29.6681 82.5307C31.0382 85.5918 33.4886 87.228 36.7923 86.8287C38.4426 86.7283 39.999 86.0269 41.1674 84.8571C42.3358 83.6873 43.0353 82.13 43.1336 80.4796C43.3215 78.2875 42.75 76.0876 42.5308 73.919ZM24.4072 67.6012C24.4072 62.7474 21.5732 59.5532 17.2595 59.6237C12.9458 59.6941 9.82996 63.2797 9.90825 68.0709C9.98654 72.5099 12.9928 75.8527 16.9542 75.8997C21.2443 76.0172 24.3837 72.4942 24.4072 67.6012ZM35.618 60.1404L34.9604 59.287C33.8957 59.8507 32.3456 60.1325 31.8289 61.0172C27.0063 69.4253 22.356 77.9352 17.6588 86.4216L18.2694 87.2436C19.3341 86.6721 20.8686 86.3746 21.4009 85.4822C26.2391 77.0897 30.9051 68.5955 35.618 60.1325V60.1404Z"
          />
    <path d="M51.4791 78.3659C59.0417 75.1247 60.8737 72.1028 60.2395 63.7025L65.5318 63.2328L65.7745 61.9097L58.7756 61.0173L60.3961 59.6864L56.6774 58.6216L61.1477 57.1107L56.3721 55.8659L60.5918 54.535L57.3899 53.7521L57.2959 53.0789L60.5918 51.9985L56.5913 50.5971L61.2886 49.2584L57.8909 48.4286V47.9432L66.5496 47.5361C63.5355 44.4046 60.4509 46.44 57.703 45.1874L60.7249 44.1854L56.7401 42.7605L61.1947 41.4922L56.4269 40.2631L60.4822 38.8853L56.286 37.5622L61.3199 36.2704L56.7323 35.0648L61.0537 33.5773L57.9222 32.7945V32.3795L65.751 31.7845V30.3362L56.8888 29.6943L60.8032 28.5982L57.0689 27.0325L60.9833 25.819L56.6461 24.5977L60.1378 23.1102L56.4504 21.842L60.8345 20.7225L56.9828 19.1958L61.0459 17.8336L57.9144 17.1134L57.8596 16.6593L65.7589 16.0565L65.6884 14.5299L57.2881 14.0758C57.2881 11.3592 57.9144 8.45474 57.108 6.03564C56.3721 3.81227 54.0939 2.12125 52.4108 0.0857595C55.965 0.0857595 60.0751 -0.203906 64.0913 0.281479C65.1482 0.40674 66.6983 2.91978 66.7061 4.34462C66.8705 27.9563 66.8392 51.5757 66.7766 75.1952C66.7611 76.347 66.3831 77.4646 65.6962 78.3894C63.7234 80.7145 53.9765 80.6284 51.4791 78.3659Z"
          />
    <path d="M39.2349 17.0586L44.9342 14.021L39.4541 11.5158L44.7072 9.8796C45.0282 7.31958 44.8638 4.10195 49.7176 4.55602C52.9979 4.86134 53.9452 5.86343 53.9295 8.98711C53.8277 24.6447 53.7964 40.3023 53.9765 55.8973C54.1349 58.5161 54.8304 61.0743 56.0198 63.4129C57.5856 66.7401 57.1315 70.7172 54.3914 73.0266C52.949 74.1606 51.158 74.7593 49.3236 74.7207C47.4892 74.6822 45.7249 74.0088 44.3314 72.8153C43.061 71.5836 42.2508 69.9539 42.0358 68.1976C41.8207 66.4412 42.2136 64.6642 43.1493 63.1624C44.0026 61.7297 44.6524 60.1718 45.4979 58.5356L40.0804 57.1733L40.19 56.0225L44.4645 55.3727C44.6289 53.2041 44.6289 53.2041 40.0725 51.4583C41.0768 51.198 42.0649 50.8791 43.0318 50.5032C43.7059 50.1256 44.3429 49.6853 44.9342 49.188C44.3685 48.6753 43.7366 48.2408 43.0553 47.8962C42.1324 47.6498 41.1891 47.4874 40.2369 47.4108L40.0647 46.3539C40.9601 46.1152 41.841 45.825 42.703 45.485C43.4777 45.0633 44.2232 44.5899 44.9342 44.0679C44.3012 43.5936 43.6219 43.1844 42.9066 42.8466C42.0219 42.5257 41.0511 42.4317 40.0569 41.367C40.7771 41.1087 41.5209 40.8973 42.2176 40.5841C43.1414 40.177 44.0417 39.6916 44.9499 39.2376C43.9791 38.7365 43.024 38.1807 42.0219 37.7501C41.2108 37.5445 40.5066 37.0415 40.0491 36.3409C41.1721 36.0769 42.2801 35.7528 43.3685 35.3701C43.9464 35.0342 44.4736 34.6177 44.9342 34.1332C44.4507 33.6724 43.9085 33.2775 43.3215 32.9589C42.2294 32.5798 41.1189 32.2558 39.9943 31.9881L40.2291 30.8921L44.7228 30.2893C45.5918 25.8425 40.9181 29.021 40.1352 26.5236L45.2161 24.175L44.6837 23.1729L40.1039 22.3195V21.0904C41.0723 20.927 42.0293 20.7022 42.9692 20.4172C43.6608 20.0813 44.3188 19.6802 44.9342 19.2193C44.3742 18.6859 43.7448 18.2304 43.0631 17.865C41.8071 17.5083 40.528 17.2389 39.2349 17.0586ZM52.1524 39.6916V6.45841H46.774V39.6916H52.1524Z"
          />
    <path d="M21.0014 67.9379L17.087 72.2751C16.2494 70.7093 14.7384 69.1435 14.7384 67.6404C14.7384 66.1373 16.359 64.6968 17.2671 63.225L21.0014 67.9379Z"
          />
    <path d="M39.8219 78.3658L36.3224 83.1727C35.4378 81.7243 33.8798 80.2838 33.8485 78.812C33.8172 77.3402 35.2342 75.6805 36.0171 74.1147L39.8219 78.3658Z"
          />
</svg>
