<svg width="121" height="100" viewBox="0 0 121 100" fill="none" xmlns="http://www.w3.org/2000/svg">
    <path d="M111.903 85.3844C114.513 85.3844 116.924 85.3844 119.329 85.3844C120.896 85.3844 121.114 85.5763 120.954 87.0475C120.64 89.9642 119.674 92.5483 116.93 94.2497C115.448 95.101 113.751 95.5073 112.044 95.4202H72.4952C72.4952 96.4692 72.4568 97.4479 72.4952 98.4201C72.5527 99.5203 72.1434 100 70.9153 100C48.1018 100 25.2883 100 2.47474 100C1.37458 100 0.88846 99.6354 0.894857 98.5416C0.894857 93.2839 0.709364 88.0197 0.952423 82.7747C1.31701 74.7218 5.57056 69.0355 13.1886 65.6262C15.7471 64.4813 18.3056 63.3108 20.8641 62.185C21.3525 61.9792 21.8757 61.8684 22.4057 61.8588C24.3245 61.8204 26.2434 61.8588 28.2967 61.8588C28.2967 59.3003 28.3414 56.8185 28.2455 54.3623C28.2455 54.0361 27.5675 53.6459 27.1325 53.4349C22.3481 51.1258 18.747 47.7102 16.8281 42.9001C16.0541 40.9812 15.7855 38.8321 15.3569 36.7789C15.2944 36.2626 15.2944 35.7408 15.3569 35.2245C14.2056 34.6297 13.1758 34.3227 12.4786 33.6831C11.3848 32.6852 11.4424 27.0629 12.5297 26.0459C13.1694 25.4702 14.0521 25.1887 15.0883 24.6387C15.0883 24.1014 15.0883 23.2699 15.0883 22.4447C15.0883 19.9374 15.0371 17.4236 15.0883 14.9163C15.1066 14.6086 15.1869 14.3079 15.3243 14.032C15.4617 13.7561 15.6534 13.5108 15.8878 13.3108C20.0881 10.1809 24.3245 7.09358 28.5973 4.04894C29.0838 3.76684 29.6288 3.6005 30.19 3.56281C30.7969 3.52194 31.4059 3.52194 32.0129 3.56281C32.5886 0.479789 33.1898 -0.00633457 36.3304 6.17366e-05H39.2024C42.0487 6.17366e-05 42.7971 0.639691 43.1425 3.3965C43.31 3.48085 43.4927 3.5309 43.6798 3.54364C45.4899 3.26221 46.8268 4.07453 48.1572 5.09154C51.7519 7.79931 55.3914 10.4538 59.0757 13.055C59.4628 13.2949 59.7751 13.6382 59.9774 14.0462C60.1797 14.4542 60.2639 14.9107 60.2206 15.364C60.1503 18.1528 60.2206 20.9416 60.2206 23.724C60.2206 24.1142 60.2526 24.498 60.2846 25.0544H66.8088C69.7575 25.0544 70.6466 25.9307 70.6466 28.7899C70.6466 29.7045 70.6466 30.6192 70.6466 31.5403C70.6466 33.6383 69.5337 34.7384 67.3525 34.7384C64.6085 34.7704 61.8581 34.7384 59.1077 34.7384C58.7047 34.7384 58.2954 34.7832 57.8284 34.8088L57.5342 38.8641H106.479C110.451 38.8641 111.877 40.2329 111.877 44.0387C111.877 57.4198 111.877 70.8008 111.877 84.1819C111.903 84.5209 111.903 84.8727 111.903 85.3844ZM118.939 87.2138H72.5015C72.5015 87.7895 72.5015 88.2628 72.5015 88.7297C72.4568 89.4781 72.7702 90.5718 71.5357 90.559C70.3012 90.5462 70.6594 89.5036 70.6466 88.7872C70.6466 87.1178 70.6466 85.442 70.6466 83.7726C70.6466 76.097 66.3675 70.0205 58.9414 66.995C56.6131 66.0484 54.3488 64.9354 52.0462 63.9376C51.5962 63.7397 51.1113 63.6331 50.6198 63.6242C41.3792 63.6242 32.1387 63.6242 22.8982 63.6242C22.3654 63.6325 21.8394 63.7454 21.3503 63.9568C18.7917 65.0505 16.2716 66.1443 13.7706 67.3085C6.83703 70.5066 3.00564 75.7835 2.80096 83.2225C2.67943 87.7574 2.80096 92.2988 2.80096 96.8402C2.80096 97.2624 2.83933 97.6781 2.86492 98.1195H14.116C14.116 97.5886 14.116 97.16 14.116 96.7251C14.116 91.608 14.116 86.4718 14.116 81.3164C14.0575 80.9625 14.0771 80.6001 14.1736 80.2546C14.2632 80.0883 14.3862 79.9423 14.5348 79.8257C14.6833 79.709 14.8543 79.6242 15.0371 79.5766C15.2738 79.5382 15.6767 79.8772 15.8302 80.1458C15.9601 80.5193 16.0081 80.9163 15.971 81.31C15.971 86.4867 15.971 91.6635 15.971 96.8402C15.971 97.2666 15.971 97.6931 15.971 98.1195H57.4958C57.4958 97.595 57.4958 97.16 57.4958 96.7315C57.4958 91.6144 57.4958 86.4782 57.4958 81.3228C57.4383 80.9692 57.4558 80.6074 57.547 80.261C57.6941 79.9668 58.0843 79.6214 58.3721 79.6214C58.6599 79.6214 59.0117 79.986 59.2164 80.261C59.4211 80.536 59.2676 80.9006 59.2676 81.2012C59.2676 86.378 59.2676 91.5547 59.2676 96.7315C59.2676 97.192 59.2676 97.6525 59.2676 98.1579H70.6083C70.6083 97.2624 70.6083 96.4373 70.6083 95.5993C70.6083 94.0067 70.9664 93.6804 72.6806 93.6804H111.762C112.223 93.6804 112.677 93.6804 113.137 93.6804C114.749 93.5501 116.249 92.807 117.33 91.6041C118.41 90.4012 118.988 88.83 118.945 87.2138H118.939ZM104.023 46.2774C103.69 46.2774 103.492 46.2198 103.287 46.2198C93.4687 46.175 83.6503 46.1111 73.864 46.0983C67.877 46.0983 61.8837 46.1942 55.8967 46.1942C55.4781 46.1484 55.055 46.2205 54.6752 46.4025C54.2954 46.5845 53.9741 46.869 53.7476 47.224C53.1079 48.1451 52.1933 48.8807 51.5089 49.7826C51.1227 50.2511 50.8825 50.8227 50.8181 51.4264C50.7349 53.6523 50.7797 55.9038 50.7733 58.1106C50.7733 59.3323 50.7733 60.5539 50.7733 61.5262L55.3211 63.4451C55.3211 62.3705 55.3211 61.4622 55.3211 60.5603C55.3211 59.6585 55.7176 59.3323 56.6003 59.3387C58.4297 59.3387 60.259 59.3387 62.0948 59.3387C63.4892 59.3387 63.7066 59.6201 63.6874 61.0081C63.6874 62.799 63.6427 64.59 63.6491 66.381C63.6491 66.7648 63.6491 67.2957 63.8857 67.5068C64.9027 68.4086 66.0157 69.2146 67.231 70.174C67.2694 69.6431 67.3141 69.2657 67.3141 68.8947C67.3141 64.1572 67.3141 59.4197 67.3141 54.6821C67.3141 53.3709 67.3141 52.0597 67.3589 50.7484C67.3909 49.8785 67.7875 49.3732 68.8429 49.4244C70.4611 49.5011 72.0858 49.4691 73.7105 49.4563C75.5206 49.4563 75.6293 49.5651 75.6293 51.2409C75.6293 60.6733 75.6293 70.1079 75.6293 79.5446C75.6293 80.0819 75.6933 80.6256 75.7253 81.1309H79.32C79.32 80.536 79.32 80.0307 79.32 79.5254C79.32 73.9094 79.32 68.2999 79.32 62.6839C79.32 61.6477 79.7102 61.2256 80.7656 61.2447C82.5949 61.2447 84.4307 61.2959 86.26 61.2447C87.3922 61.2447 87.6736 61.7628 87.6672 62.7287C87.6374 68.2722 87.6267 73.8156 87.6352 79.3591C87.6352 79.9987 87.712 80.5872 87.7504 81.1373H91.3259C91.3259 78.2206 91.3259 75.3806 91.3259 72.579C91.3259 71.6068 91.6969 71.2166 92.7267 71.2422C94.556 71.2869 96.3918 71.2806 98.2211 71.2422C99.3021 71.2422 99.6923 71.6515 99.6667 72.6749C99.6155 75.0224 99.6667 77.3698 99.6667 79.7109C99.6667 80.2098 99.737 80.7023 99.7754 81.1629H104.099L104.023 46.2774ZM55.9159 34.8472C55.7049 34.8018 55.4913 34.7697 55.2763 34.7512C42.9186 34.7512 30.5546 34.7512 18.1777 34.7512C16.9944 34.7512 17.0327 35.3525 17.0711 36.1136C17.5892 45.7529 25.2648 53.147 35.4413 53.7227C38.5963 53.9699 41.7634 53.4309 44.659 52.1539C47.5546 50.8769 50.0884 48.9017 52.0334 46.4053C54.7294 43.1694 56.1167 39.0417 55.9223 34.8344L55.9159 34.8472ZM16.8664 16.1891C16.8664 18.9459 16.9176 21.3062 16.8664 23.7112C16.8345 24.7474 17.1159 25.0608 18.2416 25.0608C31.1814 25.0224 44.1147 25.0608 57.0545 25.0608C57.4894 25.0608 57.9308 25.0224 58.3017 25.0033V16.3107C57.0545 17.2829 55.9607 18.1336 54.8669 18.9907C54.3424 19.4001 53.7156 19.7583 53.2998 19.0611C53.1207 18.754 53.4661 18.1144 53.6772 17.6667C53.7796 17.4428 54.1122 17.3149 54.3168 17.1358L57.7773 14.3726L57.1824 13.9184C53.5237 11.232 49.8522 8.55834 46.2063 5.8527C45.2341 5.12992 44.2235 5.309 43.0657 5.4753C43.0657 6.01899 43.0657 6.49232 43.0657 6.95925C43.0657 11.2959 43.0657 15.6327 43.0657 19.9694C43.0657 21.8371 42.0359 22.8477 40.0914 22.9052C38.6779 22.95 37.2643 22.9052 35.8507 22.9052C33.1834 22.9052 32.1792 21.9394 32.1728 19.3489C32.1728 15.332 32.1728 11.3088 32.1728 7.29187C32.1728 6.65224 32.1728 6.01261 32.1728 5.37298C31.5339 5.24019 30.8737 5.24865 30.2383 5.39781C29.603 5.54697 29.008 5.8332 28.4949 6.23646C25.4183 8.6031 22.233 10.8354 19.0924 13.1253C18.5871 13.4963 18.0881 13.8801 17.5125 14.3214C18.9772 15.4727 20.2885 16.5026 21.6061 17.5196C22.1178 17.9161 22.6167 18.3575 22.0858 19.0035C21.5549 19.6495 20.9281 19.3169 20.378 18.8756C19.3098 18.0824 18.2161 17.2509 16.8664 16.1891ZM110.042 85.2693C110.042 84.4633 110.042 83.747 110.042 83.037C110.042 69.98 110.042 56.9208 110.042 43.8596C110.042 41.2179 109.325 40.5335 106.568 40.5335H76.979C70.7809 40.5335 64.5765 40.5335 58.3785 40.5335C57.9308 40.5335 57.2016 40.6231 57.0992 40.8789C56.5619 41.9599 56.2038 43.124 55.7112 44.448H71.7596L104.33 44.4033C105.807 44.4033 105.993 44.576 105.993 45.9767C105.993 57.8035 105.993 69.6431 105.993 81.4507C105.993 82.6084 105.551 82.9602 104.368 82.9602C94.2106 82.9282 84.0597 82.9602 73.9023 82.9602C73.461 82.9602 73.0261 83.005 72.5847 83.0306V85.2821L110.042 85.2693ZM41.3131 26.8198H15.4656C13.8282 26.8198 13.6107 27.0373 13.5979 28.6236C13.5979 29.3783 13.5979 30.1395 13.5979 30.8942C13.5979 32.7172 13.8282 32.9539 15.7407 32.9539H67.0583C68.555 32.9539 68.8301 32.6852 68.8365 31.2972C68.8365 30.423 68.8365 29.5468 68.8365 28.6683C68.8365 26.9733 68.6702 26.8198 66.9176 26.8198H41.3131ZM34.0341 11.4686C34.0341 14.1743 34.0341 16.8735 34.0341 19.5792C34.0341 20.8968 34.3284 21.1591 35.7356 21.1719C36.9828 21.1719 38.2301 21.1719 39.4774 21.1719C40.9741 21.1719 41.2684 20.9352 41.2684 19.5344C41.2684 14.0912 41.2684 8.66067 41.2684 3.19822C41.2684 2.11724 40.7631 1.69509 39.6757 1.72067C38.3453 1.72067 37.0148 1.72067 35.6908 1.72067C34.3667 1.72067 34.0277 2.00213 34.0213 3.34536C34.0256 6.07445 34.0299 8.79075 34.0341 11.4943V11.4686ZM73.7616 51.1834C72.4824 51.1834 71.3822 51.2473 70.2756 51.1834C69.3162 51.1066 69.0412 51.4776 69.0412 52.3219C69.0412 58.8013 69.0412 65.2808 69.0859 71.7603C69.0939 72.2705 69.2374 72.7694 69.5017 73.2058C70.8685 75.33 71.779 77.7151 72.1753 80.2098C72.3225 81.2076 72.815 81.3867 73.736 81.0285L73.7616 51.1834ZM30.2283 61.8012C34.4115 61.8012 38.4796 61.8012 42.5476 61.8012C42.7907 61.8012 43.232 61.5006 43.232 61.3343C43.2768 59.0892 43.232 56.8569 43.232 54.4455C38.9833 55.6998 34.4689 55.7441 30.1964 54.5734L30.2283 61.8012ZM85.7995 81.1181C85.7995 75.1759 85.7995 69.3809 85.7995 63.5794C85.7995 63.3619 85.3837 62.9782 85.1599 62.9398C83.8806 62.8758 82.6013 62.9398 81.3221 62.9398V81.1181H85.7995ZM97.6838 81.1181V73.0651H93.2064V81.1437L97.6838 81.1181ZM48.88 51.8294C47.6647 52.469 46.6349 52.9679 45.6434 53.5244C45.4004 53.6651 45.1062 53.9721 45.0998 54.2088C45.0614 56.697 45.0998 59.1851 45.0998 61.7309H48.9056L48.88 51.8294ZM61.8133 66.2467C61.8133 64.5772 61.8133 63.1189 61.8133 61.6669C61.7617 61.5179 61.673 61.3844 61.5555 61.2792C61.438 61.174 61.2955 61.1005 61.1417 61.0657C59.8624 61.0017 58.5832 61.0657 57.112 61.0657C57.112 62.0827 57.112 62.9845 57.112 63.8864C57.1234 64.001 57.1611 64.1114 57.2221 64.209C57.2831 64.3066 57.3658 64.3889 57.4638 64.4493C58.8262 65.0442 60.2206 65.607 61.8133 66.2722V66.2467Z"
          />
    <path d="M79.5374 32.0711C79.0961 32.3654 78.5204 32.7108 78.0215 33.0945C77.8965 33.2302 77.7427 33.3362 77.5713 33.4046C77.4 33.473 77.2155 33.5022 77.0314 33.4899C76.8473 33.4776 76.6684 33.4242 76.5076 33.3337C76.3469 33.2431 76.2085 33.1177 76.1026 32.9666C75.9171 32.7556 75.6996 32.57 75.463 32.3717C73.7679 30.7727 73.7424 30.7471 75.1623 28.9114C75.362 28.7197 75.482 28.4599 75.4986 28.1837C75.5152 27.9075 75.4271 27.6352 75.2519 27.421C75.0776 27.2006 74.9473 26.9487 74.8681 26.6791C74.5227 24.9712 73.5889 23.9222 71.67 23.9926C71.587 23.9987 71.5042 23.9786 71.4333 23.9351C70.2244 22.9884 70.992 21.7091 70.8896 20.5898C70.8576 20.2316 71.4141 19.7263 71.8235 19.4512C72.2079 19.3003 72.6199 19.2327 73.0324 19.253C73.7615 19.1698 74.2796 18.8819 74.3692 18.108C74.3916 17.8661 74.4729 17.6333 74.6059 17.43C75.6293 15.9972 75.7572 14.6348 74.3052 13.3683C74.2418 13.3167 74.1987 13.2441 74.1837 13.1637C74.075 11.6541 75.5653 11.2448 76.3584 10.3429C76.5839 10.2153 76.8374 10.1456 77.0964 10.14C77.3554 10.1345 77.6117 10.1932 77.8424 10.3109C79.1217 11.4686 80.2154 11.2 81.6802 10.6051C83.1449 10.0103 83.9892 9.43459 83.9956 7.91227C83.9956 7.09354 84.5265 6.81212 85.3133 6.8505C85.5627 6.8505 85.8122 6.8505 86.0617 6.8505C88.4795 6.90806 88.6713 6.36435 89.0935 9.14675C89.1511 9.52413 89.6628 9.9271 90.0657 10.1446C90.7054 10.49 91.4985 10.5987 92.119 10.9697C92.4317 11.1929 92.8135 11.298 93.1964 11.2664C93.5793 11.2348 93.9386 11.0685 94.2106 10.797C94.7478 10.4004 95.7968 9.89512 96.1294 10.1126C97.1257 10.7918 97.9778 11.6614 98.6368 12.6711C98.8287 12.9654 98.1955 13.8737 97.7733 14.379C97.2616 15.0186 97.1337 15.5175 97.639 16.1699C97.8169 16.391 97.9436 16.6488 98.01 16.9247C98.3554 18.4598 99.0782 19.5536 100.971 19.3872C101.056 19.3903 101.138 19.4169 101.208 19.464C102.782 20.3339 101.739 21.7603 101.982 22.918C102.129 23.628 101.624 24.031 100.876 24.0438C99.3724 24.0438 98.349 24.6322 98.1699 26.1865C98.145 26.3887 98.0629 26.5796 97.9332 26.7366C97.0121 27.792 97.2936 28.7195 98.2082 29.6277C98.9694 30.3761 98.8479 31.1117 98.0228 31.7641C97.9268 31.8409 97.8437 31.9304 97.7541 32.0136C95.6369 33.9836 96.0655 33.9773 93.8396 32.4421C93.5523 32.2318 93.1942 32.1423 92.8417 32.1927C91.7409 32.5262 90.6708 32.9543 89.6436 33.4719C89.2918 33.6638 89.0999 34.2907 89.004 34.7512C88.6586 36.6125 88.6777 36.6189 86.7333 36.6317H85.9849C84.1428 36.6317 84.066 36.5997 83.8485 34.796C83.8592 34.3967 83.72 34.0078 83.4584 33.706C83.1968 33.4041 82.8317 33.2111 82.4349 33.1649C81.5324 32.8797 80.6535 32.5247 79.8061 32.1031C79.7174 32.0859 79.6276 32.0752 79.5374 32.0711ZM95.5794 31.5722L96.5132 30.6384C96.5117 30.5606 96.501 30.4833 96.4812 30.4081C96.4102 30.2624 96.3198 30.1268 96.2126 30.0051C95.0229 28.8922 94.863 27.7536 95.9951 26.4872C96.3015 26.1207 96.5047 25.6791 96.5836 25.2079C96.8586 23.5385 97.5942 22.4191 99.5835 22.4639C99.7945 22.4639 100.223 22.0033 100.185 21.8242C100.134 21.5236 99.7689 21.0247 99.5451 21.0311C97.5814 21.1143 96.8778 19.9949 96.6092 18.3958C96.5687 18.1663 96.4792 17.9481 96.3469 17.7562C95.1572 16.1187 94.556 14.5133 96.7051 13.0549L95.7585 12.0251C95.3147 12.277 94.8874 12.5569 94.4792 12.863C94.1518 13.2123 93.7005 13.4194 93.2221 13.4397C92.7438 13.4601 92.2765 13.2921 91.9207 12.9718C91.2182 12.4606 90.4091 12.1151 89.554 11.9611C87.9358 11.7501 87.2578 10.9761 87.213 9.46656C87.1544 9.28301 87.0495 9.11771 86.9083 8.98661C86.7671 8.8555 86.5944 8.76304 86.4071 8.71821C86.1384 8.71821 85.8186 9.15957 85.5755 9.4538C85.4831 9.63299 85.4453 9.83536 85.4668 10.0358C85.4863 10.2585 85.4593 10.4828 85.3875 10.6944C85.3157 10.9061 85.2006 11.1006 85.0496 11.2654C84.8987 11.4302 84.715 11.5618 84.5105 11.6518C84.3059 11.7419 84.0848 11.7884 83.8613 11.7884C83.1141 11.8437 82.3928 12.0857 81.7633 12.492C80.1259 13.7713 78.7187 13.509 77.3243 12.1978C77.2859 12.1594 77.1708 12.1978 76.9917 12.1978L76.2177 13.0037C76.4305 13.3312 76.6634 13.6452 76.9149 13.944C77.7656 14.8331 77.8552 15.6454 77.0493 16.6816C76.4967 17.4217 76.1303 18.2839 75.9811 19.1954C75.7764 20.4299 75.0664 20.8712 73.9023 20.9544C73.6135 20.9398 73.3257 20.997 73.0644 21.1207C72.9446 21.2056 72.8444 21.3152 72.7705 21.4421C72.6966 21.5689 72.6507 21.7102 72.6358 21.8563C72.6706 21.9914 72.7329 22.1179 72.8187 22.228C72.9046 22.338 73.0121 22.4292 73.1347 22.4959C73.3957 22.6278 73.6872 22.6874 73.979 22.6686C75.2071 22.6686 75.7508 23.257 75.9555 24.3636C76.0218 25.0529 76.2641 25.7137 76.6591 26.2825C77.9895 27.8176 77.6889 29.1288 76.3457 30.4209C76.2945 30.4721 76.3009 30.568 76.2753 30.6512L76.9917 31.6042C77.4574 31.362 77.9024 31.0817 78.3221 30.7663C79.16 29.9988 79.9212 30.0563 80.8806 30.6512C81.6728 31.1749 82.5591 31.5398 83.4903 31.7258C84.8272 31.9496 85.4732 32.5189 85.518 33.8237C85.518 34.3226 85.518 34.9751 86.4199 34.9559C87.3217 34.9367 87.2322 34.2779 87.277 33.7789C87.3729 32.6532 87.7887 31.924 89.1063 31.7897C89.7681 31.7339 90.4057 31.5141 90.9612 31.1501C92.6435 29.8708 94.1466 29.8388 95.5794 31.5786V31.5722Z"
          />
    <path d="M92.9826 21.6964C93.0465 23.0076 92.7164 24.3078 92.0349 25.4297C91.3534 26.5517 90.3517 27.444 89.1588 27.9917C87.9658 28.5395 86.6363 28.7177 85.3412 28.5033C84.0461 28.2889 82.8448 27.6918 81.892 26.7888C80.9392 25.8859 80.2785 24.7184 79.9949 23.4367C79.7113 22.155 79.8178 20.8178 80.3007 19.5972C80.7836 18.3765 81.6209 17.3284 82.7046 16.5876C83.7883 15.8469 85.069 15.4475 86.3816 15.4408C87.227 15.4136 88.0693 15.5542 88.8599 15.8546C89.6505 16.1551 90.3737 16.6093 90.9876 17.1911C91.6015 17.7729 92.0939 18.4706 92.4363 19.2439C92.7788 20.0173 92.9645 20.8509 92.9826 21.6964ZM81.7059 21.7604C81.6676 22.702 81.9128 23.6333 82.4097 24.434C82.9066 25.2347 83.6324 25.8679 84.4931 26.2515C85.3538 26.6352 86.3098 26.7517 87.2375 26.586C88.1651 26.4203 89.0217 25.9801 89.6964 25.3222C90.3711 24.6643 90.8328 23.819 91.0218 22.8958C91.2108 21.9726 91.1183 21.0139 90.7565 20.1439C90.3946 19.2738 89.7799 18.5323 88.992 18.0154C88.204 17.4985 87.2791 17.23 86.3369 17.2446C85.1249 17.2326 83.9575 17.7009 83.0897 18.547C82.222 19.3932 81.7245 20.5485 81.7059 21.7604Z"
          />
</svg>
