<svg width="150" height="100" viewBox="0 0 150 100" fill="none" xmlns="http://www.w3.org/2000/svg">
    <path d="M36.4024 0C37.8079 5.69011 35.7815 10.6297 33.7211 15.5352C32.8137 17.6912 32.4384 19.6288 33.5573 21.9554C34.3829 23.6952 34.3624 25.933 34.3897 27.9525C34.4852 34.4 34.4238 40.8474 34.4238 47.6359C37.5896 47.6359 40.4141 47.7246 43.2183 47.5745C44.0525 47.4043 44.7871 46.9146 45.2651 46.21C46.0439 45.0908 47.101 44.1938 48.3321 43.6076C49.5632 43.0213 50.9258 42.766 52.2856 42.8669C55.0147 42.9488 57.8051 42.5394 60.4728 42.9965C62.5606 43.3581 64.969 44.2655 66.3267 45.7256C67.6844 47.1856 68.8033 47.4995 70.5567 47.6837C76.6153 48.366 81.78 46.7558 86.6242 42.9624C89.5306 40.6836 92.3347 37.6202 96.7149 37.9409C97.0765 37.9409 97.7042 36.8356 97.8952 36.1534C98.5775 33.7586 99.1165 31.3229 99.7578 28.7098H127.444L129.941 38.091C132.391 38.091 134.758 38.091 137.119 38.091C144.399 38.1661 149.359 43.0033 149.4 50.2217C149.463 56.7033 149.463 63.1825 149.4 69.6595C149.359 74.299 147.162 77.9628 143.007 79.6957C139.834 81.0193 139.241 82.7386 140.121 85.611C149.181 87.5009 150.198 89.0837 149.195 100H1.48392C0.194436 90.7553 0.917638 86.2932 10.5649 85.7815V71.2083L1.19055 68.5747V50.6106L10.6468 48.0931C10.6468 40.9975 10.6058 33.9633 10.6468 26.9428C10.6468 25.2712 10.6468 23.3881 11.3768 21.969C12.5571 19.6561 12.1205 17.7253 11.254 15.5489C7.66527 6.50882 7.59022 5.88796 8.33389 0.0136379L36.4024 0ZM5.82997 95.4015H144.815C145.122 92.345 144.392 90.5028 141.083 90.6256C139.834 90.6802 138.586 90.6256 137.33 90.6256H10.4967C6.13699 90.687 5.598 91.226 5.82997 95.4015ZM63.2769 85.8498C63.2769 73.8077 63.3383 61.9226 63.1473 50.0512C63.1473 49.2256 61.3188 47.9225 60.1863 47.7315C57.9825 47.363 55.6697 47.6155 53.3636 47.6223C49.1403 47.6223 48.8333 47.9089 48.8265 51.9956C48.8265 62.3206 48.8265 72.6456 48.8265 82.9706C48.8265 83.9394 48.9698 84.9082 49.0448 85.8566L63.2769 85.8498ZM135.263 43.0511V76.1138C141.472 76.8302 144.815 74.067 144.938 68.1108C145.047 62.564 145.013 57.0103 144.938 51.4566C144.863 45.1866 141.799 42.5121 135.263 43.0784V43.0511ZM96.7012 81.9881C94.3611 80.8624 92.4234 80.0914 90.6495 79.0476C88.3162 77.683 85.8737 76.3185 83.8883 74.5173C79.1124 70.1371 73.6133 71.7882 68.3121 71.5767V85.8498H96.7012V81.9881ZM29.6275 43.0033H15.3817V61.793H29.6275V43.0033ZM91.7889 74.1284V45.5414C84.9662 48.0999 80.7635 52.1321 82.36 59.9986C82.7557 61.9636 82.3054 64.0922 82.476 66.139C82.5216 67.1006 82.9285 68.0094 83.6153 68.6839C86.1329 70.5397 88.821 72.2044 91.7889 74.1557V74.1284ZM29.0203 14.7711L32.5339 4.60531H12.2365L15.9958 14.7711H29.0203ZM130.242 47.4586V43.092H96.94V47.4586H130.242ZM96.8104 56.9489H130.242V52.6915H96.8104V56.9489ZM130.344 62.1751H97.0287V66.5825H130.351L130.344 62.1751ZM130.269 76.2161V71.6722H96.94V76.2161H130.269ZM101.689 85.7201H135.045V81.2718H101.695L101.689 85.7201ZM30.4803 76.6255H14.6039L16.371 85.5837L28.4676 85.6383L30.4803 76.6255ZM34.4648 71.6654V85.7815H43.9346V71.6722L34.4648 71.6654ZM43.9005 66.6098V52.6711H34.6012V66.6098H43.9005ZM77.4545 66.6098V52.6438H68.3325V66.6439L77.4545 66.6098ZM15.4636 28.2118H29.6548C29.9072 22.2556 26.9735 18.66 22.2112 18.8306C17.6059 18.9875 14.8564 22.7673 15.4636 28.2391V28.2118ZM124.886 37.9136L123.794 33.4721C123.449 33.3769 123.098 33.3063 122.743 33.2606C117.767 33.2606 112.791 33.2492 107.815 33.2264C103.176 33.2264 103.176 33.2264 102.61 37.9136H124.886ZM29.6752 33.5403H15.3476V37.8795H29.6752V33.5403ZM29.7298 66.9714H15.4022V71.2833H29.7298V66.9714ZM10.3807 65.989V53.2988C4.54731 54.4382 5.85044 52.9576 5.45472 61.7998C5.29098 65.6615 7.66527 65.5591 10.3875 66.0094L10.3807 65.989Z"
          />
    <path d="M53.964 52.5687H58.31V80.9647H53.964V52.5687Z" />
</svg>
