<svg width="101" height="100" viewBox="0 0 101 100" fill="none" xmlns="http://www.w3.org/2000/svg">
    <path d="M100.542 57.3537C99.4173 59.6256 97.3944 59.6434 95.2425 59.599C91.4367 59.5189 91.5212 59.599 90.1963 63.1558C89.2801 65.6523 88.1897 68.0814 86.9329 70.425C86.2171 71.7588 86.3282 72.5013 87.4086 73.4172C88.489 74.3331 89.5427 75.1512 90.1785 76.2671C90.7742 77.3075 91.3789 78.9881 90.9298 79.8239C90.1918 81.22 88.6401 82.207 87.3419 83.2563C87.173 83.3941 86.2393 82.9984 86.0926 82.6605C85.9958 82.4005 85.9572 82.1224 85.9795 81.8459C86.0018 81.5694 86.0844 81.3011 86.2215 81.0599C86.9819 80.1194 87.8017 79.2283 88.6757 78.3923C87.213 77.0585 85.848 75.7958 84.5053 74.5287C83.1626 73.2616 82.9892 71.8611 83.7851 70.1227C85.4034 66.5659 86.9092 62.9661 88.3023 59.3233C88.9425 57.6472 89.8806 56.7224 91.699 56.7446C93.6019 56.7446 95.5093 56.7446 97.5455 56.7446V43.2732C95.5671 43.2732 93.7308 43.2376 91.9035 43.2732C90.0762 43.3087 88.9736 42.464 88.2978 40.6678C86.9195 37.0176 85.3901 33.4208 83.7806 29.8684C83.0426 28.2367 83.0737 26.8718 84.3675 25.6313C85.7502 24.2975 87.1819 23.026 88.5557 21.7633L78.8144 12.1154C77.6629 13.3158 76.3869 14.6274 75.1287 15.9523C73.7949 17.3662 72.3855 17.5396 70.5448 16.6726C67.0814 15.0453 63.5246 13.5959 59.9366 12.2577C58.1582 11.5952 57.2156 10.6216 57.269 8.70087C57.309 6.86022 57.269 5.02401 57.269 3.00107H43.7842C43.7842 4.87284 43.7353 6.69571 43.7842 8.51414C43.8509 10.5104 42.9395 11.5774 41.0632 12.271C37.4753 13.6048 33.9496 15.0854 30.4595 16.6815C28.7344 17.4729 27.3472 17.4284 26.0446 16.0635C24.7419 14.6986 23.5014 13.3736 22.3499 12.151L12.7287 21.8611C13.7735 22.8481 15.0851 24.0841 16.41 25.3468C17.9083 26.7517 18.0551 28.1834 17.1303 30.1085C15.503 33.4875 14.107 36.9909 12.8176 40.5166C12.1329 42.3795 11.1193 43.3665 9.10077 43.2865C7.69687 43.1841 6.28678 43.2019 4.88593 43.3399C4.32573 43.4154 3.43208 44.1535 3.41875 44.6114C3.30315 48.5239 3.35206 52.4453 3.35206 56.7624C5.32609 56.7624 7.14007 56.8246 8.9496 56.7624C11.0526 56.669 12.1285 57.6516 12.8443 59.6034C14.1248 63.1291 15.5608 66.6148 17.1658 70.0071C18.0284 71.83 17.9661 73.2438 16.5167 74.591C15.1829 75.8447 13.8002 77.0718 12.5153 78.2545L22.2654 87.978L25.9379 84.0299C27.2717 82.5983 28.6944 82.4782 30.5217 83.3318C33.9852 84.9546 37.542 86.4085 41.1255 87.7467C42.9039 88.4092 43.8242 89.4051 43.7931 91.3036C43.7531 93.1398 43.7931 94.9804 43.7931 96.9856H57.2779C57.2779 95.0871 57.3268 93.2598 57.2779 91.437C57.2112 89.4318 58.1671 88.3914 60.0211 87.6978C63.609 86.364 67.1347 84.8835 70.6249 83.2785C72.3633 82.4782 73.7371 82.5716 75.0353 83.9232C76.3335 85.2748 77.6051 86.5908 79.0367 88.0535C79.9259 87.2266 80.5662 86.4041 81.4109 85.8705C81.9133 85.5549 82.7091 85.7016 83.3716 85.6393C83.3716 86.3685 83.6695 87.2888 83.336 87.7957C80.9441 91.437 78.7033 91.6326 75.6711 88.6048C72.7234 85.6616 72.7589 85.7372 69.0021 87.4533C66.6562 88.5341 64.2376 89.4492 61.7639 90.1921C60.4301 90.5878 59.9588 91.1524 60.0878 92.4773C60.19 93.5044 60.0211 94.5581 60.1278 95.5895C60.3279 97.5725 59.6521 99.0485 57.9048 100H43.2329C41.4545 99.0441 40.7965 97.5725 41.0099 95.5895C41.1166 94.4869 40.9565 93.3665 41.0499 92.2595C41.1433 91.1524 40.7253 90.5744 39.5827 90.2543C37.5998 89.6941 35.4346 89.2762 33.7762 88.1602C29.9882 85.6038 27.076 85.7327 24.3106 89.663C23.1102 91.3658 21.1984 91.1924 19.6556 89.7163C16.6916 86.8294 13.7587 83.8965 10.8569 80.9177C9.37641 79.3927 9.42532 77.8054 10.8569 76.2049C11.7906 75.1513 12.7884 74.1565 13.8447 73.226C14.8095 72.4035 14.8539 71.7233 14.2626 70.5851C12.98 68.1706 11.8413 65.6824 10.8525 63.1336C9.51869 59.5767 9.61206 59.5056 5.80626 59.5767C3.65438 59.6212 1.63144 59.6034 0.506592 57.3315V42.6818C1.46249 40.9257 2.93413 40.241 4.91705 40.4588C6.01967 40.57 7.14006 40.4055 8.24712 40.4988C9.35418 40.5922 9.93217 40.1832 10.2567 39.0361C10.8125 37.0532 11.226 34.8835 12.3464 33.2296C14.9073 29.4416 14.7872 26.5339 10.8525 23.764C9.14523 22.5636 9.31862 20.6296 10.7947 19.109C13.6846 16.145 16.619 13.2106 19.5978 10.3059C21.1184 8.82981 22.71 8.87427 24.3151 10.3059C25.3609 11.2402 26.3483 12.238 27.2717 13.2936C28.0942 14.2584 28.7744 14.3073 29.9126 13.716C32.3331 12.448 34.8256 11.3228 37.3775 10.3459C40.9343 9.01209 41.0054 9.10101 40.9343 5.29522C40.8898 3.14334 40.8987 1.11595 43.1795 0H57.8514C59.6298 0.951449 60.2923 2.43198 60.0744 4.41046C59.9722 5.43749 60.1367 6.4912 60.0344 7.52267C59.9055 8.85648 60.3545 9.46114 61.715 9.80348C63.6402 10.2881 65.7164 10.7505 67.3081 11.8353C71.0828 14.4096 74.0038 14.2806 76.7693 10.3503C77.9741 8.64307 79.8815 8.81202 81.4242 10.2881C84.3883 13.178 87.3226 16.1109 90.2274 19.0868C91.7034 20.6073 91.659 22.199 90.2274 23.804C89.3445 24.8031 88.3985 25.7447 87.3953 26.6228C86.3149 27.5387 86.2082 28.3034 86.924 29.615C88.1844 31.9642 89.2779 34.3992 90.1963 36.902C91.5301 40.4588 91.4367 40.5344 95.2425 40.4588C97.3944 40.4144 99.4173 40.4322 100.542 42.7041V57.3537Z"
          />
    <path d="M78.9655 49.6933C78.7655 36.4575 69.5088 25.0223 56.6776 22.2302C50.369 20.8344 43.7733 21.6243 37.9728 24.4704C32.1723 27.3166 27.5115 32.0498 24.7551 37.8935C24.2172 39.0095 24.0438 41.2458 22.0875 40.2811C20.2735 39.3918 21.7052 37.7824 22.2431 36.622C28.1608 23.8886 41.8056 16.8372 55.9662 19.1313C69.1265 21.2699 79.8369 32.456 81.5131 45.7941C83.6294 62.6535 72.3365 78.1968 56.0107 80.8866C38.938 83.7009 23.0434 72.8171 19.7978 55.8644C19.1976 52.721 19.4688 49.3954 19.5533 46.1587C19.5533 45.5096 20.5803 44.8916 21.1316 44.2558C21.5184 45.0072 22.3054 45.803 22.2342 46.5099C21.4829 54.2238 23.2924 61.1818 28.0141 67.3618C31.6488 72.0941 36.6811 75.5621 42.3973 77.2739C48.1136 78.9857 54.2237 78.8546 59.8612 76.899C65.4987 74.9434 70.3775 71.2626 73.8058 66.3787C77.234 61.4947 79.0377 55.6554 78.9611 49.6888L78.9655 49.6933Z"
          />
    <path d="M46.1361 49.8621C49.9908 45.6873 53.8188 41.5792 57.6024 37.4133C59.0785 35.7905 60.8035 34.7768 63.031 34.8924C64.19 34.9068 65.3195 35.2596 66.2808 35.9073C67.2421 36.555 67.9932 37.4694 68.4418 38.5381C69.4822 40.8145 69.3088 43.1486 67.6415 45.0026C62.044 51.2271 56.3975 57.3981 50.6132 63.4447C48.3147 65.85 44.6778 65.7745 42.1658 63.4936C39.267 60.8527 36.4527 58.1095 33.7184 55.2996C32.6181 54.1716 31.9986 52.6606 31.9903 51.0849C31.982 49.5092 32.5856 47.9917 33.6739 46.8522C34.7454 45.6488 36.2459 44.9134 37.8534 44.8037C39.4609 44.694 41.0474 45.2187 42.2725 46.2653C43.5885 47.359 44.7756 48.5861 46.1361 49.8621ZM66.281 41.4147C66.161 40.8589 66.1788 40.5833 66.0543 40.4366C65.3163 39.5785 64.6271 38.1691 63.769 38.0535C62.5819 37.889 60.8836 38.3336 60.0611 39.165C55.9085 43.3754 51.9248 47.7636 47.9768 52.1652C46.6741 53.619 45.6648 53.6946 44.3666 52.2319C43.3099 51.0921 42.1954 50.0074 41.0276 48.9818C39.1959 47.3012 37.413 47.2034 35.9236 48.6795C34.4342 50.1556 34.5008 52.094 36.3682 53.9214C38.7394 56.2629 41.1299 58.5793 43.5396 60.8705C45.6381 62.8623 47.3232 62.8579 49.275 60.7682C54.5717 55.0862 59.8343 49.3731 65.0628 43.6288C65.6541 42.9575 65.952 42.006 66.281 41.4102V41.4147Z"
          />
</svg>
