<svg width="167" height="100" viewBox="0 0 167 100" fill="none" xmlns="http://www.w3.org/2000/svg">
    <path d="M166.933 72.9345C165.918 75.8824 163.852 77.0166 160.76 76.8946C156.791 76.7365 152.812 76.8641 148.835 76.8558C145.538 76.8558 143.585 74.9561 143.516 71.6394C143.461 69.052 143.488 66.4647 143.472 63.8745C143.472 63.7913 143.4 63.7109 143.302 63.5029C139.581 63.5029 135.815 63.4752 132.024 63.5528C131.711 63.5528 131.261 64.2128 131.125 64.6455C129.084 71.0986 126.015 76.9999 121.638 82.1719C113.405 91.9085 103.03 97.9263 90.3349 99.5736C66.1444 102.71 43.7816 88.2812 36.5353 64.9505C36.1914 63.8412 35.7449 63.4391 34.5524 63.4696C31.0998 63.5611 27.6445 63.5029 24.0532 63.5029C24.0532 66.1263 23.9561 68.6139 24.0782 71.0903C24.2307 74.1796 22.1369 77.0804 18.2545 76.8973C14.4275 76.7171 10.5784 76.7365 6.75137 76.8973C3.64542 77.0194 1.59882 75.8352 0.542236 72.9345V27.1771C1.59604 24.2791 3.63987 23.1033 6.72919 23.217C10.8335 23.3695 14.9489 23.2337 19.0587 23.2669C21.5546 23.2863 23.5374 24.8809 23.8868 27.3518C24.1309 29.074 24.0255 30.8488 24.0532 32.5987C24.0726 33.9131 24.0532 35.2276 24.0532 36.4811C24.2132 36.5285 24.3763 36.5647 24.5413 36.5893C27.7748 36.5893 31.0111 36.5116 34.2474 36.6447C35.6562 36.703 36.1664 36.2482 36.6185 34.9309C42.6668 17.2741 54.6441 5.93737 72.8139 1.32835C75.4651 0.660015 78.241 0.432615 80.9643 0H86.5106C86.9101 0.10032 87.3146 0.179008 87.7225 0.23572C101.486 1.43373 112.737 7.45984 121.633 17.9369C126.017 23.1005 129.084 29.0074 131.123 35.4633C131.259 35.896 131.705 36.5532 132.018 36.5726C135.796 36.6475 139.575 36.6225 143.524 36.6225C143.524 33.8299 143.488 31.1566 143.524 28.4888C143.583 25.161 145.521 23.2808 148.824 23.2725C152.845 23.2725 156.866 23.3806 160.884 23.2337C163.935 23.1227 165.923 24.3235 166.922 27.191L166.933 72.9345ZM83.829 97.0445C109.298 97.0445 130.246 75.8935 130.277 50.1778C130.305 24.2708 109.381 3.05049 83.7846 3.07545C58.8787 3.10595 37.2618 23.0173 37.2258 50.0807C37.1882 56.2283 38.3653 62.3227 40.6895 68.0141C43.0138 73.7055 46.4394 78.8816 50.7697 83.2454C55.0999 87.6092 60.2496 91.0746 65.9229 93.4426C71.5961 95.8107 77.6813 97.0347 83.829 97.0445ZM21.0166 50.1168C21.0166 46.19 20.9667 42.2632 21.0471 38.3364C21.0693 37.2271 20.6062 36.8139 19.6605 36.7057C19.0153 36.6459 18.3671 36.6227 17.7193 36.6364C13.7009 36.6364 9.67707 36.6198 5.66152 36.6364C3.83677 36.6364 3.57609 36.9414 3.57609 38.6885C3.57609 46.2686 3.57609 53.8486 3.57609 61.4286C3.57609 63.1757 3.76744 63.4197 5.51731 63.4613C7.59442 63.5112 9.67707 63.4613 11.7542 63.4752C14.0642 63.4752 16.3743 63.4752 18.6871 63.4752C20.7587 63.4613 21.0027 63.1979 21.0027 61.2067C21.012 57.5092 21.0166 53.8125 21.0166 50.1168ZM163.882 50.0558C163.882 46.2205 163.807 42.3824 163.921 38.5499C163.963 37.0884 163.319 36.6447 162.088 36.6419C157.514 36.6253 152.939 36.6253 148.364 36.6419C147.146 36.6419 146.481 37.0773 146.497 38.5499C146.575 46.1262 146.533 53.7053 146.533 61.2899C146.533 63.2478 146.727 63.4585 148.752 63.4724C151.386 63.4918 154.021 63.4724 156.653 63.4724C158.455 63.4724 160.258 63.4918 162.057 63.4724C163.272 63.453 163.949 63.0453 163.904 61.5672C163.81 57.7292 163.882 53.8911 163.882 50.0558ZM132.507 39.7229C132.784 43.2227 133.255 46.6559 133.252 50.1085C133.25 53.5611 132.767 56.9555 132.49 60.4136H143.424V39.7229H132.507ZM24.1586 39.6952V60.3831H34.974C34.6967 56.8723 34.228 53.4307 34.228 49.9892C34.228 46.5477 34.7105 43.1506 34.9823 39.6952H24.1586ZM21.0027 33.6968C21.0027 31.8665 21.0748 30.0224 20.975 28.1893C20.914 27.0606 20.2373 26.3091 18.9977 26.3063C14.52 26.3063 10.0431 26.3063 5.56723 26.3063C4.54393 26.3063 3.73971 26.861 3.67315 27.7872C3.5234 29.7783 3.62601 31.7861 3.62601 33.6968H21.0027ZM3.59273 66.4092C3.59273 68.2534 3.53726 70.0947 3.61214 71.9334C3.65928 73.1064 4.38308 73.7969 5.58941 73.8025C10.0653 73.8191 14.544 73.8025 19.0199 73.8025C20.1846 73.8025 20.9001 73.1092 20.9611 72.0443C21.0748 70.1669 20.9916 68.2783 20.9916 66.412L3.59273 66.4092ZM146.547 66.4092C146.547 68.2534 146.497 70.0504 146.564 71.8446C146.605 72.9844 147.19 73.7858 148.455 73.7858C152.981 73.7969 157.51 73.7969 162.044 73.7858C163.086 73.7858 163.78 73.1452 163.835 72.2079C163.952 70.25 163.871 68.2811 163.871 66.4064L146.547 66.4092ZM163.879 33.6857C163.879 31.8222 163.929 29.978 163.86 28.1394C163.818 27.0301 163.183 26.3146 162.016 26.3091C157.49 26.2897 152.964 26.3091 148.427 26.3091C147.396 26.3091 146.683 26.8859 146.633 27.8649C146.533 29.8061 146.603 31.7833 146.603 33.6885L163.879 33.6857Z"
          />
    <path d="M41.078 50.7491C40.5234 26.9968 59.5252 7.45705 82.7172 6.93292C106.567 6.40047 125.299 25.197 126.425 47.3935C127.787 74.2323 106.611 92.7821 84.6834 93.1953C60.9201 93.6473 41.2111 74.2323 41.078 50.7491ZM83.674 62.0803C95.8759 62.0803 108.072 62.0877 120.263 62.1025C121.295 62.1025 121.772 61.875 122.063 60.7852C123.772 54.4284 123.943 47.7563 122.562 41.3203C117.986 19.4122 95.3379 5.46036 73.7266 11.2646C52.1901 17.055 39.4862 39.4012 45.4679 60.885C45.7453 61.9139 46.2555 62.0997 47.215 62.0997C59.3726 62.0682 71.5256 62.0618 83.674 62.0803ZM51.6383 73.6472C60.3488 84.7399 71.3916 90.5885 85.3462 90.0727C98.0029 89.604 107.992 83.822 115.851 73.6472H51.6383ZM46.9488 65.189C47.6671 66.6837 48.3188 67.9455 48.89 69.2461C49.3421 70.2861 50.0492 70.569 51.164 70.5634C63.8263 70.5246 76.4887 70.5384 89.1565 70.5384C98.308 70.5384 107.459 70.5384 116.611 70.5163C117.135 70.5163 117.914 70.3332 118.136 69.9616C119.035 68.4808 119.759 66.8945 120.632 65.1807L46.9488 65.189Z"
          />
    <path d="M83.6374 56.8501H58.4015C55.645 56.8501 54.264 55.5217 54.1946 52.7264C54.1308 50.0946 54.1225 47.4573 54.1142 44.8284C54.1013 40.8073 54.1013 36.7871 54.1142 32.7678C54.1142 29.6535 55.4814 28.3058 58.5818 28.3058H109.054C112.001 28.3058 113.363 29.6425 113.358 32.6208C113.358 39.2765 113.302 45.9321 113.288 52.5877C113.288 55.4496 111.949 56.9388 109.012 56.9C100.554 56.7891 92.0956 56.8501 83.6374 56.8501ZM83.7234 53.8578H96.4661C100.526 53.8578 104.586 53.8328 108.646 53.8717C110.282 53.8883 110.374 53.8717 110.371 52.2272C110.371 45.8045 110.31 39.3818 110.346 32.9619C110.346 31.7029 109.994 31.3202 108.696 31.3258C92.6595 31.3701 76.6231 31.3803 60.5868 31.3563C57.1647 31.3563 57.1619 31.3563 57.1619 34.7811C57.1619 40.651 57.1619 46.52 57.1619 52.388C57.1619 53.1479 57.0898 53.855 58.2712 53.8412C61.2718 53.7996 64.2723 53.8661 67.2729 53.8717C72.7546 53.8735 78.2427 53.8717 83.7372 53.8661L83.7234 53.8578Z"
          />
    <path d="M71.2942 42.363C71.2942 40.8877 71.2083 39.404 71.3136 37.9259C71.4606 35.9015 72.678 34.7451 74.5583 34.6397C76.9099 34.5094 78.4185 35.3608 78.5433 37.4739C78.7535 40.8708 78.7238 44.2782 78.4546 47.6709C78.2688 49.931 77.2399 50.4718 74.7995 50.4773C72.7668 50.4773 71.8766 49.8617 71.5216 47.7042C71.2304 45.946 71.2748 44.1323 71.1694 42.3436L71.2942 42.363ZM73.7568 42.5876C73.7568 43.9742 73.7956 45.3608 73.7429 46.7474C73.7069 47.6626 73.9371 48.3448 74.941 48.3974C75.9448 48.4501 76.261 47.7208 76.2638 46.8445C76.2638 44.0325 76.2638 41.2177 76.2638 38.4057C76.2638 37.5737 76.0364 36.9193 75.063 36.8971C74.0175 36.8749 73.7485 37.5571 73.7513 38.4473C73.7531 39.8228 73.754 41.2029 73.754 42.5876H73.7568Z"
          />
    <path d="M67.8636 42.7374C67.8636 44.1656 67.8775 45.5937 67.8636 47.0219C67.8386 49.0297 66.6212 50.3664 64.6883 50.5466C62.4448 50.7546 60.8752 49.8006 60.7254 47.6764C60.4922 44.3631 60.4468 41.0392 60.5896 37.7207C60.6811 35.6131 62.0344 34.6452 64.1198 34.6342C66.3106 34.6342 67.467 35.5715 67.7887 37.754C67.8707 38.5832 67.8976 39.417 67.8691 40.2498C67.8691 41.0818 67.8691 41.9137 67.8691 42.7457L67.8636 42.7374ZM62.9273 42.5516H62.8608C62.8608 43.7958 62.8608 45.0391 62.8608 46.2815C62.8608 47.2355 62.8608 48.2477 64.1614 48.292C65.462 48.3364 65.4648 47.3076 65.4703 46.4396C65.4925 43.7218 65.4703 41.0014 65.4315 38.2837C65.4315 37.4351 65.0377 36.7085 64.1309 36.9359C63.8464 37.05 63.5933 37.2306 63.3931 37.4627C63.1928 37.6948 63.0512 37.9716 62.98 38.2698C62.8247 39.6813 62.9384 41.1234 62.9384 42.5516H62.9273Z"
          />
    <path d="M105.535 42.1826C107.268 43.7911 107.603 47.6208 106.17 49.3485C105.102 50.6325 103.632 50.7573 102.121 50.4328C100.704 50.1278 100.127 49.0185 99.9217 47.7179C99.8163 47.0468 99.9023 46.3452 99.9023 45.4994L102.027 45.3607C102.027 46.0429 101.885 46.6391 102.065 47.1078C102.246 47.5765 102.767 48.2365 103.111 48.2171C103.588 48.1949 104.339 47.6874 104.439 47.2631C104.644 46.3896 104.747 45.3219 104.414 44.5454C104.137 43.8715 103.186 43.4777 102.534 42.9619L102.229 43.2226V41.3646C104.586 40.8099 104.825 40.5548 104.489 38.2392C104.405 37.9436 104.253 37.6719 104.045 37.4459C103.837 37.22 103.579 37.0462 103.291 36.9386C102.459 36.7278 102.085 37.4072 102.04 38.2031C102.021 38.5609 102.04 38.9186 102.04 39.3318H99.9994C99.4752 37.4239 100.094 35.6962 101.569 34.9779C103.197 34.1848 105.451 34.6424 106.35 35.9513C107.545 37.6651 107.19 40.5881 105.535 42.1826Z"
          />
    <path d="M92.6255 48.1645H96.9988L97.1707 50.3387H90.3348C89.6193 47.5322 90.7591 45.3802 92.5534 43.4584C93.94 41.972 95.0825 40.4079 94.8717 38.2088C94.7969 37.4295 94.5085 36.7335 93.646 36.9276C93.1607 37.0385 92.6255 37.6042 92.423 38.0951C92.2206 38.5859 92.3759 39.2681 92.3759 39.9781H90.1573C90.1573 39.1461 90.0464 38.2781 90.1795 37.4434C90.5068 35.3857 91.8601 34.4955 94.2284 34.648C96.0254 34.7645 97.1485 35.9653 97.2983 37.9315C97.5146 40.7573 96.1252 42.8677 94.2478 44.7673C93.3742 45.6908 92.4702 46.6087 92.6255 48.1645Z"
          />
    <path d="M86.1418 50.3414H83.768V38.6469L81.8628 38.4334V37.3241C82.8417 36.445 83.5738 35.7073 84.3947 35.0861C84.7751 34.8619 85.2171 34.7648 85.6565 34.8088C85.8284 34.8088 86.1224 35.2331 86.1224 35.4661C86.1474 40.3995 86.1418 45.3247 86.1418 50.3414Z"
          />
</svg>
