<svg width="116" height="100" viewBox="0 0 116 100" fill="none" xmlns="http://www.w3.org/2000/svg">
    <path d="M0.932617 83.5849C1.49726 81.5452 2.18818 79.5425 3.00138 77.5885C4.2686 75.0561 6.35564 73.0272 8.9228 71.832C9.26089 71.7005 9.54471 71.4588 9.72834 71.1459C9.91197 70.833 9.98468 70.4674 9.93469 70.108C9.93469 49.4005 9.93469 28.6955 9.93469 7.99303V6.49394H11.3738C22.1773 6.49394 32.9783 6.49394 43.7767 6.49394C44.1492 6.54692 44.5285 6.466 44.8469 6.26561C45.1653 6.06521 45.4023 5.75833 45.5157 5.39958C46.1785 4.01534 47.1667 2.8122 48.3958 1.89303C49.6249 0.973863 51.0582 0.366027 52.5734 0.121457C54.0885 -0.123113 55.6404 0.00285769 57.0962 0.488637C58.5521 0.974416 59.8686 1.80555 60.9333 2.91094C61.998 4.01634 62.7791 5.36315 63.21 6.83619C63.6408 8.30923 63.7086 9.86466 63.4073 11.3696C63.1061 12.8745 62.445 14.2841 61.4804 15.4778C60.5158 16.6715 59.2764 17.6139 57.8683 18.2244C57.6083 18.3006 57.3841 18.467 57.2357 18.6936C57.0873 18.9203 57.0246 19.1924 57.0587 19.4611C57.0587 21.8447 57.0587 24.2357 57.0587 26.7317L59.8695 26.8591C59.8695 29.3776 59.967 31.8736 59.8695 34.3546C59.809 34.967 59.9383 35.5833 60.24 36.1196C60.5417 36.656 61.0012 37.0866 61.556 37.3528C64.3743 39.1142 67.0952 41.0256 69.8535 42.8845C69.931 42.9576 70.0012 43.0379 70.0634 43.1243L63.5273 52.3663L58.6628 48.9183L61.661 44.5935C59.2399 42.9744 56.8863 41.3854 54.5178 39.8338C54.4034 39.7725 54.2768 39.7374 54.1472 39.7309C54.0176 39.7244 53.8881 39.7467 53.7682 39.7963C51.3697 41.3629 48.9861 42.9669 46.5501 44.601L49.5483 48.9109L44.6837 52.3663L38.0877 43.0494L41.7305 40.6059C43.6568 39.3166 45.5607 38.0049 47.5095 36.7532C47.7606 36.61 47.965 36.3973 48.098 36.1406C48.231 35.8839 48.2869 35.5943 48.2591 35.3066C48.2591 32.5107 48.2591 29.7149 48.2591 26.7917H51.0923C51.0923 24.0933 51.0923 21.5449 51.0923 18.9589C51.0923 18.7341 50.7475 18.4193 50.4927 18.3068C48.1248 17.3115 46.2412 15.4279 45.2459 13.06C45.1548 12.9014 45.0281 12.7661 44.876 12.6647C44.7238 12.5633 44.5503 12.4984 44.3689 12.4753C39.4369 12.4753 34.5049 12.4753 29.4829 12.4753V70.0181H45.0735V58.7749H63.0626V69.9656H77.8062V58.7974H95.6755V70.0856H97.9765C100.705 70.0856 103.418 70.0256 106.042 71.0225C109.141 72.1766 111.769 74.3281 113.512 77.1387C115.256 79.9493 116.015 83.2596 115.672 86.549C115.329 89.8385 113.902 92.9206 111.616 95.3107C109.33 97.7008 106.314 99.2633 103.043 99.7526C102.083 99.889 101.113 99.9566 100.143 99.955C72.297 99.955 44.4513 99.9026 16.6056 100C7.98584 100 1.91453 93.8238 1.09752 87.1378C1.06435 86.9831 1.00879 86.8341 0.932617 86.6955C0.932617 85.6712 0.932617 84.6343 0.932617 83.5849ZM58.228 93.9662H99.5731C100.246 93.9778 100.919 93.9553 101.589 93.8987C103.172 93.7553 104.687 93.192 105.979 92.2669C107.27 91.3417 108.291 90.0884 108.936 88.6365C109.581 87.1845 109.827 85.5866 109.647 84.008C109.468 82.4294 108.87 80.9274 107.916 79.6573C105.922 76.9739 103.118 76.0445 99.8729 76.052C72.4844 76.052 45.0935 76.052 17.7 76.052C16.7706 76.052 15.8336 76.0969 14.9042 76.1794C13.471 76.3286 12.0954 76.8237 10.8958 77.6221C9.69625 78.4205 8.70855 79.4983 8.01766 80.7628C7.32676 82.0274 6.95334 83.4409 6.92952 84.8816C6.90571 86.3224 7.23219 87.7474 7.88092 89.0341C9.7323 92.527 12.7305 93.9961 16.6131 93.9886C30.4798 93.9586 44.3439 93.9537 58.2055 93.9737L58.228 93.9662ZM15.976 12.5353V70.0256H23.2691V12.5353H15.976ZM57.6509 9.5371C57.6298 8.61296 57.2523 7.73277 56.5974 7.08044C55.9424 6.42811 55.0607 6.05415 54.1365 6.03673C53.2123 6.01931 52.3171 6.35974 51.6381 6.98693C50.959 7.61411 50.5486 8.4795 50.4927 9.40219C50.4635 9.88438 50.5321 10.3675 50.6944 10.8225C50.8566 11.2775 51.1092 11.695 51.437 12.0499C51.7648 12.4047 52.1609 12.6896 52.6016 12.8875C53.0423 13.0853 53.5185 13.192 54.0014 13.2011C54.4844 13.2102 54.9643 13.1215 55.4122 12.9404C55.86 12.7593 56.2666 12.4896 56.6075 12.1473C56.9484 11.805 57.2166 11.3974 57.3959 10.9488C57.5752 10.5003 57.6619 10.02 57.6509 9.5371ZM89.6491 70.0406V64.7938H83.8176V70.0406H89.6491ZM51.1448 70.0406H56.9763V64.7938H51.1523L51.1448 70.0406Z"
          />
    <path d="M27.5189 87.9623H17.0852V82.0858H27.5189V87.9623Z" />
    <path d="M41.0862 87.9398V82.0934H51.5274V87.9398H41.0862Z" />
    <path d="M65.1011 87.9323V82.1083H75.5273V87.9323H65.1011Z" />
    <path d="M99.5804 82.0934V87.9624H89.1392V82.0934H99.5804Z" />
</svg>
