<svg width="1312" height="410" viewBox="0 0 1312 410" fill="none" xmlns="http://www.w3.org/2000/svg">
<path d="M130 207L135 202L140 207" stroke="#5EEBF0"/>
<path d="M1262 207L1257 202L1252 207" stroke="#5EEBF0"/>
<path d="M130 265L135 270L140 265" stroke="#5EEBF0"/>
<path d="M1262 265L1257 270L1252 265" stroke="#5EEBF0"/>
<path d="M130 198L135 193L140 198" stroke="#5EEBF0"/>
<path d="M1262 198L1257 193L1252 198" stroke="#5EEBF0"/>
<path d="M130 274L135 279L140 274" stroke="#5EEBF0"/>
<path d="M1262 274L1257 279L1252 274" stroke="#5EEBF0"/>
<path d="M130 190L135 185L140 190" stroke="#5EEBF0"/>
<path d="M1262 190L1257 185L1252 190" stroke="#5EEBF0"/>
<path d="M130 281L135 287L140 281" stroke="#5EEBF0"/>
<path d="M1262 281L1257 287L1252 281" stroke="#5EEBF0"/>
<path d="M107 94H118V217.158L108.1 224" stroke="#5EEBF0"/>
<path d="M1285 94H1275V217.158L1284 224" stroke="#5EEBF0"/>
<path d="M107 378H118V253.895L108.1 247" stroke="#5EEBF0"/>
<path d="M1285 378H1275V253.895L1284 247" stroke="#5EEBF0"/>
<path d="M40 250H48V350H40" stroke="#5EEBF0"/>
<rect x="46" y="123" width="3" height="101" rx="1.5" fill="#5EEBF0" fill-opacity="0.5"/>
<path d="M46 167H49V222.5C49 223.328 48.3284 224 47.5 224V224C46.6716 224 46 223.328 46 222.5V167Z" fill="#5EEBF0"/>
<path d="M214.9 10V2.7H216.1L218.33 8.95C218.317 8.78333 218.3 8.58 218.28 8.34C218.267 8.09333 218.253 7.83667 218.24 7.57C218.233 7.29667 218.23 7.04 218.23 6.8V2.7H219.1V10H217.9L215.68 3.75C215.693 3.91 215.707 4.11333 215.72 4.36C215.733 4.6 215.743 4.85667 215.75 5.13C215.763 5.39667 215.77 5.65333 215.77 5.9V10H214.9ZM220.496 10L222.396 2.7H223.606L225.496 10H224.586L224.106 8.06H221.896L221.416 10H220.496ZM222.076 7.3H223.916L223.356 5.05C223.249 4.62333 223.166 4.26667 223.106 3.98C223.046 3.69333 223.009 3.50667 222.996 3.42C222.983 3.50667 222.946 3.69333 222.886 3.98C222.826 4.26667 222.743 4.62 222.636 5.04L222.076 7.3ZM228.372 10L226.492 2.7H227.422L228.662 7.66C228.749 8.00667 228.822 8.33 228.882 8.63C228.942 8.92333 228.986 9.14667 229.012 9.3C229.039 9.14667 229.079 8.92333 229.132 8.63C229.192 8.33 229.266 8.00667 229.352 7.66L230.582 2.7H231.492L229.602 10H228.372ZM238.884 10V9.18H240.864V3.45L238.884 4.93V3.93L240.534 2.7H241.764V9.18H243.384V10H238.884Z" fill="#5EEBF0"/>
<path d="M123.92 234V226.7H124.82V229.83H125.9L127.52 226.7H128.5L126.69 230.21L128.6 234H127.57L125.87 230.62H124.82V234H123.92ZM129.756 234V226.7H130.936L131.696 229.06C131.769 229.273 131.836 229.487 131.896 229.7C131.956 229.907 131.999 230.067 132.026 230.18C132.059 230.067 132.103 229.907 132.156 229.7C132.209 229.487 132.269 229.27 132.336 229.05L133.056 226.7H134.236V234H133.356V231.35C133.356 231.057 133.366 230.723 133.386 230.35C133.406 229.977 133.433 229.597 133.466 229.21C133.499 228.817 133.533 228.443 133.566 228.09C133.606 227.73 133.639 227.417 133.666 227.15L132.486 230.8H131.536L130.346 227.15C130.379 227.41 130.413 227.713 130.446 228.06C130.479 228.4 130.509 228.763 130.536 229.15C130.563 229.53 130.586 229.91 130.606 230.29C130.626 230.67 130.636 231.023 130.636 231.35V234H129.756ZM135.742 235.1L139.292 225.7H140.242L136.692 235.1H135.742ZM144.028 234.1C143.548 234.1 143.135 234.02 142.788 233.86C142.448 233.7 142.185 233.47 141.998 233.17C141.812 232.87 141.715 232.513 141.708 232.1H142.608C142.608 232.467 142.732 232.757 142.978 232.97C143.232 233.183 143.582 233.29 144.028 233.29C144.448 233.29 144.775 233.187 145.008 232.98C145.248 232.773 145.368 232.487 145.368 232.12C145.368 231.827 145.288 231.57 145.128 231.35C144.975 231.13 144.752 230.977 144.458 230.89L143.468 230.58C142.968 230.427 142.582 230.17 142.308 229.81C142.042 229.45 141.908 229.027 141.908 228.54C141.908 228.147 141.995 227.807 142.168 227.52C142.348 227.227 142.598 227 142.918 226.84C143.238 226.673 143.615 226.59 144.048 226.59C144.688 226.59 145.202 226.77 145.588 227.13C145.975 227.483 146.172 227.957 146.178 228.55H145.278C145.278 228.19 145.168 227.91 144.948 227.71C144.735 227.503 144.432 227.4 144.038 227.4C143.652 227.4 143.348 227.493 143.128 227.68C142.915 227.867 142.808 228.127 142.808 228.46C142.808 228.76 142.888 229.02 143.048 229.24C143.208 229.46 143.438 229.617 143.738 229.71L144.738 230.03C145.225 230.183 145.602 230.443 145.868 230.81C146.135 231.177 146.268 231.607 146.268 232.1C146.268 232.5 146.175 232.85 145.988 233.15C145.802 233.45 145.538 233.683 145.198 233.85C144.865 234.017 144.475 234.1 144.028 234.1Z" fill="#5EEBF0"/>
<path d="M1223.92 234V226.7H1224.82V229.83H1225.9L1227.52 226.7H1228.5L1226.69 230.21L1228.6 234H1227.57L1225.87 230.62H1224.82V234H1223.92ZM1229.76 234V226.7H1230.94L1231.7 229.06C1231.77 229.273 1231.84 229.487 1231.9 229.7C1231.96 229.907 1232 230.067 1232.03 230.18C1232.06 230.067 1232.1 229.907 1232.16 229.7C1232.21 229.487 1232.27 229.27 1232.34 229.05L1233.06 226.7H1234.24V234H1233.36V231.35C1233.36 231.057 1233.37 230.723 1233.39 230.35C1233.41 229.977 1233.43 229.597 1233.47 229.21C1233.5 228.817 1233.53 228.443 1233.57 228.09C1233.61 227.73 1233.64 227.417 1233.67 227.15L1232.49 230.8H1231.54L1230.35 227.15C1230.38 227.41 1230.41 227.713 1230.45 228.06C1230.48 228.4 1230.51 228.763 1230.54 229.15C1230.56 229.53 1230.59 229.91 1230.61 230.29C1230.63 230.67 1230.64 231.023 1230.64 231.35V234H1229.76ZM1235.74 235.1L1239.29 225.7H1240.24L1236.69 235.1H1235.74ZM1244.03 234.1C1243.55 234.1 1243.13 234.02 1242.79 233.86C1242.45 233.7 1242.18 233.47 1242 233.17C1241.81 232.87 1241.71 232.513 1241.71 232.1H1242.61C1242.61 232.467 1242.73 232.757 1242.98 232.97C1243.23 233.183 1243.58 233.29 1244.03 233.29C1244.45 233.29 1244.77 233.187 1245.01 232.98C1245.25 232.773 1245.37 232.487 1245.37 232.12C1245.37 231.827 1245.29 231.57 1245.13 231.35C1244.97 231.13 1244.75 230.977 1244.46 230.89L1243.47 230.58C1242.97 230.427 1242.58 230.17 1242.31 229.81C1242.04 229.45 1241.91 229.027 1241.91 228.54C1241.91 228.147 1241.99 227.807 1242.17 227.52C1242.35 227.227 1242.6 227 1242.92 226.84C1243.24 226.673 1243.61 226.59 1244.05 226.59C1244.69 226.59 1245.2 226.77 1245.59 227.13C1245.97 227.483 1246.17 227.957 1246.18 228.55H1245.28C1245.28 228.19 1245.17 227.91 1244.95 227.71C1244.73 227.503 1244.43 227.4 1244.04 227.4C1243.65 227.4 1243.35 227.493 1243.13 227.68C1242.91 227.867 1242.81 228.127 1242.81 228.46C1242.81 228.76 1242.89 229.02 1243.05 229.24C1243.21 229.46 1243.44 229.617 1243.74 229.71L1244.74 230.03C1245.22 230.183 1245.6 230.443 1245.87 230.81C1246.13 231.177 1246.27 231.607 1246.27 232.1C1246.27 232.5 1246.17 232.85 1245.99 233.15C1245.8 233.45 1245.54 233.683 1245.2 233.85C1244.86 234.017 1244.47 234.1 1244.03 234.1Z" fill="#5EEBF0"/>
<path d="M63.55 394V387.51H61.55V386.69H66.45V387.51H64.45V394H63.55ZM67.9261 394V386.7H68.8261V389.82H71.1661V386.7H72.0661V394H71.1661V390.64H68.8261V394H67.9261ZM73.9122 394V386.7H76.1722C76.6055 386.7 76.9855 386.79 77.3122 386.97C77.6389 387.143 77.8922 387.387 78.0722 387.7C78.2522 388.013 78.3422 388.38 78.3422 388.8C78.3422 389.293 78.2122 389.717 77.9522 390.07C77.6989 390.423 77.3522 390.667 76.9122 390.8L78.4422 394H77.3822L75.9822 390.9H74.8122V394H73.9122ZM74.8122 390.09H76.1722C76.5455 390.09 76.8455 389.973 77.0722 389.74C77.2989 389.5 77.4122 389.187 77.4122 388.8C77.4122 388.407 77.2989 388.093 77.0722 387.86C76.8455 387.627 76.5455 387.51 76.1722 387.51H74.8122V390.09ZM87.8744 394.1C87.4344 394.1 87.0477 394.013 86.7144 393.84C86.3877 393.66 86.1344 393.413 85.9544 393.1C85.7744 392.787 85.6844 392.42 85.6844 392H86.5844C86.5844 392.407 86.6977 392.727 86.9244 392.96C87.1577 393.187 87.4777 393.3 87.8844 393.3C88.2977 393.3 88.6177 393.18 88.8444 392.94C89.071 392.7 89.1844 392.387 89.1844 392V391.48C89.1844 391.067 89.071 390.747 88.8444 390.52C88.6177 390.293 88.2977 390.18 87.8844 390.18H87.1344V389.28L88.9444 387.52H85.9844V386.7H89.8544V387.6L87.9044 389.49V389.38C88.571 389.38 89.101 389.57 89.4944 389.95C89.8877 390.33 90.0844 390.84 90.0844 391.48V392C90.0844 392.42 89.991 392.787 89.8044 393.1C89.6244 393.413 89.3677 393.66 89.0344 393.84C88.701 394.013 88.3144 394.1 87.8744 394.1ZM93.9805 394.1C93.5338 394.1 93.1438 394.013 92.8105 393.84C92.4838 393.66 92.2305 393.41 92.0505 393.09C91.8705 392.763 91.7805 392.383 91.7805 391.95V388.75C91.7805 388.31 91.8705 387.93 92.0505 387.61C92.2305 387.29 92.4838 387.043 92.8105 386.87C93.1438 386.69 93.5338 386.6 93.9805 386.6C94.4338 386.6 94.8238 386.69 95.1505 386.87C95.4771 387.043 95.7305 387.29 95.9105 387.61C96.0905 387.93 96.1805 388.31 96.1805 388.75V391.95C96.1805 392.383 96.0905 392.763 95.9105 393.09C95.7305 393.41 95.4738 393.66 95.1405 393.84C94.8138 394.013 94.4271 394.1 93.9805 394.1ZM93.9805 393.33C94.3805 393.33 94.7005 393.203 94.9405 392.95C95.1871 392.69 95.3105 392.357 95.3105 391.95V388.75C95.3105 388.343 95.1871 388.013 94.9405 387.76C94.7005 387.5 94.3805 387.37 93.9805 387.37C93.5805 387.37 93.2571 387.5 93.0105 387.76C92.7705 388.013 92.6505 388.343 92.6505 388.75V391.95C92.6505 392.357 92.7705 392.69 93.0105 392.95C93.2571 393.203 93.5805 393.33 93.9805 393.33ZM93.9805 390.94C93.8005 390.94 93.6538 390.883 93.5405 390.77C93.4338 390.657 93.3805 390.507 93.3805 390.32C93.3805 390.14 93.4338 389.997 93.5405 389.89C93.6538 389.777 93.8005 389.72 93.9805 389.72C94.1605 389.72 94.3038 389.777 94.4105 389.89C94.5238 389.997 94.5805 390.14 94.5805 390.32C94.5805 390.507 94.5238 390.657 94.4105 390.77C94.3038 390.883 94.1605 390.94 93.9805 390.94ZM99.9766 394.1C99.7232 394.1 99.5199 394.027 99.3666 393.88C99.2199 393.733 99.1466 393.537 99.1466 393.29C99.1466 393.03 99.2199 392.823 99.3666 392.67C99.5199 392.517 99.7232 392.44 99.9766 392.44C100.23 392.44 100.43 392.517 100.577 392.67C100.73 392.823 100.807 393.03 100.807 393.29C100.807 393.537 100.73 393.733 100.577 393.88C100.43 394.027 100.23 394.1 99.9766 394.1ZM107.073 394V392.4H103.773V390.99L106.663 386.7H107.643L104.673 391.18V391.58H107.073V389.8H107.973V394H107.073Z" fill="#5EEBF0"/>
<path d="M1245.04 394.1C1244.6 394.1 1244.22 394.017 1243.89 393.85C1243.57 393.683 1243.32 393.443 1243.14 393.13C1242.97 392.81 1242.88 392.433 1242.88 392V388.7C1242.88 388.26 1242.97 387.883 1243.14 387.57C1243.32 387.257 1243.57 387.017 1243.89 386.85C1244.22 386.683 1244.6 386.6 1245.04 386.6C1245.48 386.6 1245.86 386.687 1246.18 386.86C1246.5 387.027 1246.75 387.267 1246.92 387.58C1247.09 387.893 1247.18 388.267 1247.18 388.7H1246.28C1246.28 388.287 1246.17 387.97 1245.95 387.75C1245.74 387.523 1245.43 387.41 1245.04 387.41C1244.65 387.41 1244.34 387.52 1244.11 387.74C1243.89 387.96 1243.78 388.277 1243.78 388.69V392C1243.78 392.413 1243.89 392.733 1244.11 392.96C1244.34 393.18 1244.65 393.29 1245.04 393.29C1245.43 393.29 1245.74 393.18 1245.95 392.96C1246.17 392.733 1246.28 392.413 1246.28 392H1247.18C1247.18 392.427 1247.09 392.8 1246.92 393.12C1246.75 393.433 1246.5 393.677 1246.18 393.85C1245.86 394.017 1245.48 394.1 1245.04 394.1ZM1248.93 394V386.7H1249.83V389.82H1252.17V386.7H1253.07V394H1252.17V390.64H1249.83V394H1248.93ZM1254.94 394V386.69H1259.24V387.51H1255.82V389.94H1258.98V390.76H1255.84V394H1254.94ZM1266.88 394V393.18H1268.86V387.45L1266.88 388.93V387.93L1268.53 386.7H1269.76V393.18H1271.38V394H1266.88ZM1272.9 394V393.08L1275.13 390.71C1275.51 390.303 1275.79 389.943 1275.96 389.63C1276.13 389.31 1276.22 389.003 1276.22 388.71C1276.22 388.303 1276.11 387.983 1275.88 387.75C1275.66 387.517 1275.36 387.4 1274.97 387.4C1274.54 387.4 1274.21 387.52 1273.96 387.76C1273.72 388 1273.6 388.33 1273.6 388.75H1272.7C1272.71 388.31 1272.81 387.93 1273 387.61C1273.19 387.283 1273.46 387.033 1273.79 386.86C1274.13 386.687 1274.52 386.6 1274.97 386.6C1275.41 386.6 1275.79 386.687 1276.11 386.86C1276.44 387.027 1276.69 387.267 1276.86 387.58C1277.03 387.893 1277.12 388.267 1277.12 388.7C1277.12 389.113 1277.01 389.523 1276.79 389.93C1276.57 390.337 1276.21 390.8 1275.71 391.32L1273.91 393.18H1277.24V394H1272.9Z" fill="#5EEBF0"/>
<path d="M3.01 168.1C2.54333 168.1 2.13333 168.003 1.78 167.81C1.43333 167.61 1.16333 167.333 0.97 166.98C0.776667 166.627 0.68 166.217 0.68 165.75C0.68 165.383 0.73 165.023 0.83 164.67C0.936667 164.317 1.09333 163.977 1.3 163.65L3.13 160.7H4.13L2.06 164.02L2.1 164.05C2.22667 163.863 2.4 163.72 2.62 163.62C2.84 163.52 3.08667 163.47 3.36 163.47C3.76 163.47 4.10667 163.563 4.4 163.75C4.69333 163.937 4.92 164.2 5.08 164.54C5.24 164.88 5.32 165.283 5.32 165.75C5.32 166.217 5.22333 166.627 5.03 166.98C4.83667 167.333 4.56667 167.61 4.22 167.81C3.88 168.003 3.47667 168.1 3.01 168.1ZM3 167.3C3.42667 167.3 3.77 167.16 4.03 166.88C4.29 166.593 4.42 166.217 4.42 165.75C4.42 165.283 4.29 164.91 4.03 164.63C3.77 164.343 3.42667 164.2 3 164.2C2.57333 164.2 2.23 164.343 1.97 164.63C1.71 164.91 1.58 165.283 1.58 165.75C1.58 166.217 1.71 166.593 1.97 166.88C2.23 167.16 2.57333 167.3 3 167.3ZM7.84609 168L10.4561 161.52H7.69609V162.6H6.79609V160.7H11.3461V161.58L8.81609 168H7.84609ZM14.5522 167.05V165.1H12.6422V164.3H14.5522V162.35H15.4322V164.3H17.3422V165.1H15.4322V167.05H14.5522Z" fill="#5EEBF0"/>
<path d="M1.85 297L4.46 290.52H1.7V291.6H0.8V289.7H5.35V290.58L2.82 297H1.85ZM8.97609 297.1C8.38276 297.1 7.89609 296.947 7.51609 296.64C7.13609 296.333 6.91276 295.92 6.84609 295.4H7.74609C7.77943 295.687 7.90276 295.91 8.11609 296.07C8.32943 296.223 8.61943 296.3 8.98609 296.3C9.40609 296.3 9.71943 296.187 9.92609 295.96C10.1394 295.733 10.2461 295.413 10.2461 295V294.29C10.2461 293.877 10.1394 293.557 9.92609 293.33C9.71943 293.103 9.40943 292.99 8.99609 292.99C8.73609 292.99 8.50943 293.06 8.31609 293.2C8.12276 293.333 7.98276 293.513 7.89609 293.74H6.99609L7.04609 289.7H10.8861V290.52H7.91609L7.88609 292.95H8.16609L7.88609 293.21C7.88609 292.897 8.00943 292.65 8.25609 292.47C8.50943 292.29 8.84609 292.2 9.26609 292.2C9.85943 292.193 10.3194 292.377 10.6461 292.75C10.9794 293.117 11.1461 293.63 11.1461 294.29V295C11.1461 295.647 10.9561 296.16 10.5761 296.54C10.1961 296.913 9.66276 297.1 8.97609 297.1ZM14.5522 296.05V294.1H12.6422V293.3H14.5522V291.35H15.4322V293.3H17.3422V294.1H15.4322V296.05H14.5522Z" fill="#5EEBF0"/>
<path d="M1033.92 10V2.7H1035.81C1036.28 2.7 1036.69 2.79 1037.03 2.97C1037.38 3.15 1037.64 3.40333 1037.83 3.73C1038.02 4.05667 1038.12 4.44333 1038.12 4.89V7.8C1038.12 8.24667 1038.02 8.63667 1037.83 8.97C1037.64 9.29667 1037.38 9.55 1037.03 9.73C1036.69 9.91 1036.28 10 1035.81 10H1033.92ZM1034.82 9.2H1035.81C1036.25 9.2 1036.59 9.07667 1036.84 8.83C1037.09 8.58333 1037.22 8.24 1037.22 7.8V4.89C1037.22 4.45667 1037.09 4.11667 1036.84 3.87C1036.59 3.62333 1036.25 3.5 1035.81 3.5H1034.82V9.2ZM1040 10V2.7H1044.2V3.52H1040.89V5.78H1043.85V6.59H1040.89V9.18H1044.2V10H1040ZM1048.03 10.1C1047.59 10.1 1047.21 10.0167 1046.88 9.85C1046.56 9.68333 1046.31 9.44333 1046.13 9.13C1045.96 8.81 1045.87 8.43333 1045.87 8V4.7C1045.87 4.26 1045.96 3.88333 1046.13 3.57C1046.31 3.25667 1046.56 3.01667 1046.88 2.85C1047.21 2.68333 1047.59 2.6 1048.03 2.6C1048.47 2.6 1048.85 2.68667 1049.17 2.86C1049.49 3.02667 1049.74 3.26667 1049.91 3.58C1050.09 3.89333 1050.17 4.26667 1050.17 4.7H1049.27C1049.27 4.28667 1049.16 3.97 1048.94 3.75C1048.73 3.52333 1048.43 3.41 1048.03 3.41C1047.64 3.41 1047.33 3.52 1047.1 3.74C1046.88 3.96 1046.77 4.27667 1046.77 4.69V8C1046.77 8.41333 1046.88 8.73333 1047.1 8.96C1047.33 9.18 1047.64 9.29 1048.03 9.29C1048.43 9.29 1048.73 9.18 1048.94 8.96C1049.16 8.73333 1049.27 8.41333 1049.27 8H1050.17C1050.17 8.42667 1050.09 8.8 1049.91 9.12C1049.74 9.43333 1049.49 9.67667 1049.17 9.85C1048.85 10.0167 1048.47 10.1 1048.03 10.1ZM1051.91 10V2.7H1054.26C1054.71 2.7 1055.1 2.79 1055.44 2.97C1055.77 3.14333 1056.03 3.39 1056.21 3.71C1056.39 4.03 1056.49 4.41 1056.49 4.85C1056.49 5.28333 1056.39 5.66333 1056.21 5.99C1056.03 6.31 1055.77 6.56 1055.44 6.74C1055.1 6.91333 1054.71 7 1054.26 7H1052.81V10H1051.91ZM1052.81 6.19H1054.26C1054.65 6.19 1054.96 6.07 1055.2 5.83C1055.44 5.58333 1055.56 5.25667 1055.56 4.85C1055.56 4.43667 1055.44 4.11 1055.2 3.87C1054.96 3.63 1054.65 3.51 1054.26 3.51H1052.81V6.19ZM1058.13 10V2.7H1059.03V9.18H1062.33V10H1058.13Z" fill="#5EEBF0"/>
<path d="M1113.04 10.1C1112.6 10.1 1112.22 10.0167 1111.89 9.85C1111.57 9.68333 1111.32 9.44333 1111.14 9.13C1110.97 8.81 1110.88 8.43333 1110.88 8V4.7C1110.88 4.26 1110.97 3.88333 1111.14 3.57C1111.32 3.25667 1111.57 3.01667 1111.89 2.85C1112.22 2.68333 1112.6 2.6 1113.04 2.6C1113.48 2.6 1113.86 2.68667 1114.18 2.86C1114.5 3.02667 1114.75 3.26667 1114.92 3.58C1115.09 3.89333 1115.18 4.26667 1115.18 4.7H1114.28C1114.28 4.28667 1114.17 3.97 1113.95 3.75C1113.74 3.52333 1113.43 3.41 1113.04 3.41C1112.65 3.41 1112.34 3.52 1112.11 3.74C1111.89 3.96 1111.78 4.27667 1111.78 4.69V8C1111.78 8.41333 1111.89 8.73333 1112.11 8.96C1112.34 9.18667 1112.65 9.3 1113.04 9.3C1113.43 9.3 1113.74 9.18667 1113.95 8.96C1114.17 8.73333 1114.28 8.41333 1114.28 8V7.1H1112.8V6.28H1115.18V8C1115.18 8.42667 1115.09 8.8 1114.92 9.12C1114.75 9.43333 1114.5 9.67667 1114.18 9.85C1113.86 10.0167 1113.48 10.1 1113.04 10.1ZM1119.04 10.1C1118.56 10.1 1118.14 10.02 1117.8 9.86C1117.46 9.7 1117.19 9.47 1117.01 9.17C1116.82 8.87 1116.72 8.51333 1116.72 8.1H1117.62C1117.62 8.46667 1117.74 8.75667 1117.99 8.97C1118.24 9.18333 1118.59 9.29 1119.04 9.29C1119.46 9.29 1119.78 9.18667 1120.02 8.98C1120.26 8.77333 1120.38 8.48667 1120.38 8.12C1120.38 7.82667 1120.3 7.57 1120.14 7.35C1119.98 7.13 1119.76 6.97667 1119.47 6.89L1118.48 6.58C1117.98 6.42667 1117.59 6.17 1117.32 5.81C1117.05 5.45 1116.92 5.02667 1116.92 4.54C1116.92 4.14667 1117 3.80667 1117.18 3.52C1117.36 3.22667 1117.61 3 1117.93 2.84C1118.25 2.67333 1118.62 2.59 1119.06 2.59C1119.7 2.59 1120.21 2.77 1120.6 3.13C1120.98 3.48333 1121.18 3.95667 1121.19 4.55H1120.29C1120.29 4.19 1120.18 3.91 1119.96 3.71C1119.74 3.50333 1119.44 3.4 1119.05 3.4C1118.66 3.4 1118.36 3.49333 1118.14 3.68C1117.92 3.86667 1117.82 4.12667 1117.82 4.46C1117.82 4.76 1117.9 5.02 1118.06 5.24C1118.22 5.46 1118.45 5.61667 1118.75 5.71L1119.75 6.03C1120.23 6.18333 1120.61 6.44333 1120.88 6.81C1121.14 7.17667 1121.28 7.60667 1121.28 8.1C1121.28 8.5 1121.18 8.85 1121 9.15C1120.81 9.45 1120.55 9.68333 1120.21 9.85C1119.87 10.0167 1119.48 10.1 1119.04 10.1ZM1122.94 10V2.69H1127.24V3.51H1123.82V5.94H1126.98V6.76H1123.84V10H1122.94ZM1131.03 10.1C1130.59 10.1 1130.2 10.0167 1129.88 9.85C1129.56 9.68333 1129.31 9.44333 1129.13 9.13C1128.95 8.81 1128.87 8.43333 1128.87 8V4.7C1128.87 4.26 1128.95 3.88333 1129.13 3.57C1129.31 3.25667 1129.56 3.01667 1129.88 2.85C1130.2 2.68333 1130.59 2.6 1131.03 2.6C1131.47 2.6 1131.85 2.68667 1132.17 2.86C1132.49 3.02667 1132.73 3.26667 1132.91 3.58C1133.08 3.89333 1133.17 4.26667 1133.17 4.7H1132.27C1132.27 4.28667 1132.16 3.97 1131.94 3.75C1131.72 3.52333 1131.42 3.41 1131.03 3.41C1130.63 3.41 1130.32 3.52 1130.1 3.74C1129.88 3.96 1129.77 4.27667 1129.77 4.69V8C1129.77 8.41333 1129.88 8.73333 1130.1 8.96C1130.32 9.18 1130.63 9.29 1131.03 9.29C1131.42 9.29 1131.72 9.18 1131.94 8.96C1132.16 8.73333 1132.27 8.41333 1132.27 8H1133.17C1133.17 8.42667 1133.08 8.8 1132.91 9.12C1132.73 9.43333 1132.49 9.67667 1132.17 9.85C1131.85 10.0167 1131.47 10.1 1131.03 10.1Z" fill="#5EEBF0"/>
<path d="M1180.04 10.1C1179.6 10.1 1179.22 10.0167 1178.89 9.85C1178.57 9.68333 1178.32 9.44333 1178.14 9.13C1177.97 8.81 1177.88 8.43333 1177.88 8V4.7C1177.88 4.26 1177.97 3.88333 1178.14 3.57C1178.32 3.25667 1178.57 3.01667 1178.89 2.85C1179.22 2.68333 1179.6 2.6 1180.04 2.6C1180.48 2.6 1180.86 2.68667 1181.18 2.86C1181.5 3.02667 1181.75 3.26667 1181.92 3.58C1182.09 3.89333 1182.18 4.26667 1182.18 4.7H1181.28C1181.28 4.28667 1181.17 3.97 1180.95 3.75C1180.74 3.52333 1180.43 3.41 1180.04 3.41C1179.65 3.41 1179.34 3.52 1179.11 3.74C1178.89 3.96 1178.78 4.27667 1178.78 4.69V8C1178.78 8.41333 1178.89 8.73333 1179.11 8.96C1179.34 9.18 1179.65 9.29 1180.04 9.29C1180.43 9.29 1180.74 9.18 1180.95 8.96C1181.17 8.73333 1181.28 8.41333 1181.28 8H1182.18C1182.18 8.42667 1182.09 8.8 1181.92 9.12C1181.75 9.43333 1181.5 9.67667 1181.18 9.85C1180.86 10.0167 1180.48 10.1 1180.04 10.1ZM1186.04 10.1C1185.56 10.1 1185.14 10.02 1184.8 9.86C1184.46 9.7 1184.19 9.47 1184.01 9.17C1183.82 8.87 1183.72 8.51333 1183.72 8.1H1184.62C1184.62 8.46667 1184.74 8.75667 1184.99 8.97C1185.24 9.18333 1185.59 9.29 1186.04 9.29C1186.46 9.29 1186.78 9.18667 1187.02 8.98C1187.26 8.77333 1187.38 8.48667 1187.38 8.12C1187.38 7.82667 1187.3 7.57 1187.14 7.35C1186.98 7.13 1186.76 6.97667 1186.47 6.89L1185.48 6.58C1184.98 6.42667 1184.59 6.17 1184.32 5.81C1184.05 5.45 1183.92 5.02667 1183.92 4.54C1183.92 4.14667 1184 3.80667 1184.18 3.52C1184.36 3.22667 1184.61 3 1184.93 2.84C1185.25 2.67333 1185.62 2.59 1186.06 2.59C1186.7 2.59 1187.21 2.77 1187.6 3.13C1187.98 3.48333 1188.18 3.95667 1188.19 4.55H1187.29C1187.29 4.19 1187.18 3.91 1186.96 3.71C1186.74 3.50333 1186.44 3.4 1186.05 3.4C1185.66 3.4 1185.36 3.49333 1185.14 3.68C1184.92 3.86667 1184.82 4.12667 1184.82 4.46C1184.82 4.76 1184.9 5.02 1185.06 5.24C1185.22 5.46 1185.45 5.61667 1185.75 5.71L1186.75 6.03C1187.23 6.18333 1187.61 6.44333 1187.88 6.81C1188.14 7.17667 1188.28 7.60667 1188.28 8.1C1188.28 8.5 1188.18 8.85 1188 9.15C1187.81 9.45 1187.55 9.68333 1187.21 9.85C1186.87 10.0167 1186.48 10.1 1186.04 10.1ZM1191.54 10V3.51H1189.54V2.69H1194.44V3.51H1192.44V10H1191.54ZM1195.91 10V2.7H1197.8C1198.27 2.7 1198.68 2.79 1199.02 2.97C1199.36 3.15 1199.63 3.40333 1199.82 3.73C1200.01 4.05667 1200.11 4.44333 1200.11 4.89V7.8C1200.11 8.24667 1200.01 8.63667 1199.82 8.97C1199.63 9.29667 1199.36 9.55 1199.02 9.73C1198.68 9.91 1198.27 10 1197.8 10H1195.91ZM1196.81 9.2H1197.8C1198.24 9.2 1198.58 9.07667 1198.83 8.83C1199.08 8.58333 1199.21 8.24 1199.21 7.8V4.89C1199.21 4.45667 1199.08 4.11667 1198.83 3.87C1198.58 3.62333 1198.24 3.5 1197.8 3.5H1196.81V9.2Z" fill="#5EEBF0"/>
</svg>
