<svg width="26" height="26" viewBox="0 0 26 26" fill="none" xmlns="http://www.w3.org/2000/svg">
<g clip-path="url(#clip0_108_66)">
<path d="M20.2738 0H5.72619C2.5637 0 0 2.56371 0 5.72619V20.2738C0 23.4363 2.5637 26 5.72619 26H20.2738C23.4363 26 26 23.4363 26 20.2738V5.72619C26 2.56371 23.4363 0 20.2738 0Z" fill="url(#paint0_linear_108_66)"/>
<path d="M13 4.50085C10.469 4.50087 8.04173 5.33832 6.25207 6.82898C4.46241 8.31965 3.45699 10.3414 3.45697 12.4495C3.45928 13.8208 3.88742 15.1682 4.69979 16.3608C5.51216 17.5535 6.68113 18.5508 8.0931 19.2559C7.71704 20.0977 7.15303 20.8872 6.42442 21.5916C7.83736 21.3436 9.16371 20.8225 10.3003 20.069C11.1766 20.2859 12.0858 20.3968 13 20.3982C15.5309 20.3982 17.9582 19.5608 19.7479 18.0701C21.5376 16.5794 22.543 14.5577 22.543 12.4495C22.543 10.3414 21.5376 8.31965 19.7479 6.82898C17.9582 5.33832 15.5309 4.50087 13 4.50085Z" fill="white"/>
</g>
<defs>
<linearGradient id="paint0_linear_108_66" x1="13.2063" y1="24.2741" x2="13.2063" y2="3.22672" gradientUnits="userSpaceOnUse">
<stop stop-color="#0CBD2A"/>
<stop offset="1" stop-color="#5BF675"/>
</linearGradient>
<clipPath id="clip0_108_66">
<rect width="26" height="26" fill="white"/>
</clipPath>
</defs>
</svg>
