<svg width="29" height="26" viewBox="0 0 29 26" fill="none" xmlns="http://www.w3.org/2000/svg">
<path d="M28.5111 20.8684L17.4474 1.71039C17.1471 1.19036 16.7152 0.758527 16.1952 0.458294C15.6751 0.15806 15.0852 0 14.4847 0C13.8842 0 13.2943 0.15806 12.7743 0.458294C12.2542 0.758527 11.8224 1.19036 11.5221 1.71039L0.458337 20.8684C0.157963 21.3887 -0.00011614 21.9788 6.40202e-08 22.5796C0.000116268 23.1803 0.158424 23.7705 0.458999 24.2906C0.759575 24.8108 1.19182 25.2426 1.71226 25.5427C2.2327 25.8427 2.82297 26.0005 3.42372 26H25.5457C26.1463 26 26.7362 25.8419 27.2562 25.5416C27.7763 25.2414 28.2082 24.8095 28.5084 24.2894C28.8087 23.7694 28.9667 23.1794 28.9667 22.5789C28.9667 21.9784 28.8086 21.3885 28.5084 20.8684H28.5111Z" fill="url(#paint0_linear_108_150)"/>
<path d="M14.4847 17.7894C14.8432 17.7911 15.1894 17.6586 15.4553 17.4181C15.7211 17.1775 15.8874 16.8463 15.9216 16.4894L16.729 8.41569C16.7577 8.12997 16.7261 7.8414 16.6363 7.56864C16.5466 7.29588 16.4005 7.04499 16.2077 6.83219C16.0149 6.61939 15.7796 6.44941 15.517 6.33324C15.2544 6.21707 14.9703 6.1573 14.6832 6.15778H14.2863C13.9994 6.15778 13.7158 6.2179 13.4536 6.33428C13.1914 6.45066 12.9565 6.62071 12.764 6.83346C12.5716 7.04621 12.4259 7.29693 12.3363 7.56945C12.2467 7.84198 12.2152 8.13025 12.2439 8.41569L13.0513 16.4894C13.0854 16.8457 13.2512 17.1765 13.5164 17.4169C13.7815 17.6574 14.1268 17.7902 14.4847 17.7894Z" fill="url(#paint1_linear_108_150)"/>
<path d="M14.4848 23.2631C15.8074 23.2631 16.8796 22.191 16.8796 20.8684C16.8796 19.5458 15.8074 18.4736 14.4848 18.4736C13.1623 18.4736 12.0901 19.5458 12.0901 20.8684C12.0901 22.191 13.1623 23.2631 14.4848 23.2631Z" fill="url(#paint2_linear_108_150)"/>
<defs>
<linearGradient id="paint0_linear_108_150" x1="6.36584" y1="11.1772" x2="26.8191" y2="25.5819" gradientUnits="userSpaceOnUse">
<stop stop-color="#FED200"/>
<stop offset="1" stop-color="#F59815"/>
</linearGradient>
<linearGradient id="paint1_linear_108_150" x1="11.9655" y1="7.92853" x2="16.9137" y2="15.1313" gradientUnits="userSpaceOnUse">
<stop stop-color="#3E4154"/>
<stop offset="1" stop-color="#1B2129"/>
</linearGradient>
<linearGradient id="paint2_linear_108_150" x1="12.9652" y1="19.3487" x2="15.9053" y2="22.2888" gradientUnits="userSpaceOnUse">
<stop stop-color="#3E4154"/>
<stop offset="1" stop-color="#1B2129"/>
</linearGradient>
</defs>
</svg>
